<?xml version="1.0" encoding="utf-8"?>
<svg version="1.1"
xmlns="http://www.w3.org/2000/svg"
xmlns:xlink="http://www.w3.org/1999/xlink" 
width="29.7cm" height="21cm"
viewBox="0 0 842 595">
<g xml:space="preserve" stroke-linecap="round" stroke-linejoin="round" stroke-miterlimit="10">
<path stroke-width="    0.5669" stroke="#000000" fill="none" d=" 
M   595.2756   502.8740
"/>
<rect x="  595.0318" y="  495.7874" height="    0.4801" width="    0.4801" fill="#CECECE"/>
<rect x="  595.5042" y="  495.7874" height="    0.4801" width="    0.4801" fill="#BDBDBD"/>
<rect x="  595.9766" y="  495.7874" height="    0.4801" width="    0.4801" fill="#B5B5B5"/>
<rect x="  596.4491" y="  495.7874" height="    0.4801" width="    0.4801" fill="#9C9C9C"/>
<rect x="  596.9215" y="  495.7874" height="    0.4801" width="    0.4801" fill="#8C8C8C"/>
<rect x="  597.3940" y="  495.7874" height="    0.4801" width="    0.4801" fill="#EFEFEF"/>
<rect x="  594.5593" y="  496.2446" height="    0.4801" width="    0.4801" fill="#E7E7E7"/>
<rect x="  595.0318" y="  496.2446" height="    0.4801" width="    0.4801" fill="#C6C6C6"/>
<rect x="  595.5042" y="  496.2446" height="    0.4801" width="    0.4801" fill="#BDBDBD"/>
<rect x="  595.9766" y="  496.2446" height="    0.4801" width="    0.4801" fill="#ADADAD"/>
<rect x="  596.4491" y="  496.2446" height="    0.4801" width="    0.4801" fill="#949494"/>
<rect x="  596.9215" y="  496.2446" height="    0.4801" width="    0.4801" fill="#7B7B7B"/>
<rect x="  597.3940" y="  496.2446" height="    0.4801" width="    0.4801" fill="#EFEFEF"/>
<rect x="  594.5593" y="  496.7018" height="    0.4801" width="    0.4801" fill="#D6D6D6"/>
<rect x="  595.0318" y="  496.7018" height="    0.4801" width="    0.4801" fill="#C6C6C6"/>
<rect x="  595.5042" y="  496.7018" height="    0.4801" width="    0.4801" fill="#B5B5B5"/>
<rect x="  595.9766" y="  496.7018" height="    0.4801" width="    0.4801" fill="#A5A5A5"/>
<rect x="  596.4491" y="  496.7018" height="    0.4801" width="    0.4801" fill="#8C8C8C"/>
<rect x="  596.9215" y="  496.7018" height="    0.4801" width="    0.4801" fill="#6B6B6B"/>
<rect x="  597.3940" y="  496.7018" height="    0.4801" width="    0.4801" fill="#EFEFEF"/>
<rect x="  594.0869" y="  497.1590" height="    0.4801" width="    0.4801" fill="#EFEFEF"/>
<rect x="  594.5593" y="  497.1590" height="    0.4801" width="    0.4801" fill="#CECECE"/>
<rect x="  595.0318" y="  497.1590" height="    0.4801" width="    0.4801" fill="#C6C6C6"/>
<rect x="  595.5042" y="  497.1590" height="    0.4801" width="    0.4801" fill="#B5B5B5"/>
<rect x="  595.9766" y="  497.1590" height="    0.4801" width="    0.4801" fill="#9C9C9C"/>
<rect x="  596.4491" y="  497.1590" height="    0.4801" width="    0.4801" fill="#737373"/>
<rect x="  596.9215" y="  497.1590" height="    0.4801" width="    0.4801" fill="#737373"/>
<rect x="  597.3940" y="  497.1590" height="    0.4801" width="    0.4801" fill="#EFEFEF"/>
<rect x="  592.6695" y="  497.6162" height="    0.4801" width="    0.4801" fill="#F7F7F7"/>
<rect x="  593.1420" y="  497.6162" height="    0.4801" width="    0.4801" fill="#F7F7F7"/>
<rect x="  593.6144" y="  497.6162" height="    0.4801" width="    0.4801" fill="#F7F7F7"/>
<rect x="  594.0869" y="  497.6162" height="    0.4801" width="    0.4801" fill="#DEDEDE"/>
<rect x="  594.5593" y="  497.6162" height="    0.4801" width="    0.4801" fill="#CECECE"/>
<rect x="  595.0318" y="  497.6162" height="    0.4801" width="    0.4801" fill="#BDBDBD"/>
<rect x="  595.5042" y="  497.6162" height="    0.4801" width="    0.4801" fill="#ADADAD"/>
<rect x="  595.9766" y="  497.6162" height="    0.4801" width="    0.4801" fill="#8C8C8C"/>
<rect x="  596.4491" y="  497.6162" height="    0.4801" width="    0.4801" fill="#6B6B6B"/>
<rect x="  596.9215" y="  497.6162" height="    0.4801" width="    0.4801" fill="#848484"/>
<rect x="  597.3940" y="  497.6162" height="    0.4801" width="    0.4801" fill="#F7F7F7"/>
<rect x="  592.6695" y="  498.0734" height="    0.4801" width="    0.4801" fill="#F7F7F7"/>
<rect x="  593.1420" y="  498.0734" height="    0.4801" width="    0.4801" fill="#E7E7E7"/>
<rect x="  593.6144" y="  498.0734" height="    0.4801" width="    0.4801" fill="#E7E7E7"/>
<rect x="  594.0869" y="  498.0734" height="    0.4801" width="    0.4801" fill="#D6D6D6"/>
<rect x="  594.5593" y="  498.0734" height="    0.4801" width="    0.4801" fill="#C6C6C6"/>
<rect x="  595.0318" y="  498.0734" height="    0.4801" width="    0.4801" fill="#BDBDBD"/>
<rect x="  595.5042" y="  498.0734" height="    0.4801" width="    0.4801" fill="#9C9C9C"/>
<rect x="  595.9766" y="  498.0734" height="    0.4801" width="    0.4801" fill="#737373"/>
<rect x="  596.4491" y="  498.0734" height="    0.4801" width="    0.4801" fill="#737373"/>
<rect x="  596.9215" y="  498.0734" height="    0.4801" width="    0.4801" fill="#949494"/>
<rect x="  597.3940" y="  498.0734" height="    0.4801" width="    0.4801" fill="#F7F7F7"/>
<rect x="  592.6695" y="  498.5306" height="    0.4801" width="    0.4801" fill="#F7F7F7"/>
<rect x="  593.1420" y="  498.5306" height="    0.4801" width="    0.4801" fill="#E7E7E7"/>
<rect x="  593.6144" y="  498.5306" height="    0.4801" width="    0.4801" fill="#DEDEDE"/>
<rect x="  594.0869" y="  498.5306" height="    0.4801" width="    0.4801" fill="#CECECE"/>
<rect x="  594.5593" y="  498.5306" height="    0.4801" width="    0.4801" fill="#BDBDBD"/>
<rect x="  595.0318" y="  498.5306" height="    0.4801" width="    0.4801" fill="#ADADAD"/>
<rect x="  595.5042" y="  498.5306" height="    0.4801" width="    0.4801" fill="#8C8C8C"/>
<rect x="  595.9766" y="  498.5306" height="    0.4801" width="    0.4801" fill="#6B6B6B"/>
<rect x="  596.4491" y="  498.5306" height="    0.4801" width="    0.4801" fill="#7B7B7B"/>
<rect x="  596.9215" y="  498.5306" height="    0.4801" width="    0.4801" fill="#9C9C9C"/>
<rect x="  597.3940" y="  498.5306" height="    0.4801" width="    0.4801" fill="#F7F7F7"/>
<rect x="  592.6695" y="  498.9878" height="    0.4801" width="    0.4801" fill="#F7F7F7"/>
<rect x="  593.1420" y="  498.9878" height="    0.4801" width="    0.4801" fill="#E7E7E7"/>
<rect x="  593.6144" y="  498.9878" height="    0.4801" width="    0.4801" fill="#D6D6D6"/>
<rect x="  594.0869" y="  498.9878" height="    0.4801" width="    0.4801" fill="#C6C6C6"/>
<rect x="  594.5593" y="  498.9878" height="    0.4801" width="    0.4801" fill="#B5B5B5"/>
<rect x="  595.0318" y="  498.9878" height="    0.4801" width="    0.4801" fill="#9C9C9C"/>
<rect x="  595.5042" y="  498.9878" height="    0.4801" width="    0.4801" fill="#737373"/>
<rect x="  595.9766" y="  498.9878" height="    0.4801" width="    0.4801" fill="#737373"/>
<rect x="  596.4491" y="  498.9878" height="    0.4801" width="    0.4801" fill="#8C8C8C"/>
<rect x="  596.9215" y="  498.9878" height="    0.4801" width="    0.4801" fill="#A5A5A5"/>
<rect x="  597.3940" y="  498.9878" height="    0.4801" width="    0.4801" fill="#F7F7F7"/>
<rect x="  590.7798" y="  499.4450" height="    0.4801" width="    0.4801" fill="#F7F7F7"/>
<rect x="  592.6695" y="  499.4450" height="    0.4801" width="    0.4801" fill="#F7F7F7"/>
<rect x="  593.1420" y="  499.4450" height="    0.4801" width="    0.4801" fill="#D6D6D6"/>
<rect x="  593.6144" y="  499.4450" height="    0.4801" width="    0.4801" fill="#CECECE"/>
<rect x="  594.0869" y="  499.4450" height="    0.4801" width="    0.4801" fill="#BDBDBD"/>
<rect x="  594.5593" y="  499.4450" height="    0.4801" width="    0.4801" fill="#A5A5A5"/>
<rect x="  595.0318" y="  499.4450" height="    0.4801" width="    0.4801" fill="#848484"/>
<rect x="  595.5042" y="  499.4450" height="    0.4801" width="    0.4801" fill="#636363"/>
<rect x="  595.9766" y="  499.4450" height="    0.4801" width="    0.4801" fill="#7B7B7B"/>
<rect x="  596.4491" y="  499.4450" height="    0.4801" width="    0.4801" fill="#949494"/>
<rect x="  596.9215" y="  499.4450" height="    0.4801" width="    0.4801" fill="#B5B5B5"/>
<rect x="  597.3940" y="  499.4450" height="    0.4801" width="    0.4801" fill="#F7F7F7"/>
<rect x="  590.7798" y="  499.9022" height="    0.4801" width="    0.4801" fill="#F7F7F7"/>
<rect x="  591.2522" y="  499.9022" height="    0.4801" width="    0.4801" fill="#EFEFEF"/>
<rect x="  591.7247" y="  499.9022" height="    0.4801" width="    0.4801" fill="#F7F7F7"/>
<rect x="  592.6695" y="  499.9022" height="    0.4801" width="    0.4801" fill="#F7F7F7"/>
<rect x="  593.1420" y="  499.9022" height="    0.4801" width="    0.4801" fill="#D6D6D6"/>
<rect x="  593.6144" y="  499.9022" height="    0.4801" width="    0.4801" fill="#BDBDBD"/>
<rect x="  594.0869" y="  499.9022" height="    0.4801" width="    0.4801" fill="#ADADAD"/>
<rect x="  594.5593" y="  499.9022" height="    0.4801" width="    0.4801" fill="#8C8C8C"/>
<rect x="  595.0318" y="  499.9022" height="    0.4801" width="    0.4801" fill="#636363"/>
<rect x="  595.5042" y="  499.9022" height="    0.4801" width="    0.4801" fill="#6B6B6B"/>
<rect x="  595.9766" y="  499.9022" height="    0.4801" width="    0.4801" fill="#7B7B7B"/>
<rect x="  596.4491" y="  499.9022" height="    0.4801" width="    0.4801" fill="#A5A5A5"/>
<rect x="  596.9215" y="  499.9022" height="    0.4801" width="    0.4801" fill="#ADADAD"/>
<rect x="  597.3940" y="  499.9022" height="    0.4801" width="    0.4801" fill="#F7F7F7"/>
<rect x="  588.8900" y="  500.3594" height="    0.4801" width="    0.4801" fill="#F7F7F7"/>
<rect x="  589.3625" y="  500.3594" height="    0.4801" width="    0.4801" fill="#F7F7F7"/>
<rect x="  590.3073" y="  500.3594" height="    0.4801" width="    0.4801" fill="#F7F7F7"/>
<rect x="  590.7798" y="  500.3594" height="    0.4801" width="    0.4801" fill="#EFEFEF"/>
<rect x="  591.2522" y="  500.3594" height="    0.4801" width="    0.4801" fill="#EFEFEF"/>
<rect x="  591.7247" y="  500.3594" height="    0.4801" width="    0.4801" fill="#E7E7E7"/>
<rect x="  592.1971" y="  500.3594" height="    0.4801" width="    0.4801" fill="#F7F7F7"/>
<rect x="  593.1420" y="  500.3594" height="    0.4801" width="    0.4801" fill="#CECECE"/>
<rect x="  593.6144" y="  500.3594" height="    0.4801" width="    0.4801" fill="#B5B5B5"/>
<rect x="  594.0869" y="  500.3594" height="    0.4801" width="    0.4801" fill="#949494"/>
<rect x="  594.5593" y="  500.3594" height="    0.4801" width="    0.4801" fill="#636363"/>
<rect x="  595.0318" y="  500.3594" height="    0.4801" width="    0.4801" fill="#5A5A5A"/>
<rect x="  595.5042" y="  500.3594" height="    0.4801" width="    0.4801" fill="#636363"/>
<rect x="  595.9766" y="  500.3594" height="    0.4801" width="    0.4801" fill="#848484"/>
<rect x="  596.4491" y="  500.3594" height="    0.4801" width="    0.4801" fill="#949494"/>
<rect x="  596.9215" y="  500.3594" height="    0.4801" width="    0.4801" fill="#A5A5A5"/>
<rect x="  597.3940" y="  500.3594" height="    0.4801" width="    0.4801" fill="#E7E7E7"/>
<rect x="  597.8664" y="  500.3594" height="    0.4801" width="    0.4801" fill="#EFEFEF"/>
<rect x="  598.3388" y="  500.3594" height="    0.4801" width="    0.4801" fill="#EFEFEF"/>
<rect x="  598.8113" y="  500.3594" height="    0.4801" width="    0.4801" fill="#EFEFEF"/>
<rect x="  599.2837" y="  500.3594" height="    0.4801" width="    0.4801" fill="#EFEFEF"/>
<rect x="  599.7562" y="  500.3594" height="    0.4801" width="    0.4801" fill="#EFEFEF"/>
<rect x="  600.2286" y="  500.3594" height="    0.4801" width="    0.4801" fill="#EFEFEF"/>
<rect x="  600.7010" y="  500.3594" height="    0.4801" width="    0.4801" fill="#EFEFEF"/>
<rect x="  601.1735" y="  500.3594" height="    0.4801" width="    0.4801" fill="#E7E7E7"/>
<rect x="  601.6459" y="  500.3594" height="    0.4801" width="    0.4801" fill="#EFEFEF"/>
<rect x="  602.1184" y="  500.3594" height="    0.4801" width="    0.4801" fill="#E7E7E7"/>
<rect x="  588.8900" y="  500.8166" height="    0.4801" width="    0.4801" fill="#F7F7F7"/>
<rect x="  589.3625" y="  500.8166" height="    0.4801" width="    0.4801" fill="#EFEFEF"/>
<rect x="  589.8349" y="  500.8166" height="    0.4801" width="    0.4801" fill="#EFEFEF"/>
<rect x="  590.3073" y="  500.8166" height="    0.4801" width="    0.4801" fill="#EFEFEF"/>
<rect x="  590.7798" y="  500.8166" height="    0.4801" width="    0.4801" fill="#EFEFEF"/>
<rect x="  591.2522" y="  500.8166" height="    0.4801" width="    0.4801" fill="#E7E7E7"/>
<rect x="  591.7247" y="  500.8166" height="    0.4801" width="    0.4801" fill="#DEDEDE"/>
<rect x="  592.1971" y="  500.8166" height="    0.4801" width="    0.4801" fill="#D6D6D6"/>
<rect x="  592.6695" y="  500.8166" height="    0.4801" width="    0.4801" fill="#EFEFEF"/>
<rect x="  593.1420" y="  500.8166" height="    0.4801" width="    0.4801" fill="#C6C6C6"/>
<rect x="  593.6144" y="  500.8166" height="    0.4801" width="    0.4801" fill="#949494"/>
<rect x="  594.0869" y="  500.8166" height="    0.4801" width="    0.4801" fill="#6B6B6B"/>
<rect x="  594.5593" y="  500.8166" height="    0.4801" width="    0.4801" fill="#636363"/>
<rect x="  595.0318" y="  500.8166" height="    0.4801" width="    0.4801" fill="#6B6B6B"/>
<rect x="  595.5042" y="  500.8166" height="    0.4801" width="    0.4801" fill="#737373"/>
<rect x="  595.9766" y="  500.8166" height="    0.4801" width="    0.4801" fill="#7B7B7B"/>
<rect x="  596.4491" y="  500.8166" height="    0.4801" width="    0.4801" fill="#848484"/>
<rect x="  596.9215" y="  500.8166" height="    0.4801" width="    0.4801" fill="#949494"/>
<rect x="  597.3940" y="  500.8166" height="    0.4801" width="    0.4801" fill="#A5A5A5"/>
<rect x="  597.8664" y="  500.8166" height="    0.4801" width="    0.4801" fill="#ADADAD"/>
<rect x="  598.3388" y="  500.8166" height="    0.4801" width="    0.4801" fill="#ADADAD"/>
<rect x="  598.8113" y="  500.8166" height="    0.4801" width="    0.4801" fill="#B5B5B5"/>
<rect x="  599.2837" y="  500.8166" height="    0.4801" width="    0.4801" fill="#ADADAD"/>
<rect x="  599.7562" y="  500.8166" height="    0.4801" width="    0.4801" fill="#ADADAD"/>
<rect x="  600.2286" y="  500.8166" height="    0.4801" width="    0.4801" fill="#A5A5A5"/>
<rect x="  600.7010" y="  500.8166" height="    0.4801" width="    0.4801" fill="#9C9C9C"/>
<rect x="  601.1735" y="  500.8166" height="    0.4801" width="    0.4801" fill="#9C9C9C"/>
<rect x="  601.6459" y="  500.8166" height="    0.4801" width="    0.4801" fill="#8C8C8C"/>
<rect x="  602.1184" y="  500.8166" height="    0.4801" width="    0.4801" fill="#949494"/>
<rect x="  589.3625" y="  501.2738" height="    0.4801" width="    0.4801" fill="#E7E7E7"/>
<rect x="  589.8349" y="  501.2738" height="    0.4801" width="    0.4801" fill="#E7E7E7"/>
<rect x="  590.3073" y="  501.2738" height="    0.4801" width="    0.4801" fill="#E7E7E7"/>
<rect x="  590.7798" y="  501.2738" height="    0.4801" width="    0.4801" fill="#E7E7E7"/>
<rect x="  591.2522" y="  501.2738" height="    0.4801" width="    0.4801" fill="#DEDEDE"/>
<rect x="  591.7247" y="  501.2738" height="    0.4801" width="    0.4801" fill="#D6D6D6"/>
<rect x="  592.1971" y="  501.2738" height="    0.4801" width="    0.4801" fill="#C6C6C6"/>
<rect x="  592.6695" y="  501.2738" height="    0.4801" width="    0.4801" fill="#BDBDBD"/>
<rect x="  593.1420" y="  501.2738" height="    0.4801" width="    0.4801" fill="#ADADAD"/>
<rect x="  593.6144" y="  501.2738" height="    0.4801" width="    0.4801" fill="#636363"/>
<rect x="  594.0869" y="  501.2738" height="    0.4801" width="    0.4801" fill="#636363"/>
<rect x="  594.5593" y="  501.2738" height="    0.4801" width="    0.4801" fill="#7B7B7B"/>
<rect x="  595.0318" y="  501.2738" height="    0.4801" width="    0.4801" fill="#7B7B7B"/>
<rect x="  595.5042" y="  501.2738" height="    0.4801" width="    0.4801" fill="#7B7B7B"/>
<rect x="  595.9766" y="  501.2738" height="    0.4801" width="    0.4801" fill="#7B7B7B"/>
<rect x="  596.4491" y="  501.2738" height="    0.4801" width="    0.4801" fill="#848484"/>
<rect x="  596.9215" y="  501.2738" height="    0.4801" width="    0.4801" fill="#848484"/>
<rect x="  597.3940" y="  501.2738" height="    0.4801" width="    0.4801" fill="#949494"/>
<rect x="  597.8664" y="  501.2738" height="    0.4801" width="    0.4801" fill="#A5A5A5"/>
<rect x="  598.3388" y="  501.2738" height="    0.4801" width="    0.4801" fill="#A5A5A5"/>
<rect x="  598.8113" y="  501.2738" height="    0.4801" width="    0.4801" fill="#ADADAD"/>
<rect x="  599.2837" y="  501.2738" height="    0.4801" width="    0.4801" fill="#ADADAD"/>
<rect x="  599.7562" y="  501.2738" height="    0.4801" width="    0.4801" fill="#ADADAD"/>
<rect x="  600.2286" y="  501.2738" height="    0.4801" width="    0.4801" fill="#A5A5A5"/>
<rect x="  600.7010" y="  501.2738" height="    0.4801" width="    0.4801" fill="#9C9C9C"/>
<rect x="  601.1735" y="  501.2738" height="    0.4801" width="    0.4801" fill="#949494"/>
<rect x="  601.6459" y="  501.2738" height="    0.4801" width="    0.4801" fill="#8C8C8C"/>
<rect x="  602.1184" y="  501.2738" height="    0.4801" width="    0.4801" fill="#8C8C8C"/>
<rect x="  589.3625" y="  501.7310" height="    0.4801" width="    0.4801" fill="#EFEFEF"/>
<rect x="  589.8349" y="  501.7310" height="    0.4801" width="    0.4801" fill="#DEDEDE"/>
<rect x="  590.3073" y="  501.7310" height="    0.4801" width="    0.4801" fill="#DEDEDE"/>
<rect x="  590.7798" y="  501.7310" height="    0.4801" width="    0.4801" fill="#D6D6D6"/>
<rect x="  591.2522" y="  501.7310" height="    0.4801" width="    0.4801" fill="#CECECE"/>
<rect x="  591.7247" y="  501.7310" height="    0.4801" width="    0.4801" fill="#BDBDBD"/>
<rect x="  592.1971" y="  501.7310" height="    0.4801" width="    0.4801" fill="#ADADAD"/>
<rect x="  592.6695" y="  501.7310" height="    0.4801" width="    0.4801" fill="#848484"/>
<rect x="  593.1420" y="  501.7310" height="    0.4801" width="    0.4801" fill="#5A5A5A"/>
<rect x="  593.6144" y="  501.7310" height="    0.4801" width="    0.4801" fill="#636363"/>
<rect x="  594.0869" y="  501.7310" height="    0.4801" width="    0.4801" fill="#848484"/>
<rect x="  594.5593" y="  501.7310" height="    0.4801" width="    0.4801" fill="#848484"/>
<rect x="  595.0318" y="  501.7310" height="    0.4801" width="    0.4801" fill="#7B7B7B"/>
<rect x="  595.5042" y="  501.7310" height="    0.4801" width="    0.4801" fill="#7B7B7B"/>
<rect x="  595.9766" y="  501.7310" height="    0.4801" width="    0.4801" fill="#7B7B7B"/>
<rect x="  596.4491" y="  501.7310" height="    0.4801" width="    0.4801" fill="#848484"/>
<rect x="  596.9215" y="  501.7310" height="    0.4801" width="    0.4801" fill="#848484"/>
<rect x="  597.3940" y="  501.7310" height="    0.4801" width="    0.4801" fill="#848484"/>
<rect x="  597.8664" y="  501.7310" height="    0.4801" width="    0.4801" fill="#949494"/>
<rect x="  598.3388" y="  501.7310" height="    0.4801" width="    0.4801" fill="#A5A5A5"/>
<rect x="  598.8113" y="  501.7310" height="    0.4801" width="    0.4801" fill="#A5A5A5"/>
<rect x="  599.2837" y="  501.7310" height="    0.4801" width="    0.4801" fill="#ADADAD"/>
<rect x="  599.7562" y="  501.7310" height="    0.4801" width="    0.4801" fill="#A5A5A5"/>
<rect x="  600.2286" y="  501.7310" height="    0.4801" width="    0.4801" fill="#9C9C9C"/>
<rect x="  600.7010" y="  501.7310" height="    0.4801" width="    0.4801" fill="#949494"/>
<rect x="  601.1735" y="  501.7310" height="    0.4801" width="    0.4801" fill="#8C8C8C"/>
<rect x="  601.6459" y="  501.7310" height="    0.4801" width="    0.4801" fill="#848484"/>
<rect x="  602.1184" y="  501.7310" height="    0.4801" width="    0.4801" fill="#848484"/>
<rect x="  589.3625" y="  502.1882" height="    0.4801" width="    0.4801" fill="#E7E7E7"/>
<rect x="  589.8349" y="  502.1882" height="    0.4801" width="    0.4801" fill="#DEDEDE"/>
<rect x="  590.3073" y="  502.1882" height="    0.4801" width="    0.4801" fill="#D6D6D6"/>
<rect x="  590.7798" y="  502.1882" height="    0.4801" width="    0.4801" fill="#CECECE"/>
<rect x="  591.2522" y="  502.1882" height="    0.4801" width="    0.4801" fill="#BDBDBD"/>
<rect x="  591.7247" y="  502.1882" height="    0.4801" width="    0.4801" fill="#9C9C9C"/>
<rect x="  592.1971" y="  502.1882" height="    0.4801" width="    0.4801" fill="#737373"/>
<rect x="  592.6695" y="  502.1882" height="    0.4801" width="    0.4801" fill="#636363"/>
<rect x="  593.1420" y="  502.1882" height="    0.4801" width="    0.4801" fill="#636363"/>
<rect x="  593.6144" y="  502.1882" height="    0.4801" width="    0.4801" fill="#7B7B7B"/>
<rect x="  594.0869" y="  502.1882" height="    0.4801" width="    0.4801" fill="#737373"/>
<rect x="  594.5593" y="  502.1882" height="    0.4801" width="    0.4801" fill="#737373"/>
<rect x="  595.0318" y="  502.1882" height="    0.4801" width="    0.4801" fill="#7B7B7B"/>
<rect x="  595.5042" y="  502.1882" height="    0.4801" width="    0.4801" fill="#848484"/>
<rect x="  595.9766" y="  502.1882" height="    0.4801" width="    0.4801" fill="#7B7B7B"/>
<rect x="  596.4491" y="  502.1882" height="    0.4801" width="    0.4801" fill="#7B7B7B"/>
<rect x="  596.9215" y="  502.1882" height="    0.4801" width="    0.4801" fill="#848484"/>
<rect x="  597.3940" y="  502.1882" height="    0.4801" width="    0.4801" fill="#848484"/>
<rect x="  597.8664" y="  502.1882" height="    0.4801" width="    0.4801" fill="#8C8C8C"/>
<rect x="  598.3388" y="  502.1882" height="    0.4801" width="    0.4801" fill="#8C8C8C"/>
<rect x="  598.8113" y="  502.1882" height="    0.4801" width="    0.4801" fill="#848484"/>
<rect x="  599.2837" y="  502.1882" height="    0.4801" width="    0.4801" fill="#7B7B7B"/>
<rect x="  599.7562" y="  502.1882" height="    0.4801" width="    0.4801" fill="#737373"/>
<rect x="  600.2286" y="  502.1882" height="    0.4801" width="    0.4801" fill="#737373"/>
<rect x="  600.7010" y="  502.1882" height="    0.4801" width="    0.4801" fill="#6B6B6B"/>
<rect x="  601.1735" y="  502.1882" height="    0.4801" width="    0.4801" fill="#636363"/>
<rect x="  601.6459" y="  502.1882" height="    0.4801" width="    0.4801" fill="#5A5A5A"/>
<rect x="  602.1184" y="  502.1882" height="    0.4801" width="    0.4801" fill="#636363"/>
<rect x="  588.8900" y="  502.6454" height="    0.4801" width="    0.4801" fill="#E7E7E7"/>
<rect x="  589.3625" y="  502.6454" height="    0.4801" width="    0.4801" fill="#D6D6D6"/>
<rect x="  589.8349" y="  502.6454" height="    0.4801" width="    0.4801" fill="#C6C6C6"/>
<rect x="  590.3073" y="  502.6454" height="    0.4801" width="    0.4801" fill="#B5B5B5"/>
<rect x="  590.7798" y="  502.6454" height="    0.4801" width="    0.4801" fill="#9C9C9C"/>
<rect x="  591.2522" y="  502.6454" height="    0.4801" width="    0.4801" fill="#848484"/>
<rect x="  591.7247" y="  502.6454" height="    0.4801" width="    0.4801" fill="#737373"/>
<rect x="  592.1971" y="  502.6454" height="    0.4801" width="    0.4801" fill="#7B7B7B"/>
<rect x="  592.6695" y="  502.6454" height="    0.4801" width="    0.4801" fill="#8C8C8C"/>
<rect x="  593.1420" y="  502.6454" height="    0.4801" width="    0.4801" fill="#8C8C8C"/>
<rect x="  593.6144" y="  502.6454" height="    0.4801" width="    0.4801" fill="#7B7B7B"/>
<rect x="  594.0869" y="  502.6454" height="    0.4801" width="    0.4801" fill="#737373"/>
<rect x="  594.5593" y="  502.6454" height="    0.4801" width="    0.4801" fill="#737373"/>
<rect x="  595.0318" y="  502.6454" height="    0.4801" width="    0.4801" fill="#737373"/>
<rect x="  595.5042" y="  502.6454" height="    0.4801" width="    0.4801" fill="#7B7B7B"/>
<rect x="  595.9766" y="  502.6454" height="    0.4801" width="    0.4801" fill="#848484"/>
<rect x="  596.4491" y="  502.6454" height="    0.4801" width="    0.4801" fill="#8C8C8C"/>
<rect x="  596.9215" y="  502.6454" height="    0.4801" width="    0.4801" fill="#9C9C9C"/>
<rect x="  597.3940" y="  502.6454" height="    0.4801" width="    0.4801" fill="#A5A5A5"/>
<rect x="  597.8664" y="  502.6454" height="    0.4801" width="    0.4801" fill="#ADADAD"/>
<rect x="  598.3388" y="  502.6454" height="    0.4801" width="    0.4801" fill="#A5A5A5"/>
<rect x="  598.8113" y="  502.6454" height="    0.4801" width="    0.4801" fill="#A5A5A5"/>
<rect x="  599.2837" y="  502.6454" height="    0.4801" width="    0.4801" fill="#949494"/>
<rect x="  599.7562" y="  502.6454" height="    0.4801" width="    0.4801" fill="#848484"/>
<rect x="  600.2286" y="  502.6454" height="    0.4801" width="    0.4801" fill="#6B6B6B"/>
<rect x="  600.7010" y="  502.6454" height="    0.4801" width="    0.4801" fill="#6B6B6B"/>
<rect x="  601.1735" y="  502.6454" height="    0.4801" width="    0.4801" fill="#636363"/>
<rect x="  601.6459" y="  502.6454" height="    0.4801" width="    0.4801" fill="#6B6B6B"/>
<rect x="  602.1184" y="  502.6454" height="    0.4801" width="    0.4801" fill="#7B7B7B"/>
<rect x="  588.4176" y="  503.1026" height="    0.4801" width="    0.4801" fill="#CECECE"/>
<rect x="  588.8900" y="  503.1026" height="    0.4801" width="    0.4801" fill="#B5B5B5"/>
<rect x="  589.3625" y="  503.1026" height="    0.4801" width="    0.4801" fill="#ADADAD"/>
<rect x="  589.8349" y="  503.1026" height="    0.4801" width="    0.4801" fill="#A5A5A5"/>
<rect x="  590.3073" y="  503.1026" height="    0.4801" width="    0.4801" fill="#9C9C9C"/>
<rect x="  590.7798" y="  503.1026" height="    0.4801" width="    0.4801" fill="#A5A5A5"/>
<rect x="  591.2522" y="  503.1026" height="    0.4801" width="    0.4801" fill="#ADADAD"/>
<rect x="  591.7247" y="  503.1026" height="    0.4801" width="    0.4801" fill="#B5B5B5"/>
<rect x="  592.1971" y="  503.1026" height="    0.4801" width="    0.4801" fill="#ADADAD"/>
<rect x="  592.6695" y="  503.1026" height="    0.4801" width="    0.4801" fill="#A5A5A5"/>
<rect x="  593.1420" y="  503.1026" height="    0.4801" width="    0.4801" fill="#949494"/>
<rect x="  593.6144" y="  503.1026" height="    0.4801" width="    0.4801" fill="#848484"/>
<rect x="  594.0869" y="  503.1026" height="    0.4801" width="    0.4801" fill="#7B7B7B"/>
<rect x="  594.5593" y="  503.1026" height="    0.4801" width="    0.4801" fill="#7B7B7B"/>
<rect x="  595.0318" y="  503.1026" height="    0.4801" width="    0.4801" fill="#7B7B7B"/>
<rect x="  595.5042" y="  503.1026" height="    0.4801" width="    0.4801" fill="#848484"/>
<rect x="  595.9766" y="  503.1026" height="    0.4801" width="    0.4801" fill="#8C8C8C"/>
<rect x="  596.4491" y="  503.1026" height="    0.4801" width="    0.4801" fill="#9C9C9C"/>
<rect x="  596.9215" y="  503.1026" height="    0.4801" width="    0.4801" fill="#A5A5A5"/>
<rect x="  597.3940" y="  503.1026" height="    0.4801" width="    0.4801" fill="#B5B5B5"/>
<rect x="  597.8664" y="  503.1026" height="    0.4801" width="    0.4801" fill="#B5B5B5"/>
<rect x="  598.3388" y="  503.1026" height="    0.4801" width="    0.4801" fill="#BDBDBD"/>
<rect x="  598.8113" y="  503.1026" height="    0.4801" width="    0.4801" fill="#B5B5B5"/>
<rect x="  599.2837" y="  503.1026" height="    0.4801" width="    0.4801" fill="#B5B5B5"/>
<rect x="  599.7562" y="  503.1026" height="    0.4801" width="    0.4801" fill="#A5A5A5"/>
<rect x="  600.2286" y="  503.1026" height="    0.4801" width="    0.4801" fill="#9C9C9C"/>
<rect x="  600.7010" y="  503.1026" height="    0.4801" width="    0.4801" fill="#848484"/>
<rect x="  601.1735" y="  503.1026" height="    0.4801" width="    0.4801" fill="#848484"/>
<rect x="  601.6459" y="  503.1026" height="    0.4801" width="    0.4801" fill="#737373"/>
<rect x="  602.1184" y="  503.1026" height="    0.4801" width="    0.4801" fill="#848484"/>
<rect x="  588.4176" y="  503.5598" height="    0.4801" width="    0.4801" fill="#E7E7E7"/>
<rect x="  588.8900" y="  503.5598" height="    0.4801" width="    0.4801" fill="#D6D6D6"/>
<rect x="  589.3625" y="  503.5598" height="    0.4801" width="    0.4801" fill="#CECECE"/>
<rect x="  589.8349" y="  503.5598" height="    0.4801" width="    0.4801" fill="#D6D6D6"/>
<rect x="  590.3073" y="  503.5598" height="    0.4801" width="    0.4801" fill="#D6D6D6"/>
<rect x="  590.7798" y="  503.5598" height="    0.4801" width="    0.4801" fill="#D6D6D6"/>
<rect x="  591.2522" y="  503.5598" height="    0.4801" width="    0.4801" fill="#C6C6C6"/>
<rect x="  591.7247" y="  503.5598" height="    0.4801" width="    0.4801" fill="#C6C6C6"/>
<rect x="  592.1971" y="  503.5598" height="    0.4801" width="    0.4801" fill="#C6C6C6"/>
<rect x="  592.6695" y="  503.5598" height="    0.4801" width="    0.4801" fill="#BDBDBD"/>
<rect x="  593.1420" y="  503.5598" height="    0.4801" width="    0.4801" fill="#A5A5A5"/>
<rect x="  593.6144" y="  503.5598" height="    0.4801" width="    0.4801" fill="#9C9C9C"/>
<rect x="  594.0869" y="  503.5598" height="    0.4801" width="    0.4801" fill="#7B7B7B"/>
<rect x="  594.5593" y="  503.5598" height="    0.4801" width="    0.4801" fill="#7B7B7B"/>
<rect x="  595.0318" y="  503.5598" height="    0.4801" width="    0.4801" fill="#8C8C8C"/>
<rect x="  595.5042" y="  503.5598" height="    0.4801" width="    0.4801" fill="#8C8C8C"/>
<rect x="  595.9766" y="  503.5598" height="    0.4801" width="    0.4801" fill="#8C8C8C"/>
<rect x="  596.4491" y="  503.5598" height="    0.4801" width="    0.4801" fill="#A5A5A5"/>
<rect x="  596.9215" y="  503.5598" height="    0.4801" width="    0.4801" fill="#ADADAD"/>
<rect x="  597.3940" y="  503.5598" height="    0.4801" width="    0.4801" fill="#B5B5B5"/>
<rect x="  597.8664" y="  503.5598" height="    0.4801" width="    0.4801" fill="#C6C6C6"/>
<rect x="  598.3388" y="  503.5598" height="    0.4801" width="    0.4801" fill="#BDBDBD"/>
<rect x="  598.8113" y="  503.5598" height="    0.4801" width="    0.4801" fill="#BDBDBD"/>
<rect x="  599.2837" y="  503.5598" height="    0.4801" width="    0.4801" fill="#B5B5B5"/>
<rect x="  599.7562" y="  503.5598" height="    0.4801" width="    0.4801" fill="#B5B5B5"/>
<rect x="  600.2286" y="  503.5598" height="    0.4801" width="    0.4801" fill="#A5A5A5"/>
<rect x="  600.7010" y="  503.5598" height="    0.4801" width="    0.4801" fill="#9C9C9C"/>
<rect x="  601.1735" y="  503.5598" height="    0.4801" width="    0.4801" fill="#8C8C8C"/>
<rect x="  601.6459" y="  503.5598" height="    0.4801" width="    0.4801" fill="#848484"/>
<rect x="  602.1184" y="  503.5598" height="    0.4801" width="    0.4801" fill="#848484"/>
<rect x="  588.8900" y="  504.0170" height="    0.4801" width="    0.4801" fill="#F7F7F7"/>
<rect x="  589.3625" y="  504.0170" height="    0.4801" width="    0.4801" fill="#F7F7F7"/>
<rect x="  589.8349" y="  504.0170" height="    0.4801" width="    0.4801" fill="#EFEFEF"/>
<rect x="  590.3073" y="  504.0170" height="    0.4801" width="    0.4801" fill="#E7E7E7"/>
<rect x="  590.7798" y="  504.0170" height="    0.4801" width="    0.4801" fill="#E7E7E7"/>
<rect x="  591.2522" y="  504.0170" height="    0.4801" width="    0.4801" fill="#D6D6D6"/>
<rect x="  591.7247" y="  504.0170" height="    0.4801" width="    0.4801" fill="#CECECE"/>
<rect x="  592.1971" y="  504.0170" height="    0.4801" width="    0.4801" fill="#CECECE"/>
<rect x="  592.6695" y="  504.0170" height="    0.4801" width="    0.4801" fill="#C6C6C6"/>
<rect x="  593.1420" y="  504.0170" height="    0.4801" width="    0.4801" fill="#B5B5B5"/>
<rect x="  593.6144" y="  504.0170" height="    0.4801" width="    0.4801" fill="#A5A5A5"/>
<rect x="  594.0869" y="  504.0170" height="    0.4801" width="    0.4801" fill="#8C8C8C"/>
<rect x="  594.5593" y="  504.0170" height="    0.4801" width="    0.4801" fill="#737373"/>
<rect x="  595.0318" y="  504.0170" height="    0.4801" width="    0.4801" fill="#848484"/>
<rect x="  595.5042" y="  504.0170" height="    0.4801" width="    0.4801" fill="#949494"/>
<rect x="  595.9766" y="  504.0170" height="    0.4801" width="    0.4801" fill="#9C9C9C"/>
<rect x="  596.4491" y="  504.0170" height="    0.4801" width="    0.4801" fill="#9C9C9C"/>
<rect x="  596.9215" y="  504.0170" height="    0.4801" width="    0.4801" fill="#ADADAD"/>
<rect x="  597.3940" y="  504.0170" height="    0.4801" width="    0.4801" fill="#B5B5B5"/>
<rect x="  597.8664" y="  504.0170" height="    0.4801" width="    0.4801" fill="#C6C6C6"/>
<rect x="  598.3388" y="  504.0170" height="    0.4801" width="    0.4801" fill="#C6C6C6"/>
<rect x="  598.8113" y="  504.0170" height="    0.4801" width="    0.4801" fill="#C6C6C6"/>
<rect x="  599.2837" y="  504.0170" height="    0.4801" width="    0.4801" fill="#BDBDBD"/>
<rect x="  599.7562" y="  504.0170" height="    0.4801" width="    0.4801" fill="#B5B5B5"/>
<rect x="  600.2286" y="  504.0170" height="    0.4801" width="    0.4801" fill="#B5B5B5"/>
<rect x="  600.7010" y="  504.0170" height="    0.4801" width="    0.4801" fill="#ADADAD"/>
<rect x="  601.1735" y="  504.0170" height="    0.4801" width="    0.4801" fill="#9C9C9C"/>
<rect x="  601.6459" y="  504.0170" height="    0.4801" width="    0.4801" fill="#949494"/>
<rect x="  602.1184" y="  504.0170" height="    0.4801" width="    0.4801" fill="#8C8C8C"/>
<rect x="  589.8349" y="  504.4742" height="    0.4801" width="    0.4801" fill="#F7F7F7"/>
<rect x="  590.3073" y="  504.4742" height="    0.4801" width="    0.4801" fill="#F7F7F7"/>
<rect x="  590.7798" y="  504.4742" height="    0.4801" width="    0.4801" fill="#F7F7F7"/>
<rect x="  591.2522" y="  504.4742" height="    0.4801" width="    0.4801" fill="#EFEFEF"/>
<rect x="  591.7247" y="  504.4742" height="    0.4801" width="    0.4801" fill="#E7E7E7"/>
<rect x="  592.1971" y="  504.4742" height="    0.4801" width="    0.4801" fill="#D6D6D6"/>
<rect x="  592.6695" y="  504.4742" height="    0.4801" width="    0.4801" fill="#CECECE"/>
<rect x="  593.1420" y="  504.4742" height="    0.4801" width="    0.4801" fill="#C6C6C6"/>
<rect x="  593.6144" y="  504.4742" height="    0.4801" width="    0.4801" fill="#A5A5A5"/>
<rect x="  594.0869" y="  504.4742" height="    0.4801" width="    0.4801" fill="#949494"/>
<rect x="  594.5593" y="  504.4742" height="    0.4801" width="    0.4801" fill="#7B7B7B"/>
<rect x="  595.0318" y="  504.4742" height="    0.4801" width="    0.4801" fill="#7B7B7B"/>
<rect x="  595.5042" y="  504.4742" height="    0.4801" width="    0.4801" fill="#8C8C8C"/>
<rect x="  595.9766" y="  504.4742" height="    0.4801" width="    0.4801" fill="#A5A5A5"/>
<rect x="  596.4491" y="  504.4742" height="    0.4801" width="    0.4801" fill="#B5B5B5"/>
<rect x="  596.9215" y="  504.4742" height="    0.4801" width="    0.4801" fill="#BDBDBD"/>
<rect x="  597.3940" y="  504.4742" height="    0.4801" width="    0.4801" fill="#BDBDBD"/>
<rect x="  597.8664" y="  504.4742" height="    0.4801" width="    0.4801" fill="#BDBDBD"/>
<rect x="  598.3388" y="  504.4742" height="    0.4801" width="    0.4801" fill="#C6C6C6"/>
<rect x="  598.8113" y="  504.4742" height="    0.4801" width="    0.4801" fill="#C6C6C6"/>
<rect x="  599.2837" y="  504.4742" height="    0.4801" width="    0.4801" fill="#BDBDBD"/>
<rect x="  599.7562" y="  504.4742" height="    0.4801" width="    0.4801" fill="#BDBDBD"/>
<rect x="  600.2286" y="  504.4742" height="    0.4801" width="    0.4801" fill="#B5B5B5"/>
<rect x="  600.7010" y="  504.4742" height="    0.4801" width="    0.4801" fill="#ADADAD"/>
<rect x="  601.1735" y="  504.4742" height="    0.4801" width="    0.4801" fill="#A5A5A5"/>
<rect x="  601.6459" y="  504.4742" height="    0.4801" width="    0.4801" fill="#9C9C9C"/>
<rect x="  602.1184" y="  504.4742" height="    0.4801" width="    0.4801" fill="#949494"/>
<rect x="  590.3073" y="  504.9314" height="    0.4801" width="    0.4801" fill="#F7F7F7"/>
<rect x="  590.7798" y="  504.9314" height="    0.4801" width="    0.4801" fill="#F7F7F7"/>
<rect x="  591.2522" y="  504.9314" height="    0.4801" width="    0.4801" fill="#F7F7F7"/>
<rect x="  591.7247" y="  504.9314" height="    0.4801" width="    0.4801" fill="#EFEFEF"/>
<rect x="  592.1971" y="  504.9314" height="    0.4801" width="    0.4801" fill="#E7E7E7"/>
<rect x="  592.6695" y="  504.9314" height="    0.4801" width="    0.4801" fill="#CECECE"/>
<rect x="  593.1420" y="  504.9314" height="    0.4801" width="    0.4801" fill="#C6C6C6"/>
<rect x="  593.6144" y="  504.9314" height="    0.4801" width="    0.4801" fill="#BDBDBD"/>
<rect x="  594.0869" y="  504.9314" height="    0.4801" width="    0.4801" fill="#A5A5A5"/>
<rect x="  594.5593" y="  504.9314" height="    0.4801" width="    0.4801" fill="#848484"/>
<rect x="  595.0318" y="  504.9314" height="    0.4801" width="    0.4801" fill="#8C8C8C"/>
<rect x="  595.5042" y="  504.9314" height="    0.4801" width="    0.4801" fill="#9C9C9C"/>
<rect x="  595.9766" y="  504.9314" height="    0.4801" width="    0.4801" fill="#ADADAD"/>
<rect x="  596.4491" y="  504.9314" height="    0.4801" width="    0.4801" fill="#B5B5B5"/>
<rect x="  596.9215" y="  504.9314" height="    0.4801" width="    0.4801" fill="#C6C6C6"/>
<rect x="  597.3940" y="  504.9314" height="    0.4801" width="    0.4801" fill="#EFEFEF"/>
<rect x="  597.8664" y="  504.9314" height="    0.4801" width="    0.4801" fill="#F7F7F7"/>
<rect x="  598.3388" y="  504.9314" height="    0.4801" width="    0.4801" fill="#EFEFEF"/>
<rect x="  598.8113" y="  504.9314" height="    0.4801" width="    0.4801" fill="#F7F7F7"/>
<rect x="  599.2837" y="  504.9314" height="    0.4801" width="    0.4801" fill="#F7F7F7"/>
<rect x="  599.7562" y="  504.9314" height="    0.4801" width="    0.4801" fill="#EFEFEF"/>
<rect x="  600.2286" y="  504.9314" height="    0.4801" width="    0.4801" fill="#EFEFEF"/>
<rect x="  600.7010" y="  504.9314" height="    0.4801" width="    0.4801" fill="#EFEFEF"/>
<rect x="  601.1735" y="  504.9314" height="    0.4801" width="    0.4801" fill="#EFEFEF"/>
<rect x="  601.6459" y="  504.9314" height="    0.4801" width="    0.4801" fill="#EFEFEF"/>
<rect x="  602.1184" y="  504.9314" height="    0.4801" width="    0.4801" fill="#E7E7E7"/>
<rect x="  591.2522" y="  505.3886" height="    0.4801" width="    0.4801" fill="#F7F7F7"/>
<rect x="  591.7247" y="  505.3886" height="    0.4801" width="    0.4801" fill="#F7F7F7"/>
<rect x="  592.1971" y="  505.3886" height="    0.4801" width="    0.4801" fill="#E7E7E7"/>
<rect x="  592.6695" y="  505.3886" height="    0.4801" width="    0.4801" fill="#DEDEDE"/>
<rect x="  593.1420" y="  505.3886" height="    0.4801" width="    0.4801" fill="#CECECE"/>
<rect x="  593.6144" y="  505.3886" height="    0.4801" width="    0.4801" fill="#BDBDBD"/>
<rect x="  594.0869" y="  505.3886" height="    0.4801" width="    0.4801" fill="#ADADAD"/>
<rect x="  594.5593" y="  505.3886" height="    0.4801" width="    0.4801" fill="#949494"/>
<rect x="  595.0318" y="  505.3886" height="    0.4801" width="    0.4801" fill="#7B7B7B"/>
<rect x="  595.5042" y="  505.3886" height="    0.4801" width="    0.4801" fill="#A5A5A5"/>
<rect x="  595.9766" y="  505.3886" height="    0.4801" width="    0.4801" fill="#ADADAD"/>
<rect x="  596.4491" y="  505.3886" height="    0.4801" width="    0.4801" fill="#C6C6C6"/>
<rect x="  596.9215" y="  505.3886" height="    0.4801" width="    0.4801" fill="#CECECE"/>
<rect x="  591.7247" y="  505.8458" height="    0.4801" width="    0.4801" fill="#EFEFEF"/>
<rect x="  592.1971" y="  505.8458" height="    0.4801" width="    0.4801" fill="#EFEFEF"/>
<rect x="  592.6695" y="  505.8458" height="    0.4801" width="    0.4801" fill="#E7E7E7"/>
<rect x="  593.1420" y="  505.8458" height="    0.4801" width="    0.4801" fill="#D6D6D6"/>
<rect x="  593.6144" y="  505.8458" height="    0.4801" width="    0.4801" fill="#C6C6C6"/>
<rect x="  594.0869" y="  505.8458" height="    0.4801" width="    0.4801" fill="#ADADAD"/>
<rect x="  594.5593" y="  505.8458" height="    0.4801" width="    0.4801" fill="#949494"/>
<rect x="  595.0318" y="  505.8458" height="    0.4801" width="    0.4801" fill="#848484"/>
<rect x="  595.5042" y="  505.8458" height="    0.4801" width="    0.4801" fill="#949494"/>
<rect x="  595.9766" y="  505.8458" height="    0.4801" width="    0.4801" fill="#BDBDBD"/>
<rect x="  596.4491" y="  505.8458" height="    0.4801" width="    0.4801" fill="#C6C6C6"/>
<rect x="  596.9215" y="  505.8458" height="    0.4801" width="    0.4801" fill="#C6C6C6"/>
<rect x="  597.3940" y="  505.8458" height="    0.4801" width="    0.4801" fill="#F7F7F7"/>
<rect x="  591.7247" y="  506.3030" height="    0.4801" width="    0.4801" fill="#F7F7F7"/>
<rect x="  592.1971" y="  506.3030" height="    0.4801" width="    0.4801" fill="#EFEFEF"/>
<rect x="  592.6695" y="  506.3030" height="    0.4801" width="    0.4801" fill="#DEDEDE"/>
<rect x="  593.1420" y="  506.3030" height="    0.4801" width="    0.4801" fill="#D6D6D6"/>
<rect x="  593.6144" y="  506.3030" height="    0.4801" width="    0.4801" fill="#CECECE"/>
<rect x="  594.0869" y="  506.3030" height="    0.4801" width="    0.4801" fill="#BDBDBD"/>
<rect x="  594.5593" y="  506.3030" height="    0.4801" width="    0.4801" fill="#A5A5A5"/>
<rect x="  595.0318" y="  506.3030" height="    0.4801" width="    0.4801" fill="#848484"/>
<rect x="  595.5042" y="  506.3030" height="    0.4801" width="    0.4801" fill="#8C8C8C"/>
<rect x="  595.9766" y="  506.3030" height="    0.4801" width="    0.4801" fill="#ADADAD"/>
<rect x="  596.4491" y="  506.3030" height="    0.4801" width="    0.4801" fill="#BDBDBD"/>
<rect x="  596.9215" y="  506.3030" height="    0.4801" width="    0.4801" fill="#C6C6C6"/>
<rect x="  597.3940" y="  506.3030" height="    0.4801" width="    0.4801" fill="#F7F7F7"/>
<rect x="  591.7247" y="  506.7602" height="    0.4801" width="    0.4801" fill="#F7F7F7"/>
<rect x="  592.1971" y="  506.7602" height="    0.4801" width="    0.4801" fill="#EFEFEF"/>
<rect x="  592.6695" y="  506.7602" height="    0.4801" width="    0.4801" fill="#E7E7E7"/>
<rect x="  593.1420" y="  506.7602" height="    0.4801" width="    0.4801" fill="#D6D6D6"/>
<rect x="  593.6144" y="  506.7602" height="    0.4801" width="    0.4801" fill="#D6D6D6"/>
<rect x="  594.0869" y="  506.7602" height="    0.4801" width="    0.4801" fill="#CECECE"/>
<rect x="  594.5593" y="  506.7602" height="    0.4801" width="    0.4801" fill="#C6C6C6"/>
<rect x="  595.0318" y="  506.7602" height="    0.4801" width="    0.4801" fill="#949494"/>
<rect x="  595.5042" y="  506.7602" height="    0.4801" width="    0.4801" fill="#737373"/>
<rect x="  595.9766" y="  506.7602" height="    0.4801" width="    0.4801" fill="#9C9C9C"/>
<rect x="  596.4491" y="  506.7602" height="    0.4801" width="    0.4801" fill="#B5B5B5"/>
<rect x="  596.9215" y="  506.7602" height="    0.4801" width="    0.4801" fill="#C6C6C6"/>
<rect x="  594.5593" y="  507.2174" height="    0.4801" width="    0.4801" fill="#F7F7F7"/>
<rect x="  595.0318" y="  507.2174" height="    0.4801" width="    0.4801" fill="#9C9C9C"/>
<rect x="  595.5042" y="  507.2174" height="    0.4801" width="    0.4801" fill="#7B7B7B"/>
<rect x="  595.9766" y="  507.2174" height="    0.4801" width="    0.4801" fill="#949494"/>
<rect x="  596.4491" y="  507.2174" height="    0.4801" width="    0.4801" fill="#ADADAD"/>
<rect x="  596.9215" y="  507.2174" height="    0.4801" width="    0.4801" fill="#C6C6C6"/>
<rect x="  597.3940" y="  507.2174" height="    0.4801" width="    0.4801" fill="#F7F7F7"/>
<rect x="  594.5593" y="  507.6746" height="    0.4801" width="    0.4801" fill="#F7F7F7"/>
<rect x="  595.0318" y="  507.6746" height="    0.4801" width="    0.4801" fill="#A5A5A5"/>
<rect x="  595.5042" y="  507.6746" height="    0.4801" width="    0.4801" fill="#848484"/>
<rect x="  595.9766" y="  507.6746" height="    0.4801" width="    0.4801" fill="#848484"/>
<rect x="  596.4491" y="  507.6746" height="    0.4801" width="    0.4801" fill="#A5A5A5"/>
<rect x="  596.9215" y="  507.6746" height="    0.4801" width="    0.4801" fill="#B5B5B5"/>
<rect x="  597.3940" y="  507.6746" height="    0.4801" width="    0.4801" fill="#F7F7F7"/>
<rect x="  594.5593" y="  508.1318" height="    0.4801" width="    0.4801" fill="#EFEFEF"/>
<rect x="  595.0318" y="  508.1318" height="    0.4801" width="    0.4801" fill="#9C9C9C"/>
<rect x="  595.5042" y="  508.1318" height="    0.4801" width="    0.4801" fill="#848484"/>
<rect x="  595.9766" y="  508.1318" height="    0.4801" width="    0.4801" fill="#7B7B7B"/>
<rect x="  596.4491" y="  508.1318" height="    0.4801" width="    0.4801" fill="#9C9C9C"/>
<rect x="  596.9215" y="  508.1318" height="    0.4801" width="    0.4801" fill="#ADADAD"/>
<rect x="  597.3940" y="  508.1318" height="    0.4801" width="    0.4801" fill="#F7F7F7"/>
<rect x="  594.5593" y="  508.5890" height="    0.4801" width="    0.4801" fill="#EFEFEF"/>
<rect x="  595.0318" y="  508.5890" height="    0.4801" width="    0.4801" fill="#A5A5A5"/>
<rect x="  595.5042" y="  508.5890" height="    0.4801" width="    0.4801" fill="#848484"/>
<rect x="  595.9766" y="  508.5890" height="    0.4801" width="    0.4801" fill="#7B7B7B"/>
<rect x="  596.4491" y="  508.5890" height="    0.4801" width="    0.4801" fill="#8C8C8C"/>
<rect x="  596.9215" y="  508.5890" height="    0.4801" width="    0.4801" fill="#ADADAD"/>
<rect x="  597.3940" y="  508.5890" height="    0.4801" width="    0.4801" fill="#F7F7F7"/>
<rect x="  594.5593" y="  509.0462" height="    0.4801" width="    0.4801" fill="#EFEFEF"/>
<rect x="  595.0318" y="  509.0462" height="    0.4801" width="    0.4801" fill="#9C9C9C"/>
<rect x="  595.5042" y="  509.0462" height="    0.4801" width="    0.4801" fill="#8C8C8C"/>
<rect x="  595.9766" y="  509.0462" height="    0.4801" width="    0.4801" fill="#848484"/>
<rect x="  596.4491" y="  509.0462" height="    0.4801" width="    0.4801" fill="#8C8C8C"/>
<rect x="  596.9215" y="  509.0462" height="    0.4801" width="    0.4801" fill="#9C9C9C"/>
<rect x="  597.3940" y="  509.0462" height="    0.4801" width="    0.4801" fill="#F7F7F7"/>
<rect x="  594.5593" y="  509.5034" height="    0.4801" width="    0.4801" fill="#E7E7E7"/>
<rect x="  595.0318" y="  509.5034" height="    0.4801" width="    0.4801" fill="#A5A5A5"/>
<rect x="  595.5042" y="  509.5034" height="    0.4801" width="    0.4801" fill="#949494"/>
<rect x="  595.9766" y="  509.5034" height="    0.4801" width="    0.4801" fill="#8C8C8C"/>
<rect x="  596.4491" y="  509.5034" height="    0.4801" width="    0.4801" fill="#8C8C8C"/>
<rect x="  596.9215" y="  509.5034" height="    0.4801" width="    0.4801" fill="#A5A5A5"/>
<rect x="  597.3940" y="  509.5034" height="    0.4801" width="    0.4801" fill="#F7F7F7"/>
M   595.2756   502.8740
<path stroke-width="    0.5669" stroke="#000000" fill="none" d=" 
M   595.2756   509.9606
L   594.9803   509.9606
L   595.1280   507.0079
L   591.4370   507.5984
L   592.0276   506.4173
L   588.7795   503.4646
L   589.9606   502.2835
L   589.3701   500.5118
L   590.8465   500.8071
L   591.4370   499.3307
L   593.5039   501.6929
L   592.9134   497.5591
L   594.0945   498.1496
L   595.2756   495.7874
L   597.4016   495.7874
L   597.4016   500.7480
L   602.3622   500.7480
L   602.3622   505.0000
L   597.4016   505.0000
L   597.4016   509.9606
L   595.2756   509.9606
"/>
M   595.2756   502.8740
<defs>  <path id="kreis" d="M   589.0110,  509.1386 A    8.8594,    8.8594 0 1 1   601.5402,  509.1386"/> </defs>
<text font-size="    3.5433"  font-family="Arial" stroke="none">
<textPath xlink:href="#kreis" >T h e r i a k  -  D o m i n o</textPath> </text>
M   595.2756   502.8740
<path stroke-width="    0.5669" stroke="#000000" fill="none" d=" 
M   136.0630    82.6378
L   135.9154    82.6378
L   135.9892    81.1614
L   134.1437    81.4567
L   134.4390    80.8661
L   132.8150    79.3898
L   133.4055    78.7992
L   133.1102    77.9134
L   133.8484    78.0610
L   134.1437    77.3228
L   135.1772    78.5039
L   134.8819    76.4370
L   135.4724    76.7323
L   136.0630    75.5512
L   137.1260    75.5512
L   137.1260    78.0315
L   139.6063    78.0315
L   139.6063    80.1575
L   137.1260    80.1575
L   137.1260    82.6378
L   136.0630    82.6378
"/>
M   136.0630    79.0945
<path stroke-width="    0.2835" stroke="#000000" fill="none" d=" 
M   141.7323   509.9606
L   141.7323   521.2992
"/>
M   128.7928   536.1811
<text x="  128.7928" y="  536.1811"
 transform="rotate(   -0.0000,  128.7928,  536.1811)"
 font-family="'Arial'" font-size="   13.6070"
 style="fill: #000000; stroke: none">0.00</text>
<path stroke-width="    0.2835" stroke="#000000" fill="none" d=" 
M   162.9921   509.9606
L   162.9921   515.6299
M   184.2520   509.9606
L   184.2520   515.6299
M   205.5118   509.9606
L   205.5118   515.6299
M   226.7717   509.9606
L   226.7717   515.6299
M   248.0315   509.9606
L   248.0315   521.2992
"/>
M   235.0920   536.1811
<text x="  235.0920" y="  536.1811"
 transform="rotate(   -0.0000,  235.0920,  536.1811)"
 font-family="'Arial'" font-size="   13.6070"
 style="fill: #000000; stroke: none">0.25</text>
<path stroke-width="    0.2835" stroke="#000000" fill="none" d=" 
M   269.2913   509.9606
L   269.2913   515.6299
M   290.5512   509.9606
L   290.5512   515.6299
M   311.8110   509.9606
L   311.8110   515.6299
M   333.0709   509.9606
L   333.0709   515.6299
M   354.3307   509.9606
L   354.3307   521.2992
"/>
M   341.3913   536.1811
<text x="  341.3913" y="  536.1811"
 transform="rotate(   -0.0000,  341.3913,  536.1811)"
 font-family="'Arial'" font-size="   13.6070"
 style="fill: #000000; stroke: none">0.50</text>
<path stroke-width="    0.2835" stroke="#000000" fill="none" d=" 
M   375.5906   509.9606
L   375.5906   515.6299
M   396.8504   509.9606
L   396.8504   515.6299
M   418.1102   509.9606
L   418.1102   515.6299
M   439.3701   509.9606
L   439.3701   515.6299
M   460.6299   509.9606
L   460.6299   521.2992
"/>
M   447.6905   536.1811
<text x="  447.6905" y="  536.1811"
 transform="rotate(   -0.0000,  447.6905,  536.1811)"
 font-family="'Arial'" font-size="   13.6070"
 style="fill: #000000; stroke: none">0.75</text>
<path stroke-width="    0.2835" stroke="#000000" fill="none" d=" 
M   481.8898   509.9606
L   481.8898   515.6299
M   503.1496   509.9606
L   503.1496   515.6299
M   524.4094   509.9606
L   524.4094   515.6299
M   545.6693   509.9606
L   545.6693   515.6299
M   566.9291   509.9606
L   566.9291   521.2992
"/>
M   554.3756   536.1811
<text x="  554.3756" y="  536.1811"
 transform="rotate(   -0.0000,  554.3756,  536.1811)"
 font-family="'Arial'" font-size="   13.6070"
 style="fill: #000000; stroke: none">1.00</text>
<path stroke-width="    0.2835" stroke="#000000" fill="none" d=" 
M   566.9291   509.9606
L   141.7323   509.9606
"/>
M   320.5286   557.4409
<text x="  320.5286" y="  557.4409"
 transform="rotate(   -0.0000,  320.5286,  557.4409)"
 font-family="'Arial'" font-size="   19.4386"
 style="fill: #000000; stroke: none">X(CAO)</text>
<path stroke-width="    0.2835" stroke="#000000" fill="none" d=" 
M   141.7323    84.7638
L   141.7323    73.4252
M   162.9921    84.7638
L   162.9921    79.0945
M   184.2520    84.7638
L   184.2520    79.0945
M   205.5118    84.7638
L   205.5118    79.0945
M   226.7717    84.7638
L   226.7717    79.0945
M   248.0315    84.7638
L   248.0315    73.4252
M   269.2913    84.7638
L   269.2913    79.0945
M   290.5512    84.7638
L   290.5512    79.0945
M   311.8110    84.7638
L   311.8110    79.0945
M   333.0709    84.7638
L   333.0709    79.0945
M   354.3307    84.7638
L   354.3307    73.4252
M   375.5906    84.7638
L   375.5906    79.0945
M   396.8504    84.7638
L   396.8504    79.0945
M   418.1102    84.7638
L   418.1102    79.0945
M   439.3701    84.7638
L   439.3701    79.0945
M   460.6299    84.7638
L   460.6299    73.4252
M   481.8898    84.7638
L   481.8898    79.0945
M   503.1496    84.7638
L   503.1496    79.0945
M   524.4094    84.7638
L   524.4094    79.0945
M   545.6693    84.7638
L   545.6693    79.0945
M   566.9291    84.7638
L   566.9291    73.4252
M   566.9291    84.7638
L   141.7323    84.7638
"/>
<path stroke-width="    0.2835" stroke="#000000" fill="none" d=" 
M   141.7323   509.9606
L   130.3937   509.9606
"/>
M    96.5434   514.9213
<text x="   96.5434" y="  514.9213"
 transform="rotate(   -0.0000,   96.5434,  514.9213)"
 font-family="'Arial'" font-size="   13.6070"
 style="fill: #000000; stroke: none">1000</text>
<path stroke-width="    0.2835" stroke="#000000" fill="none" d=" 
M   141.7323   488.7008
L   136.0630   488.7008
M   141.7323   467.4409
L   130.3937   467.4409
M   141.7323   446.1811
L   136.0630   446.1811
M   141.7323   424.9213
L   130.3937   424.9213
"/>
M    96.5434   429.8819
<text x="   96.5434" y="  429.8819"
 transform="rotate(   -0.0000,   96.5434,  429.8819)"
 font-family="'Arial'" font-size="   13.6070"
 style="fill: #000000; stroke: none">1200</text>
<path stroke-width="    0.2835" stroke="#000000" fill="none" d=" 
M   141.7323   403.6614
L   136.0630   403.6614
M   141.7323   382.4016
L   130.3937   382.4016
M   141.7323   361.1417
L   136.0630   361.1417
M   141.7323   339.8819
L   130.3937   339.8819
"/>
M    96.5434   344.8425
<text x="   96.5434" y="  344.8425"
 transform="rotate(   -0.0000,   96.5434,  344.8425)"
 font-family="'Arial'" font-size="   13.6070"
 style="fill: #000000; stroke: none">1400</text>
<path stroke-width="    0.2835" stroke="#000000" fill="none" d=" 
M   141.7323   318.6220
L   136.0630   318.6220
M   141.7323   297.3622
L   130.3937   297.3622
M   141.7323   276.1024
L   136.0630   276.1024
M   141.7323   254.8425
L   130.3937   254.8425
"/>
M    96.5434   259.8031
<text x="   96.5434" y="  259.8031"
 transform="rotate(   -0.0000,   96.5434,  259.8031)"
 font-family="'Arial'" font-size="   13.6070"
 style="fill: #000000; stroke: none">1600</text>
<path stroke-width="    0.2835" stroke="#000000" fill="none" d=" 
M   141.7323   233.5827
L   136.0630   233.5827
M   141.7323   212.3228
L   130.3937   212.3228
M   141.7323   191.0630
L   136.0630   191.0630
M   141.7323   169.8031
L   130.3937   169.8031
"/>
M    96.5434   174.7638
<text x="   96.5434" y="  174.7638"
 transform="rotate(   -0.0000,   96.5434,  174.7638)"
 font-family="'Arial'" font-size="   13.6070"
 style="fill: #000000; stroke: none">1800</text>
<path stroke-width="    0.2835" stroke="#000000" fill="none" d=" 
M   141.7323   148.5433
L   136.0630   148.5433
M   141.7323   127.2835
L   130.3937   127.2835
M   141.7323   106.0236
L   136.0630   106.0236
M   141.7323    84.7638
L   130.3937    84.7638
"/>
M    95.6299    89.7244
<text x="   95.6299" y="   89.7244"
 transform="rotate(   -0.0000,   95.6299,   89.7244)"
 font-family="'Arial'" font-size="   13.6070"
 style="fill: #000000; stroke: none">2000</text>
<path stroke-width="    0.2835" stroke="#000000" fill="none" d=" 
M   141.7323    84.7638
L   141.7323   509.9606
"/>
M    81.5982   368.4578
<text x="   81.5982" y="  368.4578"
 transform="rotate(  -90.0000,   81.5982,  368.4578)"
 font-family="'Arial'" font-size="   19.4386"
 style="fill: #000000; stroke: none">Temperature [C]</text>
<path stroke-width="    0.2835" stroke="#000000" fill="none" d=" 
M   566.9291   509.9606
L   578.2677   509.9606
M   566.9291   488.7008
L   572.5984   488.7008
M   566.9291   467.4409
L   578.2677   467.4409
M   566.9291   446.1811
L   572.5984   446.1811
M   566.9291   424.9213
L   578.2677   424.9213
M   566.9291   403.6614
L   572.5984   403.6614
M   566.9291   382.4016
L   578.2677   382.4016
M   566.9291   361.1417
L   572.5984   361.1417
M   566.9291   339.8819
L   578.2677   339.8819
M   566.9291   318.6220
L   572.5984   318.6220
M   566.9291   297.3622
L   578.2677   297.3622
M   566.9291   276.1024
L   572.5984   276.1024
M   566.9291   254.8425
L   578.2677   254.8425
M   566.9291   233.5827
L   572.5984   233.5827
M   566.9291   212.3228
L   578.2677   212.3228
M   566.9291   191.0630
L   572.5984   191.0630
M   566.9291   169.8031
L   578.2677   169.8031
M   566.9291   148.5433
L   572.5984   148.5433
M   566.9291   127.2835
L   578.2677   127.2835
M   566.9291   106.0236
L   572.5984   106.0236
M   566.9291    84.7638
L   578.2677    84.7638
M   566.9291    84.7638
L   566.9291   509.9606
"/>
M   120.0383    63.5039
<text x="  120.0383" y="   63.5039"
 transform="rotate(   -0.0000,  120.0383,   63.5039)"
 font-family="'Arial'" font-size="   19.4386"
 style="fill: #000000; stroke: none">SIO2</text>
M   546.3286    63.5039
<text x="  546.3286" y="   63.5039"
 transform="rotate(   -0.0000,  546.3286,   63.5039)"
 font-family="'Arial'" font-size="   19.4386"
 style="fill: #000000; stroke: none">CAO</text>
M   312.8287    63.5039
<text x="  312.8287" y="   63.5039"
 transform="rotate(   -0.0000,  312.8287,   63.5039)"
 font-family="'Arial'" font-size="   19.4386"
 style="fill: #000000; stroke: none">P = 1 Bar</text>
<path stroke-width="    0.2835" stroke="#000000" fill="none" d=" 
M   460.6299    84.7638
L   460.6299   239.9606
L   460.6299   376.0236
L   460.6299   444.0551
L   460.6299   478.0709
L   460.6299   495.0787
L   460.6299   503.5827
L   460.6299   507.8346
L   460.6299   509.9606
L   566.9291   509.9606
L   566.9291   507.8346
L   566.9291   503.5827
L   566.9291   495.0787
L   566.9291   478.0709
L   566.9291   444.0551
L   566.9291   376.0236
L   566.9291   239.9606
L   566.9291    84.7638
Z 
"/>
"/>
<path stroke-width="    0.2835" stroke="#000000" fill="none" d=" 
M   425.1970   323.8897
L   425.1970   326.5348
L   425.1970   327.8573
L   425.1970   335.2047
L   425.1970   376.0236
L   425.1970   444.0551
L   425.1970   478.0709
L   425.1970   495.0787
L   425.1970   503.5827
L   425.1970   507.8346
L   425.1970   509.9606
L   460.6299   509.9606
L   460.6299   507.8346
L   460.6299   503.5827
L   460.6299   495.0787
L   460.6299   478.0709
L   460.6299   444.0551
L   460.6299   376.0236
L   460.6299   335.2047
L   460.6299   327.8573
L   460.6299   326.5348
L   460.6299   323.8897
Z 
"/>
"/>
<path stroke-width="    0.2835" stroke="#000000" fill="none" d=" 
M   396.8504   323.8897
L   396.8504   326.5348
L   396.8504   327.8573
L   396.8504   335.2047
L   396.8504   376.0236
L   396.8504   444.0551
L   396.8504   478.0709
L   396.8504   495.0787
L   396.8504   503.5827
L   396.8504   507.8346
L   396.8504   509.9606
L   425.1970   509.9606
L   425.1970   507.8346
L   425.1970   503.5827
L   425.1970   495.0787
L   425.1970   478.0709
L   425.1970   444.0551
L   425.1970   376.0236
L   425.1970   335.2047
L   425.1970   327.8573
L   425.1970   326.5348
L   425.1970   323.8897
Z 
"/>
"/>
<path stroke-width="    0.2835" stroke="#000000" fill="none" d=" 
M   354.3307   461.0238
L   354.3307   461.0953
L   354.3307   461.2143
L   354.3307   461.4127
L   354.3307   461.7433
L   354.3307   467.8661
L   354.3307   478.0709
L   354.3307   495.0787
L   354.3307   503.5827
L   354.3307   507.8346
L   354.3307   509.9606
L   396.8504   509.9606
L   396.8504   507.8346
L   396.8504   503.5827
L   396.8504   495.0787
L   396.8504   478.0709
L   396.8504   467.8661
L   396.8504   461.7433
L   396.8504   461.4127
L   396.8504   461.2143
L   396.8504   461.0953
L   396.8504   461.0238
Z 
"/>
"/>
<path stroke-width="    0.2835" stroke="#000000" fill="none" d=" 
M   141.7323   461.0238
L   141.7323   461.0953
L   141.7323   461.2143
L   141.7323   461.4127
L   141.7323   461.7433
L   141.7323   467.8661
L   141.7323   478.0709
L   141.7323   495.0787
L   141.7323   503.5827
L   141.7323   507.8346
L   141.7323   509.9606
L   354.3307   509.9606
L   354.3307   507.8346
L   354.3307   503.5827
L   354.3307   495.0787
L   354.3307   478.0709
L   354.3307   467.8661
L   354.3307   461.7433
L   354.3307   461.4127
L   354.3307   461.2143
L   354.3307   461.0953
L   354.3307   461.0238
Z 
"/>
"/>
<path stroke-width="    0.2835" stroke="#000000" fill="none" d=" 
M   354.3307   319.3683
L   354.3307   319.5111
L   354.3307   319.7492
L   354.3307   320.1459
L   354.3307   322.3501
L   354.3307   326.0238
L   354.3307   394.0553
L   354.3307   428.0711
L   354.3307   445.0790
L   354.3307   453.5829
L   354.3307   457.8349
L   354.3307   459.9609
L   354.3307   460.4924
L   354.3307   460.7581
L   354.3307   460.8910
L   396.8504   460.8910
L   396.8504   460.7581
L   396.8504   460.4924
L   396.8504   459.9609
L   396.8504   457.8349
L   396.8504   453.5829
L   396.8504   445.0790
L   396.8504   428.0711
L   396.8504   394.0553
L   396.8504   326.0238
L   396.8504   322.3501
L   396.8504   320.1459
L   396.8504   319.7492
L   396.8504   319.5111
L   396.8504   319.3683
Z 
"/>
"/>
<path stroke-width="    0.2835" stroke="#000000" fill="none" d=" 
M   141.7323   340.5518
L   141.7323   340.6946
L   141.7323   349.5115
L   141.7323   353.9200
L   141.7323   361.2674
L   141.7323   373.5130
L   141.7323   393.9225
L   141.7323   427.9382
L   141.7323   444.9461
L   141.7323   453.4500
L   141.7323   457.7020
L   141.7323   459.8280
L   141.7323   460.8910
L   354.3307   460.8910
L   354.3307   459.8280
L   354.3307   457.7020
L   354.3307   453.4500
L   354.3307   444.9461
L   354.3307   427.9382
L   354.3307   393.9225
L   354.3307   373.5130
L   354.3307   361.2674
L   354.3307   353.9200
L   354.3307   349.5115
L   354.3307   340.6946
L   354.3307   340.5518
Z 
"/>
"/>
<path stroke-width="    0.2835" stroke="#000000" fill="none" d=" 
M   353.1674   280.5141
L   351.6860   280.7495
L   351.1932   280.8672
L   349.2411   281.5210
L   347.0292   282.6108
L   344.3143   284.4270
L   340.8503   287.4540
L   333.4561   296.2274
L   325.1409   309.0039
L   316.3049   324.6069
L   311.6699   333.1109
L   309.3449   337.3628
L   308.1735   339.4888
L   307.8797   340.0203
L   307.7325   340.2860
L   307.6586   340.4189
L   307.6220   340.4854
L   354.3307   340.4854
L   354.3307   340.4189
L   354.3307   340.2860
L   354.3307   340.0203
L   354.3307   339.4888
L   354.3307   337.3628
L   354.3307   333.1109
L   354.3307   324.6069
L   354.3307   309.0039
L   354.3307   296.2274
L   354.3307   287.4540
L   354.3307   284.4270
L   354.3307   282.6108
L   354.3307   281.5210
L   354.3307   280.8672
L   354.3307   280.7495
L   354.3307   280.5141
Z 
"/>
"/>
<path stroke-width="    0.2835" stroke="#000000" fill="none" d=" 
M   141.7323   314.0108
L   141.7323   314.2092
L   141.7323   314.5398
L   141.7323   316.3767
L   141.7323   319.4381
L   141.7323   324.5405
L   141.7323   333.0444
L   141.7323   337.2964
L   141.7323   339.4224
L   141.7323   340.4854
L   307.6156   340.4854
L   307.3005   339.4224
L   306.6661   337.2964
L   305.3795   333.0444
L   302.7356   324.5405
L   301.1016   319.4381
L   300.1028   316.3767
L   299.4965   314.5398
L   299.3872   314.2092
L   299.3213   314.0108
Z 
"/>
"/>
<path stroke-width="    0.2835" stroke="#000000" fill="none" d=" 
M   141.7323   216.4527
L   141.7323   216.5591
L   141.7323   218.5306
L   141.7323   219.5164
L   141.7323   221.1593
L   141.7323   223.8975
L   141.7323   228.4611
L   141.7323   243.4117
L   141.7323   260.9268
L   141.7323   281.0581
L   141.7323   298.0660
L   141.7323   306.5699
L   141.7323   310.8219
L   141.7323   312.9478
L   141.7323   313.4793
L   141.7323   313.7451
L   141.7323   313.8780
L   299.2771   313.8780
L   299.2329   313.7451
L   299.1444   313.4793
L   298.9675   312.9478
L   298.2549   310.8219
L   296.8075   306.5699
L   293.8222   298.0660
L   287.4396   281.0581
L   279.0092   260.9268
L   270.6111   243.4117
L   262.2535   228.4611
L   259.3813   223.8975
L   257.5614   221.1593
L   256.4291   219.5164
L   255.7339   218.5306
L   254.3044   216.5591
L   254.2258   216.4527
Z 
"/>
"/>
<path stroke-width="    0.2835" stroke="#000000" fill="none" d=" 
M   141.7323   197.5076
L   141.7323   198.0587
L   141.7323   198.9771
L   141.7323   200.5078
L   141.7323   209.0117
L   141.7323   213.2637
L   141.7323   215.3897
L   141.7323   215.9212
L   141.7323   216.1869
L   141.7323   216.3198
L   141.7323   216.3862
L   141.7323   216.4195
L   151.4561   216.4195
L   151.4323   216.3862
L   151.3843   216.3198
L   151.2903   216.1869
L   151.0998   215.9212
L   150.7311   215.3897
L   149.3637   213.2637
L   146.9988   209.0117
L   143.1546   200.5078
L   142.5457   198.9771
L   142.1898   198.0587
L   141.9793   197.5076
Z 
"/>
"/>
<path stroke-width="    0.2835" stroke="#000000" fill="none" d=" 
M   184.8413   120.2383
L   180.8211   121.5018
L   179.6892   122.1336
L   178.1763   123.1866
L   175.0286   126.2146
L   171.7873   130.6756
L   168.6651   136.4919
L   165.7159   143.6174
L   162.9556   152.0126
L   160.3869   161.6439
L   158.0080   172.4819
L   155.5729   185.9691
L   153.4205   200.4746
L   152.3320   208.9785
L   151.8282   213.2305
L   151.5858   215.3565
L   151.4667   216.4195
L   254.2049   216.4195
L   253.7389   215.3565
L   252.8009   213.2305
L   250.9024   208.9785
L   247.0055   200.4746
L   240.0114   185.9691
L   233.0250   172.4819
L   226.9613   161.6439
L   221.1021   152.0126
L   215.4648   143.6174
L   210.0695   136.4919
L   204.9484   130.6756
L   200.1743   126.2146
L   195.9857   123.1866
L   194.1110   122.1336
L   192.7623   121.5018
L   188.3079   120.2383
Z 
"/>
"/>
<path stroke-width="    0.2835" stroke="#000000" fill="none" d=" 
M   354.3307   280.4878
L   354.3307   280.5566
L   354.3307   280.9393
L   354.3307   281.5771
L   354.3307   283.7031
L   354.3307   287.9551
L   354.3307   296.4590
L   354.3307   309.6759
L   354.3307   319.3163
L   381.6075   319.3163
L   378.3029   309.6759
L   372.4734   296.4590
L   367.0020   287.9551
L   362.7951   283.7031
L   359.3642   281.5771
L   357.6540   280.9393
L   355.8516   280.5566
L   355.1790   280.4878
Z 
"/>
"/>
<path stroke-width="    0.2835" stroke="#000000" fill="none" d=" 
M   396.8504   313.6859
L   396.8504   313.8237
L   396.8504   314.0533
L   396.8504   318.3053
L   396.8504   320.4313
L   396.8504   322.5573
L   396.8504   323.6202
L   396.8504   323.7531
L   425.1970   323.7531
L   425.1970   323.6202
L   425.1970   322.5573
L   425.1970   320.4313
L   425.1970   318.3053
L   425.1970   314.0533
L   425.1970   313.8237
L   425.1970   313.6859
Z 
"/>
"/>
<path stroke-width="    0.2835" stroke="#000000" fill="none" d=" 
M   425.1970    84.7638
L   425.1970   188.7531
L   425.1970   256.7846
L   425.1970   290.8004
L   425.1970   307.8082
L   425.1970   316.3122
L   425.1970   320.5641
L   425.1970   322.6901
L   425.1970   323.7531
L   460.6299   323.7531
L   460.6299   322.6901
L   460.6299   320.5641
L   460.6299   316.3122
L   460.6299   307.8082
L   460.6299   290.8004
L   460.6299   256.7846
L   460.6299   188.7531
L   460.6299    84.7638
Z 
"/>
"/>
<path stroke-width="    0.2835" stroke="#000000" fill="none" d=" 
M   401.2495    84.7638
L   401.1194    85.8268
L   400.8626    87.9528
L   400.3587    92.2047
L   399.3901   100.7087
L   397.5890   117.7165
L   394.4234   151.7323
L   389.3367   219.7638
L   385.9994   276.6317
L   384.5805   305.0656
L   384.2497   312.1741
L   384.2093   313.0627
L   384.1889   313.5070
L   384.1838   313.6180
L   425.1970   313.6180
L   425.1970   313.5070
L   425.1970   313.0627
L   425.1970   312.1741
L   425.1970   305.0656
L   425.1970   276.6317
L   425.1970   219.7638
L   425.1970   151.7323
L   425.1970   117.7165
L   425.1970   100.7087
L   425.1970    92.2047
L   425.1970    87.9528
L   425.1970    85.8268
L   425.1970    84.7638
Z 
"/>
"/>
<path stroke-width="    0.2835" stroke="#000000" fill="none" d=" 
M   384.1744   313.6512
L   384.1583   313.6845
L   384.1255   313.7509
L   384.0605   313.8838
L   383.9316   314.1495
L   383.6769   314.6810
L   382.7003   316.8070
L   381.7818   318.9330
L   381.6709   319.1987
L   381.6152   319.3316
L   396.8504   319.3316
L   396.8504   319.1987
L   396.8504   318.9330
L   396.8504   316.8070
L   396.8504   314.6810
L   396.8504   314.1495
L   396.8504   313.8838
L   396.8504   313.7509
L   396.8504   313.6845
L   396.8504   313.6512
Z 
"/>
"/>
<circle cx="  566.9291" cy="  509.9606" r="    1.4173" stroke-width="    0.2835" stroke="#000000" fill="#000000" /> 
M   566.9291   509.9606
M   547.8662   507.1260
<text x="  547.8662" y="  507.1260"
 transform="rotate(   -0.0000,  547.8662,  507.1260)"
 font-family="'Arial'" font-size="    7.7754"
 style="fill: #000000; stroke: none">Lime</text>
<circle cx="  460.6299" cy="  509.9606" r="    1.4173" stroke-width="    0.2835" stroke="#000000" fill="#000000" /> 
M   460.6299   509.9606
M   463.4646   507.1260
<text x="  463.4646" y="  507.1260"
 transform="rotate(   -0.0000,  463.4646,  507.1260)"
 font-family="'Arial'" font-size="    7.7754"
 style="fill: #000000; stroke: none">3Ca1Si</text>
<circle cx="  425.1983" cy="  509.9606" r="    1.4173" stroke-width="    0.2835" stroke="#000000" fill="#000000" /> 
M   425.1983   509.9606
M   428.0329   507.1260
<text x="  428.0329" y="  507.1260"
 transform="rotate(   -0.0000,  428.0329,  507.1260)"
 font-family="'Arial'" font-size="    7.7754"
 style="fill: #000000; stroke: none">a'-Larn</text>
<circle cx="  425.1983" cy="  323.7542" r="    1.4173" stroke-width="    0.2835" stroke="#000000" fill="#000000" /> 
M   425.1983   323.7542
M   428.0329   320.9195
<text x="  428.0329" y="  320.9195"
 transform="rotate(   -0.0000,  428.0329,  320.9195)"
 font-family="'Arial'" font-size="    7.7754"
 style="fill: #000000; stroke: none">a-Larn</text>
<circle cx="  396.8504" cy="  509.9606" r="    1.4173" stroke-width="    0.2835" stroke="#000000" fill="#000000" /> 
M   396.8504   509.9606
M   399.6850   507.1260
<text x="  399.6850" y="  507.1260"
 transform="rotate(   -0.0000,  399.6850,  507.1260)"
 font-family="'Arial'" font-size="    7.7754"
 style="fill: #000000; stroke: none">Rank</text>
<circle cx="  354.3307" cy="  509.9606" r="    1.4173" stroke-width="    0.2835" stroke="#000000" fill="#000000" /> 
M   354.3307   509.9606
M   357.1654   507.1260
<text x="  357.1654" y="  507.1260"
 transform="rotate(   -0.0000,  357.1654,  507.1260)"
 font-family="'Arial'" font-size="    7.7754"
 style="fill: #000000; stroke: none">Woll</text>
<circle cx="  354.3307" cy="  460.8929" r="    1.4173" stroke-width="    0.2835" stroke="#000000" fill="#000000" /> 
M   354.3307   460.8929
M   357.1654   458.0583
<text x="  357.1654" y="  458.0583"
 transform="rotate(   -0.0000,  357.1654,  458.0583)"
 font-family="'Arial'" font-size="    7.7754"
 style="fill: #000000; stroke: none">ps-Woll</text>
<circle cx="  141.7323" cy="  509.9606" r="    1.4173" stroke-width="    0.2835" stroke="#000000" fill="#000000" /> 
M   141.7323   509.9606
M   144.5669   507.1260
<text x="  144.5669" y="  507.1260"
 transform="rotate(   -0.0000,  144.5669,  507.1260)"
 font-family="'Arial'" font-size="    7.7754"
 style="fill: #000000; stroke: none">b-Trid</text>
<circle cx="  141.7323" cy="  313.8769" r="    1.4173" stroke-width="    0.2835" stroke="#000000" fill="#000000" /> 
M   141.7323   313.8769
M   144.5669   311.0422
<text x="  144.5669" y="  311.0422"
 transform="rotate(   -0.0000,  144.5669,  311.0422)"
 font-family="'Arial'" font-size="    7.7754"
 style="fill: #000000; stroke: none">b-Crist</text>
<path stroke-width="    0.2835" stroke="#000000" fill="none" d=" 
"/>
M   566.9291   566.6535
<text x="  566.9291" y="  566.6535"
 transform="rotate(   -0.0000,  566.9291,  566.6535)"
 font-family="'Arial'" font-size="    7.7754"
 style="fill: #000000; stroke: none">24.06.2020 - 10:57:38  CPU time:    0h 00m 00.25s</text>
M   609.4488    94.6850
<text x="  609.4488" y="   94.6850"
 transform="rotate(   -0.0000,  609.4488,   94.6850)"
 font-family="'Arial'" font-size="    7.7754"
 style="fill: #000000; stroke: none">therbin version: 09.03.2019</text>
M   609.4488   104.6063
<text x="  609.4488" y="  104.6063"
 transform="rotate(   -0.0000,  609.4488,  104.6063)"
 font-family="'Arial'" font-size="    7.7754"
 style="fill: #000000; stroke: none">database: sialca</text>
M   609.4488   114.5276
<text x="  609.4488" y="  114.5276"
 transform="rotate(   -0.0000,  609.4488,  114.5276)"
 font-family="'Arial'" font-size="    7.7754"
 style="fill: #000000; stroke: none">*LIQUID: ideal+margules</text>

</g>

</svg>
