<?xml version="1.0" encoding="utf-8"?>
<svg version="1.1"
xmlns="http://www.w3.org/2000/svg"
xmlns:xlink="http://www.w3.org/1999/xlink" 
width="29.7cm" height="21cm"
viewBox="0 0 842 595">
<g xml:space="preserve" stroke-linecap="round" stroke-linejoin="round" stroke-miterlimit="10">
<path stroke-width="    0.5669" stroke="#000000" fill="none" d=" 
M   609.4488   304.4488
"/>
<rect x="  609.2050" y="  297.3622" height="    0.4801" width="    0.4801" fill="#CECECE"/>
<rect x="  609.6774" y="  297.3622" height="    0.4801" width="    0.4801" fill="#BDBDBD"/>
<rect x="  610.1499" y="  297.3622" height="    0.4801" width="    0.4801" fill="#B5B5B5"/>
<rect x="  610.6223" y="  297.3622" height="    0.4801" width="    0.4801" fill="#9C9C9C"/>
<rect x="  611.0947" y="  297.3622" height="    0.4801" width="    0.4801" fill="#8C8C8C"/>
<rect x="  611.5672" y="  297.3622" height="    0.4801" width="    0.4801" fill="#EFEFEF"/>
<rect x="  608.7325" y="  297.8194" height="    0.4801" width="    0.4801" fill="#E7E7E7"/>
<rect x="  609.2050" y="  297.8194" height="    0.4801" width="    0.4801" fill="#C6C6C6"/>
<rect x="  609.6774" y="  297.8194" height="    0.4801" width="    0.4801" fill="#BDBDBD"/>
<rect x="  610.1499" y="  297.8194" height="    0.4801" width="    0.4801" fill="#ADADAD"/>
<rect x="  610.6223" y="  297.8194" height="    0.4801" width="    0.4801" fill="#949494"/>
<rect x="  611.0947" y="  297.8194" height="    0.4801" width="    0.4801" fill="#7B7B7B"/>
<rect x="  611.5672" y="  297.8194" height="    0.4801" width="    0.4801" fill="#EFEFEF"/>
<rect x="  608.7325" y="  298.2766" height="    0.4801" width="    0.4801" fill="#D6D6D6"/>
<rect x="  609.2050" y="  298.2766" height="    0.4801" width="    0.4801" fill="#C6C6C6"/>
<rect x="  609.6774" y="  298.2766" height="    0.4801" width="    0.4801" fill="#B5B5B5"/>
<rect x="  610.1499" y="  298.2766" height="    0.4801" width="    0.4801" fill="#A5A5A5"/>
<rect x="  610.6223" y="  298.2766" height="    0.4801" width="    0.4801" fill="#8C8C8C"/>
<rect x="  611.0947" y="  298.2766" height="    0.4801" width="    0.4801" fill="#6B6B6B"/>
<rect x="  611.5672" y="  298.2766" height="    0.4801" width="    0.4801" fill="#EFEFEF"/>
<rect x="  608.2601" y="  298.7338" height="    0.4801" width="    0.4801" fill="#EFEFEF"/>
<rect x="  608.7325" y="  298.7338" height="    0.4801" width="    0.4801" fill="#CECECE"/>
<rect x="  609.2050" y="  298.7338" height="    0.4801" width="    0.4801" fill="#C6C6C6"/>
<rect x="  609.6774" y="  298.7338" height="    0.4801" width="    0.4801" fill="#B5B5B5"/>
<rect x="  610.1499" y="  298.7338" height="    0.4801" width="    0.4801" fill="#9C9C9C"/>
<rect x="  610.6223" y="  298.7338" height="    0.4801" width="    0.4801" fill="#737373"/>
<rect x="  611.0947" y="  298.7338" height="    0.4801" width="    0.4801" fill="#737373"/>
<rect x="  611.5672" y="  298.7338" height="    0.4801" width="    0.4801" fill="#EFEFEF"/>
<rect x="  606.8428" y="  299.1910" height="    0.4801" width="    0.4801" fill="#F7F7F7"/>
<rect x="  607.3152" y="  299.1910" height="    0.4801" width="    0.4801" fill="#F7F7F7"/>
<rect x="  607.7877" y="  299.1910" height="    0.4801" width="    0.4801" fill="#F7F7F7"/>
<rect x="  608.2601" y="  299.1910" height="    0.4801" width="    0.4801" fill="#DEDEDE"/>
<rect x="  608.7325" y="  299.1910" height="    0.4801" width="    0.4801" fill="#CECECE"/>
<rect x="  609.2050" y="  299.1910" height="    0.4801" width="    0.4801" fill="#BDBDBD"/>
<rect x="  609.6774" y="  299.1910" height="    0.4801" width="    0.4801" fill="#ADADAD"/>
<rect x="  610.1499" y="  299.1910" height="    0.4801" width="    0.4801" fill="#8C8C8C"/>
<rect x="  610.6223" y="  299.1910" height="    0.4801" width="    0.4801" fill="#6B6B6B"/>
<rect x="  611.0947" y="  299.1910" height="    0.4801" width="    0.4801" fill="#848484"/>
<rect x="  611.5672" y="  299.1910" height="    0.4801" width="    0.4801" fill="#F7F7F7"/>
<rect x="  606.8428" y="  299.6482" height="    0.4801" width="    0.4801" fill="#F7F7F7"/>
<rect x="  607.3152" y="  299.6482" height="    0.4801" width="    0.4801" fill="#E7E7E7"/>
<rect x="  607.7877" y="  299.6482" height="    0.4801" width="    0.4801" fill="#E7E7E7"/>
<rect x="  608.2601" y="  299.6482" height="    0.4801" width="    0.4801" fill="#D6D6D6"/>
<rect x="  608.7325" y="  299.6482" height="    0.4801" width="    0.4801" fill="#C6C6C6"/>
<rect x="  609.2050" y="  299.6482" height="    0.4801" width="    0.4801" fill="#BDBDBD"/>
<rect x="  609.6774" y="  299.6482" height="    0.4801" width="    0.4801" fill="#9C9C9C"/>
<rect x="  610.1499" y="  299.6482" height="    0.4801" width="    0.4801" fill="#737373"/>
<rect x="  610.6223" y="  299.6482" height="    0.4801" width="    0.4801" fill="#737373"/>
<rect x="  611.0947" y="  299.6482" height="    0.4801" width="    0.4801" fill="#949494"/>
<rect x="  611.5672" y="  299.6482" height="    0.4801" width="    0.4801" fill="#F7F7F7"/>
<rect x="  606.8428" y="  300.1054" height="    0.4801" width="    0.4801" fill="#F7F7F7"/>
<rect x="  607.3152" y="  300.1054" height="    0.4801" width="    0.4801" fill="#E7E7E7"/>
<rect x="  607.7877" y="  300.1054" height="    0.4801" width="    0.4801" fill="#DEDEDE"/>
<rect x="  608.2601" y="  300.1054" height="    0.4801" width="    0.4801" fill="#CECECE"/>
<rect x="  608.7325" y="  300.1054" height="    0.4801" width="    0.4801" fill="#BDBDBD"/>
<rect x="  609.2050" y="  300.1054" height="    0.4801" width="    0.4801" fill="#ADADAD"/>
<rect x="  609.6774" y="  300.1054" height="    0.4801" width="    0.4801" fill="#8C8C8C"/>
<rect x="  610.1499" y="  300.1054" height="    0.4801" width="    0.4801" fill="#6B6B6B"/>
<rect x="  610.6223" y="  300.1054" height="    0.4801" width="    0.4801" fill="#7B7B7B"/>
<rect x="  611.0947" y="  300.1054" height="    0.4801" width="    0.4801" fill="#9C9C9C"/>
<rect x="  611.5672" y="  300.1054" height="    0.4801" width="    0.4801" fill="#F7F7F7"/>
<rect x="  606.8428" y="  300.5626" height="    0.4801" width="    0.4801" fill="#F7F7F7"/>
<rect x="  607.3152" y="  300.5626" height="    0.4801" width="    0.4801" fill="#E7E7E7"/>
<rect x="  607.7877" y="  300.5626" height="    0.4801" width="    0.4801" fill="#D6D6D6"/>
<rect x="  608.2601" y="  300.5626" height="    0.4801" width="    0.4801" fill="#C6C6C6"/>
<rect x="  608.7325" y="  300.5626" height="    0.4801" width="    0.4801" fill="#B5B5B5"/>
<rect x="  609.2050" y="  300.5626" height="    0.4801" width="    0.4801" fill="#9C9C9C"/>
<rect x="  609.6774" y="  300.5626" height="    0.4801" width="    0.4801" fill="#737373"/>
<rect x="  610.1499" y="  300.5626" height="    0.4801" width="    0.4801" fill="#737373"/>
<rect x="  610.6223" y="  300.5626" height="    0.4801" width="    0.4801" fill="#8C8C8C"/>
<rect x="  611.0947" y="  300.5626" height="    0.4801" width="    0.4801" fill="#A5A5A5"/>
<rect x="  611.5672" y="  300.5626" height="    0.4801" width="    0.4801" fill="#F7F7F7"/>
<rect x="  604.9530" y="  301.0198" height="    0.4801" width="    0.4801" fill="#F7F7F7"/>
<rect x="  606.8428" y="  301.0198" height="    0.4801" width="    0.4801" fill="#F7F7F7"/>
<rect x="  607.3152" y="  301.0198" height="    0.4801" width="    0.4801" fill="#D6D6D6"/>
<rect x="  607.7877" y="  301.0198" height="    0.4801" width="    0.4801" fill="#CECECE"/>
<rect x="  608.2601" y="  301.0198" height="    0.4801" width="    0.4801" fill="#BDBDBD"/>
<rect x="  608.7325" y="  301.0198" height="    0.4801" width="    0.4801" fill="#A5A5A5"/>
<rect x="  609.2050" y="  301.0198" height="    0.4801" width="    0.4801" fill="#848484"/>
<rect x="  609.6774" y="  301.0198" height="    0.4801" width="    0.4801" fill="#636363"/>
<rect x="  610.1499" y="  301.0198" height="    0.4801" width="    0.4801" fill="#7B7B7B"/>
<rect x="  610.6223" y="  301.0198" height="    0.4801" width="    0.4801" fill="#949494"/>
<rect x="  611.0947" y="  301.0198" height="    0.4801" width="    0.4801" fill="#B5B5B5"/>
<rect x="  611.5672" y="  301.0198" height="    0.4801" width="    0.4801" fill="#F7F7F7"/>
<rect x="  604.9530" y="  301.4770" height="    0.4801" width="    0.4801" fill="#F7F7F7"/>
<rect x="  605.4255" y="  301.4770" height="    0.4801" width="    0.4801" fill="#EFEFEF"/>
<rect x="  605.8979" y="  301.4770" height="    0.4801" width="    0.4801" fill="#F7F7F7"/>
<rect x="  606.8428" y="  301.4770" height="    0.4801" width="    0.4801" fill="#F7F7F7"/>
<rect x="  607.3152" y="  301.4770" height="    0.4801" width="    0.4801" fill="#D6D6D6"/>
<rect x="  607.7877" y="  301.4770" height="    0.4801" width="    0.4801" fill="#BDBDBD"/>
<rect x="  608.2601" y="  301.4770" height="    0.4801" width="    0.4801" fill="#ADADAD"/>
<rect x="  608.7325" y="  301.4770" height="    0.4801" width="    0.4801" fill="#8C8C8C"/>
<rect x="  609.2050" y="  301.4770" height="    0.4801" width="    0.4801" fill="#636363"/>
<rect x="  609.6774" y="  301.4770" height="    0.4801" width="    0.4801" fill="#6B6B6B"/>
<rect x="  610.1499" y="  301.4770" height="    0.4801" width="    0.4801" fill="#7B7B7B"/>
<rect x="  610.6223" y="  301.4770" height="    0.4801" width="    0.4801" fill="#A5A5A5"/>
<rect x="  611.0947" y="  301.4770" height="    0.4801" width="    0.4801" fill="#ADADAD"/>
<rect x="  611.5672" y="  301.4770" height="    0.4801" width="    0.4801" fill="#F7F7F7"/>
<rect x="  603.0632" y="  301.9342" height="    0.4801" width="    0.4801" fill="#F7F7F7"/>
<rect x="  603.5357" y="  301.9342" height="    0.4801" width="    0.4801" fill="#F7F7F7"/>
<rect x="  604.4806" y="  301.9342" height="    0.4801" width="    0.4801" fill="#F7F7F7"/>
<rect x="  604.9530" y="  301.9342" height="    0.4801" width="    0.4801" fill="#EFEFEF"/>
<rect x="  605.4255" y="  301.9342" height="    0.4801" width="    0.4801" fill="#EFEFEF"/>
<rect x="  605.8979" y="  301.9342" height="    0.4801" width="    0.4801" fill="#E7E7E7"/>
<rect x="  606.3703" y="  301.9342" height="    0.4801" width="    0.4801" fill="#F7F7F7"/>
<rect x="  607.3152" y="  301.9342" height="    0.4801" width="    0.4801" fill="#CECECE"/>
<rect x="  607.7877" y="  301.9342" height="    0.4801" width="    0.4801" fill="#B5B5B5"/>
<rect x="  608.2601" y="  301.9342" height="    0.4801" width="    0.4801" fill="#949494"/>
<rect x="  608.7325" y="  301.9342" height="    0.4801" width="    0.4801" fill="#636363"/>
<rect x="  609.2050" y="  301.9342" height="    0.4801" width="    0.4801" fill="#5A5A5A"/>
<rect x="  609.6774" y="  301.9342" height="    0.4801" width="    0.4801" fill="#636363"/>
<rect x="  610.1499" y="  301.9342" height="    0.4801" width="    0.4801" fill="#848484"/>
<rect x="  610.6223" y="  301.9342" height="    0.4801" width="    0.4801" fill="#949494"/>
<rect x="  611.0947" y="  301.9342" height="    0.4801" width="    0.4801" fill="#A5A5A5"/>
<rect x="  611.5672" y="  301.9342" height="    0.4801" width="    0.4801" fill="#E7E7E7"/>
<rect x="  612.0396" y="  301.9342" height="    0.4801" width="    0.4801" fill="#EFEFEF"/>
<rect x="  612.5121" y="  301.9342" height="    0.4801" width="    0.4801" fill="#EFEFEF"/>
<rect x="  612.9845" y="  301.9342" height="    0.4801" width="    0.4801" fill="#EFEFEF"/>
<rect x="  613.4569" y="  301.9342" height="    0.4801" width="    0.4801" fill="#EFEFEF"/>
<rect x="  613.9294" y="  301.9342" height="    0.4801" width="    0.4801" fill="#EFEFEF"/>
<rect x="  614.4018" y="  301.9342" height="    0.4801" width="    0.4801" fill="#EFEFEF"/>
<rect x="  614.8743" y="  301.9342" height="    0.4801" width="    0.4801" fill="#EFEFEF"/>
<rect x="  615.3467" y="  301.9342" height="    0.4801" width="    0.4801" fill="#E7E7E7"/>
<rect x="  615.8192" y="  301.9342" height="    0.4801" width="    0.4801" fill="#EFEFEF"/>
<rect x="  616.2916" y="  301.9342" height="    0.4801" width="    0.4801" fill="#E7E7E7"/>
<rect x="  603.0632" y="  302.3914" height="    0.4801" width="    0.4801" fill="#F7F7F7"/>
<rect x="  603.5357" y="  302.3914" height="    0.4801" width="    0.4801" fill="#EFEFEF"/>
<rect x="  604.0081" y="  302.3914" height="    0.4801" width="    0.4801" fill="#EFEFEF"/>
<rect x="  604.4806" y="  302.3914" height="    0.4801" width="    0.4801" fill="#EFEFEF"/>
<rect x="  604.9530" y="  302.3914" height="    0.4801" width="    0.4801" fill="#EFEFEF"/>
<rect x="  605.4255" y="  302.3914" height="    0.4801" width="    0.4801" fill="#E7E7E7"/>
<rect x="  605.8979" y="  302.3914" height="    0.4801" width="    0.4801" fill="#DEDEDE"/>
<rect x="  606.3703" y="  302.3914" height="    0.4801" width="    0.4801" fill="#D6D6D6"/>
<rect x="  606.8428" y="  302.3914" height="    0.4801" width="    0.4801" fill="#EFEFEF"/>
<rect x="  607.3152" y="  302.3914" height="    0.4801" width="    0.4801" fill="#C6C6C6"/>
<rect x="  607.7877" y="  302.3914" height="    0.4801" width="    0.4801" fill="#949494"/>
<rect x="  608.2601" y="  302.3914" height="    0.4801" width="    0.4801" fill="#6B6B6B"/>
<rect x="  608.7325" y="  302.3914" height="    0.4801" width="    0.4801" fill="#636363"/>
<rect x="  609.2050" y="  302.3914" height="    0.4801" width="    0.4801" fill="#6B6B6B"/>
<rect x="  609.6774" y="  302.3914" height="    0.4801" width="    0.4801" fill="#737373"/>
<rect x="  610.1499" y="  302.3914" height="    0.4801" width="    0.4801" fill="#7B7B7B"/>
<rect x="  610.6223" y="  302.3914" height="    0.4801" width="    0.4801" fill="#848484"/>
<rect x="  611.0947" y="  302.3914" height="    0.4801" width="    0.4801" fill="#949494"/>
<rect x="  611.5672" y="  302.3914" height="    0.4801" width="    0.4801" fill="#A5A5A5"/>
<rect x="  612.0396" y="  302.3914" height="    0.4801" width="    0.4801" fill="#ADADAD"/>
<rect x="  612.5121" y="  302.3914" height="    0.4801" width="    0.4801" fill="#ADADAD"/>
<rect x="  612.9845" y="  302.3914" height="    0.4801" width="    0.4801" fill="#B5B5B5"/>
<rect x="  613.4569" y="  302.3914" height="    0.4801" width="    0.4801" fill="#ADADAD"/>
<rect x="  613.9294" y="  302.3914" height="    0.4801" width="    0.4801" fill="#ADADAD"/>
<rect x="  614.4018" y="  302.3914" height="    0.4801" width="    0.4801" fill="#A5A5A5"/>
<rect x="  614.8743" y="  302.3914" height="    0.4801" width="    0.4801" fill="#9C9C9C"/>
<rect x="  615.3467" y="  302.3914" height="    0.4801" width="    0.4801" fill="#9C9C9C"/>
<rect x="  615.8192" y="  302.3914" height="    0.4801" width="    0.4801" fill="#8C8C8C"/>
<rect x="  616.2916" y="  302.3914" height="    0.4801" width="    0.4801" fill="#949494"/>
<rect x="  603.5357" y="  302.8486" height="    0.4801" width="    0.4801" fill="#E7E7E7"/>
<rect x="  604.0081" y="  302.8486" height="    0.4801" width="    0.4801" fill="#E7E7E7"/>
<rect x="  604.4806" y="  302.8486" height="    0.4801" width="    0.4801" fill="#E7E7E7"/>
<rect x="  604.9530" y="  302.8486" height="    0.4801" width="    0.4801" fill="#E7E7E7"/>
<rect x="  605.4255" y="  302.8486" height="    0.4801" width="    0.4801" fill="#DEDEDE"/>
<rect x="  605.8979" y="  302.8486" height="    0.4801" width="    0.4801" fill="#D6D6D6"/>
<rect x="  606.3703" y="  302.8486" height="    0.4801" width="    0.4801" fill="#C6C6C6"/>
<rect x="  606.8428" y="  302.8486" height="    0.4801" width="    0.4801" fill="#BDBDBD"/>
<rect x="  607.3152" y="  302.8486" height="    0.4801" width="    0.4801" fill="#ADADAD"/>
<rect x="  607.7877" y="  302.8486" height="    0.4801" width="    0.4801" fill="#636363"/>
<rect x="  608.2601" y="  302.8486" height="    0.4801" width="    0.4801" fill="#636363"/>
<rect x="  608.7325" y="  302.8486" height="    0.4801" width="    0.4801" fill="#7B7B7B"/>
<rect x="  609.2050" y="  302.8486" height="    0.4801" width="    0.4801" fill="#7B7B7B"/>
<rect x="  609.6774" y="  302.8486" height="    0.4801" width="    0.4801" fill="#7B7B7B"/>
<rect x="  610.1499" y="  302.8486" height="    0.4801" width="    0.4801" fill="#7B7B7B"/>
<rect x="  610.6223" y="  302.8486" height="    0.4801" width="    0.4801" fill="#848484"/>
<rect x="  611.0947" y="  302.8486" height="    0.4801" width="    0.4801" fill="#848484"/>
<rect x="  611.5672" y="  302.8486" height="    0.4801" width="    0.4801" fill="#949494"/>
<rect x="  612.0396" y="  302.8486" height="    0.4801" width="    0.4801" fill="#A5A5A5"/>
<rect x="  612.5121" y="  302.8486" height="    0.4801" width="    0.4801" fill="#A5A5A5"/>
<rect x="  612.9845" y="  302.8486" height="    0.4801" width="    0.4801" fill="#ADADAD"/>
<rect x="  613.4569" y="  302.8486" height="    0.4801" width="    0.4801" fill="#ADADAD"/>
<rect x="  613.9294" y="  302.8486" height="    0.4801" width="    0.4801" fill="#ADADAD"/>
<rect x="  614.4018" y="  302.8486" height="    0.4801" width="    0.4801" fill="#A5A5A5"/>
<rect x="  614.8743" y="  302.8486" height="    0.4801" width="    0.4801" fill="#9C9C9C"/>
<rect x="  615.3467" y="  302.8486" height="    0.4801" width="    0.4801" fill="#949494"/>
<rect x="  615.8192" y="  302.8486" height="    0.4801" width="    0.4801" fill="#8C8C8C"/>
<rect x="  616.2916" y="  302.8486" height="    0.4801" width="    0.4801" fill="#8C8C8C"/>
<rect x="  603.5357" y="  303.3058" height="    0.4801" width="    0.4801" fill="#EFEFEF"/>
<rect x="  604.0081" y="  303.3058" height="    0.4801" width="    0.4801" fill="#DEDEDE"/>
<rect x="  604.4806" y="  303.3058" height="    0.4801" width="    0.4801" fill="#DEDEDE"/>
<rect x="  604.9530" y="  303.3058" height="    0.4801" width="    0.4801" fill="#D6D6D6"/>
<rect x="  605.4255" y="  303.3058" height="    0.4801" width="    0.4801" fill="#CECECE"/>
<rect x="  605.8979" y="  303.3058" height="    0.4801" width="    0.4801" fill="#BDBDBD"/>
<rect x="  606.3703" y="  303.3058" height="    0.4801" width="    0.4801" fill="#ADADAD"/>
<rect x="  606.8428" y="  303.3058" height="    0.4801" width="    0.4801" fill="#848484"/>
<rect x="  607.3152" y="  303.3058" height="    0.4801" width="    0.4801" fill="#5A5A5A"/>
<rect x="  607.7877" y="  303.3058" height="    0.4801" width="    0.4801" fill="#636363"/>
<rect x="  608.2601" y="  303.3058" height="    0.4801" width="    0.4801" fill="#848484"/>
<rect x="  608.7325" y="  303.3058" height="    0.4801" width="    0.4801" fill="#848484"/>
<rect x="  609.2050" y="  303.3058" height="    0.4801" width="    0.4801" fill="#7B7B7B"/>
<rect x="  609.6774" y="  303.3058" height="    0.4801" width="    0.4801" fill="#7B7B7B"/>
<rect x="  610.1499" y="  303.3058" height="    0.4801" width="    0.4801" fill="#7B7B7B"/>
<rect x="  610.6223" y="  303.3058" height="    0.4801" width="    0.4801" fill="#848484"/>
<rect x="  611.0947" y="  303.3058" height="    0.4801" width="    0.4801" fill="#848484"/>
<rect x="  611.5672" y="  303.3058" height="    0.4801" width="    0.4801" fill="#848484"/>
<rect x="  612.0396" y="  303.3058" height="    0.4801" width="    0.4801" fill="#949494"/>
<rect x="  612.5121" y="  303.3058" height="    0.4801" width="    0.4801" fill="#A5A5A5"/>
<rect x="  612.9845" y="  303.3058" height="    0.4801" width="    0.4801" fill="#A5A5A5"/>
<rect x="  613.4569" y="  303.3058" height="    0.4801" width="    0.4801" fill="#ADADAD"/>
<rect x="  613.9294" y="  303.3058" height="    0.4801" width="    0.4801" fill="#A5A5A5"/>
<rect x="  614.4018" y="  303.3058" height="    0.4801" width="    0.4801" fill="#9C9C9C"/>
<rect x="  614.8743" y="  303.3058" height="    0.4801" width="    0.4801" fill="#949494"/>
<rect x="  615.3467" y="  303.3058" height="    0.4801" width="    0.4801" fill="#8C8C8C"/>
<rect x="  615.8192" y="  303.3058" height="    0.4801" width="    0.4801" fill="#848484"/>
<rect x="  616.2916" y="  303.3058" height="    0.4801" width="    0.4801" fill="#848484"/>
<rect x="  603.5357" y="  303.7630" height="    0.4801" width="    0.4801" fill="#E7E7E7"/>
<rect x="  604.0081" y="  303.7630" height="    0.4801" width="    0.4801" fill="#DEDEDE"/>
<rect x="  604.4806" y="  303.7630" height="    0.4801" width="    0.4801" fill="#D6D6D6"/>
<rect x="  604.9530" y="  303.7630" height="    0.4801" width="    0.4801" fill="#CECECE"/>
<rect x="  605.4255" y="  303.7630" height="    0.4801" width="    0.4801" fill="#BDBDBD"/>
<rect x="  605.8979" y="  303.7630" height="    0.4801" width="    0.4801" fill="#9C9C9C"/>
<rect x="  606.3703" y="  303.7630" height="    0.4801" width="    0.4801" fill="#737373"/>
<rect x="  606.8428" y="  303.7630" height="    0.4801" width="    0.4801" fill="#636363"/>
<rect x="  607.3152" y="  303.7630" height="    0.4801" width="    0.4801" fill="#636363"/>
<rect x="  607.7877" y="  303.7630" height="    0.4801" width="    0.4801" fill="#7B7B7B"/>
<rect x="  608.2601" y="  303.7630" height="    0.4801" width="    0.4801" fill="#737373"/>
<rect x="  608.7325" y="  303.7630" height="    0.4801" width="    0.4801" fill="#737373"/>
<rect x="  609.2050" y="  303.7630" height="    0.4801" width="    0.4801" fill="#7B7B7B"/>
<rect x="  609.6774" y="  303.7630" height="    0.4801" width="    0.4801" fill="#848484"/>
<rect x="  610.1499" y="  303.7630" height="    0.4801" width="    0.4801" fill="#7B7B7B"/>
<rect x="  610.6223" y="  303.7630" height="    0.4801" width="    0.4801" fill="#7B7B7B"/>
<rect x="  611.0947" y="  303.7630" height="    0.4801" width="    0.4801" fill="#848484"/>
<rect x="  611.5672" y="  303.7630" height="    0.4801" width="    0.4801" fill="#848484"/>
<rect x="  612.0396" y="  303.7630" height="    0.4801" width="    0.4801" fill="#8C8C8C"/>
<rect x="  612.5121" y="  303.7630" height="    0.4801" width="    0.4801" fill="#8C8C8C"/>
<rect x="  612.9845" y="  303.7630" height="    0.4801" width="    0.4801" fill="#848484"/>
<rect x="  613.4569" y="  303.7630" height="    0.4801" width="    0.4801" fill="#7B7B7B"/>
<rect x="  613.9294" y="  303.7630" height="    0.4801" width="    0.4801" fill="#737373"/>
<rect x="  614.4018" y="  303.7630" height="    0.4801" width="    0.4801" fill="#737373"/>
<rect x="  614.8743" y="  303.7630" height="    0.4801" width="    0.4801" fill="#6B6B6B"/>
<rect x="  615.3467" y="  303.7630" height="    0.4801" width="    0.4801" fill="#636363"/>
<rect x="  615.8192" y="  303.7630" height="    0.4801" width="    0.4801" fill="#5A5A5A"/>
<rect x="  616.2916" y="  303.7630" height="    0.4801" width="    0.4801" fill="#636363"/>
<rect x="  603.0632" y="  304.2202" height="    0.4801" width="    0.4801" fill="#E7E7E7"/>
<rect x="  603.5357" y="  304.2202" height="    0.4801" width="    0.4801" fill="#D6D6D6"/>
<rect x="  604.0081" y="  304.2202" height="    0.4801" width="    0.4801" fill="#C6C6C6"/>
<rect x="  604.4806" y="  304.2202" height="    0.4801" width="    0.4801" fill="#B5B5B5"/>
<rect x="  604.9530" y="  304.2202" height="    0.4801" width="    0.4801" fill="#9C9C9C"/>
<rect x="  605.4255" y="  304.2202" height="    0.4801" width="    0.4801" fill="#848484"/>
<rect x="  605.8979" y="  304.2202" height="    0.4801" width="    0.4801" fill="#737373"/>
<rect x="  606.3703" y="  304.2202" height="    0.4801" width="    0.4801" fill="#7B7B7B"/>
<rect x="  606.8428" y="  304.2202" height="    0.4801" width="    0.4801" fill="#8C8C8C"/>
<rect x="  607.3152" y="  304.2202" height="    0.4801" width="    0.4801" fill="#8C8C8C"/>
<rect x="  607.7877" y="  304.2202" height="    0.4801" width="    0.4801" fill="#7B7B7B"/>
<rect x="  608.2601" y="  304.2202" height="    0.4801" width="    0.4801" fill="#737373"/>
<rect x="  608.7325" y="  304.2202" height="    0.4801" width="    0.4801" fill="#737373"/>
<rect x="  609.2050" y="  304.2202" height="    0.4801" width="    0.4801" fill="#737373"/>
<rect x="  609.6774" y="  304.2202" height="    0.4801" width="    0.4801" fill="#7B7B7B"/>
<rect x="  610.1499" y="  304.2202" height="    0.4801" width="    0.4801" fill="#848484"/>
<rect x="  610.6223" y="  304.2202" height="    0.4801" width="    0.4801" fill="#8C8C8C"/>
<rect x="  611.0947" y="  304.2202" height="    0.4801" width="    0.4801" fill="#9C9C9C"/>
<rect x="  611.5672" y="  304.2202" height="    0.4801" width="    0.4801" fill="#A5A5A5"/>
<rect x="  612.0396" y="  304.2202" height="    0.4801" width="    0.4801" fill="#ADADAD"/>
<rect x="  612.5121" y="  304.2202" height="    0.4801" width="    0.4801" fill="#A5A5A5"/>
<rect x="  612.9845" y="  304.2202" height="    0.4801" width="    0.4801" fill="#A5A5A5"/>
<rect x="  613.4569" y="  304.2202" height="    0.4801" width="    0.4801" fill="#949494"/>
<rect x="  613.9294" y="  304.2202" height="    0.4801" width="    0.4801" fill="#848484"/>
<rect x="  614.4018" y="  304.2202" height="    0.4801" width="    0.4801" fill="#6B6B6B"/>
<rect x="  614.8743" y="  304.2202" height="    0.4801" width="    0.4801" fill="#6B6B6B"/>
<rect x="  615.3467" y="  304.2202" height="    0.4801" width="    0.4801" fill="#636363"/>
<rect x="  615.8192" y="  304.2202" height="    0.4801" width="    0.4801" fill="#6B6B6B"/>
<rect x="  616.2916" y="  304.2202" height="    0.4801" width="    0.4801" fill="#7B7B7B"/>
<rect x="  602.5908" y="  304.6774" height="    0.4801" width="    0.4801" fill="#CECECE"/>
<rect x="  603.0632" y="  304.6774" height="    0.4801" width="    0.4801" fill="#B5B5B5"/>
<rect x="  603.5357" y="  304.6774" height="    0.4801" width="    0.4801" fill="#ADADAD"/>
<rect x="  604.0081" y="  304.6774" height="    0.4801" width="    0.4801" fill="#A5A5A5"/>
<rect x="  604.4806" y="  304.6774" height="    0.4801" width="    0.4801" fill="#9C9C9C"/>
<rect x="  604.9530" y="  304.6774" height="    0.4801" width="    0.4801" fill="#A5A5A5"/>
<rect x="  605.4255" y="  304.6774" height="    0.4801" width="    0.4801" fill="#ADADAD"/>
<rect x="  605.8979" y="  304.6774" height="    0.4801" width="    0.4801" fill="#B5B5B5"/>
<rect x="  606.3703" y="  304.6774" height="    0.4801" width="    0.4801" fill="#ADADAD"/>
<rect x="  606.8428" y="  304.6774" height="    0.4801" width="    0.4801" fill="#A5A5A5"/>
<rect x="  607.3152" y="  304.6774" height="    0.4801" width="    0.4801" fill="#949494"/>
<rect x="  607.7877" y="  304.6774" height="    0.4801" width="    0.4801" fill="#848484"/>
<rect x="  608.2601" y="  304.6774" height="    0.4801" width="    0.4801" fill="#7B7B7B"/>
<rect x="  608.7325" y="  304.6774" height="    0.4801" width="    0.4801" fill="#7B7B7B"/>
<rect x="  609.2050" y="  304.6774" height="    0.4801" width="    0.4801" fill="#7B7B7B"/>
<rect x="  609.6774" y="  304.6774" height="    0.4801" width="    0.4801" fill="#848484"/>
<rect x="  610.1499" y="  304.6774" height="    0.4801" width="    0.4801" fill="#8C8C8C"/>
<rect x="  610.6223" y="  304.6774" height="    0.4801" width="    0.4801" fill="#9C9C9C"/>
<rect x="  611.0947" y="  304.6774" height="    0.4801" width="    0.4801" fill="#A5A5A5"/>
<rect x="  611.5672" y="  304.6774" height="    0.4801" width="    0.4801" fill="#B5B5B5"/>
<rect x="  612.0396" y="  304.6774" height="    0.4801" width="    0.4801" fill="#B5B5B5"/>
<rect x="  612.5121" y="  304.6774" height="    0.4801" width="    0.4801" fill="#BDBDBD"/>
<rect x="  612.9845" y="  304.6774" height="    0.4801" width="    0.4801" fill="#B5B5B5"/>
<rect x="  613.4569" y="  304.6774" height="    0.4801" width="    0.4801" fill="#B5B5B5"/>
<rect x="  613.9294" y="  304.6774" height="    0.4801" width="    0.4801" fill="#A5A5A5"/>
<rect x="  614.4018" y="  304.6774" height="    0.4801" width="    0.4801" fill="#9C9C9C"/>
<rect x="  614.8743" y="  304.6774" height="    0.4801" width="    0.4801" fill="#848484"/>
<rect x="  615.3467" y="  304.6774" height="    0.4801" width="    0.4801" fill="#848484"/>
<rect x="  615.8192" y="  304.6774" height="    0.4801" width="    0.4801" fill="#737373"/>
<rect x="  616.2916" y="  304.6774" height="    0.4801" width="    0.4801" fill="#848484"/>
<rect x="  602.5908" y="  305.1346" height="    0.4801" width="    0.4801" fill="#E7E7E7"/>
<rect x="  603.0632" y="  305.1346" height="    0.4801" width="    0.4801" fill="#D6D6D6"/>
<rect x="  603.5357" y="  305.1346" height="    0.4801" width="    0.4801" fill="#CECECE"/>
<rect x="  604.0081" y="  305.1346" height="    0.4801" width="    0.4801" fill="#D6D6D6"/>
<rect x="  604.4806" y="  305.1346" height="    0.4801" width="    0.4801" fill="#D6D6D6"/>
<rect x="  604.9530" y="  305.1346" height="    0.4801" width="    0.4801" fill="#D6D6D6"/>
<rect x="  605.4255" y="  305.1346" height="    0.4801" width="    0.4801" fill="#C6C6C6"/>
<rect x="  605.8979" y="  305.1346" height="    0.4801" width="    0.4801" fill="#C6C6C6"/>
<rect x="  606.3703" y="  305.1346" height="    0.4801" width="    0.4801" fill="#C6C6C6"/>
<rect x="  606.8428" y="  305.1346" height="    0.4801" width="    0.4801" fill="#BDBDBD"/>
<rect x="  607.3152" y="  305.1346" height="    0.4801" width="    0.4801" fill="#A5A5A5"/>
<rect x="  607.7877" y="  305.1346" height="    0.4801" width="    0.4801" fill="#9C9C9C"/>
<rect x="  608.2601" y="  305.1346" height="    0.4801" width="    0.4801" fill="#7B7B7B"/>
<rect x="  608.7325" y="  305.1346" height="    0.4801" width="    0.4801" fill="#7B7B7B"/>
<rect x="  609.2050" y="  305.1346" height="    0.4801" width="    0.4801" fill="#8C8C8C"/>
<rect x="  609.6774" y="  305.1346" height="    0.4801" width="    0.4801" fill="#8C8C8C"/>
<rect x="  610.1499" y="  305.1346" height="    0.4801" width="    0.4801" fill="#8C8C8C"/>
<rect x="  610.6223" y="  305.1346" height="    0.4801" width="    0.4801" fill="#A5A5A5"/>
<rect x="  611.0947" y="  305.1346" height="    0.4801" width="    0.4801" fill="#ADADAD"/>
<rect x="  611.5672" y="  305.1346" height="    0.4801" width="    0.4801" fill="#B5B5B5"/>
<rect x="  612.0396" y="  305.1346" height="    0.4801" width="    0.4801" fill="#C6C6C6"/>
<rect x="  612.5121" y="  305.1346" height="    0.4801" width="    0.4801" fill="#BDBDBD"/>
<rect x="  612.9845" y="  305.1346" height="    0.4801" width="    0.4801" fill="#BDBDBD"/>
<rect x="  613.4569" y="  305.1346" height="    0.4801" width="    0.4801" fill="#B5B5B5"/>
<rect x="  613.9294" y="  305.1346" height="    0.4801" width="    0.4801" fill="#B5B5B5"/>
<rect x="  614.4018" y="  305.1346" height="    0.4801" width="    0.4801" fill="#A5A5A5"/>
<rect x="  614.8743" y="  305.1346" height="    0.4801" width="    0.4801" fill="#9C9C9C"/>
<rect x="  615.3467" y="  305.1346" height="    0.4801" width="    0.4801" fill="#8C8C8C"/>
<rect x="  615.8192" y="  305.1346" height="    0.4801" width="    0.4801" fill="#848484"/>
<rect x="  616.2916" y="  305.1346" height="    0.4801" width="    0.4801" fill="#848484"/>
<rect x="  603.0632" y="  305.5918" height="    0.4801" width="    0.4801" fill="#F7F7F7"/>
<rect x="  603.5357" y="  305.5918" height="    0.4801" width="    0.4801" fill="#F7F7F7"/>
<rect x="  604.0081" y="  305.5918" height="    0.4801" width="    0.4801" fill="#EFEFEF"/>
<rect x="  604.4806" y="  305.5918" height="    0.4801" width="    0.4801" fill="#E7E7E7"/>
<rect x="  604.9530" y="  305.5918" height="    0.4801" width="    0.4801" fill="#E7E7E7"/>
<rect x="  605.4255" y="  305.5918" height="    0.4801" width="    0.4801" fill="#D6D6D6"/>
<rect x="  605.8979" y="  305.5918" height="    0.4801" width="    0.4801" fill="#CECECE"/>
<rect x="  606.3703" y="  305.5918" height="    0.4801" width="    0.4801" fill="#CECECE"/>
<rect x="  606.8428" y="  305.5918" height="    0.4801" width="    0.4801" fill="#C6C6C6"/>
<rect x="  607.3152" y="  305.5918" height="    0.4801" width="    0.4801" fill="#B5B5B5"/>
<rect x="  607.7877" y="  305.5918" height="    0.4801" width="    0.4801" fill="#A5A5A5"/>
<rect x="  608.2601" y="  305.5918" height="    0.4801" width="    0.4801" fill="#8C8C8C"/>
<rect x="  608.7325" y="  305.5918" height="    0.4801" width="    0.4801" fill="#737373"/>
<rect x="  609.2050" y="  305.5918" height="    0.4801" width="    0.4801" fill="#848484"/>
<rect x="  609.6774" y="  305.5918" height="    0.4801" width="    0.4801" fill="#949494"/>
<rect x="  610.1499" y="  305.5918" height="    0.4801" width="    0.4801" fill="#9C9C9C"/>
<rect x="  610.6223" y="  305.5918" height="    0.4801" width="    0.4801" fill="#9C9C9C"/>
<rect x="  611.0947" y="  305.5918" height="    0.4801" width="    0.4801" fill="#ADADAD"/>
<rect x="  611.5672" y="  305.5918" height="    0.4801" width="    0.4801" fill="#B5B5B5"/>
<rect x="  612.0396" y="  305.5918" height="    0.4801" width="    0.4801" fill="#C6C6C6"/>
<rect x="  612.5121" y="  305.5918" height="    0.4801" width="    0.4801" fill="#C6C6C6"/>
<rect x="  612.9845" y="  305.5918" height="    0.4801" width="    0.4801" fill="#C6C6C6"/>
<rect x="  613.4569" y="  305.5918" height="    0.4801" width="    0.4801" fill="#BDBDBD"/>
<rect x="  613.9294" y="  305.5918" height="    0.4801" width="    0.4801" fill="#B5B5B5"/>
<rect x="  614.4018" y="  305.5918" height="    0.4801" width="    0.4801" fill="#B5B5B5"/>
<rect x="  614.8743" y="  305.5918" height="    0.4801" width="    0.4801" fill="#ADADAD"/>
<rect x="  615.3467" y="  305.5918" height="    0.4801" width="    0.4801" fill="#9C9C9C"/>
<rect x="  615.8192" y="  305.5918" height="    0.4801" width="    0.4801" fill="#949494"/>
<rect x="  616.2916" y="  305.5918" height="    0.4801" width="    0.4801" fill="#8C8C8C"/>
<rect x="  604.0081" y="  306.0490" height="    0.4801" width="    0.4801" fill="#F7F7F7"/>
<rect x="  604.4806" y="  306.0490" height="    0.4801" width="    0.4801" fill="#F7F7F7"/>
<rect x="  604.9530" y="  306.0490" height="    0.4801" width="    0.4801" fill="#F7F7F7"/>
<rect x="  605.4255" y="  306.0490" height="    0.4801" width="    0.4801" fill="#EFEFEF"/>
<rect x="  605.8979" y="  306.0490" height="    0.4801" width="    0.4801" fill="#E7E7E7"/>
<rect x="  606.3703" y="  306.0490" height="    0.4801" width="    0.4801" fill="#D6D6D6"/>
<rect x="  606.8428" y="  306.0490" height="    0.4801" width="    0.4801" fill="#CECECE"/>
<rect x="  607.3152" y="  306.0490" height="    0.4801" width="    0.4801" fill="#C6C6C6"/>
<rect x="  607.7877" y="  306.0490" height="    0.4801" width="    0.4801" fill="#A5A5A5"/>
<rect x="  608.2601" y="  306.0490" height="    0.4801" width="    0.4801" fill="#949494"/>
<rect x="  608.7325" y="  306.0490" height="    0.4801" width="    0.4801" fill="#7B7B7B"/>
<rect x="  609.2050" y="  306.0490" height="    0.4801" width="    0.4801" fill="#7B7B7B"/>
<rect x="  609.6774" y="  306.0490" height="    0.4801" width="    0.4801" fill="#8C8C8C"/>
<rect x="  610.1499" y="  306.0490" height="    0.4801" width="    0.4801" fill="#A5A5A5"/>
<rect x="  610.6223" y="  306.0490" height="    0.4801" width="    0.4801" fill="#B5B5B5"/>
<rect x="  611.0947" y="  306.0490" height="    0.4801" width="    0.4801" fill="#BDBDBD"/>
<rect x="  611.5672" y="  306.0490" height="    0.4801" width="    0.4801" fill="#BDBDBD"/>
<rect x="  612.0396" y="  306.0490" height="    0.4801" width="    0.4801" fill="#BDBDBD"/>
<rect x="  612.5121" y="  306.0490" height="    0.4801" width="    0.4801" fill="#C6C6C6"/>
<rect x="  612.9845" y="  306.0490" height="    0.4801" width="    0.4801" fill="#C6C6C6"/>
<rect x="  613.4569" y="  306.0490" height="    0.4801" width="    0.4801" fill="#BDBDBD"/>
<rect x="  613.9294" y="  306.0490" height="    0.4801" width="    0.4801" fill="#BDBDBD"/>
<rect x="  614.4018" y="  306.0490" height="    0.4801" width="    0.4801" fill="#B5B5B5"/>
<rect x="  614.8743" y="  306.0490" height="    0.4801" width="    0.4801" fill="#ADADAD"/>
<rect x="  615.3467" y="  306.0490" height="    0.4801" width="    0.4801" fill="#A5A5A5"/>
<rect x="  615.8192" y="  306.0490" height="    0.4801" width="    0.4801" fill="#9C9C9C"/>
<rect x="  616.2916" y="  306.0490" height="    0.4801" width="    0.4801" fill="#949494"/>
<rect x="  604.4806" y="  306.5062" height="    0.4801" width="    0.4801" fill="#F7F7F7"/>
<rect x="  604.9530" y="  306.5062" height="    0.4801" width="    0.4801" fill="#F7F7F7"/>
<rect x="  605.4255" y="  306.5062" height="    0.4801" width="    0.4801" fill="#F7F7F7"/>
<rect x="  605.8979" y="  306.5062" height="    0.4801" width="    0.4801" fill="#EFEFEF"/>
<rect x="  606.3703" y="  306.5062" height="    0.4801" width="    0.4801" fill="#E7E7E7"/>
<rect x="  606.8428" y="  306.5062" height="    0.4801" width="    0.4801" fill="#CECECE"/>
<rect x="  607.3152" y="  306.5062" height="    0.4801" width="    0.4801" fill="#C6C6C6"/>
<rect x="  607.7877" y="  306.5062" height="    0.4801" width="    0.4801" fill="#BDBDBD"/>
<rect x="  608.2601" y="  306.5062" height="    0.4801" width="    0.4801" fill="#A5A5A5"/>
<rect x="  608.7325" y="  306.5062" height="    0.4801" width="    0.4801" fill="#848484"/>
<rect x="  609.2050" y="  306.5062" height="    0.4801" width="    0.4801" fill="#8C8C8C"/>
<rect x="  609.6774" y="  306.5062" height="    0.4801" width="    0.4801" fill="#9C9C9C"/>
<rect x="  610.1499" y="  306.5062" height="    0.4801" width="    0.4801" fill="#ADADAD"/>
<rect x="  610.6223" y="  306.5062" height="    0.4801" width="    0.4801" fill="#B5B5B5"/>
<rect x="  611.0947" y="  306.5062" height="    0.4801" width="    0.4801" fill="#C6C6C6"/>
<rect x="  611.5672" y="  306.5062" height="    0.4801" width="    0.4801" fill="#EFEFEF"/>
<rect x="  612.0396" y="  306.5062" height="    0.4801" width="    0.4801" fill="#F7F7F7"/>
<rect x="  612.5121" y="  306.5062" height="    0.4801" width="    0.4801" fill="#EFEFEF"/>
<rect x="  612.9845" y="  306.5062" height="    0.4801" width="    0.4801" fill="#F7F7F7"/>
<rect x="  613.4569" y="  306.5062" height="    0.4801" width="    0.4801" fill="#F7F7F7"/>
<rect x="  613.9294" y="  306.5062" height="    0.4801" width="    0.4801" fill="#EFEFEF"/>
<rect x="  614.4018" y="  306.5062" height="    0.4801" width="    0.4801" fill="#EFEFEF"/>
<rect x="  614.8743" y="  306.5062" height="    0.4801" width="    0.4801" fill="#EFEFEF"/>
<rect x="  615.3467" y="  306.5062" height="    0.4801" width="    0.4801" fill="#EFEFEF"/>
<rect x="  615.8192" y="  306.5062" height="    0.4801" width="    0.4801" fill="#EFEFEF"/>
<rect x="  616.2916" y="  306.5062" height="    0.4801" width="    0.4801" fill="#E7E7E7"/>
<rect x="  605.4255" y="  306.9634" height="    0.4801" width="    0.4801" fill="#F7F7F7"/>
<rect x="  605.8979" y="  306.9634" height="    0.4801" width="    0.4801" fill="#F7F7F7"/>
<rect x="  606.3703" y="  306.9634" height="    0.4801" width="    0.4801" fill="#E7E7E7"/>
<rect x="  606.8428" y="  306.9634" height="    0.4801" width="    0.4801" fill="#DEDEDE"/>
<rect x="  607.3152" y="  306.9634" height="    0.4801" width="    0.4801" fill="#CECECE"/>
<rect x="  607.7877" y="  306.9634" height="    0.4801" width="    0.4801" fill="#BDBDBD"/>
<rect x="  608.2601" y="  306.9634" height="    0.4801" width="    0.4801" fill="#ADADAD"/>
<rect x="  608.7325" y="  306.9634" height="    0.4801" width="    0.4801" fill="#949494"/>
<rect x="  609.2050" y="  306.9634" height="    0.4801" width="    0.4801" fill="#7B7B7B"/>
<rect x="  609.6774" y="  306.9634" height="    0.4801" width="    0.4801" fill="#A5A5A5"/>
<rect x="  610.1499" y="  306.9634" height="    0.4801" width="    0.4801" fill="#ADADAD"/>
<rect x="  610.6223" y="  306.9634" height="    0.4801" width="    0.4801" fill="#C6C6C6"/>
<rect x="  611.0947" y="  306.9634" height="    0.4801" width="    0.4801" fill="#CECECE"/>
<rect x="  605.8979" y="  307.4206" height="    0.4801" width="    0.4801" fill="#EFEFEF"/>
<rect x="  606.3703" y="  307.4206" height="    0.4801" width="    0.4801" fill="#EFEFEF"/>
<rect x="  606.8428" y="  307.4206" height="    0.4801" width="    0.4801" fill="#E7E7E7"/>
<rect x="  607.3152" y="  307.4206" height="    0.4801" width="    0.4801" fill="#D6D6D6"/>
<rect x="  607.7877" y="  307.4206" height="    0.4801" width="    0.4801" fill="#C6C6C6"/>
<rect x="  608.2601" y="  307.4206" height="    0.4801" width="    0.4801" fill="#ADADAD"/>
<rect x="  608.7325" y="  307.4206" height="    0.4801" width="    0.4801" fill="#949494"/>
<rect x="  609.2050" y="  307.4206" height="    0.4801" width="    0.4801" fill="#848484"/>
<rect x="  609.6774" y="  307.4206" height="    0.4801" width="    0.4801" fill="#949494"/>
<rect x="  610.1499" y="  307.4206" height="    0.4801" width="    0.4801" fill="#BDBDBD"/>
<rect x="  610.6223" y="  307.4206" height="    0.4801" width="    0.4801" fill="#C6C6C6"/>
<rect x="  611.0947" y="  307.4206" height="    0.4801" width="    0.4801" fill="#C6C6C6"/>
<rect x="  611.5672" y="  307.4206" height="    0.4801" width="    0.4801" fill="#F7F7F7"/>
<rect x="  605.8979" y="  307.8778" height="    0.4801" width="    0.4801" fill="#F7F7F7"/>
<rect x="  606.3703" y="  307.8778" height="    0.4801" width="    0.4801" fill="#EFEFEF"/>
<rect x="  606.8428" y="  307.8778" height="    0.4801" width="    0.4801" fill="#DEDEDE"/>
<rect x="  607.3152" y="  307.8778" height="    0.4801" width="    0.4801" fill="#D6D6D6"/>
<rect x="  607.7877" y="  307.8778" height="    0.4801" width="    0.4801" fill="#CECECE"/>
<rect x="  608.2601" y="  307.8778" height="    0.4801" width="    0.4801" fill="#BDBDBD"/>
<rect x="  608.7325" y="  307.8778" height="    0.4801" width="    0.4801" fill="#A5A5A5"/>
<rect x="  609.2050" y="  307.8778" height="    0.4801" width="    0.4801" fill="#848484"/>
<rect x="  609.6774" y="  307.8778" height="    0.4801" width="    0.4801" fill="#8C8C8C"/>
<rect x="  610.1499" y="  307.8778" height="    0.4801" width="    0.4801" fill="#ADADAD"/>
<rect x="  610.6223" y="  307.8778" height="    0.4801" width="    0.4801" fill="#BDBDBD"/>
<rect x="  611.0947" y="  307.8778" height="    0.4801" width="    0.4801" fill="#C6C6C6"/>
<rect x="  611.5672" y="  307.8778" height="    0.4801" width="    0.4801" fill="#F7F7F7"/>
<rect x="  605.8979" y="  308.3350" height="    0.4801" width="    0.4801" fill="#F7F7F7"/>
<rect x="  606.3703" y="  308.3350" height="    0.4801" width="    0.4801" fill="#EFEFEF"/>
<rect x="  606.8428" y="  308.3350" height="    0.4801" width="    0.4801" fill="#E7E7E7"/>
<rect x="  607.3152" y="  308.3350" height="    0.4801" width="    0.4801" fill="#D6D6D6"/>
<rect x="  607.7877" y="  308.3350" height="    0.4801" width="    0.4801" fill="#D6D6D6"/>
<rect x="  608.2601" y="  308.3350" height="    0.4801" width="    0.4801" fill="#CECECE"/>
<rect x="  608.7325" y="  308.3350" height="    0.4801" width="    0.4801" fill="#C6C6C6"/>
<rect x="  609.2050" y="  308.3350" height="    0.4801" width="    0.4801" fill="#949494"/>
<rect x="  609.6774" y="  308.3350" height="    0.4801" width="    0.4801" fill="#737373"/>
<rect x="  610.1499" y="  308.3350" height="    0.4801" width="    0.4801" fill="#9C9C9C"/>
<rect x="  610.6223" y="  308.3350" height="    0.4801" width="    0.4801" fill="#B5B5B5"/>
<rect x="  611.0947" y="  308.3350" height="    0.4801" width="    0.4801" fill="#C6C6C6"/>
<rect x="  608.7325" y="  308.7922" height="    0.4801" width="    0.4801" fill="#F7F7F7"/>
<rect x="  609.2050" y="  308.7922" height="    0.4801" width="    0.4801" fill="#9C9C9C"/>
<rect x="  609.6774" y="  308.7922" height="    0.4801" width="    0.4801" fill="#7B7B7B"/>
<rect x="  610.1499" y="  308.7922" height="    0.4801" width="    0.4801" fill="#949494"/>
<rect x="  610.6223" y="  308.7922" height="    0.4801" width="    0.4801" fill="#ADADAD"/>
<rect x="  611.0947" y="  308.7922" height="    0.4801" width="    0.4801" fill="#C6C6C6"/>
<rect x="  611.5672" y="  308.7922" height="    0.4801" width="    0.4801" fill="#F7F7F7"/>
<rect x="  608.7325" y="  309.2494" height="    0.4801" width="    0.4801" fill="#F7F7F7"/>
<rect x="  609.2050" y="  309.2494" height="    0.4801" width="    0.4801" fill="#A5A5A5"/>
<rect x="  609.6774" y="  309.2494" height="    0.4801" width="    0.4801" fill="#848484"/>
<rect x="  610.1499" y="  309.2494" height="    0.4801" width="    0.4801" fill="#848484"/>
<rect x="  610.6223" y="  309.2494" height="    0.4801" width="    0.4801" fill="#A5A5A5"/>
<rect x="  611.0947" y="  309.2494" height="    0.4801" width="    0.4801" fill="#B5B5B5"/>
<rect x="  611.5672" y="  309.2494" height="    0.4801" width="    0.4801" fill="#F7F7F7"/>
<rect x="  608.7325" y="  309.7066" height="    0.4801" width="    0.4801" fill="#EFEFEF"/>
<rect x="  609.2050" y="  309.7066" height="    0.4801" width="    0.4801" fill="#9C9C9C"/>
<rect x="  609.6774" y="  309.7066" height="    0.4801" width="    0.4801" fill="#848484"/>
<rect x="  610.1499" y="  309.7066" height="    0.4801" width="    0.4801" fill="#7B7B7B"/>
<rect x="  610.6223" y="  309.7066" height="    0.4801" width="    0.4801" fill="#9C9C9C"/>
<rect x="  611.0947" y="  309.7066" height="    0.4801" width="    0.4801" fill="#ADADAD"/>
<rect x="  611.5672" y="  309.7066" height="    0.4801" width="    0.4801" fill="#F7F7F7"/>
<rect x="  608.7325" y="  310.1638" height="    0.4801" width="    0.4801" fill="#EFEFEF"/>
<rect x="  609.2050" y="  310.1638" height="    0.4801" width="    0.4801" fill="#A5A5A5"/>
<rect x="  609.6774" y="  310.1638" height="    0.4801" width="    0.4801" fill="#848484"/>
<rect x="  610.1499" y="  310.1638" height="    0.4801" width="    0.4801" fill="#7B7B7B"/>
<rect x="  610.6223" y="  310.1638" height="    0.4801" width="    0.4801" fill="#8C8C8C"/>
<rect x="  611.0947" y="  310.1638" height="    0.4801" width="    0.4801" fill="#ADADAD"/>
<rect x="  611.5672" y="  310.1638" height="    0.4801" width="    0.4801" fill="#F7F7F7"/>
<rect x="  608.7325" y="  310.6210" height="    0.4801" width="    0.4801" fill="#EFEFEF"/>
<rect x="  609.2050" y="  310.6210" height="    0.4801" width="    0.4801" fill="#9C9C9C"/>
<rect x="  609.6774" y="  310.6210" height="    0.4801" width="    0.4801" fill="#8C8C8C"/>
<rect x="  610.1499" y="  310.6210" height="    0.4801" width="    0.4801" fill="#848484"/>
<rect x="  610.6223" y="  310.6210" height="    0.4801" width="    0.4801" fill="#8C8C8C"/>
<rect x="  611.0947" y="  310.6210" height="    0.4801" width="    0.4801" fill="#9C9C9C"/>
<rect x="  611.5672" y="  310.6210" height="    0.4801" width="    0.4801" fill="#F7F7F7"/>
<rect x="  608.7325" y="  311.0782" height="    0.4801" width="    0.4801" fill="#E7E7E7"/>
<rect x="  609.2050" y="  311.0782" height="    0.4801" width="    0.4801" fill="#A5A5A5"/>
<rect x="  609.6774" y="  311.0782" height="    0.4801" width="    0.4801" fill="#949494"/>
<rect x="  610.1499" y="  311.0782" height="    0.4801" width="    0.4801" fill="#8C8C8C"/>
<rect x="  610.6223" y="  311.0782" height="    0.4801" width="    0.4801" fill="#8C8C8C"/>
<rect x="  611.0947" y="  311.0782" height="    0.4801" width="    0.4801" fill="#A5A5A5"/>
<rect x="  611.5672" y="  311.0782" height="    0.4801" width="    0.4801" fill="#F7F7F7"/>
M   609.4488   304.4488
<path stroke-width="    0.5669" stroke="#000000" fill="none" d=" 
M   609.4488   311.5354
L   609.1535   311.5354
L   609.3012   308.5827
L   605.6102   309.1732
L   606.2008   307.9921
L   602.9528   305.0394
L   604.1339   303.8583
L   603.5433   302.0866
L   605.0197   302.3819
L   605.6102   300.9055
L   607.6772   303.2677
L   607.0866   299.1339
L   608.2677   299.7244
L   609.4488   297.3622
L   611.5748   297.3622
L   611.5748   302.3228
L   616.5354   302.3228
L   616.5354   306.5748
L   611.5748   306.5748
L   611.5748   311.5354
L   609.4488   311.5354
"/>
M   609.4488   304.4488
<defs>  <path id="kreis" d="M   603.1843,  310.7134 A    8.8594,    8.8594 0 1 1   615.7134,  310.7134"/> </defs>
<text font-size="    3.5433"  font-family="Arial" stroke="none">
<textPath xlink:href="#kreis" >T h e r i a k  -  D o m i n o</textPath> </text>
M   609.4488   304.4488
<path stroke-width="    0.2835" stroke="#000000" fill="none" d=" 
M   141.7323   453.2677
L   566.9291   453.2677
L   354.3307    85.0364
Z 
M   354.3307   330.5240
"/>
M   595.2756   198.1496
<text x="  595.2756" y="  198.1496"
 transform="rotate(   -0.0000,  595.2756,  198.1496)"
 font-family="'Arial'" font-size="   19.4386"
 style="fill: #000000; stroke: none">T = 1470.00 [C]</text>
M   595.2756   226.4961
<text x="  595.2756" y="  226.4961"
 transform="rotate(   -0.0000,  595.2756,  226.4961)"
 font-family="'Arial'" font-size="   19.4386"
 style="fill: #000000; stroke: none">P = 1.0 [Bar]</text>
M   103.4560   481.6142
<text x="  103.4560" y="  481.6142"
 transform="rotate(   -0.0000,  103.4560,  481.6142)"
 font-family="'Arial'" font-size="   19.4386"
 style="fill: #000000; stroke: none">AL2O3</text>
M   554.5115   481.6142
<text x="  554.5115" y="  481.6142"
 transform="rotate(   -0.0000,  554.5115,  481.6142)"
 font-family="'Arial'" font-size="   19.4386"
 style="fill: #000000; stroke: none">CAO</text>
M   332.6368    70.8632
<text x="  332.6368" y="   70.8632"
 transform="rotate(   -0.0000,  332.6368,   70.8632)"
 font-family="'Arial'" font-size="   19.4386"
 style="fill: #000000; stroke: none">SIO2</text>
<path stroke-width="    0.2835" stroke="#000000" fill="none" d=" 
M   437.1335   381.3831
L   436.6911   381.9719
L   433.0308   386.7548
L   429.3161   391.4465
L   425.5211   396.0405
L   421.6251   400.4924
L   417.5996   404.7348
L   413.4078   408.6763
L   409.0093   412.2062
L   404.3638   415.2048
L   401.9623   416.4571
L   407.4803   361.2099
L   407.4803   361.2099
L   407.4803   361.2099
L   407.4803   361.2099
L   407.4803   361.2099
L   407.4803   361.2099
L   407.4803   361.2099
L   407.4803   361.2099
L   407.4803   361.2099
L   407.4803   361.2099
L   407.4803   361.2099
Z 
"/>
<path stroke-width="    0.2835" stroke="#000000" fill="none" d=" 
M   437.1335   381.3831
L   407.4803   361.2099
M   436.6911   381.9719
L   407.4803   361.2099
M   433.0308   386.7548
L   407.4803   361.2099
M   429.3161   391.4465
L   407.4803   361.2099
M   425.5211   396.0405
L   407.4803   361.2099
M   421.6251   400.4924
L   407.4803   361.2099
M   417.5996   404.7348
L   407.4803   361.2099
M   413.4078   408.6763
L   407.4803   361.2099
M   409.0093   412.2062
L   407.4803   361.2099
M   404.3638   415.2048
L   407.4803   361.2099
M   401.9623   416.4571
L   407.4803   361.2099
"/>
<path stroke-width="    0.2835" stroke="#000000" fill="none" d=" 
M   407.4803   361.2099
L   437.1335   381.3831
L   496.0631   330.5241
L   407.4803   361.2099
"/>
<path stroke-width="    0.2835" stroke="#000000" fill="none" d=" 
M   354.3307   453.2677
L   401.9623   416.4571
L   407.4803   361.2099
L   354.3307   453.2677
"/>
<path stroke-width="    0.2835" stroke="#000000" fill="none" d=" 
M   401.9623   416.4571
L   402.1081   417.2695
L   402.8336   423.3081
L   403.1448   429.4759
L   403.2266   435.5617
L   403.2069   441.5985
L   403.1660   447.6139
L   403.1582   453.2677
L   354.3307   453.2677
L   354.3307   453.2677
L   354.3307   453.2677
L   354.3307   453.2677
L   354.3307   453.2677
L   354.3307   453.2677
L   354.3307   453.2677
L   354.3307   453.2677
Z 
"/>
<path stroke-width="    0.2835" stroke="#000000" fill="none" d=" 
M   401.9623   416.4571
L   354.3307   453.2677
M   402.1081   417.2695
L   354.3307   453.2677
M   402.8336   423.3081
L   354.3307   453.2677
M   403.1448   429.4759
L   354.3307   453.2677
M   403.2266   435.5617
L   354.3307   453.2677
M   403.2069   441.5985
L   354.3307   453.2677
M   403.1660   447.6139
L   354.3307   453.2677
M   403.1582   453.2677
L   354.3307   453.2677
"/>
<path stroke-width="    0.2835" stroke="#000000" fill="none" d=" 
M   366.5819   347.8549
L   367.0054   347.2223
L   370.4769   342.2545
L   374.1119   337.4608
L   377.9451   332.8616
L   382.0059   328.5132
L   386.3249   324.4910
L   390.9278   320.8864
L   395.8274   317.7947
L   401.0135   315.3010
L   406.4494   313.4602
L   412.0739   312.2863
L   417.8143   311.7572
L   423.5974   311.8316
L   429.3567   312.4738
L   435.0249   313.6717
L   440.5239   315.4472
L   445.7441   317.8638
L   450.5219   321.0237
L   452.0176   322.3026
L   407.4803   361.2099
L   407.4803   361.2099
L   407.4803   361.2099
L   407.4803   361.2099
L   407.4803   361.2099
L   407.4803   361.2099
L   407.4803   361.2099
L   407.4803   361.2099
L   407.4803   361.2099
L   407.4803   361.2099
L   407.4803   361.2099
L   407.4803   361.2099
L   407.4803   361.2099
L   407.4803   361.2099
L   407.4803   361.2099
L   407.4803   361.2099
L   407.4803   361.2099
L   407.4803   361.2099
L   407.4803   361.2099
L   407.4803   361.2099
Z 
"/>
<path stroke-width="    0.2835" stroke="#000000" fill="none" d=" 
M   366.5819   347.8549
L   407.4803   361.2099
M   367.0054   347.2223
L   407.4803   361.2099
M   370.4769   342.2545
L   407.4803   361.2099
M   374.1119   337.4608
L   407.4803   361.2099
M   377.9451   332.8616
L   407.4803   361.2099
M   382.0059   328.5132
L   407.4803   361.2099
M   386.3249   324.4910
L   407.4803   361.2099
M   390.9278   320.8864
L   407.4803   361.2099
M   395.8274   317.7947
L   407.4803   361.2099
M   401.0135   315.3010
L   407.4803   361.2099
M   406.4494   313.4602
L   407.4803   361.2099
M   412.0739   312.2863
L   407.4803   361.2099
M   417.8143   311.7572
L   407.4803   361.2099
M   423.5974   311.8316
L   407.4803   361.2099
M   429.3567   312.4738
L   407.4803   361.2099
M   435.0249   313.6717
L   407.4803   361.2099
M   440.5239   315.4472
L   407.4803   361.2099
M   445.7441   317.8638
L   407.4803   361.2099
M   450.5219   321.0237
L   407.4803   361.2099
M   452.0176   322.3026
L   407.4803   361.2099
"/>
<path stroke-width="    0.2835" stroke="#000000" fill="none" d=" 
M   283.4644   453.2677
L   354.3307   453.2677
L   407.4803   361.2099
L   283.4644   453.2677
"/>
<path stroke-width="    0.2835" stroke="#000000" fill="none" d=" 
M   407.4803   361.2099
L   366.5819   347.8549
L   283.4644   453.2677
L   407.4803   361.2099
"/>
<path stroke-width="    0.2835" stroke="#000000" fill="none" d=" 
M   496.0631   330.5241
L   452.0176   322.3026
L   407.4803   361.2099
L   496.0631   330.5241
"/>
<path stroke-width="    0.2835" stroke="#000000" fill="none" d=" 
M   452.0176   322.3026
L   452.3893   321.6267
L   455.5084   316.4227
L   458.9797   311.4604
L   462.7940   306.7953
L   466.9345   302.4619
L   471.3687   298.4780
L   475.6368   295.1448
L   496.0631   330.5241
L   496.0631   330.5241
L   496.0631   330.5241
L   496.0631   330.5241
L   496.0631   330.5241
L   496.0631   330.5241
L   496.0631   330.5241
L   496.0631   330.5241
Z 
"/>
<path stroke-width="    0.2835" stroke="#000000" fill="none" d=" 
M   452.0176   322.3026
L   496.0631   330.5241
M   452.3893   321.6267
L   496.0631   330.5241
M   455.5084   316.4227
L   496.0631   330.5241
M   458.9797   311.4604
L   496.0631   330.5241
M   462.7940   306.7953
L   496.0631   330.5241
M   466.9345   302.4619
L   496.0631   330.5241
M   471.3687   298.4780
L   496.0631   330.5241
M   475.6368   295.1448
L   496.0631   330.5241
"/>
<path stroke-width="    0.2835" stroke="#000000" fill="none" d=" 
M   365.9214   347.4271
L   365.9615   347.4528
L   366.5819   347.8549
L   283.4644   453.2677
L   283.4644   453.2677
L   283.4644   453.2677
Z 
"/>
<path stroke-width="    0.2835" stroke="#000000" fill="none" d=" 
M   365.9214   347.4271
L   283.4644   453.2677
M   365.9615   347.4528
L   283.4644   453.2677
M   366.5819   347.8549
L   283.4644   453.2677
"/>
<path stroke-width="    0.2835" stroke="#000000" fill="none" d=" 
M   283.4644   453.2677
L   365.9214   347.4271
L   202.4746   453.2677
L   283.4644   453.2677
"/>
<path stroke-width="    0.2835" stroke="#000000" fill="none" d=" 
M   359.9461   311.4627
L   359.9971   311.6566
L   361.4506   317.4112
L   362.7607   323.1775
L   363.8885   328.9598
L   364.7997   334.7602
L   365.4670   340.5764
L   365.8844   346.5719
L   365.9214   347.4271
L   202.4746   453.2677
L   202.4746   453.2677
L   202.4746   453.2677
L   202.4746   453.2677
L   202.4746   453.2677
L   202.4746   453.2677
L   202.4746   453.2677
L   202.4746   453.2677
L   202.4746   453.2677
Z 
"/>
<path stroke-width="    0.2835" stroke="#000000" fill="none" d=" 
M   359.9461   311.4627
L   202.4746   453.2677
M   359.9971   311.6566
L   202.4746   453.2677
M   361.4506   317.4112
L   202.4746   453.2677
M   362.7607   323.1775
L   202.4746   453.2677
M   363.8885   328.9598
L   202.4746   453.2677
M   364.7997   334.7602
L   202.4746   453.2677
M   365.4670   340.5764
L   202.4746   453.2677
M   365.8844   346.5719
L   202.4746   453.2677
M   365.9214   347.4271
L   202.4746   453.2677
"/>
<path stroke-width="    0.2835" stroke="#000000" fill="none" d=" 
M   202.4746   453.2677
L   359.9461   311.4627
L   354.3307   269.1521
L   202.4746   453.2677
"/>
<path stroke-width="    0.2835" stroke="#000000" fill="none" d=" 
M   346.5983   217.9979
L   347.2431   217.2771
L   352.9490   214.7463
L   358.1133   216.8992
L   362.6418   220.8449
L   366.9191   225.6809
L   370.7108   230.6369
L   374.1942   235.6992
L   377.4168   240.8809
L   380.3564   246.1954
L   382.9424   251.6557
L   385.0565   257.2682
L   386.5364   263.0173
L   387.1995   268.8483
L   386.8988   274.6573
L   385.5956   280.3084
L   383.3865   285.6798
L   380.4537   290.7080
L   376.9829   295.3911
L   373.1202   299.7624
L   368.9673   303.8630
L   364.5930   307.7291
L   360.0437   311.3877
L   359.9461   311.4627
L   354.3307   269.1521
L   354.3307   269.1521
L   354.3307   269.1521
L   354.3307   269.1521
L   354.3307   269.1521
L   354.3307   269.1521
L   354.3307   269.1521
L   354.3307   269.1521
L   354.3307   269.1521
L   354.3307   269.1521
L   354.3307   269.1521
L   354.3307   269.1521
L   354.3307   269.1521
L   354.3307   269.1521
L   354.3307   269.1521
L   354.3307   269.1521
L   354.3307   269.1521
L   354.3307   269.1521
L   354.3307   269.1521
L   354.3307   269.1521
L   354.3307   269.1521
L   354.3307   269.1521
L   354.3307   269.1521
L   354.3307   269.1521
Z 
"/>
<path stroke-width="    0.2835" stroke="#000000" fill="none" d=" 
M   346.5983   217.9979
L   354.3307   269.1521
M   347.2431   217.2771
L   354.3307   269.1521
M   352.9490   214.7463
L   354.3307   269.1521
M   358.1133   216.8992
L   354.3307   269.1521
M   362.6418   220.8449
L   354.3307   269.1521
M   366.9191   225.6809
L   354.3307   269.1521
M   370.7108   230.6369
L   354.3307   269.1521
M   374.1942   235.6992
L   354.3307   269.1521
M   377.4168   240.8809
L   354.3307   269.1521
M   380.3564   246.1954
L   354.3307   269.1521
M   382.9424   251.6557
L   354.3307   269.1521
M   385.0565   257.2682
L   354.3307   269.1521
M   386.5364   263.0173
L   354.3307   269.1521
M   387.1995   268.8483
L   354.3307   269.1521
M   386.8988   274.6573
L   354.3307   269.1521
M   385.5956   280.3084
L   354.3307   269.1521
M   383.3865   285.6798
L   354.3307   269.1521
M   380.4537   290.7080
L   354.3307   269.1521
M   376.9829   295.3911
L   354.3307   269.1521
M   373.1202   299.7624
L   354.3307   269.1521
M   368.9673   303.8630
L   354.3307   269.1521
M   364.5930   307.7291
L   354.3307   269.1521
M   360.0437   311.3877
L   354.3307   269.1521
M   359.9461   311.4627
L   354.3307   269.1521
"/>
<path stroke-width="    0.2835" stroke="#000000" fill="none" d=" 
M   354.3307   269.1521
L   141.7323   453.2677
L   202.4746   453.2677
L   354.3307   269.1521
"/>
<path stroke-width="    0.2835" stroke="#000000" fill="none" d=" 
M   354.3307   269.1521
L   346.5983   217.9979
L   141.7323   453.2677
L   354.3307   269.1521
"/>
<path stroke-width="    0.2835" stroke="#000000" fill="none" d=" 
M   336.5118   115.8997
L   336.8313   120.8720
L   337.2321   126.8973
L   337.6504   132.9253
L   338.0895   138.9543
L   338.5517   144.9838
L   339.0391   151.0129
L   339.5538   157.0411
L   340.0977   163.0676
L   340.6721   169.0919
L   341.2784   175.1125
L   341.9179   181.1301
L   342.5912   187.1429
L   343.2988   193.1510
L   344.0412   199.1532
L   344.8180   205.1494
L   345.6286   211.1387
L   346.4593   217.0337
L   346.5983   217.9979
L   141.7323   453.2677
L   141.7323   453.2677
L   141.7323   453.2677
L   141.7323   453.2677
L   141.7323   453.2677
L   141.7323   453.2677
L   141.7323   453.2677
L   141.7323   453.2677
L   141.7323   453.2677
L   141.7323   453.2677
L   141.7323   453.2677
L   141.7323   453.2677
L   141.7323   453.2677
L   141.7323   453.2677
L   141.7323   453.2677
L   141.7323   453.2677
L   141.7323   453.2677
L   141.7323   453.2677
L   141.7323   453.2677
Z 
"/>
<path stroke-width="    0.2835" stroke="#000000" fill="none" d=" 
M   336.5118   115.8997
L   141.7323   453.2677
M   336.8313   120.8720
L   141.7323   453.2677
M   337.2321   126.8973
L   141.7323   453.2677
M   337.6504   132.9253
L   141.7323   453.2677
M   338.0895   138.9543
L   141.7323   453.2677
M   338.5517   144.9838
L   141.7323   453.2677
M   339.0391   151.0129
L   141.7323   453.2677
M   339.5538   157.0411
L   141.7323   453.2677
M   340.0977   163.0676
L   141.7323   453.2677
M   340.6721   169.0919
L   141.7323   453.2677
M   341.2784   175.1125
L   141.7323   453.2677
M   341.9179   181.1301
L   141.7323   453.2677
M   342.5912   187.1429
L   141.7323   453.2677
M   343.2988   193.1510
L   141.7323   453.2677
M   344.0412   199.1532
L   141.7323   453.2677
M   344.8180   205.1494
L   141.7323   453.2677
M   345.6286   211.1387
L   141.7323   453.2677
M   346.4593   217.0337
L   141.7323   453.2677
M   346.5983   217.9979
L   141.7323   453.2677
"/>
<path stroke-width="    0.2835" stroke="#000000" fill="none" d=" 
M   460.2432   407.3577
L   459.2160   408.0184
L   455.5592   409.8507
L   449.8396   410.6306
L   444.7592   408.2614
L   441.4920   404.1180
L   439.3991   399.1842
L   438.1067   393.8592
L   437.3989   388.3368
L   437.1361   382.3618
L   437.1335   381.3831
L   496.0631   330.5241
L   496.0631   330.5241
L   496.0631   330.5241
L   496.0631   330.5241
L   496.0631   330.5241
L   496.0631   330.5241
L   496.0631   330.5241
L   496.0631   330.5241
L   496.0631   330.5241
L   496.0631   330.5241
L   496.0631   330.5241
Z 
"/>
<path stroke-width="    0.2835" stroke="#000000" fill="none" d=" 
M   460.2432   407.3577
L   496.0631   330.5241
M   459.2160   408.0184
L   496.0631   330.5241
M   455.5592   409.8507
L   496.0631   330.5241
M   449.8396   410.6306
L   496.0631   330.5241
M   444.7592   408.2614
L   496.0631   330.5241
M   441.4920   404.1180
L   496.0631   330.5241
M   439.3991   399.1842
L   496.0631   330.5241
M   438.1067   393.8592
L   496.0631   330.5241
M   437.3989   388.3368
L   496.0631   330.5241
M   437.1361   382.3618
L   496.0631   330.5241
M   437.1335   381.3831
L   496.0631   330.5241
"/>
<path stroke-width="    0.2835" stroke="#000000" fill="none" d=" 
M   496.0631   330.5241
L   460.2432   407.3577
L   513.7795   361.2099
L   496.0631   330.5241
"/>
<path stroke-width="    0.2835" stroke="#000000" fill="none" d=" 
M   457.2758   415.6076
L   457.6295   414.5029
L   459.6564   408.8557
L   460.2432   407.3577
L   513.7795   361.2099
L   513.7795   361.2099
L   513.7795   361.2099
L   513.7795   361.2099
Z 
"/>
<path stroke-width="    0.2835" stroke="#000000" fill="none" d=" 
M   457.2758   415.6076
L   513.7795   361.2099
M   457.6295   414.5029
L   513.7795   361.2099
M   459.6564   408.8557
L   513.7795   361.2099
M   460.2432   407.3577
L   513.7795   361.2099
"/>
<path stroke-width="    0.2835" stroke="#000000" fill="none" d=" 
M   513.7795   361.2099
L   457.2758   415.6076
L   460.6299   453.2677
L   513.7795   361.2099
"/>
<path stroke-width="    0.2835" stroke="#000000" fill="none" d=" 
M   430.2972   453.2677
L   431.8734   450.9236
L   435.2589   446.0018
L   438.7131   441.0999
L   442.2134   436.2149
L   445.7412   431.3425
L   449.2851   426.4789
L   452.8433   421.6175
L   456.6296   416.4789
L   457.2758   415.6076
L   460.6299   453.2677
L   460.6299   453.2677
L   460.6299   453.2677
L   460.6299   453.2677
L   460.6299   453.2677
L   460.6299   453.2677
L   460.6299   453.2677
L   460.6299   453.2677
L   460.6299   453.2677
L   460.6299   453.2677
Z 
"/>
<path stroke-width="    0.2835" stroke="#000000" fill="none" d=" 
M   430.2972   453.2677
L   460.6299   453.2677
M   431.8734   450.9236
L   460.6299   453.2677
M   435.2589   446.0018
L   460.6299   453.2677
M   438.7131   441.0999
L   460.6299   453.2677
M   442.2134   436.2149
L   460.6299   453.2677
M   445.7412   431.3425
L   460.6299   453.2677
M   449.2851   426.4789
L   460.6299   453.2677
M   452.8433   421.6175
L   460.6299   453.2677
M   456.6296   416.4789
L   460.6299   453.2677
M   457.2758   415.6076
L   460.6299   453.2677
"/>
<path stroke-width="    0.2835" stroke="#000000" fill="none" d=" 
M   460.6299   453.2677
L   566.9291   453.2677
L   513.7795   361.2099
L   460.6299   453.2677
"/>
<path stroke-width="    0.2835" stroke="#000000" fill="none" d=" 
M   472.6985   290.0555
L   466.5212   289.3787
L   460.5470   288.0372
L   454.9409   285.9487
L   449.8894   283.0926
L   445.5478   279.5193
L   442.0116   275.3306
L   439.3305   270.6515
L   437.5429   265.6184
L   436.7151   260.3860
L   436.9773   255.1574
L   438.5448   250.2368
L   441.6464   246.0599
L   445.7042   243.3000
L   460.6299   269.1521
L   460.6299   269.1521
L   460.6299   269.1521
L   460.6299   269.1521
L   460.6299   269.1521
L   460.6299   269.1521
L   460.6299   269.1521
L   460.6299   269.1521
L   460.6299   269.1521
L   460.6299   269.1521
L   460.6299   269.1521
L   460.6299   269.1521
L   460.6299   269.1521
L   460.6299   269.1521
Z 
"/>
<path stroke-width="    0.2835" stroke="#000000" fill="none" d=" 
M   472.6985   290.0555
L   460.6299   269.1521
M   466.5212   289.3787
L   460.6299   269.1521
M   460.5470   288.0372
L   460.6299   269.1521
M   454.9409   285.9487
L   460.6299   269.1521
M   449.8894   283.0926
L   460.6299   269.1521
M   445.5478   279.5193
L   460.6299   269.1521
M   442.0116   275.3306
L   460.6299   269.1521
M   439.3305   270.6515
L   460.6299   269.1521
M   437.5429   265.6184
L   460.6299   269.1521
M   436.7151   260.3860
L   460.6299   269.1521
M   436.9773   255.1574
L   460.6299   269.1521
M   438.5448   250.2368
L   460.6299   269.1521
M   441.6464   246.0599
L   460.6299   269.1521
M   445.7042   243.3000
L   460.6299   269.1521
"/>
<path stroke-width="    0.2835" stroke="#000000" fill="none" d=" 
M   432.4732   220.3832
L   426.6119   217.3329
L   421.1936   214.3944
L   415.8445   211.3982
L   410.5501   208.3532
L   405.2993   205.2658
L   400.0823   202.1318
L   394.8920   198.9349
L   389.7266   195.6399
L   384.5943   192.1839
L   379.5192   188.4649
L   374.5505   184.3321
L   370.2977   180.1454
L   366.5120   175.5871
L   363.2815   170.6915
L   361.5678   167.5250
L   360.1372   164.4566
L   354.3307    85.0364
L   354.3307    85.0364
L   354.3307    85.0364
L   354.3307    85.0364
L   354.3307    85.0364
L   354.3307    85.0364
L   354.3307    85.0364
L   354.3307    85.0364
L   354.3307    85.0364
L   354.3307    85.0364
L   354.3307    85.0364
L   354.3307    85.0364
L   354.3307    85.0364
L   354.3307    85.0364
L   354.3307    85.0364
L   354.3307    85.0364
L   354.3307    85.0364
Z 
"/>
<path stroke-width="    0.2835" stroke="#000000" fill="none" d=" 
M   432.4732   220.3832
L   354.3307    85.0364
M   426.6119   217.3329
L   354.3307    85.0364
M   421.1936   214.3944
L   354.3307    85.0364
M   415.8445   211.3982
L   354.3307    85.0364
M   410.5501   208.3532
L   354.3307    85.0364
M   405.2993   205.2658
L   354.3307    85.0364
M   400.0823   202.1318
L   354.3307    85.0364
M   394.8920   198.9349
L   354.3307    85.0364
M   389.7266   195.6399
L   354.3307    85.0364
M   384.5943   192.1839
L   354.3307    85.0364
M   379.5192   188.4649
L   354.3307    85.0364
M   374.5505   184.3321
L   354.3307    85.0364
M   370.2977   180.1454
L   354.3307    85.0364
M   366.5120   175.5871
L   354.3307    85.0364
M   363.2815   170.6915
L   354.3307    85.0364
M   361.5678   167.5250
L   354.3307    85.0364
M   360.1372   164.4566
L   354.3307    85.0364
"/>
<path stroke-width="    0.2835" stroke="#000000" fill="none" d=" 
M   348.1709   111.4592
L   360.1372   164.4566
L   354.3307    85.0364
L   348.1709   111.4592
"/>
<path stroke-width="    0.2835" stroke="#000000" fill="none" d=" 
M   360.1372   164.4566
L   359.5727   164.0201
L   354.8843   160.2462
L   350.4174   156.1446
L   347.4230   152.6496
L   345.4256   149.3771
L   344.0412   145.6845
L   343.7410   144.4082
L   343.2641   140.6291
L   343.2122   139.1782
L   343.4080   134.4093
L   344.0214   129.5158
L   345.0650   123.8823
L   346.5775   117.3815
L   348.0102   112.0278
L   348.1709   111.4592
Z 
"/>
<path stroke-width="    0.2835" stroke="#000000" fill="none" d=" 
M   360.1372   164.4566
L   348.1709   111.4592
M   359.5727   164.0201
L   348.0102   112.0278
M   354.8843   160.2462
L   346.5775   117.3815
M   350.4174   156.1446
L   345.0650   123.8823
M   347.4230   152.6496
L   344.0214   129.5158
M   345.4256   149.3771
L   343.4080   134.4093
M   344.0412   145.6845
L   343.2122   139.1782
M   343.7410   144.4082
L   343.2641   140.6291
"/>
<path stroke-width="    0.2835" stroke="#000000" fill="none" d=" 
M   348.1709   111.4592
L   347.8020   109.9624
L   346.1078   103.9326
L   345.1352   100.9635
L   354.3307    85.0364
L   354.3307    85.0364
L   354.3307    85.0364
L   354.3307    85.0364
Z 
"/>
<path stroke-width="    0.2835" stroke="#000000" fill="none" d=" 
M   348.1709   111.4592
L   354.3307    85.0364
M   347.8020   109.9624
L   354.3307    85.0364
M   346.1078   103.9326
L   354.3307    85.0364
M   345.1352   100.9635
L   354.3307    85.0364
"/>
<circle cx="  496.0630" cy="  330.5240" r="    1.4173" stroke-width="    0.2835" stroke="#000000" fill="#000000" /> 
M   496.0630   330.5240
M   498.8976   333.3586
<text x="  498.8976" y="  333.3586"
 transform="rotate(   -0.0000,  498.8976,  333.3586)"
 font-family="'Arial'" font-size="    7.7754"
 style="fill: #000000; stroke: none">a-Larn</text>
<circle cx="  407.4803" cy="  361.2099" r="    1.4173" stroke-width="    0.2835" stroke="#000000" fill="#000000" /> 
M   407.4803   361.2099
M   410.3150   364.0445
<text x="  410.3150" y="  364.0445"
 transform="rotate(   -0.0000,  410.3150,  364.0445)"
 font-family="'Arial'" font-size="    7.7754"
 style="fill: #000000; stroke: none">Gehl</text>
<circle cx="  354.3307" cy="  453.2677" r="    1.4173" stroke-width="    0.2835" stroke="#000000" fill="#000000" /> 
M   354.3307   453.2677
M   333.3097   471.9505
<text x="  333.3097" y="  471.9505"
 transform="rotate(  -30.0000,  333.3097,  471.9505)"
 font-family="'Arial'" font-size="    7.7754"
 style="fill: #000000; stroke: none">1Ca1Al</text>
<circle cx="  283.4646" cy="  453.2677" r="    1.4173" stroke-width="    0.2835" stroke="#000000" fill="#000000" /> 
M   283.4646   453.2677
M   262.4436   471.9505
<text x="  262.4436" y="  471.9505"
 transform="rotate(  -30.0000,  262.4436,  471.9505)"
 font-family="'Arial'" font-size="    7.7754"
 style="fill: #000000; stroke: none">1Ca2Al</text>
<circle cx="  202.4747" cy="  453.2677" r="    1.4173" stroke-width="    0.2835" stroke="#000000" fill="#000000" /> 
M   202.4747   453.2677
M   181.4537   471.9505
<text x="  181.4537" y="  471.9505"
 transform="rotate(  -30.0000,  181.4537,  471.9505)"
 font-family="'Arial'" font-size="    7.7754"
 style="fill: #000000; stroke: none">1Ca6Al</text>
<circle cx="  354.3307" cy="  269.1521" r="    1.4173" stroke-width="    0.2835" stroke="#000000" fill="#000000" /> 
M   354.3307   269.1521
M   357.1654   271.9867
<text x="  357.1654" y="  271.9867"
 transform="rotate(   -0.0000,  357.1654,  271.9867)"
 font-family="'Arial'" font-size="    7.7754"
 style="fill: #000000; stroke: none">Anor</text>
<circle cx="  141.7323" cy="  453.2677" r="    1.4173" stroke-width="    0.2835" stroke="#000000" fill="#000000" /> 
M   141.7323   453.2677
M   126.7404   456.1024
<text x="  126.7404" y="  456.1024"
 transform="rotate(   -0.0000,  126.7404,  456.1024)"
 font-family="'Arial'" font-size="    7.7754"
 style="fill: #000000; stroke: none">Cor</text>
<circle cx="  513.7795" cy="  361.2099" r="    1.4173" stroke-width="    0.2835" stroke="#000000" fill="#000000" /> 
M   513.7795   361.2099
M   516.6142   364.0445
<text x="  516.6142" y="  364.0445"
 transform="rotate(   -0.0000,  516.6142,  364.0445)"
 font-family="'Arial'" font-size="    7.7754"
 style="fill: #000000; stroke: none">3Ca1Si</text>
<circle cx="  460.6299" cy="  453.2677" r="    1.4173" stroke-width="    0.2835" stroke="#000000" fill="#000000" /> 
M   460.6299   453.2677
M   439.1472   472.2171
<text x="  439.1472" y="  472.2171"
 transform="rotate(  -30.0000,  439.1472,  472.2171)"
 font-family="'Arial'" font-size="    7.7754"
 style="fill: #000000; stroke: none">3Ca1Al</text>
<circle cx="  566.9291" cy="  453.2677" r="    1.4173" stroke-width="    0.2835" stroke="#000000" fill="#000000" /> 
M   566.9291   453.2677
M   569.7638   456.1024
<text x="  569.7638" y="  456.1024"
 transform="rotate(   -0.0000,  569.7638,  456.1024)"
 font-family="'Arial'" font-size="    7.7754"
 style="fill: #000000; stroke: none">Lime</text>
<circle cx="  460.6299" cy="  269.1521" r="    1.4173" stroke-width="    0.2835" stroke="#000000" fill="#000000" /> 
M   460.6299   269.1521
M   463.4646   271.9867
<text x="  463.4646" y="  271.9867"
 transform="rotate(   -0.0000,  463.4646,  271.9867)"
 font-family="'Arial'" font-size="    7.7754"
 style="fill: #000000; stroke: none">ps-Woll</text>
<circle cx="  354.3307" cy="   85.0364" r="    1.4173" stroke-width="    0.2835" stroke="#000000" fill="#000000" /> 
M   354.3307    85.0364
M   357.1654    87.8711
<text x="  357.1654" y="   87.8711"
 transform="rotate(   -0.0000,  357.1654,   87.8711)"
 font-family="'Arial'" font-size="    7.7754"
 style="fill: #000000; stroke: none">b-Crist</text>
<path stroke-width="    0.2835" stroke="#000000" fill="none" d=" 
"/>
M   595.2756   339.8819
<text x="  595.2756" y="  339.8819"
 transform="rotate(   -0.0000,  595.2756,  339.8819)"
 font-family="'Arial'" font-size="    7.7754"
 style="fill: #000000; stroke: none">24.06.2020 - 11:03:20  CPU time:    0h 00m 01.22s</text>
M   595.2756    37.9921
<text x="  595.2756" y="   37.9921"
 transform="rotate(   -0.0000,  595.2756,   37.9921)"
 font-family="'Arial'" font-size="    7.7754"
 style="fill: #000000; stroke: none">therter version: 09.03.2019</text>
M   595.2756    47.9134
<text x="  595.2756" y="   47.9134"
 transform="rotate(   -0.0000,  595.2756,   47.9134)"
 font-family="'Arial'" font-size="    7.7754"
 style="fill: #000000; stroke: none">database: sialca</text>
M   595.2756    57.8346
<text x="  595.2756" y="   57.8346"
 transform="rotate(   -0.0000,  595.2756,   57.8346)"
 font-family="'Arial'" font-size="    7.7754"
 style="fill: #000000; stroke: none">*LIQUID: ideal+margules</text>

</g>

</svg>
