<?xml version="1.0" encoding="utf-8"?>
<svg version="1.1"
xmlns="http://www.w3.org/2000/svg"
xmlns:xlink="http://www.w3.org/1999/xlink" 
width="29.7cm" height="21cm"
viewBox="0 0 842 595">
<g xml:space="preserve" stroke-linecap="round" stroke-linejoin="round" stroke-miterlimit="10">
<path stroke-width="0.5669" stroke="#000000" fill="none" d="
M   609.4488   304.4488
"/>
<rect x="609.2050" y="297.3622" height="0.4801" width="0.4801" fill="#CECECE"/>
<rect x="609.6774" y="297.3622" height="0.4801" width="0.4801" fill="#BDBDBD"/>
<rect x="610.1499" y="297.3622" height="0.4801" width="0.4801" fill="#B5B5B5"/>
<rect x="610.6223" y="297.3622" height="0.4801" width="0.4801" fill="#9C9C9C"/>
<rect x="611.0947" y="297.3622" height="0.4801" width="0.4801" fill="#8C8C8C"/>
<rect x="611.5672" y="297.3622" height="0.4801" width="0.4801" fill="#EFEFEF"/>
<rect x="608.7325" y="297.8194" height="0.4801" width="0.4801" fill="#E7E7E7"/>
<rect x="609.2050" y="297.8194" height="0.4801" width="0.4801" fill="#C6C6C6"/>
<rect x="609.6774" y="297.8194" height="0.4801" width="0.4801" fill="#BDBDBD"/>
<rect x="610.1499" y="297.8194" height="0.4801" width="0.4801" fill="#ADADAD"/>
<rect x="610.6223" y="297.8194" height="0.4801" width="0.4801" fill="#949494"/>
<rect x="611.0947" y="297.8194" height="0.4801" width="0.4801" fill="#7B7B7B"/>
<rect x="611.5672" y="297.8194" height="0.4801" width="0.4801" fill="#EFEFEF"/>
<rect x="608.7325" y="298.2766" height="0.4801" width="0.4801" fill="#D6D6D6"/>
<rect x="609.2050" y="298.2766" height="0.4801" width="0.4801" fill="#C6C6C6"/>
<rect x="609.6774" y="298.2766" height="0.4801" width="0.4801" fill="#B5B5B5"/>
<rect x="610.1499" y="298.2766" height="0.4801" width="0.4801" fill="#A5A5A5"/>
<rect x="610.6223" y="298.2766" height="0.4801" width="0.4801" fill="#8C8C8C"/>
<rect x="611.0947" y="298.2766" height="0.4801" width="0.4801" fill="#6B6B6B"/>
<rect x="611.5672" y="298.2766" height="0.4801" width="0.4801" fill="#EFEFEF"/>
<rect x="608.2601" y="298.7338" height="0.4801" width="0.4801" fill="#EFEFEF"/>
<rect x="608.7325" y="298.7338" height="0.4801" width="0.4801" fill="#CECECE"/>
<rect x="609.2050" y="298.7338" height="0.4801" width="0.4801" fill="#C6C6C6"/>
<rect x="609.6774" y="298.7338" height="0.4801" width="0.4801" fill="#B5B5B5"/>
<rect x="610.1499" y="298.7338" height="0.4801" width="0.4801" fill="#9C9C9C"/>
<rect x="610.6223" y="298.7338" height="0.4801" width="0.4801" fill="#737373"/>
<rect x="611.0947" y="298.7338" height="0.4801" width="0.4801" fill="#737373"/>
<rect x="611.5672" y="298.7338" height="0.4801" width="0.4801" fill="#EFEFEF"/>
<rect x="606.8428" y="299.1910" height="0.4801" width="0.4801" fill="#F7F7F7"/>
<rect x="607.3152" y="299.1910" height="0.4801" width="0.4801" fill="#F7F7F7"/>
<rect x="607.7877" y="299.1910" height="0.4801" width="0.4801" fill="#F7F7F7"/>
<rect x="608.2601" y="299.1910" height="0.4801" width="0.4801" fill="#DEDEDE"/>
<rect x="608.7325" y="299.1910" height="0.4801" width="0.4801" fill="#CECECE"/>
<rect x="609.2050" y="299.1910" height="0.4801" width="0.4801" fill="#BDBDBD"/>
<rect x="609.6774" y="299.1910" height="0.4801" width="0.4801" fill="#ADADAD"/>
<rect x="610.1499" y="299.1910" height="0.4801" width="0.4801" fill="#8C8C8C"/>
<rect x="610.6223" y="299.1910" height="0.4801" width="0.4801" fill="#6B6B6B"/>
<rect x="611.0947" y="299.1910" height="0.4801" width="0.4801" fill="#848484"/>
<rect x="611.5672" y="299.1910" height="0.4801" width="0.4801" fill="#F7F7F7"/>
<rect x="606.8428" y="299.6482" height="0.4801" width="0.4801" fill="#F7F7F7"/>
<rect x="607.3152" y="299.6482" height="0.4801" width="0.4801" fill="#E7E7E7"/>
<rect x="607.7877" y="299.6482" height="0.4801" width="0.4801" fill="#E7E7E7"/>
<rect x="608.2601" y="299.6482" height="0.4801" width="0.4801" fill="#D6D6D6"/>
<rect x="608.7325" y="299.6482" height="0.4801" width="0.4801" fill="#C6C6C6"/>
<rect x="609.2050" y="299.6482" height="0.4801" width="0.4801" fill="#BDBDBD"/>
<rect x="609.6774" y="299.6482" height="0.4801" width="0.4801" fill="#9C9C9C"/>
<rect x="610.1499" y="299.6482" height="0.4801" width="0.4801" fill="#737373"/>
<rect x="610.6223" y="299.6482" height="0.4801" width="0.4801" fill="#737373"/>
<rect x="611.0947" y="299.6482" height="0.4801" width="0.4801" fill="#949494"/>
<rect x="611.5672" y="299.6482" height="0.4801" width="0.4801" fill="#F7F7F7"/>
<rect x="606.8428" y="300.1054" height="0.4801" width="0.4801" fill="#F7F7F7"/>
<rect x="607.3152" y="300.1054" height="0.4801" width="0.4801" fill="#E7E7E7"/>
<rect x="607.7877" y="300.1054" height="0.4801" width="0.4801" fill="#DEDEDE"/>
<rect x="608.2601" y="300.1054" height="0.4801" width="0.4801" fill="#CECECE"/>
<rect x="608.7325" y="300.1054" height="0.4801" width="0.4801" fill="#BDBDBD"/>
<rect x="609.2050" y="300.1054" height="0.4801" width="0.4801" fill="#ADADAD"/>
<rect x="609.6774" y="300.1054" height="0.4801" width="0.4801" fill="#8C8C8C"/>
<rect x="610.1499" y="300.1054" height="0.4801" width="0.4801" fill="#6B6B6B"/>
<rect x="610.6223" y="300.1054" height="0.4801" width="0.4801" fill="#7B7B7B"/>
<rect x="611.0947" y="300.1054" height="0.4801" width="0.4801" fill="#9C9C9C"/>
<rect x="611.5672" y="300.1054" height="0.4801" width="0.4801" fill="#F7F7F7"/>
<rect x="606.8428" y="300.5626" height="0.4801" width="0.4801" fill="#F7F7F7"/>
<rect x="607.3152" y="300.5626" height="0.4801" width="0.4801" fill="#E7E7E7"/>
<rect x="607.7877" y="300.5626" height="0.4801" width="0.4801" fill="#D6D6D6"/>
<rect x="608.2601" y="300.5626" height="0.4801" width="0.4801" fill="#C6C6C6"/>
<rect x="608.7325" y="300.5626" height="0.4801" width="0.4801" fill="#B5B5B5"/>
<rect x="609.2050" y="300.5626" height="0.4801" width="0.4801" fill="#9C9C9C"/>
<rect x="609.6774" y="300.5626" height="0.4801" width="0.4801" fill="#737373"/>
<rect x="610.1499" y="300.5626" height="0.4801" width="0.4801" fill="#737373"/>
<rect x="610.6223" y="300.5626" height="0.4801" width="0.4801" fill="#8C8C8C"/>
<rect x="611.0947" y="300.5626" height="0.4801" width="0.4801" fill="#A5A5A5"/>
<rect x="611.5672" y="300.5626" height="0.4801" width="0.4801" fill="#F7F7F7"/>
<rect x="604.9530" y="301.0198" height="0.4801" width="0.4801" fill="#F7F7F7"/>
<rect x="606.8428" y="301.0198" height="0.4801" width="0.4801" fill="#F7F7F7"/>
<rect x="607.3152" y="301.0198" height="0.4801" width="0.4801" fill="#D6D6D6"/>
<rect x="607.7877" y="301.0198" height="0.4801" width="0.4801" fill="#CECECE"/>
<rect x="608.2601" y="301.0198" height="0.4801" width="0.4801" fill="#BDBDBD"/>
<rect x="608.7325" y="301.0198" height="0.4801" width="0.4801" fill="#A5A5A5"/>
<rect x="609.2050" y="301.0198" height="0.4801" width="0.4801" fill="#848484"/>
<rect x="609.6774" y="301.0198" height="0.4801" width="0.4801" fill="#636363"/>
<rect x="610.1499" y="301.0198" height="0.4801" width="0.4801" fill="#7B7B7B"/>
<rect x="610.6223" y="301.0198" height="0.4801" width="0.4801" fill="#949494"/>
<rect x="611.0947" y="301.0198" height="0.4801" width="0.4801" fill="#B5B5B5"/>
<rect x="611.5672" y="301.0198" height="0.4801" width="0.4801" fill="#F7F7F7"/>
<rect x="604.9530" y="301.4770" height="0.4801" width="0.4801" fill="#F7F7F7"/>
<rect x="605.4255" y="301.4770" height="0.4801" width="0.4801" fill="#EFEFEF"/>
<rect x="605.8979" y="301.4770" height="0.4801" width="0.4801" fill="#F7F7F7"/>
<rect x="606.8428" y="301.4770" height="0.4801" width="0.4801" fill="#F7F7F7"/>
<rect x="607.3152" y="301.4770" height="0.4801" width="0.4801" fill="#D6D6D6"/>
<rect x="607.7877" y="301.4770" height="0.4801" width="0.4801" fill="#BDBDBD"/>
<rect x="608.2601" y="301.4770" height="0.4801" width="0.4801" fill="#ADADAD"/>
<rect x="608.7325" y="301.4770" height="0.4801" width="0.4801" fill="#8C8C8C"/>
<rect x="609.2050" y="301.4770" height="0.4801" width="0.4801" fill="#636363"/>
<rect x="609.6774" y="301.4770" height="0.4801" width="0.4801" fill="#6B6B6B"/>
<rect x="610.1499" y="301.4770" height="0.4801" width="0.4801" fill="#7B7B7B"/>
<rect x="610.6223" y="301.4770" height="0.4801" width="0.4801" fill="#A5A5A5"/>
<rect x="611.0947" y="301.4770" height="0.4801" width="0.4801" fill="#ADADAD"/>
<rect x="611.5672" y="301.4770" height="0.4801" width="0.4801" fill="#F7F7F7"/>
<rect x="603.0632" y="301.9342" height="0.4801" width="0.4801" fill="#F7F7F7"/>
<rect x="603.5357" y="301.9342" height="0.4801" width="0.4801" fill="#F7F7F7"/>
<rect x="604.4806" y="301.9342" height="0.4801" width="0.4801" fill="#F7F7F7"/>
<rect x="604.9530" y="301.9342" height="0.4801" width="0.4801" fill="#EFEFEF"/>
<rect x="605.4255" y="301.9342" height="0.4801" width="0.4801" fill="#EFEFEF"/>
<rect x="605.8979" y="301.9342" height="0.4801" width="0.4801" fill="#E7E7E7"/>
<rect x="606.3703" y="301.9342" height="0.4801" width="0.4801" fill="#F7F7F7"/>
<rect x="607.3152" y="301.9342" height="0.4801" width="0.4801" fill="#CECECE"/>
<rect x="607.7877" y="301.9342" height="0.4801" width="0.4801" fill="#B5B5B5"/>
<rect x="608.2601" y="301.9342" height="0.4801" width="0.4801" fill="#949494"/>
<rect x="608.7325" y="301.9342" height="0.4801" width="0.4801" fill="#636363"/>
<rect x="609.2050" y="301.9342" height="0.4801" width="0.4801" fill="#5A5A5A"/>
<rect x="609.6774" y="301.9342" height="0.4801" width="0.4801" fill="#636363"/>
<rect x="610.1499" y="301.9342" height="0.4801" width="0.4801" fill="#848484"/>
<rect x="610.6223" y="301.9342" height="0.4801" width="0.4801" fill="#949494"/>
<rect x="611.0947" y="301.9342" height="0.4801" width="0.4801" fill="#A5A5A5"/>
<rect x="611.5672" y="301.9342" height="0.4801" width="0.4801" fill="#E7E7E7"/>
<rect x="612.0396" y="301.9342" height="0.4801" width="0.4801" fill="#EFEFEF"/>
<rect x="612.5121" y="301.9342" height="0.4801" width="0.4801" fill="#EFEFEF"/>
<rect x="612.9845" y="301.9342" height="0.4801" width="0.4801" fill="#EFEFEF"/>
<rect x="613.4569" y="301.9342" height="0.4801" width="0.4801" fill="#EFEFEF"/>
<rect x="613.9294" y="301.9342" height="0.4801" width="0.4801" fill="#EFEFEF"/>
<rect x="614.4018" y="301.9342" height="0.4801" width="0.4801" fill="#EFEFEF"/>
<rect x="614.8743" y="301.9342" height="0.4801" width="0.4801" fill="#EFEFEF"/>
<rect x="615.3467" y="301.9342" height="0.4801" width="0.4801" fill="#E7E7E7"/>
<rect x="615.8192" y="301.9342" height="0.4801" width="0.4801" fill="#EFEFEF"/>
<rect x="616.2916" y="301.9342" height="0.4801" width="0.4801" fill="#E7E7E7"/>
<rect x="603.0632" y="302.3914" height="0.4801" width="0.4801" fill="#F7F7F7"/>
<rect x="603.5357" y="302.3914" height="0.4801" width="0.4801" fill="#EFEFEF"/>
<rect x="604.0081" y="302.3914" height="0.4801" width="0.4801" fill="#EFEFEF"/>
<rect x="604.4806" y="302.3914" height="0.4801" width="0.4801" fill="#EFEFEF"/>
<rect x="604.9530" y="302.3914" height="0.4801" width="0.4801" fill="#EFEFEF"/>
<rect x="605.4255" y="302.3914" height="0.4801" width="0.4801" fill="#E7E7E7"/>
<rect x="605.8979" y="302.3914" height="0.4801" width="0.4801" fill="#DEDEDE"/>
<rect x="606.3703" y="302.3914" height="0.4801" width="0.4801" fill="#D6D6D6"/>
<rect x="606.8428" y="302.3914" height="0.4801" width="0.4801" fill="#EFEFEF"/>
<rect x="607.3152" y="302.3914" height="0.4801" width="0.4801" fill="#C6C6C6"/>
<rect x="607.7877" y="302.3914" height="0.4801" width="0.4801" fill="#949494"/>
<rect x="608.2601" y="302.3914" height="0.4801" width="0.4801" fill="#6B6B6B"/>
<rect x="608.7325" y="302.3914" height="0.4801" width="0.4801" fill="#636363"/>
<rect x="609.2050" y="302.3914" height="0.4801" width="0.4801" fill="#6B6B6B"/>
<rect x="609.6774" y="302.3914" height="0.4801" width="0.4801" fill="#737373"/>
<rect x="610.1499" y="302.3914" height="0.4801" width="0.4801" fill="#7B7B7B"/>
<rect x="610.6223" y="302.3914" height="0.4801" width="0.4801" fill="#848484"/>
<rect x="611.0947" y="302.3914" height="0.4801" width="0.4801" fill="#949494"/>
<rect x="611.5672" y="302.3914" height="0.4801" width="0.4801" fill="#A5A5A5"/>
<rect x="612.0396" y="302.3914" height="0.4801" width="0.4801" fill="#ADADAD"/>
<rect x="612.5121" y="302.3914" height="0.4801" width="0.4801" fill="#ADADAD"/>
<rect x="612.9845" y="302.3914" height="0.4801" width="0.4801" fill="#B5B5B5"/>
<rect x="613.4569" y="302.3914" height="0.4801" width="0.4801" fill="#ADADAD"/>
<rect x="613.9294" y="302.3914" height="0.4801" width="0.4801" fill="#ADADAD"/>
<rect x="614.4018" y="302.3914" height="0.4801" width="0.4801" fill="#A5A5A5"/>
<rect x="614.8743" y="302.3914" height="0.4801" width="0.4801" fill="#9C9C9C"/>
<rect x="615.3467" y="302.3914" height="0.4801" width="0.4801" fill="#9C9C9C"/>
<rect x="615.8192" y="302.3914" height="0.4801" width="0.4801" fill="#8C8C8C"/>
<rect x="616.2916" y="302.3914" height="0.4801" width="0.4801" fill="#949494"/>
<rect x="603.5357" y="302.8486" height="0.4801" width="0.4801" fill="#E7E7E7"/>
<rect x="604.0081" y="302.8486" height="0.4801" width="0.4801" fill="#E7E7E7"/>
<rect x="604.4806" y="302.8486" height="0.4801" width="0.4801" fill="#E7E7E7"/>
<rect x="604.9530" y="302.8486" height="0.4801" width="0.4801" fill="#E7E7E7"/>
<rect x="605.4255" y="302.8486" height="0.4801" width="0.4801" fill="#DEDEDE"/>
<rect x="605.8979" y="302.8486" height="0.4801" width="0.4801" fill="#D6D6D6"/>
<rect x="606.3703" y="302.8486" height="0.4801" width="0.4801" fill="#C6C6C6"/>
<rect x="606.8428" y="302.8486" height="0.4801" width="0.4801" fill="#BDBDBD"/>
<rect x="607.3152" y="302.8486" height="0.4801" width="0.4801" fill="#ADADAD"/>
<rect x="607.7877" y="302.8486" height="0.4801" width="0.4801" fill="#636363"/>
<rect x="608.2601" y="302.8486" height="0.4801" width="0.4801" fill="#636363"/>
<rect x="608.7325" y="302.8486" height="0.4801" width="0.4801" fill="#7B7B7B"/>
<rect x="609.2050" y="302.8486" height="0.4801" width="0.4801" fill="#7B7B7B"/>
<rect x="609.6774" y="302.8486" height="0.4801" width="0.4801" fill="#7B7B7B"/>
<rect x="610.1499" y="302.8486" height="0.4801" width="0.4801" fill="#7B7B7B"/>
<rect x="610.6223" y="302.8486" height="0.4801" width="0.4801" fill="#848484"/>
<rect x="611.0947" y="302.8486" height="0.4801" width="0.4801" fill="#848484"/>
<rect x="611.5672" y="302.8486" height="0.4801" width="0.4801" fill="#949494"/>
<rect x="612.0396" y="302.8486" height="0.4801" width="0.4801" fill="#A5A5A5"/>
<rect x="612.5121" y="302.8486" height="0.4801" width="0.4801" fill="#A5A5A5"/>
<rect x="612.9845" y="302.8486" height="0.4801" width="0.4801" fill="#ADADAD"/>
<rect x="613.4569" y="302.8486" height="0.4801" width="0.4801" fill="#ADADAD"/>
<rect x="613.9294" y="302.8486" height="0.4801" width="0.4801" fill="#ADADAD"/>
<rect x="614.4018" y="302.8486" height="0.4801" width="0.4801" fill="#A5A5A5"/>
<rect x="614.8743" y="302.8486" height="0.4801" width="0.4801" fill="#9C9C9C"/>
<rect x="615.3467" y="302.8486" height="0.4801" width="0.4801" fill="#949494"/>
<rect x="615.8192" y="302.8486" height="0.4801" width="0.4801" fill="#8C8C8C"/>
<rect x="616.2916" y="302.8486" height="0.4801" width="0.4801" fill="#8C8C8C"/>
<rect x="603.5357" y="303.3058" height="0.4801" width="0.4801" fill="#EFEFEF"/>
<rect x="604.0081" y="303.3058" height="0.4801" width="0.4801" fill="#DEDEDE"/>
<rect x="604.4806" y="303.3058" height="0.4801" width="0.4801" fill="#DEDEDE"/>
<rect x="604.9530" y="303.3058" height="0.4801" width="0.4801" fill="#D6D6D6"/>
<rect x="605.4255" y="303.3058" height="0.4801" width="0.4801" fill="#CECECE"/>
<rect x="605.8979" y="303.3058" height="0.4801" width="0.4801" fill="#BDBDBD"/>
<rect x="606.3703" y="303.3058" height="0.4801" width="0.4801" fill="#ADADAD"/>
<rect x="606.8428" y="303.3058" height="0.4801" width="0.4801" fill="#848484"/>
<rect x="607.3152" y="303.3058" height="0.4801" width="0.4801" fill="#5A5A5A"/>
<rect x="607.7877" y="303.3058" height="0.4801" width="0.4801" fill="#636363"/>
<rect x="608.2601" y="303.3058" height="0.4801" width="0.4801" fill="#848484"/>
<rect x="608.7325" y="303.3058" height="0.4801" width="0.4801" fill="#848484"/>
<rect x="609.2050" y="303.3058" height="0.4801" width="0.4801" fill="#7B7B7B"/>
<rect x="609.6774" y="303.3058" height="0.4801" width="0.4801" fill="#7B7B7B"/>
<rect x="610.1499" y="303.3058" height="0.4801" width="0.4801" fill="#7B7B7B"/>
<rect x="610.6223" y="303.3058" height="0.4801" width="0.4801" fill="#848484"/>
<rect x="611.0947" y="303.3058" height="0.4801" width="0.4801" fill="#848484"/>
<rect x="611.5672" y="303.3058" height="0.4801" width="0.4801" fill="#848484"/>
<rect x="612.0396" y="303.3058" height="0.4801" width="0.4801" fill="#949494"/>
<rect x="612.5121" y="303.3058" height="0.4801" width="0.4801" fill="#A5A5A5"/>
<rect x="612.9845" y="303.3058" height="0.4801" width="0.4801" fill="#A5A5A5"/>
<rect x="613.4569" y="303.3058" height="0.4801" width="0.4801" fill="#ADADAD"/>
<rect x="613.9294" y="303.3058" height="0.4801" width="0.4801" fill="#A5A5A5"/>
<rect x="614.4018" y="303.3058" height="0.4801" width="0.4801" fill="#9C9C9C"/>
<rect x="614.8743" y="303.3058" height="0.4801" width="0.4801" fill="#949494"/>
<rect x="615.3467" y="303.3058" height="0.4801" width="0.4801" fill="#8C8C8C"/>
<rect x="615.8192" y="303.3058" height="0.4801" width="0.4801" fill="#848484"/>
<rect x="616.2916" y="303.3058" height="0.4801" width="0.4801" fill="#848484"/>
<rect x="603.5357" y="303.7630" height="0.4801" width="0.4801" fill="#E7E7E7"/>
<rect x="604.0081" y="303.7630" height="0.4801" width="0.4801" fill="#DEDEDE"/>
<rect x="604.4806" y="303.7630" height="0.4801" width="0.4801" fill="#D6D6D6"/>
<rect x="604.9530" y="303.7630" height="0.4801" width="0.4801" fill="#CECECE"/>
<rect x="605.4255" y="303.7630" height="0.4801" width="0.4801" fill="#BDBDBD"/>
<rect x="605.8979" y="303.7630" height="0.4801" width="0.4801" fill="#9C9C9C"/>
<rect x="606.3703" y="303.7630" height="0.4801" width="0.4801" fill="#737373"/>
<rect x="606.8428" y="303.7630" height="0.4801" width="0.4801" fill="#636363"/>
<rect x="607.3152" y="303.7630" height="0.4801" width="0.4801" fill="#636363"/>
<rect x="607.7877" y="303.7630" height="0.4801" width="0.4801" fill="#7B7B7B"/>
<rect x="608.2601" y="303.7630" height="0.4801" width="0.4801" fill="#737373"/>
<rect x="608.7325" y="303.7630" height="0.4801" width="0.4801" fill="#737373"/>
<rect x="609.2050" y="303.7630" height="0.4801" width="0.4801" fill="#7B7B7B"/>
<rect x="609.6774" y="303.7630" height="0.4801" width="0.4801" fill="#848484"/>
<rect x="610.1499" y="303.7630" height="0.4801" width="0.4801" fill="#7B7B7B"/>
<rect x="610.6223" y="303.7630" height="0.4801" width="0.4801" fill="#7B7B7B"/>
<rect x="611.0947" y="303.7630" height="0.4801" width="0.4801" fill="#848484"/>
<rect x="611.5672" y="303.7630" height="0.4801" width="0.4801" fill="#848484"/>
<rect x="612.0396" y="303.7630" height="0.4801" width="0.4801" fill="#8C8C8C"/>
<rect x="612.5121" y="303.7630" height="0.4801" width="0.4801" fill="#8C8C8C"/>
<rect x="612.9845" y="303.7630" height="0.4801" width="0.4801" fill="#848484"/>
<rect x="613.4569" y="303.7630" height="0.4801" width="0.4801" fill="#7B7B7B"/>
<rect x="613.9294" y="303.7630" height="0.4801" width="0.4801" fill="#737373"/>
<rect x="614.4018" y="303.7630" height="0.4801" width="0.4801" fill="#737373"/>
<rect x="614.8743" y="303.7630" height="0.4801" width="0.4801" fill="#6B6B6B"/>
<rect x="615.3467" y="303.7630" height="0.4801" width="0.4801" fill="#636363"/>
<rect x="615.8192" y="303.7630" height="0.4801" width="0.4801" fill="#5A5A5A"/>
<rect x="616.2916" y="303.7630" height="0.4801" width="0.4801" fill="#636363"/>
<rect x="603.0632" y="304.2202" height="0.4801" width="0.4801" fill="#E7E7E7"/>
<rect x="603.5357" y="304.2202" height="0.4801" width="0.4801" fill="#D6D6D6"/>
<rect x="604.0081" y="304.2202" height="0.4801" width="0.4801" fill="#C6C6C6"/>
<rect x="604.4806" y="304.2202" height="0.4801" width="0.4801" fill="#B5B5B5"/>
<rect x="604.9530" y="304.2202" height="0.4801" width="0.4801" fill="#9C9C9C"/>
<rect x="605.4255" y="304.2202" height="0.4801" width="0.4801" fill="#848484"/>
<rect x="605.8979" y="304.2202" height="0.4801" width="0.4801" fill="#737373"/>
<rect x="606.3703" y="304.2202" height="0.4801" width="0.4801" fill="#7B7B7B"/>
<rect x="606.8428" y="304.2202" height="0.4801" width="0.4801" fill="#8C8C8C"/>
<rect x="607.3152" y="304.2202" height="0.4801" width="0.4801" fill="#8C8C8C"/>
<rect x="607.7877" y="304.2202" height="0.4801" width="0.4801" fill="#7B7B7B"/>
<rect x="608.2601" y="304.2202" height="0.4801" width="0.4801" fill="#737373"/>
<rect x="608.7325" y="304.2202" height="0.4801" width="0.4801" fill="#737373"/>
<rect x="609.2050" y="304.2202" height="0.4801" width="0.4801" fill="#737373"/>
<rect x="609.6774" y="304.2202" height="0.4801" width="0.4801" fill="#7B7B7B"/>
<rect x="610.1499" y="304.2202" height="0.4801" width="0.4801" fill="#848484"/>
<rect x="610.6223" y="304.2202" height="0.4801" width="0.4801" fill="#8C8C8C"/>
<rect x="611.0947" y="304.2202" height="0.4801" width="0.4801" fill="#9C9C9C"/>
<rect x="611.5672" y="304.2202" height="0.4801" width="0.4801" fill="#A5A5A5"/>
<rect x="612.0396" y="304.2202" height="0.4801" width="0.4801" fill="#ADADAD"/>
<rect x="612.5121" y="304.2202" height="0.4801" width="0.4801" fill="#A5A5A5"/>
<rect x="612.9845" y="304.2202" height="0.4801" width="0.4801" fill="#A5A5A5"/>
<rect x="613.4569" y="304.2202" height="0.4801" width="0.4801" fill="#949494"/>
<rect x="613.9294" y="304.2202" height="0.4801" width="0.4801" fill="#848484"/>
<rect x="614.4018" y="304.2202" height="0.4801" width="0.4801" fill="#6B6B6B"/>
<rect x="614.8743" y="304.2202" height="0.4801" width="0.4801" fill="#6B6B6B"/>
<rect x="615.3467" y="304.2202" height="0.4801" width="0.4801" fill="#636363"/>
<rect x="615.8192" y="304.2202" height="0.4801" width="0.4801" fill="#6B6B6B"/>
<rect x="616.2916" y="304.2202" height="0.4801" width="0.4801" fill="#7B7B7B"/>
<rect x="602.5908" y="304.6774" height="0.4801" width="0.4801" fill="#CECECE"/>
<rect x="603.0632" y="304.6774" height="0.4801" width="0.4801" fill="#B5B5B5"/>
<rect x="603.5357" y="304.6774" height="0.4801" width="0.4801" fill="#ADADAD"/>
<rect x="604.0081" y="304.6774" height="0.4801" width="0.4801" fill="#A5A5A5"/>
<rect x="604.4806" y="304.6774" height="0.4801" width="0.4801" fill="#9C9C9C"/>
<rect x="604.9530" y="304.6774" height="0.4801" width="0.4801" fill="#A5A5A5"/>
<rect x="605.4255" y="304.6774" height="0.4801" width="0.4801" fill="#ADADAD"/>
<rect x="605.8979" y="304.6774" height="0.4801" width="0.4801" fill="#B5B5B5"/>
<rect x="606.3703" y="304.6774" height="0.4801" width="0.4801" fill="#ADADAD"/>
<rect x="606.8428" y="304.6774" height="0.4801" width="0.4801" fill="#A5A5A5"/>
<rect x="607.3152" y="304.6774" height="0.4801" width="0.4801" fill="#949494"/>
<rect x="607.7877" y="304.6774" height="0.4801" width="0.4801" fill="#848484"/>
<rect x="608.2601" y="304.6774" height="0.4801" width="0.4801" fill="#7B7B7B"/>
<rect x="608.7325" y="304.6774" height="0.4801" width="0.4801" fill="#7B7B7B"/>
<rect x="609.2050" y="304.6774" height="0.4801" width="0.4801" fill="#7B7B7B"/>
<rect x="609.6774" y="304.6774" height="0.4801" width="0.4801" fill="#848484"/>
<rect x="610.1499" y="304.6774" height="0.4801" width="0.4801" fill="#8C8C8C"/>
<rect x="610.6223" y="304.6774" height="0.4801" width="0.4801" fill="#9C9C9C"/>
<rect x="611.0947" y="304.6774" height="0.4801" width="0.4801" fill="#A5A5A5"/>
<rect x="611.5672" y="304.6774" height="0.4801" width="0.4801" fill="#B5B5B5"/>
<rect x="612.0396" y="304.6774" height="0.4801" width="0.4801" fill="#B5B5B5"/>
<rect x="612.5121" y="304.6774" height="0.4801" width="0.4801" fill="#BDBDBD"/>
<rect x="612.9845" y="304.6774" height="0.4801" width="0.4801" fill="#B5B5B5"/>
<rect x="613.4569" y="304.6774" height="0.4801" width="0.4801" fill="#B5B5B5"/>
<rect x="613.9294" y="304.6774" height="0.4801" width="0.4801" fill="#A5A5A5"/>
<rect x="614.4018" y="304.6774" height="0.4801" width="0.4801" fill="#9C9C9C"/>
<rect x="614.8743" y="304.6774" height="0.4801" width="0.4801" fill="#848484"/>
<rect x="615.3467" y="304.6774" height="0.4801" width="0.4801" fill="#848484"/>
<rect x="615.8192" y="304.6774" height="0.4801" width="0.4801" fill="#737373"/>
<rect x="616.2916" y="304.6774" height="0.4801" width="0.4801" fill="#848484"/>
<rect x="602.5908" y="305.1346" height="0.4801" width="0.4801" fill="#E7E7E7"/>
<rect x="603.0632" y="305.1346" height="0.4801" width="0.4801" fill="#D6D6D6"/>
<rect x="603.5357" y="305.1346" height="0.4801" width="0.4801" fill="#CECECE"/>
<rect x="604.0081" y="305.1346" height="0.4801" width="0.4801" fill="#D6D6D6"/>
<rect x="604.4806" y="305.1346" height="0.4801" width="0.4801" fill="#D6D6D6"/>
<rect x="604.9530" y="305.1346" height="0.4801" width="0.4801" fill="#D6D6D6"/>
<rect x="605.4255" y="305.1346" height="0.4801" width="0.4801" fill="#C6C6C6"/>
<rect x="605.8979" y="305.1346" height="0.4801" width="0.4801" fill="#C6C6C6"/>
<rect x="606.3703" y="305.1346" height="0.4801" width="0.4801" fill="#C6C6C6"/>
<rect x="606.8428" y="305.1346" height="0.4801" width="0.4801" fill="#BDBDBD"/>
<rect x="607.3152" y="305.1346" height="0.4801" width="0.4801" fill="#A5A5A5"/>
<rect x="607.7877" y="305.1346" height="0.4801" width="0.4801" fill="#9C9C9C"/>
<rect x="608.2601" y="305.1346" height="0.4801" width="0.4801" fill="#7B7B7B"/>
<rect x="608.7325" y="305.1346" height="0.4801" width="0.4801" fill="#7B7B7B"/>
<rect x="609.2050" y="305.1346" height="0.4801" width="0.4801" fill="#8C8C8C"/>
<rect x="609.6774" y="305.1346" height="0.4801" width="0.4801" fill="#8C8C8C"/>
<rect x="610.1499" y="305.1346" height="0.4801" width="0.4801" fill="#8C8C8C"/>
<rect x="610.6223" y="305.1346" height="0.4801" width="0.4801" fill="#A5A5A5"/>
<rect x="611.0947" y="305.1346" height="0.4801" width="0.4801" fill="#ADADAD"/>
<rect x="611.5672" y="305.1346" height="0.4801" width="0.4801" fill="#B5B5B5"/>
<rect x="612.0396" y="305.1346" height="0.4801" width="0.4801" fill="#C6C6C6"/>
<rect x="612.5121" y="305.1346" height="0.4801" width="0.4801" fill="#BDBDBD"/>
<rect x="612.9845" y="305.1346" height="0.4801" width="0.4801" fill="#BDBDBD"/>
<rect x="613.4569" y="305.1346" height="0.4801" width="0.4801" fill="#B5B5B5"/>
<rect x="613.9294" y="305.1346" height="0.4801" width="0.4801" fill="#B5B5B5"/>
<rect x="614.4018" y="305.1346" height="0.4801" width="0.4801" fill="#A5A5A5"/>
<rect x="614.8743" y="305.1346" height="0.4801" width="0.4801" fill="#9C9C9C"/>
<rect x="615.3467" y="305.1346" height="0.4801" width="0.4801" fill="#8C8C8C"/>
<rect x="615.8192" y="305.1346" height="0.4801" width="0.4801" fill="#848484"/>
<rect x="616.2916" y="305.1346" height="0.4801" width="0.4801" fill="#848484"/>
<rect x="603.0632" y="305.5918" height="0.4801" width="0.4801" fill="#F7F7F7"/>
<rect x="603.5357" y="305.5918" height="0.4801" width="0.4801" fill="#F7F7F7"/>
<rect x="604.0081" y="305.5918" height="0.4801" width="0.4801" fill="#EFEFEF"/>
<rect x="604.4806" y="305.5918" height="0.4801" width="0.4801" fill="#E7E7E7"/>
<rect x="604.9530" y="305.5918" height="0.4801" width="0.4801" fill="#E7E7E7"/>
<rect x="605.4255" y="305.5918" height="0.4801" width="0.4801" fill="#D6D6D6"/>
<rect x="605.8979" y="305.5918" height="0.4801" width="0.4801" fill="#CECECE"/>
<rect x="606.3703" y="305.5918" height="0.4801" width="0.4801" fill="#CECECE"/>
<rect x="606.8428" y="305.5918" height="0.4801" width="0.4801" fill="#C6C6C6"/>
<rect x="607.3152" y="305.5918" height="0.4801" width="0.4801" fill="#B5B5B5"/>
<rect x="607.7877" y="305.5918" height="0.4801" width="0.4801" fill="#A5A5A5"/>
<rect x="608.2601" y="305.5918" height="0.4801" width="0.4801" fill="#8C8C8C"/>
<rect x="608.7325" y="305.5918" height="0.4801" width="0.4801" fill="#737373"/>
<rect x="609.2050" y="305.5918" height="0.4801" width="0.4801" fill="#848484"/>
<rect x="609.6774" y="305.5918" height="0.4801" width="0.4801" fill="#949494"/>
<rect x="610.1499" y="305.5918" height="0.4801" width="0.4801" fill="#9C9C9C"/>
<rect x="610.6223" y="305.5918" height="0.4801" width="0.4801" fill="#9C9C9C"/>
<rect x="611.0947" y="305.5918" height="0.4801" width="0.4801" fill="#ADADAD"/>
<rect x="611.5672" y="305.5918" height="0.4801" width="0.4801" fill="#B5B5B5"/>
<rect x="612.0396" y="305.5918" height="0.4801" width="0.4801" fill="#C6C6C6"/>
<rect x="612.5121" y="305.5918" height="0.4801" width="0.4801" fill="#C6C6C6"/>
<rect x="612.9845" y="305.5918" height="0.4801" width="0.4801" fill="#C6C6C6"/>
<rect x="613.4569" y="305.5918" height="0.4801" width="0.4801" fill="#BDBDBD"/>
<rect x="613.9294" y="305.5918" height="0.4801" width="0.4801" fill="#B5B5B5"/>
<rect x="614.4018" y="305.5918" height="0.4801" width="0.4801" fill="#B5B5B5"/>
<rect x="614.8743" y="305.5918" height="0.4801" width="0.4801" fill="#ADADAD"/>
<rect x="615.3467" y="305.5918" height="0.4801" width="0.4801" fill="#9C9C9C"/>
<rect x="615.8192" y="305.5918" height="0.4801" width="0.4801" fill="#949494"/>
<rect x="616.2916" y="305.5918" height="0.4801" width="0.4801" fill="#8C8C8C"/>
<rect x="604.0081" y="306.0490" height="0.4801" width="0.4801" fill="#F7F7F7"/>
<rect x="604.4806" y="306.0490" height="0.4801" width="0.4801" fill="#F7F7F7"/>
<rect x="604.9530" y="306.0490" height="0.4801" width="0.4801" fill="#F7F7F7"/>
<rect x="605.4255" y="306.0490" height="0.4801" width="0.4801" fill="#EFEFEF"/>
<rect x="605.8979" y="306.0490" height="0.4801" width="0.4801" fill="#E7E7E7"/>
<rect x="606.3703" y="306.0490" height="0.4801" width="0.4801" fill="#D6D6D6"/>
<rect x="606.8428" y="306.0490" height="0.4801" width="0.4801" fill="#CECECE"/>
<rect x="607.3152" y="306.0490" height="0.4801" width="0.4801" fill="#C6C6C6"/>
<rect x="607.7877" y="306.0490" height="0.4801" width="0.4801" fill="#A5A5A5"/>
<rect x="608.2601" y="306.0490" height="0.4801" width="0.4801" fill="#949494"/>
<rect x="608.7325" y="306.0490" height="0.4801" width="0.4801" fill="#7B7B7B"/>
<rect x="609.2050" y="306.0490" height="0.4801" width="0.4801" fill="#7B7B7B"/>
<rect x="609.6774" y="306.0490" height="0.4801" width="0.4801" fill="#8C8C8C"/>
<rect x="610.1499" y="306.0490" height="0.4801" width="0.4801" fill="#A5A5A5"/>
<rect x="610.6223" y="306.0490" height="0.4801" width="0.4801" fill="#B5B5B5"/>
<rect x="611.0947" y="306.0490" height="0.4801" width="0.4801" fill="#BDBDBD"/>
<rect x="611.5672" y="306.0490" height="0.4801" width="0.4801" fill="#BDBDBD"/>
<rect x="612.0396" y="306.0490" height="0.4801" width="0.4801" fill="#BDBDBD"/>
<rect x="612.5121" y="306.0490" height="0.4801" width="0.4801" fill="#C6C6C6"/>
<rect x="612.9845" y="306.0490" height="0.4801" width="0.4801" fill="#C6C6C6"/>
<rect x="613.4569" y="306.0490" height="0.4801" width="0.4801" fill="#BDBDBD"/>
<rect x="613.9294" y="306.0490" height="0.4801" width="0.4801" fill="#BDBDBD"/>
<rect x="614.4018" y="306.0490" height="0.4801" width="0.4801" fill="#B5B5B5"/>
<rect x="614.8743" y="306.0490" height="0.4801" width="0.4801" fill="#ADADAD"/>
<rect x="615.3467" y="306.0490" height="0.4801" width="0.4801" fill="#A5A5A5"/>
<rect x="615.8192" y="306.0490" height="0.4801" width="0.4801" fill="#9C9C9C"/>
<rect x="616.2916" y="306.0490" height="0.4801" width="0.4801" fill="#949494"/>
<rect x="604.4806" y="306.5062" height="0.4801" width="0.4801" fill="#F7F7F7"/>
<rect x="604.9530" y="306.5062" height="0.4801" width="0.4801" fill="#F7F7F7"/>
<rect x="605.4255" y="306.5062" height="0.4801" width="0.4801" fill="#F7F7F7"/>
<rect x="605.8979" y="306.5062" height="0.4801" width="0.4801" fill="#EFEFEF"/>
<rect x="606.3703" y="306.5062" height="0.4801" width="0.4801" fill="#E7E7E7"/>
<rect x="606.8428" y="306.5062" height="0.4801" width="0.4801" fill="#CECECE"/>
<rect x="607.3152" y="306.5062" height="0.4801" width="0.4801" fill="#C6C6C6"/>
<rect x="607.7877" y="306.5062" height="0.4801" width="0.4801" fill="#BDBDBD"/>
<rect x="608.2601" y="306.5062" height="0.4801" width="0.4801" fill="#A5A5A5"/>
<rect x="608.7325" y="306.5062" height="0.4801" width="0.4801" fill="#848484"/>
<rect x="609.2050" y="306.5062" height="0.4801" width="0.4801" fill="#8C8C8C"/>
<rect x="609.6774" y="306.5062" height="0.4801" width="0.4801" fill="#9C9C9C"/>
<rect x="610.1499" y="306.5062" height="0.4801" width="0.4801" fill="#ADADAD"/>
<rect x="610.6223" y="306.5062" height="0.4801" width="0.4801" fill="#B5B5B5"/>
<rect x="611.0947" y="306.5062" height="0.4801" width="0.4801" fill="#C6C6C6"/>
<rect x="611.5672" y="306.5062" height="0.4801" width="0.4801" fill="#EFEFEF"/>
<rect x="612.0396" y="306.5062" height="0.4801" width="0.4801" fill="#F7F7F7"/>
<rect x="612.5121" y="306.5062" height="0.4801" width="0.4801" fill="#EFEFEF"/>
<rect x="612.9845" y="306.5062" height="0.4801" width="0.4801" fill="#F7F7F7"/>
<rect x="613.4569" y="306.5062" height="0.4801" width="0.4801" fill="#F7F7F7"/>
<rect x="613.9294" y="306.5062" height="0.4801" width="0.4801" fill="#EFEFEF"/>
<rect x="614.4018" y="306.5062" height="0.4801" width="0.4801" fill="#EFEFEF"/>
<rect x="614.8743" y="306.5062" height="0.4801" width="0.4801" fill="#EFEFEF"/>
<rect x="615.3467" y="306.5062" height="0.4801" width="0.4801" fill="#EFEFEF"/>
<rect x="615.8192" y="306.5062" height="0.4801" width="0.4801" fill="#EFEFEF"/>
<rect x="616.2916" y="306.5062" height="0.4801" width="0.4801" fill="#E7E7E7"/>
<rect x="605.4255" y="306.9634" height="0.4801" width="0.4801" fill="#F7F7F7"/>
<rect x="605.8979" y="306.9634" height="0.4801" width="0.4801" fill="#F7F7F7"/>
<rect x="606.3703" y="306.9634" height="0.4801" width="0.4801" fill="#E7E7E7"/>
<rect x="606.8428" y="306.9634" height="0.4801" width="0.4801" fill="#DEDEDE"/>
<rect x="607.3152" y="306.9634" height="0.4801" width="0.4801" fill="#CECECE"/>
<rect x="607.7877" y="306.9634" height="0.4801" width="0.4801" fill="#BDBDBD"/>
<rect x="608.2601" y="306.9634" height="0.4801" width="0.4801" fill="#ADADAD"/>
<rect x="608.7325" y="306.9634" height="0.4801" width="0.4801" fill="#949494"/>
<rect x="609.2050" y="306.9634" height="0.4801" width="0.4801" fill="#7B7B7B"/>
<rect x="609.6774" y="306.9634" height="0.4801" width="0.4801" fill="#A5A5A5"/>
<rect x="610.1499" y="306.9634" height="0.4801" width="0.4801" fill="#ADADAD"/>
<rect x="610.6223" y="306.9634" height="0.4801" width="0.4801" fill="#C6C6C6"/>
<rect x="611.0947" y="306.9634" height="0.4801" width="0.4801" fill="#CECECE"/>
<rect x="605.8979" y="307.4206" height="0.4801" width="0.4801" fill="#EFEFEF"/>
<rect x="606.3703" y="307.4206" height="0.4801" width="0.4801" fill="#EFEFEF"/>
<rect x="606.8428" y="307.4206" height="0.4801" width="0.4801" fill="#E7E7E7"/>
<rect x="607.3152" y="307.4206" height="0.4801" width="0.4801" fill="#D6D6D6"/>
<rect x="607.7877" y="307.4206" height="0.4801" width="0.4801" fill="#C6C6C6"/>
<rect x="608.2601" y="307.4206" height="0.4801" width="0.4801" fill="#ADADAD"/>
<rect x="608.7325" y="307.4206" height="0.4801" width="0.4801" fill="#949494"/>
<rect x="609.2050" y="307.4206" height="0.4801" width="0.4801" fill="#848484"/>
<rect x="609.6774" y="307.4206" height="0.4801" width="0.4801" fill="#949494"/>
<rect x="610.1499" y="307.4206" height="0.4801" width="0.4801" fill="#BDBDBD"/>
<rect x="610.6223" y="307.4206" height="0.4801" width="0.4801" fill="#C6C6C6"/>
<rect x="611.0947" y="307.4206" height="0.4801" width="0.4801" fill="#C6C6C6"/>
<rect x="611.5672" y="307.4206" height="0.4801" width="0.4801" fill="#F7F7F7"/>
<rect x="605.8979" y="307.8778" height="0.4801" width="0.4801" fill="#F7F7F7"/>
<rect x="606.3703" y="307.8778" height="0.4801" width="0.4801" fill="#EFEFEF"/>
<rect x="606.8428" y="307.8778" height="0.4801" width="0.4801" fill="#DEDEDE"/>
<rect x="607.3152" y="307.8778" height="0.4801" width="0.4801" fill="#D6D6D6"/>
<rect x="607.7877" y="307.8778" height="0.4801" width="0.4801" fill="#CECECE"/>
<rect x="608.2601" y="307.8778" height="0.4801" width="0.4801" fill="#BDBDBD"/>
<rect x="608.7325" y="307.8778" height="0.4801" width="0.4801" fill="#A5A5A5"/>
<rect x="609.2050" y="307.8778" height="0.4801" width="0.4801" fill="#848484"/>
<rect x="609.6774" y="307.8778" height="0.4801" width="0.4801" fill="#8C8C8C"/>
<rect x="610.1499" y="307.8778" height="0.4801" width="0.4801" fill="#ADADAD"/>
<rect x="610.6223" y="307.8778" height="0.4801" width="0.4801" fill="#BDBDBD"/>
<rect x="611.0947" y="307.8778" height="0.4801" width="0.4801" fill="#C6C6C6"/>
<rect x="611.5672" y="307.8778" height="0.4801" width="0.4801" fill="#F7F7F7"/>
<rect x="605.8979" y="308.3350" height="0.4801" width="0.4801" fill="#F7F7F7"/>
<rect x="606.3703" y="308.3350" height="0.4801" width="0.4801" fill="#EFEFEF"/>
<rect x="606.8428" y="308.3350" height="0.4801" width="0.4801" fill="#E7E7E7"/>
<rect x="607.3152" y="308.3350" height="0.4801" width="0.4801" fill="#D6D6D6"/>
<rect x="607.7877" y="308.3350" height="0.4801" width="0.4801" fill="#D6D6D6"/>
<rect x="608.2601" y="308.3350" height="0.4801" width="0.4801" fill="#CECECE"/>
<rect x="608.7325" y="308.3350" height="0.4801" width="0.4801" fill="#C6C6C6"/>
<rect x="609.2050" y="308.3350" height="0.4801" width="0.4801" fill="#949494"/>
<rect x="609.6774" y="308.3350" height="0.4801" width="0.4801" fill="#737373"/>
<rect x="610.1499" y="308.3350" height="0.4801" width="0.4801" fill="#9C9C9C"/>
<rect x="610.6223" y="308.3350" height="0.4801" width="0.4801" fill="#B5B5B5"/>
<rect x="611.0947" y="308.3350" height="0.4801" width="0.4801" fill="#C6C6C6"/>
<rect x="608.7325" y="308.7922" height="0.4801" width="0.4801" fill="#F7F7F7"/>
<rect x="609.2050" y="308.7922" height="0.4801" width="0.4801" fill="#9C9C9C"/>
<rect x="609.6774" y="308.7922" height="0.4801" width="0.4801" fill="#7B7B7B"/>
<rect x="610.1499" y="308.7922" height="0.4801" width="0.4801" fill="#949494"/>
<rect x="610.6223" y="308.7922" height="0.4801" width="0.4801" fill="#ADADAD"/>
<rect x="611.0947" y="308.7922" height="0.4801" width="0.4801" fill="#C6C6C6"/>
<rect x="611.5672" y="308.7922" height="0.4801" width="0.4801" fill="#F7F7F7"/>
<rect x="608.7325" y="309.2494" height="0.4801" width="0.4801" fill="#F7F7F7"/>
<rect x="609.2050" y="309.2494" height="0.4801" width="0.4801" fill="#A5A5A5"/>
<rect x="609.6774" y="309.2494" height="0.4801" width="0.4801" fill="#848484"/>
<rect x="610.1499" y="309.2494" height="0.4801" width="0.4801" fill="#848484"/>
<rect x="610.6223" y="309.2494" height="0.4801" width="0.4801" fill="#A5A5A5"/>
<rect x="611.0947" y="309.2494" height="0.4801" width="0.4801" fill="#B5B5B5"/>
<rect x="611.5672" y="309.2494" height="0.4801" width="0.4801" fill="#F7F7F7"/>
<rect x="608.7325" y="309.7066" height="0.4801" width="0.4801" fill="#EFEFEF"/>
<rect x="609.2050" y="309.7066" height="0.4801" width="0.4801" fill="#9C9C9C"/>
<rect x="609.6774" y="309.7066" height="0.4801" width="0.4801" fill="#848484"/>
<rect x="610.1499" y="309.7066" height="0.4801" width="0.4801" fill="#7B7B7B"/>
<rect x="610.6223" y="309.7066" height="0.4801" width="0.4801" fill="#9C9C9C"/>
<rect x="611.0947" y="309.7066" height="0.4801" width="0.4801" fill="#ADADAD"/>
<rect x="611.5672" y="309.7066" height="0.4801" width="0.4801" fill="#F7F7F7"/>
<rect x="608.7325" y="310.1638" height="0.4801" width="0.4801" fill="#EFEFEF"/>
<rect x="609.2050" y="310.1638" height="0.4801" width="0.4801" fill="#A5A5A5"/>
<rect x="609.6774" y="310.1638" height="0.4801" width="0.4801" fill="#848484"/>
<rect x="610.1499" y="310.1638" height="0.4801" width="0.4801" fill="#7B7B7B"/>
<rect x="610.6223" y="310.1638" height="0.4801" width="0.4801" fill="#8C8C8C"/>
<rect x="611.0947" y="310.1638" height="0.4801" width="0.4801" fill="#ADADAD"/>
<rect x="611.5672" y="310.1638" height="0.4801" width="0.4801" fill="#F7F7F7"/>
<rect x="608.7325" y="310.6210" height="0.4801" width="0.4801" fill="#EFEFEF"/>
<rect x="609.2050" y="310.6210" height="0.4801" width="0.4801" fill="#9C9C9C"/>
<rect x="609.6774" y="310.6210" height="0.4801" width="0.4801" fill="#8C8C8C"/>
<rect x="610.1499" y="310.6210" height="0.4801" width="0.4801" fill="#848484"/>
<rect x="610.6223" y="310.6210" height="0.4801" width="0.4801" fill="#8C8C8C"/>
<rect x="611.0947" y="310.6210" height="0.4801" width="0.4801" fill="#9C9C9C"/>
<rect x="611.5672" y="310.6210" height="0.4801" width="0.4801" fill="#F7F7F7"/>
<rect x="608.7325" y="311.0782" height="0.4801" width="0.4801" fill="#E7E7E7"/>
<rect x="609.2050" y="311.0782" height="0.4801" width="0.4801" fill="#A5A5A5"/>
<rect x="609.6774" y="311.0782" height="0.4801" width="0.4801" fill="#949494"/>
<rect x="610.1499" y="311.0782" height="0.4801" width="0.4801" fill="#8C8C8C"/>
<rect x="610.6223" y="311.0782" height="0.4801" width="0.4801" fill="#8C8C8C"/>
<rect x="611.0947" y="311.0782" height="0.4801" width="0.4801" fill="#A5A5A5"/>
<rect x="611.5672" y="311.0782" height="0.4801" width="0.4801" fill="#F7F7F7"/>
M   609.4488   304.4488
<path stroke-width="0.5669" stroke="#000000" fill="none" d="
M   609.4488   311.5354
L   609.1535   311.5354
L   609.3012   308.5827
L   605.6102   309.1732
L   606.2008   307.9921
L   602.9528   305.0394
L   604.1339   303.8583
L   603.5433   302.0866
L   605.0197   302.3819
L   605.6102   300.9055
L   607.6772   303.2677
L   607.0866   299.1339
L   608.2677   299.7244
L   609.4488   297.3622
L   611.5748   297.3622
L   611.5748   302.3228
L   616.5354   302.3228
L   616.5354   306.5748
L   611.5748   306.5748
L   611.5748   311.5354
L   609.4488   311.5354
"/>
M   609.4488   304.4488
<defs>  <path id="kreis" d="M   603.1843,  310.7134 A    8.8594,    8.8594 0 1 1   615.7134,  310.7134"/> </defs>
<text font-size="3.5433"  font-family="Arial" stroke="none">
<textPath xlink:href="#kreis" >T h e r i a k  -  D o m i n o</textPath> </text>
M   609.4488   304.4488
<path stroke-width="0.2835" stroke="#000000" fill="none" d="
M   141.7323   453.2677
L   566.9291   453.2677
L   354.3307    85.0364
Z 
M   354.3307   330.5240
"/>
M   595.2756   198.1496
<text x="595.2756" y="198.1496" transform="rotate(-0.0000,595.2756,198.1496)"  font-family="'Arial'" font-size="19.4386" style="fill: #000000; stroke: none">T = 1470.00 [C]</text>
M   595.2756   226.4961
<text x="595.2756" y="226.4961" transform="rotate(-0.0000,595.2756,226.4961)"  font-family="'Arial'" font-size="19.4386" style="fill: #000000; stroke: none">P = 1.0 [Bar]</text>
M   103.4560   481.6142
<text x="103.4560" y="481.6142" transform="rotate(-0.0000,103.4560,481.6142)"  font-family="'Arial'" font-size="19.4386" style="fill: #000000; stroke: none">AL2O3</text>
M   554.5115   481.6142
<text x="554.5115" y="481.6142" transform="rotate(-0.0000,554.5115,481.6142)"  font-family="'Arial'" font-size="19.4386" style="fill: #000000; stroke: none">CAO</text>
M   332.6368    70.8632
<text x="332.6368" y="70.8632" transform="rotate(-0.0000,332.6368,70.8632)"  font-family="'Arial'" font-size="19.4386" style="fill: #000000; stroke: none">SIO2</text>
<path stroke-width="0.2835" stroke="#000000" fill="none" d="
M   437.1335   381.3831
L   436.6911   381.9719
L   433.0312   386.7548
L   429.3166   391.4468
L   425.5213   396.0406
L   421.6255   400.4929
L   417.6000   404.7356
L   413.4087   408.6763
L   409.0097   412.2062
L   404.3636   415.2147
L   401.9623   416.4575
L   407.4803   361.2099
L   407.4803   361.2099
L   407.4803   361.2099
L   407.4803   361.2099
L   407.4803   361.2099
L   407.4803   361.2099
L   407.4803   361.2099
L   407.4803   361.2099
L   407.4803   361.2099
L   407.4803   361.2099
L   407.4803   361.2099
Z 
"/>
<path stroke-width="0.2835" stroke="#000000" fill="none" d="
M   437.1335   381.3831
L   407.4803   361.2099
M   436.6911   381.9719
L   407.4803   361.2099
M   433.0312   386.7548
L   407.4803   361.2099
M   429.3166   391.4468
L   407.4803   361.2099
M   425.5213   396.0406
L   407.4803   361.2099
M   421.6255   400.4929
L   407.4803   361.2099
M   417.6000   404.7356
L   407.4803   361.2099
M   413.4087   408.6763
L   407.4803   361.2099
M   409.0097   412.2062
L   407.4803   361.2099
M   404.3636   415.2147
L   407.4803   361.2099
M   401.9623   416.4575
L   407.4803   361.2099
"/>
<path stroke-width="0.2835" stroke="#000000" fill="none" d="
M   407.4803   361.2099
L   437.1335   381.3831
L   496.0631   330.5241
L   407.4803   361.2099
"/>
<path stroke-width="0.2835" stroke="#000000" fill="none" d="
M   354.3307   453.2677
L   401.9623   416.4575
L   407.4803   361.2099
L   354.3307   453.2677
"/>
<path stroke-width="0.2835" stroke="#000000" fill="none" d="
M   401.9623   416.4575
L   402.1084   417.2694
L   402.8338   423.3080
L   403.1448   429.4759
L   403.2312   435.5602
L   403.2073   441.5988
L   403.1663   447.6139
L   403.1582   453.2677
L   354.3307   453.2677
L   354.3307   453.2677
L   354.3307   453.2677
L   354.3307   453.2677
L   354.3307   453.2677
L   354.3307   453.2677
L   354.3307   453.2677
L   354.3307   453.2677
Z 
"/>
<path stroke-width="0.2835" stroke="#000000" fill="none" d="
M   401.9623   416.4575
L   354.3307   453.2677
M   402.1084   417.2694
L   354.3307   453.2677
M   402.8338   423.3080
L   354.3307   453.2677
M   403.1448   429.4759
L   354.3307   453.2677
M   403.2312   435.5602
L   354.3307   453.2677
M   403.2073   441.5988
L   354.3307   453.2677
M   403.1663   447.6139
L   354.3307   453.2677
M   403.1582   453.2677
L   354.3307   453.2677
"/>
<path stroke-width="0.2835" stroke="#000000" fill="none" d="
M   366.5819   347.8549
L   367.0054   347.2223
L   370.4769   342.2545
L   374.1119   337.4608
L   377.9451   332.8616
L   382.0059   328.5129
L   386.3246   324.4906
L   390.9276   320.8860
L   395.8271   317.7948
L   401.0135   315.3010
L   406.4494   313.4602
L   412.0739   312.2863
L   417.8144   311.7567
L   423.5978   311.8293
L   429.3554   312.4738
L   435.0258   313.6695
L   440.5228   315.4461
L   445.7474   317.8584
L   450.5195   321.0210
L   452.0176   322.3026
L   407.4803   361.2099
L   407.4803   361.2099
L   407.4803   361.2099
L   407.4803   361.2099
L   407.4803   361.2099
L   407.4803   361.2099
L   407.4803   361.2099
L   407.4803   361.2099
L   407.4803   361.2099
L   407.4803   361.2099
L   407.4803   361.2099
L   407.4803   361.2099
L   407.4803   361.2099
L   407.4803   361.2099
L   407.4803   361.2099
L   407.4803   361.2099
L   407.4803   361.2099
L   407.4803   361.2099
L   407.4803   361.2099
L   407.4803   361.2099
Z 
"/>
<path stroke-width="0.2835" stroke="#000000" fill="none" d="
M   366.5819   347.8549
L   407.4803   361.2099
M   367.0054   347.2223
L   407.4803   361.2099
M   370.4769   342.2545
L   407.4803   361.2099
M   374.1119   337.4608
L   407.4803   361.2099
M   377.9451   332.8616
L   407.4803   361.2099
M   382.0059   328.5129
L   407.4803   361.2099
M   386.3246   324.4906
L   407.4803   361.2099
M   390.9276   320.8860
L   407.4803   361.2099
M   395.8271   317.7948
L   407.4803   361.2099
M   401.0135   315.3010
L   407.4803   361.2099
M   406.4494   313.4602
L   407.4803   361.2099
M   412.0739   312.2863
L   407.4803   361.2099
M   417.8144   311.7567
L   407.4803   361.2099
M   423.5978   311.8293
L   407.4803   361.2099
M   429.3554   312.4738
L   407.4803   361.2099
M   435.0258   313.6695
L   407.4803   361.2099
M   440.5228   315.4461
L   407.4803   361.2099
M   445.7474   317.8584
L   407.4803   361.2099
M   450.5195   321.0210
L   407.4803   361.2099
M   452.0176   322.3026
L   407.4803   361.2099
"/>
<path stroke-width="0.2835" stroke="#000000" fill="none" d="
M   283.4644   453.2677
L   354.3307   453.2677
L   407.4803   361.2099
L   283.4644   453.2677
"/>
<path stroke-width="0.2835" stroke="#000000" fill="none" d="
M   407.4803   361.2099
L   366.5819   347.8549
L   283.4644   453.2677
L   407.4803   361.2099
"/>
<path stroke-width="0.2835" stroke="#000000" fill="none" d="
M   496.0631   330.5241
L   452.0176   322.3026
L   407.4803   361.2099
L   496.0631   330.5241
"/>
<path stroke-width="0.2835" stroke="#000000" fill="none" d="
M   452.0176   322.3026
L   452.3893   321.6267
L   455.5080   316.4219
L   458.9798   311.4598
L   462.7941   306.7947
L   466.9347   302.4615
L   471.3691   298.4773
L   475.6368   295.1448
L   496.0631   330.5241
L   496.0631   330.5241
L   496.0631   330.5241
L   496.0631   330.5241
L   496.0631   330.5241
L   496.0631   330.5241
L   496.0631   330.5241
L   496.0631   330.5241
Z 
"/>
<path stroke-width="0.2835" stroke="#000000" fill="none" d="
M   452.0176   322.3026
L   496.0631   330.5241
M   452.3893   321.6267
L   496.0631   330.5241
M   455.5080   316.4219
L   496.0631   330.5241
M   458.9798   311.4598
L   496.0631   330.5241
M   462.7941   306.7947
L   496.0631   330.5241
M   466.9347   302.4615
L   496.0631   330.5241
M   471.3691   298.4773
L   496.0631   330.5241
M   475.6368   295.1448
L   496.0631   330.5241
"/>
<path stroke-width="0.2835" stroke="#000000" fill="none" d="
M   365.9214   347.4274
L   365.9615   347.4528
L   366.5819   347.8549
L   283.4644   453.2677
L   283.4644   453.2677
L   283.4644   453.2677
Z 
"/>
<path stroke-width="0.2835" stroke="#000000" fill="none" d="
M   365.9214   347.4274
L   283.4644   453.2677
M   365.9615   347.4528
L   283.4644   453.2677
M   366.5819   347.8549
L   283.4644   453.2677
"/>
<path stroke-width="0.2835" stroke="#000000" fill="none" d="
M   283.4644   453.2677
L   365.9214   347.4274
L   202.4746   453.2677
L   283.4644   453.2677
"/>
<path stroke-width="0.2835" stroke="#000000" fill="none" d="
M   359.9461   311.4627
L   359.9973   311.6570
L   361.4513   317.4106
L   362.7607   323.1777
L   363.8887   328.9595
L   364.7995   334.7613
L   365.4688   340.5752
L   365.8844   346.5719
L   365.9214   347.4274
L   202.4746   453.2677
L   202.4746   453.2677
L   202.4746   453.2677
L   202.4746   453.2677
L   202.4746   453.2677
L   202.4746   453.2677
L   202.4746   453.2677
L   202.4746   453.2677
L   202.4746   453.2677
Z 
"/>
<path stroke-width="0.2835" stroke="#000000" fill="none" d="
M   359.9461   311.4627
L   202.4746   453.2677
M   359.9973   311.6570
L   202.4746   453.2677
M   361.4513   317.4106
L   202.4746   453.2677
M   362.7607   323.1777
L   202.4746   453.2677
M   363.8887   328.9595
L   202.4746   453.2677
M   364.7995   334.7613
L   202.4746   453.2677
M   365.4688   340.5752
L   202.4746   453.2677
M   365.8844   346.5719
L   202.4746   453.2677
M   365.9214   347.4274
L   202.4746   453.2677
"/>
<path stroke-width="0.2835" stroke="#000000" fill="none" d="
M   202.4746   453.2677
L   359.9461   311.4627
L   354.3307   269.1521
L   202.4746   453.2677
"/>
<path stroke-width="0.2835" stroke="#000000" fill="none" d="
M   346.5983   217.9979
L   347.2431   217.2771
L   352.9490   214.7463
L   358.1133   216.8986
L   362.6427   220.8457
L   366.9195   225.6816
L   370.7112   230.6377
L   374.1948   235.7001
L   377.4174   240.8819
L   380.3568   246.1962
L   382.9426   251.6567
L   385.0567   257.2693
L   386.5364   263.0181
L   387.1997   268.8494
L   386.8989   274.6582
L   385.5952   280.3091
L   383.3867   285.6809
L   380.4535   290.7091
L   376.9824   295.3919
L   373.1195   299.7630
L   368.9668   303.8638
L   364.5926   307.7293
L   360.0430   311.3883
L   359.9461   311.4627
L   354.3307   269.1521
L   354.3307   269.1521
L   354.3307   269.1521
L   354.3307   269.1521
L   354.3307   269.1521
L   354.3307   269.1521
L   354.3307   269.1521
L   354.3307   269.1521
L   354.3307   269.1521
L   354.3307   269.1521
L   354.3307   269.1521
L   354.3307   269.1521
L   354.3307   269.1521
L   354.3307   269.1521
L   354.3307   269.1521
L   354.3307   269.1521
L   354.3307   269.1521
L   354.3307   269.1521
L   354.3307   269.1521
L   354.3307   269.1521
L   354.3307   269.1521
L   354.3307   269.1521
L   354.3307   269.1521
L   354.3307   269.1521
Z 
"/>
<path stroke-width="0.2835" stroke="#000000" fill="none" d="
M   346.5983   217.9979
L   354.3307   269.1521
M   347.2431   217.2771
L   354.3307   269.1521
M   352.9490   214.7463
L   354.3307   269.1521
M   358.1133   216.8986
L   354.3307   269.1521
M   362.6427   220.8457
L   354.3307   269.1521
M   366.9195   225.6816
L   354.3307   269.1521
M   370.7112   230.6377
L   354.3307   269.1521
M   374.1948   235.7001
L   354.3307   269.1521
M   377.4174   240.8819
L   354.3307   269.1521
M   380.3568   246.1962
L   354.3307   269.1521
M   382.9426   251.6567
L   354.3307   269.1521
M   385.0567   257.2693
L   354.3307   269.1521
M   386.5364   263.0181
L   354.3307   269.1521
M   387.1997   268.8494
L   354.3307   269.1521
M   386.8989   274.6582
L   354.3307   269.1521
M   385.5952   280.3091
L   354.3307   269.1521
M   383.3867   285.6809
L   354.3307   269.1521
M   380.4535   290.7091
L   354.3307   269.1521
M   376.9824   295.3919
L   354.3307   269.1521
M   373.1195   299.7630
L   354.3307   269.1521
M   368.9668   303.8638
L   354.3307   269.1521
M   364.5926   307.7293
L   354.3307   269.1521
M   360.0430   311.3883
L   354.3307   269.1521
M   359.9461   311.4627
L   354.3307   269.1521
"/>
<path stroke-width="0.2835" stroke="#000000" fill="none" d="
M   354.3307   269.1521
L   141.7323   453.2677
L   202.4746   453.2677
L   354.3307   269.1521
"/>
<path stroke-width="0.2835" stroke="#000000" fill="none" d="
M   354.3307   269.1521
L   346.5983   217.9979
L   141.7323   453.2677
L   354.3307   269.1521
"/>
<path stroke-width="0.2835" stroke="#000000" fill="none" d="
M   336.5118   115.8997
L   336.8315   120.8724
L   337.2327   126.8962
L   337.6506   132.9272
L   338.0910   138.9524
L   338.5521   144.9867
L   339.0411   151.0110
L   339.5549   157.0437
L   340.1000   163.0657
L   340.6727   169.0908
L   341.2787   175.1128
L   341.9179   181.1301
L   342.5915   187.1447
L   343.3003   193.1491
L   344.0412   199.1532
L   344.8180   205.1494
L   345.6286   211.1387
L   346.4593   217.0337
L   346.5983   217.9979
L   141.7323   453.2677
L   141.7323   453.2677
L   141.7323   453.2677
L   141.7323   453.2677
L   141.7323   453.2677
L   141.7323   453.2677
L   141.7323   453.2677
L   141.7323   453.2677
L   141.7323   453.2677
L   141.7323   453.2677
L   141.7323   453.2677
L   141.7323   453.2677
L   141.7323   453.2677
L   141.7323   453.2677
L   141.7323   453.2677
L   141.7323   453.2677
L   141.7323   453.2677
L   141.7323   453.2677
L   141.7323   453.2677
Z 
"/>
<path stroke-width="0.2835" stroke="#000000" fill="none" d="
M   336.5118   115.8997
L   141.7323   453.2677
M   336.8315   120.8724
L   141.7323   453.2677
M   337.2327   126.8962
L   141.7323   453.2677
M   337.6506   132.9272
L   141.7323   453.2677
M   338.0910   138.9524
L   141.7323   453.2677
M   338.5521   144.9867
L   141.7323   453.2677
M   339.0411   151.0110
L   141.7323   453.2677
M   339.5549   157.0437
L   141.7323   453.2677
M   340.1000   163.0657
L   141.7323   453.2677
M   340.6727   169.0908
L   141.7323   453.2677
M   341.2787   175.1128
L   141.7323   453.2677
M   341.9179   181.1301
L   141.7323   453.2677
M   342.5915   187.1447
L   141.7323   453.2677
M   343.3003   193.1491
L   141.7323   453.2677
M   344.0412   199.1532
L   141.7323   453.2677
M   344.8180   205.1494
L   141.7323   453.2677
M   345.6286   211.1387
L   141.7323   453.2677
M   346.4593   217.0337
L   141.7323   453.2677
M   346.5983   217.9979
L   141.7323   453.2677
"/>
<path stroke-width="0.2835" stroke="#000000" fill="none" d="
M   460.2432   407.3577
L   459.2174   408.0180
L   455.5472   409.8673
L   449.8352   410.6306
L   444.7541   408.2680
L   441.4912   404.1166
L   439.3975   399.1852
L   438.1065   393.8598
L   437.3989   388.3368
L   437.1361   382.3618
L   437.1335   381.3831
L   496.0631   330.5241
L   496.0631   330.5241
L   496.0631   330.5241
L   496.0631   330.5241
L   496.0631   330.5241
L   496.0631   330.5241
L   496.0631   330.5241
L   496.0631   330.5241
L   496.0631   330.5241
L   496.0631   330.5241
L   496.0631   330.5241
Z 
"/>
<path stroke-width="0.2835" stroke="#000000" fill="none" d="
M   460.2432   407.3577
L   496.0631   330.5241
M   459.2174   408.0180
L   496.0631   330.5241
M   455.5472   409.8673
L   496.0631   330.5241
M   449.8352   410.6306
L   496.0631   330.5241
M   444.7541   408.2680
L   496.0631   330.5241
M   441.4912   404.1166
L   496.0631   330.5241
M   439.3975   399.1852
L   496.0631   330.5241
M   438.1065   393.8598
L   496.0631   330.5241
M   437.3989   388.3368
L   496.0631   330.5241
M   437.1361   382.3618
L   496.0631   330.5241
M   437.1335   381.3831
L   496.0631   330.5241
"/>
<path stroke-width="0.2835" stroke="#000000" fill="none" d="
M   496.0631   330.5241
L   460.2432   407.3577
L   513.7795   361.2099
L   496.0631   330.5241
"/>
<path stroke-width="0.2835" stroke="#000000" fill="none" d="
M   457.2758   415.6076
L   457.6296   414.5032
L   459.6564   408.8557
L   460.2432   407.3577
L   513.7795   361.2099
L   513.7795   361.2099
L   513.7795   361.2099
L   513.7795   361.2099
Z 
"/>
<path stroke-width="0.2835" stroke="#000000" fill="none" d="
M   457.2758   415.6076
L   513.7795   361.2099
M   457.6296   414.5032
L   513.7795   361.2099
M   459.6564   408.8557
L   513.7795   361.2099
M   460.2432   407.3577
L   513.7795   361.2099
"/>
<path stroke-width="0.2835" stroke="#000000" fill="none" d="
M   513.7795   361.2099
L   457.2758   415.6076
L   460.6299   453.2677
L   513.7795   361.2099
"/>
<path stroke-width="0.2835" stroke="#000000" fill="none" d="
M   430.2972   453.2677
L   431.8741   450.9202
L   435.2543   446.0003
L   438.7131   441.0999
L   442.2132   436.2146
L   445.7410   431.3429
L   449.2841   426.4767
L   452.8432   421.6172
L   456.6298   416.4788
L   457.2758   415.6076
L   460.6299   453.2677
L   460.6299   453.2677
L   460.6299   453.2677
L   460.6299   453.2677
L   460.6299   453.2677
L   460.6299   453.2677
L   460.6299   453.2677
L   460.6299   453.2677
L   460.6299   453.2677
L   460.6299   453.2677
Z 
"/>
<path stroke-width="0.2835" stroke="#000000" fill="none" d="
M   430.2972   453.2677
L   460.6299   453.2677
M   431.8741   450.9202
L   460.6299   453.2677
M   435.2543   446.0003
L   460.6299   453.2677
M   438.7131   441.0999
L   460.6299   453.2677
M   442.2132   436.2146
L   460.6299   453.2677
M   445.7410   431.3429
L   460.6299   453.2677
M   449.2841   426.4767
L   460.6299   453.2677
M   452.8432   421.6172
L   460.6299   453.2677
M   456.6298   416.4788
L   460.6299   453.2677
M   457.2758   415.6076
L   460.6299   453.2677
"/>
<path stroke-width="0.2835" stroke="#000000" fill="none" d="
M   460.6299   453.2677
L   566.9291   453.2677
L   513.7795   361.2099
L   460.6299   453.2677
"/>
<path stroke-width="0.2835" stroke="#000000" fill="none" d="
M   472.6985   290.0555
L   466.5212   289.3787
L   460.5470   288.0372
L   454.9410   285.9489
L   449.8894   283.0926
L   445.5478   279.5193
L   442.0116   275.3306
L   439.3305   270.6515
L   437.5429   265.6184
L   436.7151   260.3860
L   436.9774   255.1576
L   438.5448   250.2368
L   441.6464   246.0599
L   445.7042   243.3000
L   460.6299   269.1521
L   460.6299   269.1521
L   460.6299   269.1521
L   460.6299   269.1521
L   460.6299   269.1521
L   460.6299   269.1521
L   460.6299   269.1521
L   460.6299   269.1521
L   460.6299   269.1521
L   460.6299   269.1521
L   460.6299   269.1521
L   460.6299   269.1521
L   460.6299   269.1521
L   460.6299   269.1521
Z 
"/>
<path stroke-width="0.2835" stroke="#000000" fill="none" d="
M   472.6985   290.0555
L   460.6299   269.1521
M   466.5212   289.3787
L   460.6299   269.1521
M   460.5470   288.0372
L   460.6299   269.1521
M   454.9410   285.9489
L   460.6299   269.1521
M   449.8894   283.0926
L   460.6299   269.1521
M   445.5478   279.5193
L   460.6299   269.1521
M   442.0116   275.3306
L   460.6299   269.1521
M   439.3305   270.6515
L   460.6299   269.1521
M   437.5429   265.6184
L   460.6299   269.1521
M   436.7151   260.3860
L   460.6299   269.1521
M   436.9774   255.1576
L   460.6299   269.1521
M   438.5448   250.2368
L   460.6299   269.1521
M   441.6464   246.0599
L   460.6299   269.1521
M   445.7042   243.3000
L   460.6299   269.1521
"/>
<path stroke-width="0.2835" stroke="#000000" fill="none" d="
M   432.4732   220.3832
L   426.6122   217.3341
L   421.1930   214.3940
L   415.8446   211.3983
L   410.5502   208.3534
L   405.2993   205.2658
L   400.0823   202.1318
L   394.8921   198.9352
L   389.7266   195.6399
L   384.5945   192.1844
L   379.5187   188.4649
L   374.5505   184.3322
L   370.2977   180.1579
L   366.5160   175.5934
L   363.2847   170.6999
L   361.5720   167.5560
L   360.1372   164.4566
L   354.3307    85.0364
L   354.3307    85.0364
L   354.3307    85.0364
L   354.3307    85.0364
L   354.3307    85.0364
L   354.3307    85.0364
L   354.3307    85.0364
L   354.3307    85.0364
L   354.3307    85.0364
L   354.3307    85.0364
L   354.3307    85.0364
L   354.3307    85.0364
L   354.3307    85.0364
L   354.3307    85.0364
L   354.3307    85.0364
L   354.3307    85.0364
L   354.3307    85.0364
Z 
"/>
<path stroke-width="0.2835" stroke="#000000" fill="none" d="
M   432.4732   220.3832
L   354.3307    85.0364
M   426.6122   217.3341
L   354.3307    85.0364
M   421.1930   214.3940
L   354.3307    85.0364
M   415.8446   211.3983
L   354.3307    85.0364
M   410.5502   208.3534
L   354.3307    85.0364
M   405.2993   205.2658
L   354.3307    85.0364
M   400.0823   202.1318
L   354.3307    85.0364
M   394.8921   198.9352
L   354.3307    85.0364
M   389.7266   195.6399
L   354.3307    85.0364
M   384.5945   192.1844
L   354.3307    85.0364
M   379.5187   188.4649
L   354.3307    85.0364
M   374.5505   184.3322
L   354.3307    85.0364
M   370.2977   180.1579
L   354.3307    85.0364
M   366.5160   175.5934
L   354.3307    85.0364
M   363.2847   170.6999
L   354.3307    85.0364
M   361.5720   167.5560
L   354.3307    85.0364
M   360.1372   164.4566
L   354.3307    85.0364
"/>
<path stroke-width="0.2835" stroke="#000000" fill="none" d="
M   348.1709   111.4592
L   360.1372   164.4566
L   354.3307    85.0364
L   348.1709   111.4592
"/>
<path stroke-width="0.2835" stroke="#000000" fill="none" d="
M   360.1372   164.4566
L   359.5704   164.0184
L   354.8807   160.2436
L   350.4178   156.1452
L   347.4202   152.6478
L   345.4237   149.3738
L   344.0335   145.6565
L   343.7601   144.6005
L   343.2543   140.5274
L   343.2133   139.1647
L   343.4087   134.4030
L   344.0222   129.5166
L   345.0657   123.8797
L   346.5794   117.3752
L   348.0114   112.0241
L   348.1709   111.4592
Z 
"/>
<path stroke-width="0.2835" stroke="#000000" fill="none" d="
M   360.1372   164.4566
L   348.1709   111.4592
M   359.5704   164.0184
L   348.0114   112.0241
M   354.8807   160.2436
L   346.5794   117.3752
M   350.4178   156.1452
L   345.0657   123.8797
M   347.4202   152.6478
L   344.0222   129.5166
M   345.4237   149.3738
L   343.4087   134.4030
M   344.0335   145.6565
L   343.2133   139.1647
M   343.7601   144.6005
L   343.2543   140.5274
"/>
<path stroke-width="0.2835" stroke="#000000" fill="none" d="
M   348.1709   111.4592
L   347.8020   109.9624
L   346.1078   103.9326
L   345.1352   100.9635
L   354.3307    85.0364
L   354.3307    85.0364
L   354.3307    85.0364
L   354.3307    85.0364
Z 
"/>
<path stroke-width="0.2835" stroke="#000000" fill="none" d="
M   348.1709   111.4592
L   354.3307    85.0364
M   347.8020   109.9624
L   354.3307    85.0364
M   346.1078   103.9326
L   354.3307    85.0364
M   345.1352   100.9635
L   354.3307    85.0364
"/>
<circle cx="  496.0630" cy="  330.5240" r="    1.4173" stroke-width="    0.2835" stroke="#000000" fill="#000000" /> 
M   496.0630   330.5240
M   498.8976   333.3586
<text x="498.8976" y="333.3586" transform="rotate(-0.0000,498.8976,333.3586)"  font-family="'Arial'" font-size="7.7754" style="fill: #000000; stroke: none">a-Larn</text>
<circle cx="  407.4803" cy="  361.2099" r="    1.4173" stroke-width="    0.2835" stroke="#000000" fill="#000000" /> 
M   407.4803   361.2099
M   410.3150   364.0445
<text x="410.3150" y="364.0445" transform="rotate(-0.0000,410.3150,364.0445)"  font-family="'Arial'" font-size="7.7754" style="fill: #000000; stroke: none">Gehl</text>
<circle cx="  354.3307" cy="  453.2677" r="    1.4173" stroke-width="    0.2835" stroke="#000000" fill="#000000" /> 
M   354.3307   453.2677
M   333.3097   471.9505
<text x="333.3097" y="471.9505" transform="rotate(-30.0000,333.3097,471.9505)"  font-family="'Arial'" font-size="7.7754" style="fill: #000000; stroke: none">1Ca1Al</text>
<circle cx="  283.4646" cy="  453.2677" r="    1.4173" stroke-width="    0.2835" stroke="#000000" fill="#000000" /> 
M   283.4646   453.2677
M   262.4436   471.9505
<text x="262.4436" y="471.9505" transform="rotate(-30.0000,262.4436,471.9505)"  font-family="'Arial'" font-size="7.7754" style="fill: #000000; stroke: none">1Ca2Al</text>
<circle cx="  202.4747" cy="  453.2677" r="    1.4173" stroke-width="    0.2835" stroke="#000000" fill="#000000" /> 
M   202.4747   453.2677
M   181.4537   471.9505
<text x="181.4537" y="471.9505" transform="rotate(-30.0000,181.4537,471.9505)"  font-family="'Arial'" font-size="7.7754" style="fill: #000000; stroke: none">1Ca6Al</text>
<circle cx="  354.3307" cy="  269.1521" r="    1.4173" stroke-width="    0.2835" stroke="#000000" fill="#000000" /> 
M   354.3307   269.1521
M   357.1654   271.9867
<text x="357.1654" y="271.9867" transform="rotate(-0.0000,357.1654,271.9867)"  font-family="'Arial'" font-size="7.7754" style="fill: #000000; stroke: none">Anor</text>
<circle cx="  141.7323" cy="  453.2677" r="    1.4173" stroke-width="    0.2835" stroke="#000000" fill="#000000" /> 
M   141.7323   453.2677
M   126.7404   456.1024
<text x="126.7404" y="456.1024" transform="rotate(-0.0000,126.7404,456.1024)"  font-family="'Arial'" font-size="7.7754" style="fill: #000000; stroke: none">Cor</text>
<circle cx="  513.7795" cy="  361.2099" r="    1.4173" stroke-width="    0.2835" stroke="#000000" fill="#000000" /> 
M   513.7795   361.2099
M   516.6142   364.0445
<text x="516.6142" y="364.0445" transform="rotate(-0.0000,516.6142,364.0445)"  font-family="'Arial'" font-size="7.7754" style="fill: #000000; stroke: none">3Ca1Si</text>
<circle cx="  460.6299" cy="  453.2677" r="    1.4173" stroke-width="    0.2835" stroke="#000000" fill="#000000" /> 
M   460.6299   453.2677
M   439.1472   472.2171
<text x="439.1472" y="472.2171" transform="rotate(-30.0000,439.1472,472.2171)"  font-family="'Arial'" font-size="7.7754" style="fill: #000000; stroke: none">3Ca1Al</text>
<circle cx="  566.9291" cy="  453.2677" r="    1.4173" stroke-width="    0.2835" stroke="#000000" fill="#000000" /> 
M   566.9291   453.2677
M   569.7638   456.1024
<text x="569.7638" y="456.1024" transform="rotate(-0.0000,569.7638,456.1024)"  font-family="'Arial'" font-size="7.7754" style="fill: #000000; stroke: none">Lime</text>
<circle cx="  460.6299" cy="  269.1521" r="    1.4173" stroke-width="    0.2835" stroke="#000000" fill="#000000" /> 
M   460.6299   269.1521
M   463.4646   271.9867
<text x="463.4646" y="271.9867" transform="rotate(-0.0000,463.4646,271.9867)"  font-family="'Arial'" font-size="7.7754" style="fill: #000000; stroke: none">ps-Woll</text>
<circle cx="  354.3307" cy="   85.0364" r="    1.4173" stroke-width="    0.2835" stroke="#000000" fill="#000000" /> 
M   354.3307    85.0364
M   357.1654    87.8711
<text x="357.1654" y="87.8711" transform="rotate(-0.0000,357.1654,87.8711)"  font-family="'Arial'" font-size="7.7754" style="fill: #000000; stroke: none">b-Crist</text>
<path stroke-width="0.2835" stroke="#000000" fill="none" d="
"/>
M   595.2756   339.8819
<text x="595.2756" y="339.8819" transform="rotate(-0.0000,595.2756,339.8819)"  font-family="'Arial'" font-size="7.7754" style="fill: #000000; stroke: none">05.03.2023 - 22:12:12  CPU time:    0h 00m 00.49s</text>
M   595.2756    37.9921
<text x="595.2756" y="37.9921" transform="rotate(-0.0000,595.2756,37.9921)"  font-family="'Arial'" font-size="7.7754" style="fill: #000000; stroke: none">therter version: 2023.03.06</text>
M   595.2756    47.9134
<text x="595.2756" y="47.9134" transform="rotate(-0.0000,595.2756,47.9134)"  font-family="'Arial'" font-size="7.7754" style="fill: #000000; stroke: none">database: sialca</text>
M   595.2756    57.8346
<text x="595.2756" y="57.8346" transform="rotate(-0.0000,595.2756,57.8346)"  font-family="'Arial'" font-size="7.7754" style="fill: #000000; stroke: none">*LIQUID: ideal+margules</text>

</g>

</svg>
