<?xml version="1.0" encoding="utf-8"?>
<svg version="1.1"
xmlns="http://www.w3.org/2000/svg"
xmlns:xlink="http://www.w3.org/1999/xlink" 
width="29.7cm" height="21cm"
viewBox="0 0 842 595">
<g xml:space="preserve" stroke-linecap="round" stroke-linejoin="round" stroke-miterlimit="10">
<path stroke-width="0.5669" stroke="#000000" fill="none" d="
M   595.2756   502.8740
"/>
<rect x="595.0318" y="495.7874" height="0.4801" width="0.4801" fill="#CECECE"/>
<rect x="595.5042" y="495.7874" height="0.4801" width="0.4801" fill="#BDBDBD"/>
<rect x="595.9766" y="495.7874" height="0.4801" width="0.4801" fill="#B5B5B5"/>
<rect x="596.4491" y="495.7874" height="0.4801" width="0.4801" fill="#9C9C9C"/>
<rect x="596.9215" y="495.7874" height="0.4801" width="0.4801" fill="#8C8C8C"/>
<rect x="597.3940" y="495.7874" height="0.4801" width="0.4801" fill="#EFEFEF"/>
<rect x="594.5593" y="496.2446" height="0.4801" width="0.4801" fill="#E7E7E7"/>
<rect x="595.0318" y="496.2446" height="0.4801" width="0.4801" fill="#C6C6C6"/>
<rect x="595.5042" y="496.2446" height="0.4801" width="0.4801" fill="#BDBDBD"/>
<rect x="595.9766" y="496.2446" height="0.4801" width="0.4801" fill="#ADADAD"/>
<rect x="596.4491" y="496.2446" height="0.4801" width="0.4801" fill="#949494"/>
<rect x="596.9215" y="496.2446" height="0.4801" width="0.4801" fill="#7B7B7B"/>
<rect x="597.3940" y="496.2446" height="0.4801" width="0.4801" fill="#EFEFEF"/>
<rect x="594.5593" y="496.7018" height="0.4801" width="0.4801" fill="#D6D6D6"/>
<rect x="595.0318" y="496.7018" height="0.4801" width="0.4801" fill="#C6C6C6"/>
<rect x="595.5042" y="496.7018" height="0.4801" width="0.4801" fill="#B5B5B5"/>
<rect x="595.9766" y="496.7018" height="0.4801" width="0.4801" fill="#A5A5A5"/>
<rect x="596.4491" y="496.7018" height="0.4801" width="0.4801" fill="#8C8C8C"/>
<rect x="596.9215" y="496.7018" height="0.4801" width="0.4801" fill="#6B6B6B"/>
<rect x="597.3940" y="496.7018" height="0.4801" width="0.4801" fill="#EFEFEF"/>
<rect x="594.0869" y="497.1590" height="0.4801" width="0.4801" fill="#EFEFEF"/>
<rect x="594.5593" y="497.1590" height="0.4801" width="0.4801" fill="#CECECE"/>
<rect x="595.0318" y="497.1590" height="0.4801" width="0.4801" fill="#C6C6C6"/>
<rect x="595.5042" y="497.1590" height="0.4801" width="0.4801" fill="#B5B5B5"/>
<rect x="595.9766" y="497.1590" height="0.4801" width="0.4801" fill="#9C9C9C"/>
<rect x="596.4491" y="497.1590" height="0.4801" width="0.4801" fill="#737373"/>
<rect x="596.9215" y="497.1590" height="0.4801" width="0.4801" fill="#737373"/>
<rect x="597.3940" y="497.1590" height="0.4801" width="0.4801" fill="#EFEFEF"/>
<rect x="592.6695" y="497.6162" height="0.4801" width="0.4801" fill="#F7F7F7"/>
<rect x="593.1420" y="497.6162" height="0.4801" width="0.4801" fill="#F7F7F7"/>
<rect x="593.6144" y="497.6162" height="0.4801" width="0.4801" fill="#F7F7F7"/>
<rect x="594.0869" y="497.6162" height="0.4801" width="0.4801" fill="#DEDEDE"/>
<rect x="594.5593" y="497.6162" height="0.4801" width="0.4801" fill="#CECECE"/>
<rect x="595.0318" y="497.6162" height="0.4801" width="0.4801" fill="#BDBDBD"/>
<rect x="595.5042" y="497.6162" height="0.4801" width="0.4801" fill="#ADADAD"/>
<rect x="595.9766" y="497.6162" height="0.4801" width="0.4801" fill="#8C8C8C"/>
<rect x="596.4491" y="497.6162" height="0.4801" width="0.4801" fill="#6B6B6B"/>
<rect x="596.9215" y="497.6162" height="0.4801" width="0.4801" fill="#848484"/>
<rect x="597.3940" y="497.6162" height="0.4801" width="0.4801" fill="#F7F7F7"/>
<rect x="592.6695" y="498.0734" height="0.4801" width="0.4801" fill="#F7F7F7"/>
<rect x="593.1420" y="498.0734" height="0.4801" width="0.4801" fill="#E7E7E7"/>
<rect x="593.6144" y="498.0734" height="0.4801" width="0.4801" fill="#E7E7E7"/>
<rect x="594.0869" y="498.0734" height="0.4801" width="0.4801" fill="#D6D6D6"/>
<rect x="594.5593" y="498.0734" height="0.4801" width="0.4801" fill="#C6C6C6"/>
<rect x="595.0318" y="498.0734" height="0.4801" width="0.4801" fill="#BDBDBD"/>
<rect x="595.5042" y="498.0734" height="0.4801" width="0.4801" fill="#9C9C9C"/>
<rect x="595.9766" y="498.0734" height="0.4801" width="0.4801" fill="#737373"/>
<rect x="596.4491" y="498.0734" height="0.4801" width="0.4801" fill="#737373"/>
<rect x="596.9215" y="498.0734" height="0.4801" width="0.4801" fill="#949494"/>
<rect x="597.3940" y="498.0734" height="0.4801" width="0.4801" fill="#F7F7F7"/>
<rect x="592.6695" y="498.5306" height="0.4801" width="0.4801" fill="#F7F7F7"/>
<rect x="593.1420" y="498.5306" height="0.4801" width="0.4801" fill="#E7E7E7"/>
<rect x="593.6144" y="498.5306" height="0.4801" width="0.4801" fill="#DEDEDE"/>
<rect x="594.0869" y="498.5306" height="0.4801" width="0.4801" fill="#CECECE"/>
<rect x="594.5593" y="498.5306" height="0.4801" width="0.4801" fill="#BDBDBD"/>
<rect x="595.0318" y="498.5306" height="0.4801" width="0.4801" fill="#ADADAD"/>
<rect x="595.5042" y="498.5306" height="0.4801" width="0.4801" fill="#8C8C8C"/>
<rect x="595.9766" y="498.5306" height="0.4801" width="0.4801" fill="#6B6B6B"/>
<rect x="596.4491" y="498.5306" height="0.4801" width="0.4801" fill="#7B7B7B"/>
<rect x="596.9215" y="498.5306" height="0.4801" width="0.4801" fill="#9C9C9C"/>
<rect x="597.3940" y="498.5306" height="0.4801" width="0.4801" fill="#F7F7F7"/>
<rect x="592.6695" y="498.9878" height="0.4801" width="0.4801" fill="#F7F7F7"/>
<rect x="593.1420" y="498.9878" height="0.4801" width="0.4801" fill="#E7E7E7"/>
<rect x="593.6144" y="498.9878" height="0.4801" width="0.4801" fill="#D6D6D6"/>
<rect x="594.0869" y="498.9878" height="0.4801" width="0.4801" fill="#C6C6C6"/>
<rect x="594.5593" y="498.9878" height="0.4801" width="0.4801" fill="#B5B5B5"/>
<rect x="595.0318" y="498.9878" height="0.4801" width="0.4801" fill="#9C9C9C"/>
<rect x="595.5042" y="498.9878" height="0.4801" width="0.4801" fill="#737373"/>
<rect x="595.9766" y="498.9878" height="0.4801" width="0.4801" fill="#737373"/>
<rect x="596.4491" y="498.9878" height="0.4801" width="0.4801" fill="#8C8C8C"/>
<rect x="596.9215" y="498.9878" height="0.4801" width="0.4801" fill="#A5A5A5"/>
<rect x="597.3940" y="498.9878" height="0.4801" width="0.4801" fill="#F7F7F7"/>
<rect x="590.7798" y="499.4450" height="0.4801" width="0.4801" fill="#F7F7F7"/>
<rect x="592.6695" y="499.4450" height="0.4801" width="0.4801" fill="#F7F7F7"/>
<rect x="593.1420" y="499.4450" height="0.4801" width="0.4801" fill="#D6D6D6"/>
<rect x="593.6144" y="499.4450" height="0.4801" width="0.4801" fill="#CECECE"/>
<rect x="594.0869" y="499.4450" height="0.4801" width="0.4801" fill="#BDBDBD"/>
<rect x="594.5593" y="499.4450" height="0.4801" width="0.4801" fill="#A5A5A5"/>
<rect x="595.0318" y="499.4450" height="0.4801" width="0.4801" fill="#848484"/>
<rect x="595.5042" y="499.4450" height="0.4801" width="0.4801" fill="#636363"/>
<rect x="595.9766" y="499.4450" height="0.4801" width="0.4801" fill="#7B7B7B"/>
<rect x="596.4491" y="499.4450" height="0.4801" width="0.4801" fill="#949494"/>
<rect x="596.9215" y="499.4450" height="0.4801" width="0.4801" fill="#B5B5B5"/>
<rect x="597.3940" y="499.4450" height="0.4801" width="0.4801" fill="#F7F7F7"/>
<rect x="590.7798" y="499.9022" height="0.4801" width="0.4801" fill="#F7F7F7"/>
<rect x="591.2522" y="499.9022" height="0.4801" width="0.4801" fill="#EFEFEF"/>
<rect x="591.7247" y="499.9022" height="0.4801" width="0.4801" fill="#F7F7F7"/>
<rect x="592.6695" y="499.9022" height="0.4801" width="0.4801" fill="#F7F7F7"/>
<rect x="593.1420" y="499.9022" height="0.4801" width="0.4801" fill="#D6D6D6"/>
<rect x="593.6144" y="499.9022" height="0.4801" width="0.4801" fill="#BDBDBD"/>
<rect x="594.0869" y="499.9022" height="0.4801" width="0.4801" fill="#ADADAD"/>
<rect x="594.5593" y="499.9022" height="0.4801" width="0.4801" fill="#8C8C8C"/>
<rect x="595.0318" y="499.9022" height="0.4801" width="0.4801" fill="#636363"/>
<rect x="595.5042" y="499.9022" height="0.4801" width="0.4801" fill="#6B6B6B"/>
<rect x="595.9766" y="499.9022" height="0.4801" width="0.4801" fill="#7B7B7B"/>
<rect x="596.4491" y="499.9022" height="0.4801" width="0.4801" fill="#A5A5A5"/>
<rect x="596.9215" y="499.9022" height="0.4801" width="0.4801" fill="#ADADAD"/>
<rect x="597.3940" y="499.9022" height="0.4801" width="0.4801" fill="#F7F7F7"/>
<rect x="588.8900" y="500.3594" height="0.4801" width="0.4801" fill="#F7F7F7"/>
<rect x="589.3625" y="500.3594" height="0.4801" width="0.4801" fill="#F7F7F7"/>
<rect x="590.3073" y="500.3594" height="0.4801" width="0.4801" fill="#F7F7F7"/>
<rect x="590.7798" y="500.3594" height="0.4801" width="0.4801" fill="#EFEFEF"/>
<rect x="591.2522" y="500.3594" height="0.4801" width="0.4801" fill="#EFEFEF"/>
<rect x="591.7247" y="500.3594" height="0.4801" width="0.4801" fill="#E7E7E7"/>
<rect x="592.1971" y="500.3594" height="0.4801" width="0.4801" fill="#F7F7F7"/>
<rect x="593.1420" y="500.3594" height="0.4801" width="0.4801" fill="#CECECE"/>
<rect x="593.6144" y="500.3594" height="0.4801" width="0.4801" fill="#B5B5B5"/>
<rect x="594.0869" y="500.3594" height="0.4801" width="0.4801" fill="#949494"/>
<rect x="594.5593" y="500.3594" height="0.4801" width="0.4801" fill="#636363"/>
<rect x="595.0318" y="500.3594" height="0.4801" width="0.4801" fill="#5A5A5A"/>
<rect x="595.5042" y="500.3594" height="0.4801" width="0.4801" fill="#636363"/>
<rect x="595.9766" y="500.3594" height="0.4801" width="0.4801" fill="#848484"/>
<rect x="596.4491" y="500.3594" height="0.4801" width="0.4801" fill="#949494"/>
<rect x="596.9215" y="500.3594" height="0.4801" width="0.4801" fill="#A5A5A5"/>
<rect x="597.3940" y="500.3594" height="0.4801" width="0.4801" fill="#E7E7E7"/>
<rect x="597.8664" y="500.3594" height="0.4801" width="0.4801" fill="#EFEFEF"/>
<rect x="598.3388" y="500.3594" height="0.4801" width="0.4801" fill="#EFEFEF"/>
<rect x="598.8113" y="500.3594" height="0.4801" width="0.4801" fill="#EFEFEF"/>
<rect x="599.2837" y="500.3594" height="0.4801" width="0.4801" fill="#EFEFEF"/>
<rect x="599.7562" y="500.3594" height="0.4801" width="0.4801" fill="#EFEFEF"/>
<rect x="600.2286" y="500.3594" height="0.4801" width="0.4801" fill="#EFEFEF"/>
<rect x="600.7010" y="500.3594" height="0.4801" width="0.4801" fill="#EFEFEF"/>
<rect x="601.1735" y="500.3594" height="0.4801" width="0.4801" fill="#E7E7E7"/>
<rect x="601.6459" y="500.3594" height="0.4801" width="0.4801" fill="#EFEFEF"/>
<rect x="602.1184" y="500.3594" height="0.4801" width="0.4801" fill="#E7E7E7"/>
<rect x="588.8900" y="500.8166" height="0.4801" width="0.4801" fill="#F7F7F7"/>
<rect x="589.3625" y="500.8166" height="0.4801" width="0.4801" fill="#EFEFEF"/>
<rect x="589.8349" y="500.8166" height="0.4801" width="0.4801" fill="#EFEFEF"/>
<rect x="590.3073" y="500.8166" height="0.4801" width="0.4801" fill="#EFEFEF"/>
<rect x="590.7798" y="500.8166" height="0.4801" width="0.4801" fill="#EFEFEF"/>
<rect x="591.2522" y="500.8166" height="0.4801" width="0.4801" fill="#E7E7E7"/>
<rect x="591.7247" y="500.8166" height="0.4801" width="0.4801" fill="#DEDEDE"/>
<rect x="592.1971" y="500.8166" height="0.4801" width="0.4801" fill="#D6D6D6"/>
<rect x="592.6695" y="500.8166" height="0.4801" width="0.4801" fill="#EFEFEF"/>
<rect x="593.1420" y="500.8166" height="0.4801" width="0.4801" fill="#C6C6C6"/>
<rect x="593.6144" y="500.8166" height="0.4801" width="0.4801" fill="#949494"/>
<rect x="594.0869" y="500.8166" height="0.4801" width="0.4801" fill="#6B6B6B"/>
<rect x="594.5593" y="500.8166" height="0.4801" width="0.4801" fill="#636363"/>
<rect x="595.0318" y="500.8166" height="0.4801" width="0.4801" fill="#6B6B6B"/>
<rect x="595.5042" y="500.8166" height="0.4801" width="0.4801" fill="#737373"/>
<rect x="595.9766" y="500.8166" height="0.4801" width="0.4801" fill="#7B7B7B"/>
<rect x="596.4491" y="500.8166" height="0.4801" width="0.4801" fill="#848484"/>
<rect x="596.9215" y="500.8166" height="0.4801" width="0.4801" fill="#949494"/>
<rect x="597.3940" y="500.8166" height="0.4801" width="0.4801" fill="#A5A5A5"/>
<rect x="597.8664" y="500.8166" height="0.4801" width="0.4801" fill="#ADADAD"/>
<rect x="598.3388" y="500.8166" height="0.4801" width="0.4801" fill="#ADADAD"/>
<rect x="598.8113" y="500.8166" height="0.4801" width="0.4801" fill="#B5B5B5"/>
<rect x="599.2837" y="500.8166" height="0.4801" width="0.4801" fill="#ADADAD"/>
<rect x="599.7562" y="500.8166" height="0.4801" width="0.4801" fill="#ADADAD"/>
<rect x="600.2286" y="500.8166" height="0.4801" width="0.4801" fill="#A5A5A5"/>
<rect x="600.7010" y="500.8166" height="0.4801" width="0.4801" fill="#9C9C9C"/>
<rect x="601.1735" y="500.8166" height="0.4801" width="0.4801" fill="#9C9C9C"/>
<rect x="601.6459" y="500.8166" height="0.4801" width="0.4801" fill="#8C8C8C"/>
<rect x="602.1184" y="500.8166" height="0.4801" width="0.4801" fill="#949494"/>
<rect x="589.3625" y="501.2738" height="0.4801" width="0.4801" fill="#E7E7E7"/>
<rect x="589.8349" y="501.2738" height="0.4801" width="0.4801" fill="#E7E7E7"/>
<rect x="590.3073" y="501.2738" height="0.4801" width="0.4801" fill="#E7E7E7"/>
<rect x="590.7798" y="501.2738" height="0.4801" width="0.4801" fill="#E7E7E7"/>
<rect x="591.2522" y="501.2738" height="0.4801" width="0.4801" fill="#DEDEDE"/>
<rect x="591.7247" y="501.2738" height="0.4801" width="0.4801" fill="#D6D6D6"/>
<rect x="592.1971" y="501.2738" height="0.4801" width="0.4801" fill="#C6C6C6"/>
<rect x="592.6695" y="501.2738" height="0.4801" width="0.4801" fill="#BDBDBD"/>
<rect x="593.1420" y="501.2738" height="0.4801" width="0.4801" fill="#ADADAD"/>
<rect x="593.6144" y="501.2738" height="0.4801" width="0.4801" fill="#636363"/>
<rect x="594.0869" y="501.2738" height="0.4801" width="0.4801" fill="#636363"/>
<rect x="594.5593" y="501.2738" height="0.4801" width="0.4801" fill="#7B7B7B"/>
<rect x="595.0318" y="501.2738" height="0.4801" width="0.4801" fill="#7B7B7B"/>
<rect x="595.5042" y="501.2738" height="0.4801" width="0.4801" fill="#7B7B7B"/>
<rect x="595.9766" y="501.2738" height="0.4801" width="0.4801" fill="#7B7B7B"/>
<rect x="596.4491" y="501.2738" height="0.4801" width="0.4801" fill="#848484"/>
<rect x="596.9215" y="501.2738" height="0.4801" width="0.4801" fill="#848484"/>
<rect x="597.3940" y="501.2738" height="0.4801" width="0.4801" fill="#949494"/>
<rect x="597.8664" y="501.2738" height="0.4801" width="0.4801" fill="#A5A5A5"/>
<rect x="598.3388" y="501.2738" height="0.4801" width="0.4801" fill="#A5A5A5"/>
<rect x="598.8113" y="501.2738" height="0.4801" width="0.4801" fill="#ADADAD"/>
<rect x="599.2837" y="501.2738" height="0.4801" width="0.4801" fill="#ADADAD"/>
<rect x="599.7562" y="501.2738" height="0.4801" width="0.4801" fill="#ADADAD"/>
<rect x="600.2286" y="501.2738" height="0.4801" width="0.4801" fill="#A5A5A5"/>
<rect x="600.7010" y="501.2738" height="0.4801" width="0.4801" fill="#9C9C9C"/>
<rect x="601.1735" y="501.2738" height="0.4801" width="0.4801" fill="#949494"/>
<rect x="601.6459" y="501.2738" height="0.4801" width="0.4801" fill="#8C8C8C"/>
<rect x="602.1184" y="501.2738" height="0.4801" width="0.4801" fill="#8C8C8C"/>
<rect x="589.3625" y="501.7310" height="0.4801" width="0.4801" fill="#EFEFEF"/>
<rect x="589.8349" y="501.7310" height="0.4801" width="0.4801" fill="#DEDEDE"/>
<rect x="590.3073" y="501.7310" height="0.4801" width="0.4801" fill="#DEDEDE"/>
<rect x="590.7798" y="501.7310" height="0.4801" width="0.4801" fill="#D6D6D6"/>
<rect x="591.2522" y="501.7310" height="0.4801" width="0.4801" fill="#CECECE"/>
<rect x="591.7247" y="501.7310" height="0.4801" width="0.4801" fill="#BDBDBD"/>
<rect x="592.1971" y="501.7310" height="0.4801" width="0.4801" fill="#ADADAD"/>
<rect x="592.6695" y="501.7310" height="0.4801" width="0.4801" fill="#848484"/>
<rect x="593.1420" y="501.7310" height="0.4801" width="0.4801" fill="#5A5A5A"/>
<rect x="593.6144" y="501.7310" height="0.4801" width="0.4801" fill="#636363"/>
<rect x="594.0869" y="501.7310" height="0.4801" width="0.4801" fill="#848484"/>
<rect x="594.5593" y="501.7310" height="0.4801" width="0.4801" fill="#848484"/>
<rect x="595.0318" y="501.7310" height="0.4801" width="0.4801" fill="#7B7B7B"/>
<rect x="595.5042" y="501.7310" height="0.4801" width="0.4801" fill="#7B7B7B"/>
<rect x="595.9766" y="501.7310" height="0.4801" width="0.4801" fill="#7B7B7B"/>
<rect x="596.4491" y="501.7310" height="0.4801" width="0.4801" fill="#848484"/>
<rect x="596.9215" y="501.7310" height="0.4801" width="0.4801" fill="#848484"/>
<rect x="597.3940" y="501.7310" height="0.4801" width="0.4801" fill="#848484"/>
<rect x="597.8664" y="501.7310" height="0.4801" width="0.4801" fill="#949494"/>
<rect x="598.3388" y="501.7310" height="0.4801" width="0.4801" fill="#A5A5A5"/>
<rect x="598.8113" y="501.7310" height="0.4801" width="0.4801" fill="#A5A5A5"/>
<rect x="599.2837" y="501.7310" height="0.4801" width="0.4801" fill="#ADADAD"/>
<rect x="599.7562" y="501.7310" height="0.4801" width="0.4801" fill="#A5A5A5"/>
<rect x="600.2286" y="501.7310" height="0.4801" width="0.4801" fill="#9C9C9C"/>
<rect x="600.7010" y="501.7310" height="0.4801" width="0.4801" fill="#949494"/>
<rect x="601.1735" y="501.7310" height="0.4801" width="0.4801" fill="#8C8C8C"/>
<rect x="601.6459" y="501.7310" height="0.4801" width="0.4801" fill="#848484"/>
<rect x="602.1184" y="501.7310" height="0.4801" width="0.4801" fill="#848484"/>
<rect x="589.3625" y="502.1882" height="0.4801" width="0.4801" fill="#E7E7E7"/>
<rect x="589.8349" y="502.1882" height="0.4801" width="0.4801" fill="#DEDEDE"/>
<rect x="590.3073" y="502.1882" height="0.4801" width="0.4801" fill="#D6D6D6"/>
<rect x="590.7798" y="502.1882" height="0.4801" width="0.4801" fill="#CECECE"/>
<rect x="591.2522" y="502.1882" height="0.4801" width="0.4801" fill="#BDBDBD"/>
<rect x="591.7247" y="502.1882" height="0.4801" width="0.4801" fill="#9C9C9C"/>
<rect x="592.1971" y="502.1882" height="0.4801" width="0.4801" fill="#737373"/>
<rect x="592.6695" y="502.1882" height="0.4801" width="0.4801" fill="#636363"/>
<rect x="593.1420" y="502.1882" height="0.4801" width="0.4801" fill="#636363"/>
<rect x="593.6144" y="502.1882" height="0.4801" width="0.4801" fill="#7B7B7B"/>
<rect x="594.0869" y="502.1882" height="0.4801" width="0.4801" fill="#737373"/>
<rect x="594.5593" y="502.1882" height="0.4801" width="0.4801" fill="#737373"/>
<rect x="595.0318" y="502.1882" height="0.4801" width="0.4801" fill="#7B7B7B"/>
<rect x="595.5042" y="502.1882" height="0.4801" width="0.4801" fill="#848484"/>
<rect x="595.9766" y="502.1882" height="0.4801" width="0.4801" fill="#7B7B7B"/>
<rect x="596.4491" y="502.1882" height="0.4801" width="0.4801" fill="#7B7B7B"/>
<rect x="596.9215" y="502.1882" height="0.4801" width="0.4801" fill="#848484"/>
<rect x="597.3940" y="502.1882" height="0.4801" width="0.4801" fill="#848484"/>
<rect x="597.8664" y="502.1882" height="0.4801" width="0.4801" fill="#8C8C8C"/>
<rect x="598.3388" y="502.1882" height="0.4801" width="0.4801" fill="#8C8C8C"/>
<rect x="598.8113" y="502.1882" height="0.4801" width="0.4801" fill="#848484"/>
<rect x="599.2837" y="502.1882" height="0.4801" width="0.4801" fill="#7B7B7B"/>
<rect x="599.7562" y="502.1882" height="0.4801" width="0.4801" fill="#737373"/>
<rect x="600.2286" y="502.1882" height="0.4801" width="0.4801" fill="#737373"/>
<rect x="600.7010" y="502.1882" height="0.4801" width="0.4801" fill="#6B6B6B"/>
<rect x="601.1735" y="502.1882" height="0.4801" width="0.4801" fill="#636363"/>
<rect x="601.6459" y="502.1882" height="0.4801" width="0.4801" fill="#5A5A5A"/>
<rect x="602.1184" y="502.1882" height="0.4801" width="0.4801" fill="#636363"/>
<rect x="588.8900" y="502.6454" height="0.4801" width="0.4801" fill="#E7E7E7"/>
<rect x="589.3625" y="502.6454" height="0.4801" width="0.4801" fill="#D6D6D6"/>
<rect x="589.8349" y="502.6454" height="0.4801" width="0.4801" fill="#C6C6C6"/>
<rect x="590.3073" y="502.6454" height="0.4801" width="0.4801" fill="#B5B5B5"/>
<rect x="590.7798" y="502.6454" height="0.4801" width="0.4801" fill="#9C9C9C"/>
<rect x="591.2522" y="502.6454" height="0.4801" width="0.4801" fill="#848484"/>
<rect x="591.7247" y="502.6454" height="0.4801" width="0.4801" fill="#737373"/>
<rect x="592.1971" y="502.6454" height="0.4801" width="0.4801" fill="#7B7B7B"/>
<rect x="592.6695" y="502.6454" height="0.4801" width="0.4801" fill="#8C8C8C"/>
<rect x="593.1420" y="502.6454" height="0.4801" width="0.4801" fill="#8C8C8C"/>
<rect x="593.6144" y="502.6454" height="0.4801" width="0.4801" fill="#7B7B7B"/>
<rect x="594.0869" y="502.6454" height="0.4801" width="0.4801" fill="#737373"/>
<rect x="594.5593" y="502.6454" height="0.4801" width="0.4801" fill="#737373"/>
<rect x="595.0318" y="502.6454" height="0.4801" width="0.4801" fill="#737373"/>
<rect x="595.5042" y="502.6454" height="0.4801" width="0.4801" fill="#7B7B7B"/>
<rect x="595.9766" y="502.6454" height="0.4801" width="0.4801" fill="#848484"/>
<rect x="596.4491" y="502.6454" height="0.4801" width="0.4801" fill="#8C8C8C"/>
<rect x="596.9215" y="502.6454" height="0.4801" width="0.4801" fill="#9C9C9C"/>
<rect x="597.3940" y="502.6454" height="0.4801" width="0.4801" fill="#A5A5A5"/>
<rect x="597.8664" y="502.6454" height="0.4801" width="0.4801" fill="#ADADAD"/>
<rect x="598.3388" y="502.6454" height="0.4801" width="0.4801" fill="#A5A5A5"/>
<rect x="598.8113" y="502.6454" height="0.4801" width="0.4801" fill="#A5A5A5"/>
<rect x="599.2837" y="502.6454" height="0.4801" width="0.4801" fill="#949494"/>
<rect x="599.7562" y="502.6454" height="0.4801" width="0.4801" fill="#848484"/>
<rect x="600.2286" y="502.6454" height="0.4801" width="0.4801" fill="#6B6B6B"/>
<rect x="600.7010" y="502.6454" height="0.4801" width="0.4801" fill="#6B6B6B"/>
<rect x="601.1735" y="502.6454" height="0.4801" width="0.4801" fill="#636363"/>
<rect x="601.6459" y="502.6454" height="0.4801" width="0.4801" fill="#6B6B6B"/>
<rect x="602.1184" y="502.6454" height="0.4801" width="0.4801" fill="#7B7B7B"/>
<rect x="588.4176" y="503.1026" height="0.4801" width="0.4801" fill="#CECECE"/>
<rect x="588.8900" y="503.1026" height="0.4801" width="0.4801" fill="#B5B5B5"/>
<rect x="589.3625" y="503.1026" height="0.4801" width="0.4801" fill="#ADADAD"/>
<rect x="589.8349" y="503.1026" height="0.4801" width="0.4801" fill="#A5A5A5"/>
<rect x="590.3073" y="503.1026" height="0.4801" width="0.4801" fill="#9C9C9C"/>
<rect x="590.7798" y="503.1026" height="0.4801" width="0.4801" fill="#A5A5A5"/>
<rect x="591.2522" y="503.1026" height="0.4801" width="0.4801" fill="#ADADAD"/>
<rect x="591.7247" y="503.1026" height="0.4801" width="0.4801" fill="#B5B5B5"/>
<rect x="592.1971" y="503.1026" height="0.4801" width="0.4801" fill="#ADADAD"/>
<rect x="592.6695" y="503.1026" height="0.4801" width="0.4801" fill="#A5A5A5"/>
<rect x="593.1420" y="503.1026" height="0.4801" width="0.4801" fill="#949494"/>
<rect x="593.6144" y="503.1026" height="0.4801" width="0.4801" fill="#848484"/>
<rect x="594.0869" y="503.1026" height="0.4801" width="0.4801" fill="#7B7B7B"/>
<rect x="594.5593" y="503.1026" height="0.4801" width="0.4801" fill="#7B7B7B"/>
<rect x="595.0318" y="503.1026" height="0.4801" width="0.4801" fill="#7B7B7B"/>
<rect x="595.5042" y="503.1026" height="0.4801" width="0.4801" fill="#848484"/>
<rect x="595.9766" y="503.1026" height="0.4801" width="0.4801" fill="#8C8C8C"/>
<rect x="596.4491" y="503.1026" height="0.4801" width="0.4801" fill="#9C9C9C"/>
<rect x="596.9215" y="503.1026" height="0.4801" width="0.4801" fill="#A5A5A5"/>
<rect x="597.3940" y="503.1026" height="0.4801" width="0.4801" fill="#B5B5B5"/>
<rect x="597.8664" y="503.1026" height="0.4801" width="0.4801" fill="#B5B5B5"/>
<rect x="598.3388" y="503.1026" height="0.4801" width="0.4801" fill="#BDBDBD"/>
<rect x="598.8113" y="503.1026" height="0.4801" width="0.4801" fill="#B5B5B5"/>
<rect x="599.2837" y="503.1026" height="0.4801" width="0.4801" fill="#B5B5B5"/>
<rect x="599.7562" y="503.1026" height="0.4801" width="0.4801" fill="#A5A5A5"/>
<rect x="600.2286" y="503.1026" height="0.4801" width="0.4801" fill="#9C9C9C"/>
<rect x="600.7010" y="503.1026" height="0.4801" width="0.4801" fill="#848484"/>
<rect x="601.1735" y="503.1026" height="0.4801" width="0.4801" fill="#848484"/>
<rect x="601.6459" y="503.1026" height="0.4801" width="0.4801" fill="#737373"/>
<rect x="602.1184" y="503.1026" height="0.4801" width="0.4801" fill="#848484"/>
<rect x="588.4176" y="503.5598" height="0.4801" width="0.4801" fill="#E7E7E7"/>
<rect x="588.8900" y="503.5598" height="0.4801" width="0.4801" fill="#D6D6D6"/>
<rect x="589.3625" y="503.5598" height="0.4801" width="0.4801" fill="#CECECE"/>
<rect x="589.8349" y="503.5598" height="0.4801" width="0.4801" fill="#D6D6D6"/>
<rect x="590.3073" y="503.5598" height="0.4801" width="0.4801" fill="#D6D6D6"/>
<rect x="590.7798" y="503.5598" height="0.4801" width="0.4801" fill="#D6D6D6"/>
<rect x="591.2522" y="503.5598" height="0.4801" width="0.4801" fill="#C6C6C6"/>
<rect x="591.7247" y="503.5598" height="0.4801" width="0.4801" fill="#C6C6C6"/>
<rect x="592.1971" y="503.5598" height="0.4801" width="0.4801" fill="#C6C6C6"/>
<rect x="592.6695" y="503.5598" height="0.4801" width="0.4801" fill="#BDBDBD"/>
<rect x="593.1420" y="503.5598" height="0.4801" width="0.4801" fill="#A5A5A5"/>
<rect x="593.6144" y="503.5598" height="0.4801" width="0.4801" fill="#9C9C9C"/>
<rect x="594.0869" y="503.5598" height="0.4801" width="0.4801" fill="#7B7B7B"/>
<rect x="594.5593" y="503.5598" height="0.4801" width="0.4801" fill="#7B7B7B"/>
<rect x="595.0318" y="503.5598" height="0.4801" width="0.4801" fill="#8C8C8C"/>
<rect x="595.5042" y="503.5598" height="0.4801" width="0.4801" fill="#8C8C8C"/>
<rect x="595.9766" y="503.5598" height="0.4801" width="0.4801" fill="#8C8C8C"/>
<rect x="596.4491" y="503.5598" height="0.4801" width="0.4801" fill="#A5A5A5"/>
<rect x="596.9215" y="503.5598" height="0.4801" width="0.4801" fill="#ADADAD"/>
<rect x="597.3940" y="503.5598" height="0.4801" width="0.4801" fill="#B5B5B5"/>
<rect x="597.8664" y="503.5598" height="0.4801" width="0.4801" fill="#C6C6C6"/>
<rect x="598.3388" y="503.5598" height="0.4801" width="0.4801" fill="#BDBDBD"/>
<rect x="598.8113" y="503.5598" height="0.4801" width="0.4801" fill="#BDBDBD"/>
<rect x="599.2837" y="503.5598" height="0.4801" width="0.4801" fill="#B5B5B5"/>
<rect x="599.7562" y="503.5598" height="0.4801" width="0.4801" fill="#B5B5B5"/>
<rect x="600.2286" y="503.5598" height="0.4801" width="0.4801" fill="#A5A5A5"/>
<rect x="600.7010" y="503.5598" height="0.4801" width="0.4801" fill="#9C9C9C"/>
<rect x="601.1735" y="503.5598" height="0.4801" width="0.4801" fill="#8C8C8C"/>
<rect x="601.6459" y="503.5598" height="0.4801" width="0.4801" fill="#848484"/>
<rect x="602.1184" y="503.5598" height="0.4801" width="0.4801" fill="#848484"/>
<rect x="588.8900" y="504.0170" height="0.4801" width="0.4801" fill="#F7F7F7"/>
<rect x="589.3625" y="504.0170" height="0.4801" width="0.4801" fill="#F7F7F7"/>
<rect x="589.8349" y="504.0170" height="0.4801" width="0.4801" fill="#EFEFEF"/>
<rect x="590.3073" y="504.0170" height="0.4801" width="0.4801" fill="#E7E7E7"/>
<rect x="590.7798" y="504.0170" height="0.4801" width="0.4801" fill="#E7E7E7"/>
<rect x="591.2522" y="504.0170" height="0.4801" width="0.4801" fill="#D6D6D6"/>
<rect x="591.7247" y="504.0170" height="0.4801" width="0.4801" fill="#CECECE"/>
<rect x="592.1971" y="504.0170" height="0.4801" width="0.4801" fill="#CECECE"/>
<rect x="592.6695" y="504.0170" height="0.4801" width="0.4801" fill="#C6C6C6"/>
<rect x="593.1420" y="504.0170" height="0.4801" width="0.4801" fill="#B5B5B5"/>
<rect x="593.6144" y="504.0170" height="0.4801" width="0.4801" fill="#A5A5A5"/>
<rect x="594.0869" y="504.0170" height="0.4801" width="0.4801" fill="#8C8C8C"/>
<rect x="594.5593" y="504.0170" height="0.4801" width="0.4801" fill="#737373"/>
<rect x="595.0318" y="504.0170" height="0.4801" width="0.4801" fill="#848484"/>
<rect x="595.5042" y="504.0170" height="0.4801" width="0.4801" fill="#949494"/>
<rect x="595.9766" y="504.0170" height="0.4801" width="0.4801" fill="#9C9C9C"/>
<rect x="596.4491" y="504.0170" height="0.4801" width="0.4801" fill="#9C9C9C"/>
<rect x="596.9215" y="504.0170" height="0.4801" width="0.4801" fill="#ADADAD"/>
<rect x="597.3940" y="504.0170" height="0.4801" width="0.4801" fill="#B5B5B5"/>
<rect x="597.8664" y="504.0170" height="0.4801" width="0.4801" fill="#C6C6C6"/>
<rect x="598.3388" y="504.0170" height="0.4801" width="0.4801" fill="#C6C6C6"/>
<rect x="598.8113" y="504.0170" height="0.4801" width="0.4801" fill="#C6C6C6"/>
<rect x="599.2837" y="504.0170" height="0.4801" width="0.4801" fill="#BDBDBD"/>
<rect x="599.7562" y="504.0170" height="0.4801" width="0.4801" fill="#B5B5B5"/>
<rect x="600.2286" y="504.0170" height="0.4801" width="0.4801" fill="#B5B5B5"/>
<rect x="600.7010" y="504.0170" height="0.4801" width="0.4801" fill="#ADADAD"/>
<rect x="601.1735" y="504.0170" height="0.4801" width="0.4801" fill="#9C9C9C"/>
<rect x="601.6459" y="504.0170" height="0.4801" width="0.4801" fill="#949494"/>
<rect x="602.1184" y="504.0170" height="0.4801" width="0.4801" fill="#8C8C8C"/>
<rect x="589.8349" y="504.4742" height="0.4801" width="0.4801" fill="#F7F7F7"/>
<rect x="590.3073" y="504.4742" height="0.4801" width="0.4801" fill="#F7F7F7"/>
<rect x="590.7798" y="504.4742" height="0.4801" width="0.4801" fill="#F7F7F7"/>
<rect x="591.2522" y="504.4742" height="0.4801" width="0.4801" fill="#EFEFEF"/>
<rect x="591.7247" y="504.4742" height="0.4801" width="0.4801" fill="#E7E7E7"/>
<rect x="592.1971" y="504.4742" height="0.4801" width="0.4801" fill="#D6D6D6"/>
<rect x="592.6695" y="504.4742" height="0.4801" width="0.4801" fill="#CECECE"/>
<rect x="593.1420" y="504.4742" height="0.4801" width="0.4801" fill="#C6C6C6"/>
<rect x="593.6144" y="504.4742" height="0.4801" width="0.4801" fill="#A5A5A5"/>
<rect x="594.0869" y="504.4742" height="0.4801" width="0.4801" fill="#949494"/>
<rect x="594.5593" y="504.4742" height="0.4801" width="0.4801" fill="#7B7B7B"/>
<rect x="595.0318" y="504.4742" height="0.4801" width="0.4801" fill="#7B7B7B"/>
<rect x="595.5042" y="504.4742" height="0.4801" width="0.4801" fill="#8C8C8C"/>
<rect x="595.9766" y="504.4742" height="0.4801" width="0.4801" fill="#A5A5A5"/>
<rect x="596.4491" y="504.4742" height="0.4801" width="0.4801" fill="#B5B5B5"/>
<rect x="596.9215" y="504.4742" height="0.4801" width="0.4801" fill="#BDBDBD"/>
<rect x="597.3940" y="504.4742" height="0.4801" width="0.4801" fill="#BDBDBD"/>
<rect x="597.8664" y="504.4742" height="0.4801" width="0.4801" fill="#BDBDBD"/>
<rect x="598.3388" y="504.4742" height="0.4801" width="0.4801" fill="#C6C6C6"/>
<rect x="598.8113" y="504.4742" height="0.4801" width="0.4801" fill="#C6C6C6"/>
<rect x="599.2837" y="504.4742" height="0.4801" width="0.4801" fill="#BDBDBD"/>
<rect x="599.7562" y="504.4742" height="0.4801" width="0.4801" fill="#BDBDBD"/>
<rect x="600.2286" y="504.4742" height="0.4801" width="0.4801" fill="#B5B5B5"/>
<rect x="600.7010" y="504.4742" height="0.4801" width="0.4801" fill="#ADADAD"/>
<rect x="601.1735" y="504.4742" height="0.4801" width="0.4801" fill="#A5A5A5"/>
<rect x="601.6459" y="504.4742" height="0.4801" width="0.4801" fill="#9C9C9C"/>
<rect x="602.1184" y="504.4742" height="0.4801" width="0.4801" fill="#949494"/>
<rect x="590.3073" y="504.9314" height="0.4801" width="0.4801" fill="#F7F7F7"/>
<rect x="590.7798" y="504.9314" height="0.4801" width="0.4801" fill="#F7F7F7"/>
<rect x="591.2522" y="504.9314" height="0.4801" width="0.4801" fill="#F7F7F7"/>
<rect x="591.7247" y="504.9314" height="0.4801" width="0.4801" fill="#EFEFEF"/>
<rect x="592.1971" y="504.9314" height="0.4801" width="0.4801" fill="#E7E7E7"/>
<rect x="592.6695" y="504.9314" height="0.4801" width="0.4801" fill="#CECECE"/>
<rect x="593.1420" y="504.9314" height="0.4801" width="0.4801" fill="#C6C6C6"/>
<rect x="593.6144" y="504.9314" height="0.4801" width="0.4801" fill="#BDBDBD"/>
<rect x="594.0869" y="504.9314" height="0.4801" width="0.4801" fill="#A5A5A5"/>
<rect x="594.5593" y="504.9314" height="0.4801" width="0.4801" fill="#848484"/>
<rect x="595.0318" y="504.9314" height="0.4801" width="0.4801" fill="#8C8C8C"/>
<rect x="595.5042" y="504.9314" height="0.4801" width="0.4801" fill="#9C9C9C"/>
<rect x="595.9766" y="504.9314" height="0.4801" width="0.4801" fill="#ADADAD"/>
<rect x="596.4491" y="504.9314" height="0.4801" width="0.4801" fill="#B5B5B5"/>
<rect x="596.9215" y="504.9314" height="0.4801" width="0.4801" fill="#C6C6C6"/>
<rect x="597.3940" y="504.9314" height="0.4801" width="0.4801" fill="#EFEFEF"/>
<rect x="597.8664" y="504.9314" height="0.4801" width="0.4801" fill="#F7F7F7"/>
<rect x="598.3388" y="504.9314" height="0.4801" width="0.4801" fill="#EFEFEF"/>
<rect x="598.8113" y="504.9314" height="0.4801" width="0.4801" fill="#F7F7F7"/>
<rect x="599.2837" y="504.9314" height="0.4801" width="0.4801" fill="#F7F7F7"/>
<rect x="599.7562" y="504.9314" height="0.4801" width="0.4801" fill="#EFEFEF"/>
<rect x="600.2286" y="504.9314" height="0.4801" width="0.4801" fill="#EFEFEF"/>
<rect x="600.7010" y="504.9314" height="0.4801" width="0.4801" fill="#EFEFEF"/>
<rect x="601.1735" y="504.9314" height="0.4801" width="0.4801" fill="#EFEFEF"/>
<rect x="601.6459" y="504.9314" height="0.4801" width="0.4801" fill="#EFEFEF"/>
<rect x="602.1184" y="504.9314" height="0.4801" width="0.4801" fill="#E7E7E7"/>
<rect x="591.2522" y="505.3886" height="0.4801" width="0.4801" fill="#F7F7F7"/>
<rect x="591.7247" y="505.3886" height="0.4801" width="0.4801" fill="#F7F7F7"/>
<rect x="592.1971" y="505.3886" height="0.4801" width="0.4801" fill="#E7E7E7"/>
<rect x="592.6695" y="505.3886" height="0.4801" width="0.4801" fill="#DEDEDE"/>
<rect x="593.1420" y="505.3886" height="0.4801" width="0.4801" fill="#CECECE"/>
<rect x="593.6144" y="505.3886" height="0.4801" width="0.4801" fill="#BDBDBD"/>
<rect x="594.0869" y="505.3886" height="0.4801" width="0.4801" fill="#ADADAD"/>
<rect x="594.5593" y="505.3886" height="0.4801" width="0.4801" fill="#949494"/>
<rect x="595.0318" y="505.3886" height="0.4801" width="0.4801" fill="#7B7B7B"/>
<rect x="595.5042" y="505.3886" height="0.4801" width="0.4801" fill="#A5A5A5"/>
<rect x="595.9766" y="505.3886" height="0.4801" width="0.4801" fill="#ADADAD"/>
<rect x="596.4491" y="505.3886" height="0.4801" width="0.4801" fill="#C6C6C6"/>
<rect x="596.9215" y="505.3886" height="0.4801" width="0.4801" fill="#CECECE"/>
<rect x="591.7247" y="505.8458" height="0.4801" width="0.4801" fill="#EFEFEF"/>
<rect x="592.1971" y="505.8458" height="0.4801" width="0.4801" fill="#EFEFEF"/>
<rect x="592.6695" y="505.8458" height="0.4801" width="0.4801" fill="#E7E7E7"/>
<rect x="593.1420" y="505.8458" height="0.4801" width="0.4801" fill="#D6D6D6"/>
<rect x="593.6144" y="505.8458" height="0.4801" width="0.4801" fill="#C6C6C6"/>
<rect x="594.0869" y="505.8458" height="0.4801" width="0.4801" fill="#ADADAD"/>
<rect x="594.5593" y="505.8458" height="0.4801" width="0.4801" fill="#949494"/>
<rect x="595.0318" y="505.8458" height="0.4801" width="0.4801" fill="#848484"/>
<rect x="595.5042" y="505.8458" height="0.4801" width="0.4801" fill="#949494"/>
<rect x="595.9766" y="505.8458" height="0.4801" width="0.4801" fill="#BDBDBD"/>
<rect x="596.4491" y="505.8458" height="0.4801" width="0.4801" fill="#C6C6C6"/>
<rect x="596.9215" y="505.8458" height="0.4801" width="0.4801" fill="#C6C6C6"/>
<rect x="597.3940" y="505.8458" height="0.4801" width="0.4801" fill="#F7F7F7"/>
<rect x="591.7247" y="506.3030" height="0.4801" width="0.4801" fill="#F7F7F7"/>
<rect x="592.1971" y="506.3030" height="0.4801" width="0.4801" fill="#EFEFEF"/>
<rect x="592.6695" y="506.3030" height="0.4801" width="0.4801" fill="#DEDEDE"/>
<rect x="593.1420" y="506.3030" height="0.4801" width="0.4801" fill="#D6D6D6"/>
<rect x="593.6144" y="506.3030" height="0.4801" width="0.4801" fill="#CECECE"/>
<rect x="594.0869" y="506.3030" height="0.4801" width="0.4801" fill="#BDBDBD"/>
<rect x="594.5593" y="506.3030" height="0.4801" width="0.4801" fill="#A5A5A5"/>
<rect x="595.0318" y="506.3030" height="0.4801" width="0.4801" fill="#848484"/>
<rect x="595.5042" y="506.3030" height="0.4801" width="0.4801" fill="#8C8C8C"/>
<rect x="595.9766" y="506.3030" height="0.4801" width="0.4801" fill="#ADADAD"/>
<rect x="596.4491" y="506.3030" height="0.4801" width="0.4801" fill="#BDBDBD"/>
<rect x="596.9215" y="506.3030" height="0.4801" width="0.4801" fill="#C6C6C6"/>
<rect x="597.3940" y="506.3030" height="0.4801" width="0.4801" fill="#F7F7F7"/>
<rect x="591.7247" y="506.7602" height="0.4801" width="0.4801" fill="#F7F7F7"/>
<rect x="592.1971" y="506.7602" height="0.4801" width="0.4801" fill="#EFEFEF"/>
<rect x="592.6695" y="506.7602" height="0.4801" width="0.4801" fill="#E7E7E7"/>
<rect x="593.1420" y="506.7602" height="0.4801" width="0.4801" fill="#D6D6D6"/>
<rect x="593.6144" y="506.7602" height="0.4801" width="0.4801" fill="#D6D6D6"/>
<rect x="594.0869" y="506.7602" height="0.4801" width="0.4801" fill="#CECECE"/>
<rect x="594.5593" y="506.7602" height="0.4801" width="0.4801" fill="#C6C6C6"/>
<rect x="595.0318" y="506.7602" height="0.4801" width="0.4801" fill="#949494"/>
<rect x="595.5042" y="506.7602" height="0.4801" width="0.4801" fill="#737373"/>
<rect x="595.9766" y="506.7602" height="0.4801" width="0.4801" fill="#9C9C9C"/>
<rect x="596.4491" y="506.7602" height="0.4801" width="0.4801" fill="#B5B5B5"/>
<rect x="596.9215" y="506.7602" height="0.4801" width="0.4801" fill="#C6C6C6"/>
<rect x="594.5593" y="507.2174" height="0.4801" width="0.4801" fill="#F7F7F7"/>
<rect x="595.0318" y="507.2174" height="0.4801" width="0.4801" fill="#9C9C9C"/>
<rect x="595.5042" y="507.2174" height="0.4801" width="0.4801" fill="#7B7B7B"/>
<rect x="595.9766" y="507.2174" height="0.4801" width="0.4801" fill="#949494"/>
<rect x="596.4491" y="507.2174" height="0.4801" width="0.4801" fill="#ADADAD"/>
<rect x="596.9215" y="507.2174" height="0.4801" width="0.4801" fill="#C6C6C6"/>
<rect x="597.3940" y="507.2174" height="0.4801" width="0.4801" fill="#F7F7F7"/>
<rect x="594.5593" y="507.6746" height="0.4801" width="0.4801" fill="#F7F7F7"/>
<rect x="595.0318" y="507.6746" height="0.4801" width="0.4801" fill="#A5A5A5"/>
<rect x="595.5042" y="507.6746" height="0.4801" width="0.4801" fill="#848484"/>
<rect x="595.9766" y="507.6746" height="0.4801" width="0.4801" fill="#848484"/>
<rect x="596.4491" y="507.6746" height="0.4801" width="0.4801" fill="#A5A5A5"/>
<rect x="596.9215" y="507.6746" height="0.4801" width="0.4801" fill="#B5B5B5"/>
<rect x="597.3940" y="507.6746" height="0.4801" width="0.4801" fill="#F7F7F7"/>
<rect x="594.5593" y="508.1318" height="0.4801" width="0.4801" fill="#EFEFEF"/>
<rect x="595.0318" y="508.1318" height="0.4801" width="0.4801" fill="#9C9C9C"/>
<rect x="595.5042" y="508.1318" height="0.4801" width="0.4801" fill="#848484"/>
<rect x="595.9766" y="508.1318" height="0.4801" width="0.4801" fill="#7B7B7B"/>
<rect x="596.4491" y="508.1318" height="0.4801" width="0.4801" fill="#9C9C9C"/>
<rect x="596.9215" y="508.1318" height="0.4801" width="0.4801" fill="#ADADAD"/>
<rect x="597.3940" y="508.1318" height="0.4801" width="0.4801" fill="#F7F7F7"/>
<rect x="594.5593" y="508.5890" height="0.4801" width="0.4801" fill="#EFEFEF"/>
<rect x="595.0318" y="508.5890" height="0.4801" width="0.4801" fill="#A5A5A5"/>
<rect x="595.5042" y="508.5890" height="0.4801" width="0.4801" fill="#848484"/>
<rect x="595.9766" y="508.5890" height="0.4801" width="0.4801" fill="#7B7B7B"/>
<rect x="596.4491" y="508.5890" height="0.4801" width="0.4801" fill="#8C8C8C"/>
<rect x="596.9215" y="508.5890" height="0.4801" width="0.4801" fill="#ADADAD"/>
<rect x="597.3940" y="508.5890" height="0.4801" width="0.4801" fill="#F7F7F7"/>
<rect x="594.5593" y="509.0462" height="0.4801" width="0.4801" fill="#EFEFEF"/>
<rect x="595.0318" y="509.0462" height="0.4801" width="0.4801" fill="#9C9C9C"/>
<rect x="595.5042" y="509.0462" height="0.4801" width="0.4801" fill="#8C8C8C"/>
<rect x="595.9766" y="509.0462" height="0.4801" width="0.4801" fill="#848484"/>
<rect x="596.4491" y="509.0462" height="0.4801" width="0.4801" fill="#8C8C8C"/>
<rect x="596.9215" y="509.0462" height="0.4801" width="0.4801" fill="#9C9C9C"/>
<rect x="597.3940" y="509.0462" height="0.4801" width="0.4801" fill="#F7F7F7"/>
<rect x="594.5593" y="509.5034" height="0.4801" width="0.4801" fill="#E7E7E7"/>
<rect x="595.0318" y="509.5034" height="0.4801" width="0.4801" fill="#A5A5A5"/>
<rect x="595.5042" y="509.5034" height="0.4801" width="0.4801" fill="#949494"/>
<rect x="595.9766" y="509.5034" height="0.4801" width="0.4801" fill="#8C8C8C"/>
<rect x="596.4491" y="509.5034" height="0.4801" width="0.4801" fill="#8C8C8C"/>
<rect x="596.9215" y="509.5034" height="0.4801" width="0.4801" fill="#A5A5A5"/>
<rect x="597.3940" y="509.5034" height="0.4801" width="0.4801" fill="#F7F7F7"/>
M   595.2756   502.8740
<path stroke-width="0.5669" stroke="#000000" fill="none" d="
M   595.2756   509.9606
L   594.9803   509.9606
L   595.1280   507.0079
L   591.4370   507.5984
L   592.0276   506.4173
L   588.7795   503.4646
L   589.9606   502.2835
L   589.3701   500.5118
L   590.8465   500.8071
L   591.4370   499.3307
L   593.5039   501.6929
L   592.9134   497.5591
L   594.0945   498.1496
L   595.2756   495.7874
L   597.4016   495.7874
L   597.4016   500.7480
L   602.3622   500.7480
L   602.3622   505.0000
L   597.4016   505.0000
L   597.4016   509.9606
L   595.2756   509.9606
"/>
M   595.2756   502.8740
<defs>  <path id="kreis" d="M   589.0110,  509.1386 A    8.8594,    8.8594 0 1 1   601.5402,  509.1386"/> </defs>
<text font-size="3.5433"  font-family="Arial" stroke="none">
<textPath xlink:href="#kreis" >T h e r i a k  -  D o m i n o</textPath> </text>
M   595.2756   502.8740
<path stroke-width="0.4252" stroke="#000000" fill="none" d="
M   136.0630    82.6378
L   135.9154    82.6378
L   135.9892    81.1614
L   134.1437    81.4567
L   134.4390    80.8661
L   132.8150    79.3898
L   133.4055    78.7992
L   133.1102    77.9134
L   133.8484    78.0610
L   134.1437    77.3228
L   135.1772    78.5039
L   134.8819    76.4370
L   135.4724    76.7323
L   136.0630    75.5512
L   137.1260    75.5512
L   137.1260    78.0315
L   139.6063    78.0315
L   139.6063    80.1575
L   137.1260    80.1575
L   137.1260    82.6378
L   136.0630    82.6378
"/>
M   136.0630    79.0945
<path stroke-width="0.4252" stroke="#000000" fill="none" d="
M   141.7323   509.9606
L   141.7323   521.2992
"/>
M   130.6436   536.1811
<text x="130.6436" y="536.1811" transform="rotate(-0.0000,130.6436,536.1811)"  font-family="'Arial'" font-size="13.6070" style="fill: #000000; stroke: none">800</text>
<path stroke-width="0.4252" stroke="#000000" fill="none" d="
M   159.4488   509.9606
L   159.4488   515.6299
M   177.1654   509.9606
L   177.1654   515.6299
M   194.8819   509.9606
L   194.8819   515.6299
M   212.5984   509.9606
L   212.5984   515.6299
M   230.3150   509.9606
L   230.3150   521.2992
"/>
M   215.8701   536.1811
<text x="215.8701" y="536.1811" transform="rotate(-0.0000,215.8701,536.1811)"  font-family="'Arial'" font-size="13.6070" style="fill: #000000; stroke: none">1050</text>
<path stroke-width="0.4252" stroke="#000000" fill="none" d="
M   248.0315   509.9606
L   248.0315   515.6299
M   265.7480   509.9606
L   265.7480   515.6299
M   283.4646   509.9606
L   283.4646   515.6299
M   301.1811   509.9606
L   301.1811   515.6299
M   318.8976   509.9606
L   318.8976   521.2992
"/>
M   304.4528   536.1811
<text x="304.4528" y="536.1811" transform="rotate(-0.0000,304.4528,536.1811)"  font-family="'Arial'" font-size="13.6070" style="fill: #000000; stroke: none">1300</text>
<path stroke-width="0.4252" stroke="#000000" fill="none" d="
M   336.6142   509.9606
L   336.6142   515.6299
M   354.3307   509.9606
L   354.3307   515.6299
M   372.0472   509.9606
L   372.0472   515.6299
M   389.7638   509.9606
L   389.7638   515.6299
M   407.4803   509.9606
L   407.4803   521.2992
"/>
M   393.0355   536.1811
<text x="393.0355" y="536.1811" transform="rotate(-0.0000,393.0355,536.1811)"  font-family="'Arial'" font-size="13.6070" style="fill: #000000; stroke: none">1550</text>
<path stroke-width="0.4252" stroke="#000000" fill="none" d="
M   425.1969   509.9606
L   425.1969   515.6299
M   442.9134   509.9606
L   442.9134   515.6299
M   460.6299   509.9606
L   460.6299   515.6299
M   478.3465   509.9606
L   478.3465   515.6299
M   496.0630   509.9606
L   496.0630   521.2992
"/>
M   481.6181   536.1811
<text x="481.6181" y="536.1811" transform="rotate(-0.0000,481.6181,536.1811)"  font-family="'Arial'" font-size="13.6070" style="fill: #000000; stroke: none">1800</text>
<path stroke-width="0.4252" stroke="#000000" fill="none" d="
M   513.7795   509.9606
L   513.7795   515.6299
M   531.4961   509.9606
L   531.4961   515.6299
M   549.2126   509.9606
L   549.2126   515.6299
M   566.9291   509.9606
L   566.9291   515.6299
M   566.9291   509.9606
L   141.7323   509.9606
"/>
M   283.2351   557.4409
<text x="283.2351" y="557.4409" transform="rotate(-0.0000,283.2351,557.4409)"  font-family="'Arial'" font-size="19.4386" style="fill: #000000; stroke: none">Temperature [C]</text>
<path stroke-width="0.4252" stroke="#000000" fill="none" d="
M   141.7323    84.7638
L   141.7323    73.4252
M   159.4488    84.7638
L   159.4488    79.0945
M   177.1654    84.7638
L   177.1654    79.0945
M   194.8819    84.7638
L   194.8819    79.0945
M   212.5984    84.7638
L   212.5984    79.0945
M   230.3150    84.7638
L   230.3150    73.4252
M   248.0315    84.7638
L   248.0315    79.0945
M   265.7480    84.7638
L   265.7480    79.0945
M   283.4646    84.7638
L   283.4646    79.0945
M   301.1811    84.7638
L   301.1811    79.0945
M   318.8976    84.7638
L   318.8976    73.4252
M   336.6142    84.7638
L   336.6142    79.0945
M   354.3307    84.7638
L   354.3307    79.0945
M   372.0472    84.7638
L   372.0472    79.0945
M   389.7638    84.7638
L   389.7638    79.0945
M   407.4803    84.7638
L   407.4803    73.4252
M   425.1969    84.7638
L   425.1969    79.0945
M   442.9134    84.7638
L   442.9134    79.0945
M   460.6299    84.7638
L   460.6299    79.0945
M   478.3465    84.7638
L   478.3465    79.0945
M   496.0630    84.7638
L   496.0630    73.4252
M   513.7795    84.7638
L   513.7795    79.0945
M   531.4961    84.7638
L   531.4961    79.0945
M   549.2126    84.7638
L   549.2126    79.0945
M   566.9291    84.7638
L   566.9291    79.0945
M   566.9291    84.7638
L   141.7323    84.7638
"/>
<path stroke-width="0.4252" stroke="#000000" fill="none" d="
M   141.7323   509.9606
L   130.3937   509.9606
"/>
M   119.2398   514.9213
<text x="119.2398" y="514.9213" transform="rotate(-0.0000,119.2398,514.9213)"  font-family="'Arial'" font-size="13.6070" style="fill: #000000; stroke: none">1</text>
<path stroke-width="0.4252" stroke="#000000" fill="none" d="
M   141.7323   456.8110
L   136.0630   456.8110
M   141.7323   403.6614
L   130.3937   403.6614
"/>
M    88.9779   408.6220
<text x="88.9779" y="408.6220" transform="rotate(-0.0000,88.9779,408.6220)"  font-family="'Arial'" font-size="13.6070" style="fill: #000000; stroke: none">10001</text>
<path stroke-width="0.4252" stroke="#000000" fill="none" d="
M   141.7323   350.5118
L   136.0630   350.5118
M   141.7323   297.3622
L   130.3937   297.3622
"/>
M    88.0644   302.3228
<text x="88.0644" y="302.3228" transform="rotate(-0.0000,88.0644,302.3228)"  font-family="'Arial'" font-size="13.6070" style="fill: #000000; stroke: none">20001</text>
<path stroke-width="0.4252" stroke="#000000" fill="none" d="
M   141.7323   244.2126
L   136.0630   244.2126
M   141.7323   191.0630
L   130.3937   191.0630
"/>
M    88.0448   196.0236
<text x="88.0448" y="196.0236" transform="rotate(-0.0000,88.0448,196.0236)"  font-family="'Arial'" font-size="13.6070" style="fill: #000000; stroke: none">30001</text>
<path stroke-width="0.4252" stroke="#000000" fill="none" d="
M   141.7323   137.9134
L   136.0630   137.9134
M   141.7323    84.7638
L   130.3937    84.7638
"/>
M    87.9893    89.7244
<text x="87.9893" y="89.7244" transform="rotate(-0.0000,87.9893,89.7244)"  font-family="'Arial'" font-size="13.6070" style="fill: #000000; stroke: none">40001</text>
<path stroke-width="0.4252" stroke="#000000" fill="none" d="
M   141.7323    84.7638
L   141.7323   509.9606
"/>
M    74.0327   359.1193
<text x="74.0327" y="359.1193" transform="rotate(-90.0000,74.0327,359.1193)"  font-family="'Arial'" font-size="19.4386" style="fill: #000000; stroke: none">Pressure [Bar]</text>
<path stroke-width="0.4252" stroke="#000000" fill="none" d="
M   566.9291   509.9606
L   578.2677   509.9606
M   566.9291   456.8110
L   572.5984   456.8110
M   566.9291   403.6614
L   578.2677   403.6614
M   566.9291   350.5118
L   572.5984   350.5118
M   566.9291   297.3622
L   578.2677   297.3622
M   566.9291   244.2126
L   572.5984   244.2126
M   566.9291   191.0630
L   578.2677   191.0630
M   566.9291   137.9134
L   572.5984   137.9134
M   566.9291    84.7638
L   578.2677    84.7638
M   566.9291    84.7638
L   566.9291   509.9606
"/>
<path stroke-width="0.4252" stroke="#000000" fill="none" d="
"/>
M   141.7323    62.0866
<text x="141.7323" y="62.0866" transform="rotate(-0.0000,141.7323,62.0866)"  font-family="'Arial'" font-size="7.7754" style="fill: #000000; stroke: none">Bulk(1)= NA(0.5)CA(2.821)K(0.02)FE(5.879)MG(50.51)AL(3.548)SI(38.451)TI(0.1)CR(0.218)O(?)O(0.096)</text>
M   566.9291   566.6535
<text x="566.9291" y="566.6535" transform="rotate(-0.0000,566.9291,566.6535)"  font-family="'Arial'" font-size="7.7754" style="fill: #000000; stroke: none">15.12.2022 - 08:00:47  CPU time:    1h 26m 19.63s</text>
M   609.4488    84.7638
<text x="609.4488" y="84.7638" transform="rotate(-0.0000,609.4488,84.7638)"  font-family="'Arial'" font-size="7.7754" style="fill: #000000; stroke: none">KLB-1 H-free tc-ig50 ex</text>
M   609.4488    94.6850
<text x="609.4488" y="94.6850" transform="rotate(-0.0000,609.4488,94.6850)"  font-family="'Arial'" font-size="7.7754" style="fill: #000000; stroke: none">domino version: 2022.12.14</text>
M   609.4488   104.6063
<text x="609.4488" y="104.6063" transform="rotate(-0.0000,609.4488,104.6063)"  font-family="'Arial'" font-size="7.7754" style="fill: #000000; stroke: none">database: td-ds633-ig50-03test.txt</text>
M   609.4488   114.5276
<text x="609.4488" y="114.5276" transform="rotate(-0.0000,609.4488,114.5276)"  font-family="'Arial'" font-size="7.7754" style="fill: #000000; stroke: none">LIQH18: external+margules</text>
M   609.4488   124.4488
<text x="609.4488" y="124.4488" transform="rotate(-0.0000,609.4488,124.4488)"  font-family="'Arial'" font-size="7.7754" style="fill: #000000; stroke: none">FSP4TR: site mixing+margules</text>
M   609.4488   134.3701
<text x="609.4488" y="134.3701" transform="rotate(-0.0000,609.4488,134.3701)"  font-family="'Arial'" font-size="7.7754" style="fill: #000000; stroke: none">OL: site mixing+margules</text>
M   609.4488   144.2913
<text x="609.4488" y="144.2913" transform="rotate(-0.0000,609.4488,144.2913)"  font-family="'Arial'" font-size="7.7754" style="fill: #000000; stroke: none">GRT: site mixing+margules</text>
M   609.4488   154.2126
<text x="609.4488" y="154.2126" transform="rotate(-0.0000,609.4488,154.2126)"  font-family="'Arial'" font-size="7.7754" style="fill: #000000; stroke: none">CRD: site mixing+margules</text>
M   609.4488   164.1339
<text x="609.4488" y="164.1339" transform="rotate(-0.0000,609.4488,164.1339)"  font-family="'Arial'" font-size="7.7754" style="fill: #000000; stroke: none">OPX: site mixing+margules</text>
M   609.4488   174.0551
<text x="609.4488" y="174.0551" transform="rotate(-0.0000,609.4488,174.0551)"  font-family="'Arial'" font-size="7.7754" style="fill: #000000; stroke: none">CPX: site mixing+margules</text>
M   609.4488   183.9764
<text x="609.4488" y="183.9764" transform="rotate(-0.0000,609.4488,183.9764)"  font-family="'Arial'" font-size="7.7754" style="fill: #000000; stroke: none">SPN: site mixing+margules</text>
M   609.4488   193.8976
<text x="609.4488" y="193.8976" transform="rotate(-0.0000,609.4488,193.8976)"  font-family="'Arial'" font-size="7.7754" style="fill: #000000; stroke: none">ILM00: site mixing+margules</text>
M   609.4488   213.7402
<text x="609.4488" y="213.7402" transform="rotate(-0.0000,609.4488,213.7402)"  font-family="'Arial'" font-size="7.7754" style="fill: #000000; stroke: none">TEST=     0.1000E-008</text>
M   609.4488   223.6614
<text x="609.4488" y="223.6614" transform="rotate(-0.0000,609.4488,223.6614)"  font-family="'Arial'" font-size="7.7754" style="fill: #000000; stroke: none">LO1MAX=     350</text>
M   609.4488   233.5827
<text x="609.4488" y="233.5827" transform="rotate(-0.0000,609.4488,233.5827)"  font-family="'Arial'" font-size="7.7754" style="fill: #000000; stroke: none">GCMAX=       60</text>
M   609.4488   243.5039
<text x="609.4488" y="243.5039" transform="rotate(-0.0000,609.4488,243.5039)"  font-family="'Arial'" font-size="7.7754" style="fill: #000000; stroke: none">DELXSTAR= 0.1000E-002</text>
M   609.4488   253.4252
<text x="609.4488" y="253.4252" transform="rotate(-0.0000,609.4488,253.4252)"  font-family="'Arial'" font-size="7.7754" style="fill: #000000; stroke: none">STEPSTAR=   200</text>
M   609.4488   263.3465
<text x="609.4488" y="263.3465" transform="rotate(-0.0000,609.4488,263.3465)"  font-family="'Arial'" font-size="7.7754" style="fill: #000000; stroke: none">STEPMAX=     40</text>
M   609.4488   273.2677
<text x="609.4488" y="273.2677" transform="rotate(-0.0000,609.4488,273.2677)"  font-family="'Arial'" font-size="7.7754" style="fill: #000000; stroke: none">DELXMIN=  0.1000E-011</text>
M   609.4488   283.1890
<text x="609.4488" y="283.1890" transform="rotate(-0.0000,609.4488,283.1890)"  font-family="'Arial'" font-size="7.7754" style="fill: #000000; stroke: none">ZEROEM=   0.2220E-023</text>
M   609.4488   293.1102
<text x="609.4488" y="293.1102" transform="rotate(-0.0000,609.4488,293.1102)"  font-family="'Arial'" font-size="7.7754" style="fill: #000000; stroke: none">PMINAAA=  0.2225E-306</text>
M   609.4488   303.0315
<text x="609.4488" y="303.0315" transform="rotate(-0.0000,609.4488,303.0315)"  font-family="'Arial'" font-size="7.7754" style="fill: #000000; stroke: none">PMINXXX=  0.2442E-023</text>
M   609.4488   312.9528
<text x="609.4488" y="312.9528" transform="rotate(-0.0000,609.4488,312.9528)"  font-family="'Arial'" font-size="7.7754" style="fill: #000000; stroke: none">PMINXELSI=0.0000E+000</text>
<path stroke-width="0.4252" stroke="#000000" fill="none" d="
"/>
M   176.1575   499.3501
<text x="176.1575" y="499.3501" transform="rotate(-78.5193,176.1575,499.3501)"  font-family="'Arial'" font-size="5.5983" style="fill: #000000; stroke: none">1</text>
<path stroke-width="0.4252" stroke="#000000" fill="none" d="
M   171.9196   509.9606
L   173.9542   499.9439
M   174.8677   495.4467
L   176.2380   488.7008
L   177.8989   478.0709
L   178.6463   472.7559
L   178.9370   470.3060
"/>
<path stroke-width="0.4252" stroke="#000000" fill="none" d="
M   181.5945   470.4721
L   182.5495   472.7559
L   182.9232   473.7109
L   183.0478   474.0846
L   183.3800   474.7490
"/>
<path stroke-width="0.4252" stroke="#000000" fill="none" d="
"/>
M   183.3840   500.1994
<text x="183.3840" y="500.1994" transform="rotate(-83.5375,183.3840,500.1994)"  font-family="'Arial'" font-size="5.5983" style="fill: #000000; stroke: none">3</text>
<path stroke-width="0.4252" stroke="#000000" fill="none" d="
M   180.2242   509.9606
L   181.2411   500.9837
M   181.8009   496.0424
L   182.6326   488.7008
L   183.2969   478.0709
L   183.3800   475.4134
"/>
<path stroke-width="0.4252" stroke="#000000" fill="none" d="
"/>
M   201.0517   492.7033
<text x="201.0517" y="492.7033" transform="rotate(41.1578,201.0517,492.7033)"  font-family="'Arial'" font-size="5.5983" style="fill: #000000; stroke: none">4</text>
<path stroke-width="0.4252" stroke="#000000" fill="none" d="
M   223.3252   509.9606
L   205.3879   493.7829
M   201.6266   490.4950
L   199.5740   488.7008
L   184.2520   475.7040
L   183.9613   475.4134
L   183.5876   475.1227
"/>
<path stroke-width="0.4252" stroke="#000000" fill="none" d="
"/>
M   264.9860   493.0386
<text x="264.9860" y="493.0386" transform="rotate(-64.8843,264.9860,493.0386)"  font-family="'Arial'" font-size="5.5983" style="fill: #000000; stroke: none">5</text>
<path stroke-width="0.4252" stroke="#000000" fill="none" d="
M   253.5541   509.9606
L   258.6614   501.4484
L   259.7825   499.3307
L   262.7049   493.0964
M   264.7653   488.7008
M   264.8004   488.6079
L   269.2913   476.7006
L   270.5786   472.7559
L   271.3260   470.0984
L   271.9488   467.8977
"/>
<path stroke-width="0.4252" stroke="#000000" fill="none" d="
M   277.4714   509.9606
L   279.1323   507.3031
L   279.9213   506.0159
L   280.7102   504.6457
L   282.2050   501.9882
L   282.5787   501.3653
L   282.9524   500.6594
L   283.2431   500.1196
L   283.2846   499.9951
"/>
<path stroke-width="0.4252" stroke="#000000" fill="none" d="
M   284.6964   509.9606
L   285.2362   508.0090
L   286.1913   504.6457
L   287.6861   499.3307
L   287.8937   498.5418
L   288.3505   496.6732
L   288.6826   495.3445
"/>
<path stroke-width="0.4252" stroke="#000000" fill="none" d="
"/>
M   348.2687   467.2524
<text x="348.2687" y="467.2524" transform="rotate(-44.7204,348.2687,467.2524)"  font-family="'Arial'" font-size="4.6653" style="fill: #000000; stroke: none">LIQH18</text>
M   360.5308   455.1091
<text x="360.5308" y="455.1091" transform="rotate(-44.7204,360.5308,455.1091)"  font-family="'Arial'" font-size="4.6653" style="fill: #000000; stroke: none">OL</text>
M   365.9292   449.7630
<text x="365.9292" y="449.7630" transform="rotate(-44.7204,365.9292,449.7630)"  font-family="'Arial'" font-size="4.6653" style="fill: #000000; stroke: none">OPX</text>
M   373.7177   441.8272
<text x="373.7177" y="441.8272" transform="rotate(-49.2471,373.7177,441.8272)"  font-family="'Arial'" font-size="4.6653" style="fill: #000000; stroke: none">SPN</text>
<path stroke-width="0.4252" stroke="#000000" fill="none" d="
"/>
M   356.6295   467.5898
<text x="356.6295" y="467.5898" transform="rotate(-44.7204,356.6295,467.5898)"  font-family="'Arial'" font-size="4.6653" style="fill: #000000; stroke: none">LIQH18</text>
M   368.8915   455.4465
<text x="368.8915" y="455.4465" transform="rotate(-44.7204,368.8915,455.4465)"  font-family="'Arial'" font-size="4.6653" style="fill: #000000; stroke: none">OL</text>
M   374.4584   449.9739
<text x="374.4584" y="449.9739" transform="rotate(-47.2231,374.4584,449.9739)"  font-family="'Arial'" font-size="4.6653" style="fill: #000000; stroke: none">SPN</text>
<path stroke-width="0.4252" stroke="#000000" fill="none" d="
M   291.2571   509.9606
L   311.8110   496.9639
L   323.4790   488.7008
L   333.0709   481.3512
L   349.6386   467.4409
L   354.3307   463.1641
L   371.4798   446.1811
L   375.5906   441.7381
L   390.0821   424.9213
L   396.8504   416.4090
L   406.1931   403.6614
L   418.1102   385.6819
L   420.1449   382.4016
L   432.5188   361.1417
L   434.0551   358.1936
L   435.3423   355.8268
L   435.3839   355.7022
L   436.0067   354.4980
L   436.0482   354.4565
"/>
<path stroke-width="0.4252" stroke="#000000" fill="none" d="
"/>
M   406.9585   461.9855
<text x="406.9585" y="461.9855" transform="rotate(-74.4992,406.9585,461.9855)"  font-family="'Arial'" font-size="4.6653" style="fill: #000000; stroke: none">LIQH18</text>
M   411.5706   445.3559
<text x="411.5706" y="445.3559" transform="rotate(-74.4992,411.5706,445.3559)"  font-family="'Arial'" font-size="4.6653" style="fill: #000000; stroke: none">OL</text>
M   413.6012   438.0346
<text x="413.6012" y="438.0346" transform="rotate(-74.4992,413.6012,438.0346)"  font-family="'Arial'" font-size="4.6653" style="fill: #000000; stroke: none">SPN</text>
<path stroke-width="0.4252" stroke="#000000" fill="none" d="
"/>
M   414.3480   458.2519
<text x="414.3480" y="458.2519" transform="rotate(-74.4992,414.3480,458.2519)"  font-family="'Arial'" font-size="4.6653" style="fill: #000000; stroke: none">LIQH18</text>
M   418.9601   441.6223
<text x="418.9601" y="441.6223" transform="rotate(-74.4992,418.9601,441.6223)"  font-family="'Arial'" font-size="4.6653" style="fill: #000000; stroke: none">OL</text>
<path stroke-width="0.4252" stroke="#000000" fill="none" d="
M   393.8192   509.9606
L   396.8504   500.3688
L   406.8575   467.4409
L   418.6500   424.9213
L   424.2141   403.6614
L   429.5291   382.4016
L   434.6780   361.1417
L   435.9237   355.8268
L   436.2558   354.4980
"/>
<path stroke-width="0.4252" stroke="#000000" fill="none" d="
"/>
M   523.9288   327.9663
<text x="523.9288" y="327.9663" transform="rotate(-83.8339,523.9288,327.9663)"  font-family="'Arial'" font-size="4.6653" style="fill: #000000; stroke: none">LIQH18</text>
M   525.7822   310.8088
<text x="525.7822" y="310.8088" transform="rotate(-83.8339,525.7822,310.8088)"  font-family="'Arial'" font-size="4.6653" style="fill: #000000; stroke: none">OL</text>
<path stroke-width="0.4252" stroke="#000000" fill="none" d="
"/>
M   530.4339   324.7579
<text x="530.4339" y="324.7579" transform="rotate(-83.8339,530.4339,324.7579)"  font-family="'Arial'" font-size="4.6653" style="fill: #000000; stroke: none">LIQH18</text>
<path stroke-width="0.4252" stroke="#000000" fill="none" d="
M   498.0423   509.9606
L   505.9317   467.4409
L   512.7414   424.9213
L   518.7208   382.4016
L   523.9527   339.8819
L   524.4094   336.1863
L   528.6033   297.3622
L   532.7556   254.8425
L   536.4096   212.3228
L   539.6484   169.8031
L   542.5551   127.2835
L   545.1295    84.7638
"/>
<path stroke-width="0.4252" stroke="#000000" fill="none" d="
M   183.4630   474.7490
L   183.5876   474.4584
L   183.7122   474.0846
L   184.0444   472.7559
L   184.2520   472.1331
L   185.3731   467.4409
L   186.8679   456.8110
L   187.0340   451.4961
L   186.7849   446.1811
L   186.5357   443.5236
L   186.1205   440.8661
L   185.8714   439.5374
"/>
<path stroke-width="0.4252" stroke="#000000" fill="none" d="
"/>
M   165.6382   434.4923
<text x="165.6382" y="434.4923" transform="rotate(7.1250,165.6382,434.4923)"  font-family="'Arial'" font-size="5.5983" style="fill: #000000; stroke: none">12</text>
<path stroke-width="0.4252" stroke="#000000" fill="none" d="
M   186.2451   436.6723
L   185.5807   436.4232
L   184.2520   435.9249
L   182.8817   435.5512
L   172.5209   433.2959
M   164.8787   432.3406
L   162.9921   432.1048
L   141.7323   431.1913
"/>
<path stroke-width="0.4252" stroke="#000000" fill="none" d="
"/>
M   244.4352   458.3945
<text x="244.4352" y="458.3945" transform="rotate(21.1939,244.4352,458.3945)"  font-family="'Arial'" font-size="5.5983" style="fill: #000000; stroke: none">13</text>
<path stroke-width="0.4252" stroke="#000000" fill="none" d="
M   271.9488   467.8147
L   271.0768   467.4409
L   269.2913   466.6520
L   251.3579   459.0163
M   248.0315   457.6000
M   245.9969   456.8110
M   244.2237   456.1172
L   237.4016   453.4477
L   232.2942   451.4961
L   232.0866   451.4545
L   229.4291   450.4580
L   228.7232   450.1673
L   228.1004   449.9597
L   227.4360   449.7106
L   226.8962   449.5030
"/>
<path stroke-width="0.4252" stroke="#000000" fill="none" d="
"/>
M   250.7496   420.7884
<text x="250.7496" y="420.7884" transform="rotate(-14.8758,250.7496,420.7884)"  font-family="'Arial'" font-size="5.5983" style="fill: #000000; stroke: none">14</text>
<path stroke-width="0.4252" stroke="#000000" fill="none" d="
M   227.4360   425.1289
L   228.1004   424.9628
L   228.2250   424.9213
L   249.2393   419.0779
M   256.6829   417.1007
L   269.2913   413.7515
L   274.6063   412.3398
L   277.2638   411.6754
L   277.3053   411.6339
L   278.5925   411.3432
"/>
<path stroke-width="0.4252" stroke="#000000" fill="none" d="
"/>
M   279.7555   441.7912
<text x="279.7555" y="441.7912" transform="rotate(-83.7581,279.7555,441.7912)"  font-family="'Arial'" font-size="5.5983" style="fill: #000000; stroke: none">15</text>
<path stroke-width="0.4252" stroke="#000000" fill="none" d="
M   272.0734   467.4409
L   274.9800   456.8110
L   277.2223   446.1811
L   277.6157   442.5837
M   278.4531   434.9277
L   279.5476   424.9213
L   279.4645   414.2913
L   279.2984   411.6339
L   279.2569   411.2602
"/>
<path stroke-width="0.4252" stroke="#000000" fill="none" d="
"/>
M   300.7525   442.1386
<text x="300.7525" y="442.1386" transform="rotate(-89.1034,300.7525,442.1386)"  font-family="'Arial'" font-size="5.5983" style="fill: #000000; stroke: none">16</text>
<path stroke-width="0.4252" stroke="#000000" fill="none" d="
M   291.8799   481.4342
L   292.0875   480.7283
L   292.8350   478.0709
L   295.4924   467.4409
L   297.4855   456.8110
L   298.6482   446.1811
L   298.6959   443.1270
M   298.8143   435.5512
M   298.8007   435.4270
L   297.6516   424.9213
L   294.5789   414.2913
L   294.5374   414.0837
L   294.0806   412.9626
"/>
<path stroke-width="0.4252" stroke="#000000" fill="none" d="
"/>
M   339.5251   380.0812
<text x="339.5251" y="380.0812" transform="rotate(-68.9008,339.5251,380.0812)"  font-family="'Arial'" font-size="4.6653" style="fill: #000000; stroke: none">LIQH18</text>
M   345.7372   363.9807
<text x="345.7372" y="363.9807" transform="rotate(-68.9008,345.7372,363.9807)"  font-family="'Arial'" font-size="4.6653" style="fill: #000000; stroke: none">OL</text>
M   348.4720   356.8923
<text x="348.4720" y="356.8923" transform="rotate(-68.9008,348.4720,356.8923)"  font-family="'Arial'" font-size="4.6653" style="fill: #000000; stroke: none">OPX</text>
M   352.5324   346.4540
<text x="352.5324" y="346.4540" transform="rotate(-70.0499,352.5324,346.4540)"  font-family="'Arial'" font-size="4.6653" style="fill: #000000; stroke: none">CPX</text>
<path stroke-width="0.4252" stroke="#000000" fill="none" d="
"/>
M   347.2435   377.0861
<text x="347.2435" y="377.0861" transform="rotate(-68.9008,347.2435,377.0861)"  font-family="'Arial'" font-size="4.6653" style="fill: #000000; stroke: none">LIQH18</text>
M   353.4555   360.9856
<text x="353.4555" y="360.9856" transform="rotate(-68.9008,353.4555,360.9856)"  font-family="'Arial'" font-size="4.6653" style="fill: #000000; stroke: none">OL</text>
M   356.1904   353.8972
<text x="356.1904" y="353.8972" transform="rotate(-68.9008,356.1904,353.8972)"  font-family="'Arial'" font-size="4.6653" style="fill: #000000; stroke: none">OPX</text>
<path stroke-width="0.4252" stroke="#000000" fill="none" d="
M   291.8799   481.7664
L   292.5028   480.7283
L   293.2087   479.5242
L   294.0806   478.0709
L   300.2261   467.4409
L   301.1811   465.7385
L   306.0393   456.8110
L   311.6034   446.1811
L   311.8110   445.7243
L   321.8181   424.9213
L   340.0883   382.4016
L   354.3307   345.4875
L   356.3653   339.8819
L   371.3137   297.3622
L   374.8847   286.7323
L   375.5906   284.5316
L   378.3726   276.1024
L   385.2654   254.8425
L   396.8504   218.1776
L   398.6359   212.3228
L   401.9577   201.6929
"/>
<path stroke-width="0.4252" stroke="#000000" fill="none" d="
"/>
M   345.4098   445.2929
<text x="345.4098" y="445.2929" transform="rotate(-42.3686,345.4098,445.2929)"  font-family="'Arial'" font-size="4.6653" style="fill: #000000; stroke: none">LIQH18</text>
M   357.9591   433.5247
<text x="357.9591" y="433.5247" transform="rotate(-44.4966,357.9591,433.5247)"  font-family="'Arial'" font-size="4.6653" style="fill: #000000; stroke: none">OL</text>
M   363.3784   428.1997
<text x="363.3784" y="428.1997" transform="rotate(-44.4966,363.3784,428.1997)"  font-family="'Arial'" font-size="4.6653" style="fill: #000000; stroke: none">OPX</text>
<path stroke-width="0.4252" stroke="#000000" fill="none" d="
"/>
M   345.4187   453.5720
<text x="345.4187" y="453.5720" transform="rotate(-42.3686,345.4187,453.5720)"  font-family="'Arial'" font-size="4.6653" style="fill: #000000; stroke: none">LIQH18</text>
M   358.2756   441.7978
<text x="358.2756" y="441.7978" transform="rotate(-44.4966,358.2756,441.7978)"  font-family="'Arial'" font-size="4.6653" style="fill: #000000; stroke: none">OL</text>
M   363.6949   436.4727
<text x="363.6949" y="436.4727" transform="rotate(-44.4966,363.6949,436.4727)"  font-family="'Arial'" font-size="4.6653" style="fill: #000000; stroke: none">OPX</text>
M   371.8085   428.5140
<text x="371.8085" y="428.5140" transform="rotate(-46.1581,371.8085,428.5140)"  font-family="'Arial'" font-size="4.6653" style="fill: #000000; stroke: none">SPN</text>
<path stroke-width="0.4252" stroke="#000000" fill="none" d="
M   289.0979   494.6801
L   289.2224   494.6386
L   290.0114   494.0157
L   290.5512   493.6420
L   296.9873   488.7008
L   301.1811   485.4205
L   310.4408   478.0709
L   311.8110   476.9497
L   323.1468   467.4409
L   354.3307   438.9976
L   368.6562   424.9213
L   396.8504   395.5644
L   409.0997   382.4016
L   418.1102   372.7267
L   429.1139   361.1417
L   434.0551   356.2005
L   434.3458   355.8268
L   435.3839   354.7887
L   435.7576   354.4980
L   436.0482   354.0413
L   436.3389   353.8337
"/>
<path stroke-width="0.4252" stroke="#000000" fill="none" d="
"/>
M   198.7541   413.0426
<text x="198.7541" y="413.0426" transform="rotate(-11.5895,198.7541,413.0426)"  font-family="'Arial'" font-size="4.6653" style="fill: #000000; stroke: none">OL</text>
M   206.1969   411.5162
<text x="206.1969" y="411.5162" transform="rotate(-11.5895,206.1969,411.5162)"  font-family="'Arial'" font-size="4.6653" style="fill: #000000; stroke: none">OPX</text>
M   217.1952   409.2607
<text x="217.1952" y="409.2607" transform="rotate(-11.5895,217.1952,409.2607)"  font-family="'Arial'" font-size="4.6653" style="fill: #000000; stroke: none">CPX</text>
M   227.9418   407.0985
<text x="227.9418" y="407.0985" transform="rotate(-9.9696,227.9418,407.0985)"  font-family="'Arial'" font-size="4.6653" style="fill: #000000; stroke: none">SPN</text>
<path stroke-width="0.4252" stroke="#000000" fill="none" d="
"/>
M   190.5808   420.9690
<text x="190.5808" y="420.9690" transform="rotate(-11.5895,190.5808,420.9690)"  font-family="'Arial'" font-size="4.6653" style="fill: #000000; stroke: none">FSP4TR</text>
M   209.2119   417.1482
<text x="209.2119" y="417.1482" transform="rotate(-11.5895,209.2119,417.1482)"  font-family="'Arial'" font-size="4.6653" style="fill: #000000; stroke: none">OL</text>
M   216.6546   415.6218
<text x="216.6546" y="415.6218" transform="rotate(-11.5895,216.6546,415.6218)"  font-family="'Arial'" font-size="4.6653" style="fill: #000000; stroke: none">OPX</text>
M   227.5203   413.3893
<text x="227.5203" y="413.3893" transform="rotate(-9.9696,227.5203,413.3893)"  font-family="'Arial'" font-size="4.6653" style="fill: #000000; stroke: none">CPX</text>
M   238.2793   411.4981
<text x="238.2793" y="411.4981" transform="rotate(-9.9696,238.2793,411.4981)"  font-family="'Arial'" font-size="4.6653" style="fill: #000000; stroke: none">SPN</text>
<path stroke-width="0.4252" stroke="#000000" fill="none" d="
M   141.7323   427.4542
L   152.1546   424.9213
L   184.2520   417.4056
L   226.7717   408.6857
L   248.0315   404.9486
L   255.8794   403.6614
L   269.2913   401.6268
L   274.6063   400.8794
L   275.2707   400.7963
"/>
<path stroke-width="0.4252" stroke="#000000" fill="none" d="
"/>
M   290.3793   379.5061
<text x="290.3793" y="379.5061" transform="rotate(-54.9730,290.3793,379.5061)"  font-family="'Arial'" font-size="4.6653" style="fill: #000000; stroke: none">OL</text>
M   294.7402   373.2846
<text x="294.7402" y="373.2846" transform="rotate(-54.9730,294.7402,373.2846)"  font-family="'Arial'" font-size="4.6653" style="fill: #000000; stroke: none">OPX</text>
M   301.1844   364.0909
<text x="301.1844" y="364.0909" transform="rotate(-54.9730,301.1844,364.0909)"  font-family="'Arial'" font-size="4.6653" style="fill: #000000; stroke: none">CPX</text>
M   307.4544   355.1456
<text x="307.4544" y="355.1456" transform="rotate(-54.9730,307.4544,355.1456)"  font-family="'Arial'" font-size="4.6653" style="fill: #000000; stroke: none">SPN</text>
<path stroke-width="0.4252" stroke="#000000" fill="none" d="
"/>
M   290.3890   390.1597
<text x="290.3890" y="390.1597" transform="rotate(-54.9730,290.3890,390.1597)"  font-family="'Arial'" font-size="4.6653" style="fill: #000000; stroke: none">LIQH18</text>
M   300.2943   376.0281
<text x="300.2943" y="376.0281" transform="rotate(-54.9730,300.2943,376.0281)"  font-family="'Arial'" font-size="4.6653" style="fill: #000000; stroke: none">OL</text>
M   304.6552   369.8066
<text x="304.6552" y="369.8066" transform="rotate(-54.9730,304.6552,369.8066)"  font-family="'Arial'" font-size="4.6653" style="fill: #000000; stroke: none">OPX</text>
M   311.0994   360.6129
<text x="311.0994" y="360.6129" transform="rotate(-54.9730,311.0994,360.6129)"  font-family="'Arial'" font-size="4.6653" style="fill: #000000; stroke: none">CPX</text>
M   317.3788   351.4766
<text x="317.3788" y="351.4766" transform="rotate(-56.9393,317.3788,351.4766)"  font-family="'Arial'" font-size="4.6653" style="fill: #000000; stroke: none">SPN</text>
<path stroke-width="0.4252" stroke="#000000" fill="none" d="
M   275.9350   400.6302
L   276.7240   399.6752
L   277.2638   398.9693
L   277.8036   398.3465
L   279.9213   395.6475
L   281.9559   393.0315
L   290.0114   382.4016
L   311.8110   351.3008
L   319.2437   339.8819
L   344.4067   297.3622
L   347.2303   292.0472
L   349.0157   288.7669
L   349.3895   288.0610
"/>
<path stroke-width="0.4252" stroke="#000000" fill="none" d="
"/>
M   301.0247   396.6473
<text x="301.0247" y="396.6473" transform="rotate(-61.8459,301.0247,396.6473)"  font-family="'Arial'" font-size="4.6653" style="fill: #000000; stroke: none">LIQH18</text>
M   309.2207   381.4999
<text x="309.2207" y="381.4999" transform="rotate(-63.3622,309.2207,381.4999)"  font-family="'Arial'" font-size="4.6653" style="fill: #000000; stroke: none">OL</text>
M   312.6271   374.7086
<text x="312.6271" y="374.7086" transform="rotate(-63.3622,312.6271,374.7086)"  font-family="'Arial'" font-size="4.6653" style="fill: #000000; stroke: none">OPX</text>
M   317.6607   364.6730
<text x="317.6607" y="364.6730" transform="rotate(-63.3622,317.6607,364.6730)"  font-family="'Arial'" font-size="4.6653" style="fill: #000000; stroke: none">CPX</text>
M   322.5583   354.9085
<text x="322.5583" y="354.9085" transform="rotate(-63.3622,322.5583,354.9085)"  font-family="'Arial'" font-size="4.6653" style="fill: #000000; stroke: none">SPN</text>
<path stroke-width="0.4252" stroke="#000000" fill="none" d="
"/>
M   309.0525   394.6230
<text x="309.0525" y="394.6230" transform="rotate(-61.8459,309.0525,394.6230)"  font-family="'Arial'" font-size="4.6653" style="fill: #000000; stroke: none">LIQH18</text>
M   317.1921   379.2638
<text x="317.1921" y="379.2638" transform="rotate(-63.3622,317.1921,379.2638)"  font-family="'Arial'" font-size="4.6653" style="fill: #000000; stroke: none">OL</text>
M   320.5985   372.4726
<text x="320.5985" y="372.4726" transform="rotate(-63.3622,320.5985,372.4726)"  font-family="'Arial'" font-size="4.6653" style="fill: #000000; stroke: none">OPX</text>
M   325.6321   362.4370
<text x="325.6321" y="362.4370" transform="rotate(-63.3622,325.6321,362.4370)"  font-family="'Arial'" font-size="4.6653" style="fill: #000000; stroke: none">CPX</text>
<path stroke-width="0.4252" stroke="#000000" fill="none" d="
M   293.9976   412.2982
L   294.3298   411.6339
L   295.8246   408.9764
L   295.8661   408.9349
L   298.8143   403.6614
L   310.1916   382.4016
L   311.8110   379.3704
L   331.6176   339.8819
L   351.2165   297.3622
L   353.5418   292.0472
L   354.3307   290.1787
L   355.7840   286.7323
L   356.9467   284.0748
L   356.9882   284.0333
"/>
<path stroke-width="0.4252" stroke="#000000" fill="none" d="
"/>
M   147.2097   335.8342
<text x="147.2097" y="335.8342" transform="rotate(37.1994,147.2097,335.8342)"  font-family="'Arial'" font-size="5.5983" style="fill: #000000; stroke: none">22</text>
<path stroke-width="0.4252" stroke="#000000" fill="none" d="
M   164.0302   341.8750
L   163.6565   341.7504
L   162.9921   341.5843
L   157.7187   339.8819
L   154.2711   338.1447
M   152.3622   337.1829
M   148.9158   334.5669
M   147.7751   333.4262
L   144.5143   329.2520
L   141.7323   322.5667
"/>
<path stroke-width="0.4252" stroke="#000000" fill="none" d="
"/>
M   161.8405   249.1379
<text x="161.8405" y="249.1379" transform="rotate(74.6200,161.8405,249.1379)"  font-family="'Arial'" font-size="4.6653" style="fill: #000000; stroke: none">OL</text>
M   163.7459   256.1198
<text x="163.7459" y="256.1198" transform="rotate(78.9490,163.7459,256.1198)"  font-family="'Arial'" font-size="4.6653" style="fill: #000000; stroke: none">GRT</text>
M   165.8121   266.8693
<text x="165.8121" y="266.8693" transform="rotate(81.9958,165.8121,266.8693)"  font-family="'Arial'" font-size="4.6653" style="fill: #000000; stroke: none">OPX</text>
M   167.1982   277.4841
<text x="167.1982" y="277.4841" transform="rotate(88.2106,167.1982,277.4841)"  font-family="'Arial'" font-size="4.6653" style="fill: #000000; stroke: none">CPX</text>
M   167.5395   288.4027
<text x="167.5395" y="288.4027" transform="rotate(88.2106,167.5395,288.4027)"  font-family="'Arial'" font-size="4.6653" style="fill: #000000; stroke: none">ru</text>
<path stroke-width="0.4252" stroke="#000000" fill="none" d="
"/>
M   168.5000   250.2625
<text x="168.5000" y="250.2625" transform="rotate(74.6200,168.5000,250.2625)"  font-family="'Arial'" font-size="4.6653" style="fill: #000000; stroke: none">OL</text>
M   170.3016   257.7437
<text x="170.3016" y="257.7437" transform="rotate(78.9490,170.3016,257.7437)"  font-family="'Arial'" font-size="4.6653" style="fill: #000000; stroke: none">GRT</text>
M   172.2723   268.8394
<text x="172.2723" y="268.8394" transform="rotate(81.9958,172.2723,268.8394)"  font-family="'Arial'" font-size="4.6653" style="fill: #000000; stroke: none">OPX</text>
M   173.4071   280.1420
<text x="173.4071" y="280.1420" transform="rotate(88.2106,173.4071,280.1420)"  font-family="'Arial'" font-size="4.6653" style="fill: #000000; stroke: none">CPX</text>
<path stroke-width="0.4252" stroke="#000000" fill="none" d="
M   164.1133   341.8750
L   164.3209   341.3352
L   164.3624   341.2106
L   164.7776   339.8819
L   167.9334   329.2520
L   170.1756   318.6220
L   171.7535   307.9921
L   172.5840   297.3622
L   171.9196   276.1024
L   170.4248   265.4724
L   168.3486   254.8425
L   162.9921   235.3682
L   162.4523   233.5827
L   154.8121   212.3228
L   141.7323   181.3881
"/>
<path stroke-width="0.4252" stroke="#000000" fill="none" d="
"/>
M   203.7224   345.8921
<text x="203.7224" y="345.8921" transform="rotate(-10.2524,203.7224,345.8921)"  font-family="'Arial'" font-size="5.5983" style="fill: #000000; stroke: none">24</text>
<path stroke-width="0.4252" stroke="#000000" fill="none" d="
M   164.3209   341.9996
L   165.6496   342.4148
L   166.1894   342.5394
L   168.3071   343.0792
L   173.6220   344.0757
L   184.2520   344.9062
L   194.8819   344.5740
L   202.3202   343.8186
M   205.5118   343.4944
M   210.3035   342.6277
L   225.4844   339.8819
L   226.7717   339.5912
L   248.0315   333.8610
L   269.2913   326.5530
L   288.8487   318.6220
L   290.5512   317.8331
L   311.8110   307.7845
L   331.2854   297.3622
L   333.0709   296.3241
L   343.7008   290.0126
L   348.9742   286.7323
L   349.0157   286.6908
L   349.6801   286.2755
L   350.0538   286.0679
"/>
<path stroke-width="0.4252" stroke="#000000" fill="none" d="
"/>
M   162.2058   367.3702
<text x="162.2058" y="367.3702" transform="rotate(-14.2466,162.2058,367.3702)"  font-family="'Arial'" font-size="4.6653" style="fill: #000000; stroke: none">OL</text>
M   169.5698   365.5005
<text x="169.5698" y="365.5005" transform="rotate(-14.2466,169.5698,365.5005)"  font-family="'Arial'" font-size="4.6653" style="fill: #000000; stroke: none">GRT</text>
M   180.4143   362.8607
<text x="180.4143" y="362.8607" transform="rotate(-15.9898,180.4143,362.8607)"  font-family="'Arial'" font-size="4.6653" style="fill: #000000; stroke: none">OPX</text>
M   191.1945   359.8048
<text x="191.1945" y="359.8048" transform="rotate(-16.9453,191.1945,359.8048)"  font-family="'Arial'" font-size="4.6653" style="fill: #000000; stroke: none">CPX</text>
M   201.6384   356.7442
<text x="201.6384" y="356.7442" transform="rotate(-18.7699,201.6384,356.7442)"  font-family="'Arial'" font-size="4.6653" style="fill: #000000; stroke: none">SPN</text>
<path stroke-width="0.4252" stroke="#000000" fill="none" d="
"/>
M   169.2382   371.9018
<text x="169.2382" y="371.9018" transform="rotate(-14.2466,169.2382,371.9018)"  font-family="'Arial'" font-size="4.6653" style="fill: #000000; stroke: none">OL</text>
M   176.6022   370.0320
<text x="176.6022" y="370.0320" transform="rotate(-14.2466,176.6022,370.0320)"  font-family="'Arial'" font-size="4.6653" style="fill: #000000; stroke: none">OPX</text>
M   187.6493   367.1948
<text x="187.6493" y="367.1948" transform="rotate(-16.3896,187.6493,367.1948)"  font-family="'Arial'" font-size="4.6653" style="fill: #000000; stroke: none">CPX</text>
M   198.1681   364.0807
<text x="198.1681" y="364.0807" transform="rotate(-16.9453,198.1681,364.0807)"  font-family="'Arial'" font-size="4.6653" style="fill: #000000; stroke: none">SPN</text>
<path stroke-width="0.4252" stroke="#000000" fill="none" d="
M   141.7323   373.2250
L   162.9921   368.5744
L   184.2520   363.1764
L   191.3524   361.1417
L   194.8819   360.1037
L   205.5118   356.8648
L   226.7717   349.6398
L   251.8931   339.8819
L   269.2913   332.3662
L   290.5512   322.2346
L   297.5686   318.6220
L   311.8110   310.9403
L   334.7733   297.3622
L   343.7008   291.5905
L   349.0157   288.0195
"/>
<path stroke-width="0.4252" stroke="#000000" fill="none" d="
"/>
M   475.7153   253.4475
<text x="475.7153" y="253.4475" transform="rotate(-72.3559,475.7153,253.4475)"  font-family="'Arial'" font-size="4.6653" style="fill: #000000; stroke: none">LIQH18</text>
M   480.9160   237.0210
<text x="480.9160" y="237.0210" transform="rotate(-73.4920,480.9160,237.0210)"  font-family="'Arial'" font-size="4.6653" style="fill: #000000; stroke: none">OL</text>
M   483.0748   229.7365
<text x="483.0748" y="229.7365" transform="rotate(-73.4920,483.0748,229.7365)"  font-family="'Arial'" font-size="4.6653" style="fill: #000000; stroke: none">OPX</text>
<path stroke-width="0.4252" stroke="#000000" fill="none" d="
"/>
M   483.2788   249.8684
<text x="483.2788" y="249.8684" transform="rotate(-72.3559,483.2788,249.8684)"  font-family="'Arial'" font-size="4.6653" style="fill: #000000; stroke: none">LIQH18</text>
M   488.4070   233.2925
<text x="488.4070" y="233.2925" transform="rotate(-73.4920,488.4070,233.2925)"  font-family="'Arial'" font-size="4.6653" style="fill: #000000; stroke: none">OL</text>
<path stroke-width="0.4252" stroke="#000000" fill="none" d="
M   436.7126   353.2108
L   436.7541   353.1693
L   438.0829   350.5118
L   439.3701   347.8128
L   443.1487   339.8819
L   452.6990   318.6220
L   460.6299   299.3968
L   461.4189   297.3622
L   476.6994   254.8425
L   481.8898   238.5239
L   489.6546   212.3228
L   500.8658   169.8031
L   510.7483   127.2835
L   519.4682    84.7638
"/>
<path stroke-width="0.4252" stroke="#000000" fill="none" d="
"/>
M   382.6633   227.6956
<text x="382.6633" y="227.6956" transform="rotate(-64.4268,382.6633,227.6956)"  font-family="'Arial'" font-size="5.5983" style="fill: #000000; stroke: none">27</text>
<path stroke-width="0.4252" stroke="#000000" fill="none" d="
M   350.3445   285.6112
L   350.4691   285.4035
L   351.2995   284.0748
L   351.6732   283.3689
L   352.7944   281.4173
L   354.3307   278.8014
L   355.8671   276.1024
L   367.4105   254.8425
L   380.3818   227.7351
M   383.8684   220.4488
L   387.7568   212.3228
L   396.8504   190.4401
L   404.7813   169.8031
L   419.3144   127.2835
L   425.7920   106.0236
L   428.7402    95.8505
L   428.8647    95.3937
L   429.6121    92.7362
L   429.7782    92.0719
"/>
<path stroke-width="0.4252" stroke="#000000" fill="none" d="
"/>
M   374.2657   262.1254
<text x="374.2657" y="262.1254" transform="rotate(-57.2354,374.2657,262.1254)"  font-family="'Arial'" font-size="5.5983" style="fill: #000000; stroke: none">28</text>
<path stroke-width="0.4252" stroke="#000000" fill="none" d="
M   357.3619   283.4104
L   357.6526   283.0367
L   357.8602   282.7461
L   358.3169   282.2063
L   358.9398   281.4173
L   359.6457   280.4623
L   362.8430   276.1024
L   371.9972   261.8789
M   375.5906   256.2958
M   376.3304   255.0628
L   396.8504   213.5270
L   397.3902   212.3228
L   401.8747   201.6929
"/>
<path stroke-width="0.4252" stroke="#000000" fill="none" d="
"/>
M   424.9356   138.6563
<text x="424.9356" y="138.6563" transform="rotate(-72.1382,424.9356,138.6563)"  font-family="'Arial'" font-size="5.5983" style="fill: #000000; stroke: none">29</text>
<path stroke-width="0.4252" stroke="#000000" fill="none" d="
M   402.3730   200.3642
L   402.7882   199.0354
L   403.7848   196.3780
L   405.5287   191.0630
L   412.7538   169.8031
L   422.6801   139.0015
M   425.1577   131.3134
L   426.4564   127.2835
L   433.0170   106.0236
L   436.1728    95.3937
L   437.7507    90.0787
L   439.3286    84.7638
"/>
<path stroke-width="0.4252" stroke="#000000" fill="none" d="
"/>
M   434.0357   140.3959
<text x="434.0357" y="140.3959" transform="rotate(-64.6116,434.0357,140.3959)"  font-family="'Arial'" font-size="5.5983" style="fill: #000000; stroke: none">30</text>
<path stroke-width="0.4252" stroke="#000000" fill="none" d="
M   402.5391   200.3642
L   403.2034   199.0354
L   404.5322   196.3780
L   407.2727   191.0630
L   417.8196   169.8031
L   431.7543   140.4427
M   435.2211   133.1381
L   437.9998   127.2835
L   439.3701   124.2523
L   456.5191    84.7638
"/>
<path stroke-width="0.4252" stroke="#000000" fill="none" d="
M   429.9443    91.4075
L   430.0274    90.7431
L   430.0689    90.4524
L   430.1104    90.0787
L   430.8578    84.7638
"/>
<path stroke-width="0.4252" stroke="#000000" fill="none" d="
M   430.0689    91.1168
L   430.3596    90.0787
L   431.7713    84.7638
"/>
<path stroke-width="0.4252" stroke="#000000" fill="none" d="
M   430.0689    91.2829
L   430.4426    90.0787
L   432.1035    84.7638
"/>
<path stroke-width="0.4252" stroke="#000000" fill="none" d="
"/>
M   155.3153   360.2671
<text x="155.3153" y="360.2671" transform="rotate(-55.1163,155.3153,360.2671)"  font-family="'Arial'" font-size="5.5983" style="fill: #000000; stroke: none">34</text>
<path stroke-width="0.4252" stroke="#000000" fill="none" d="
M   141.7323   371.2319
L   152.1546   361.1417
L   153.0574   359.9369
M   157.6818   353.3043
L   159.6288   350.5118
L   162.9921   344.2418
L   163.8641   342.5394
"/>
<path stroke-width="0.4252" stroke="#000000" fill="none" d="
"/>
M   166.7595   449.3243
<text x="166.7595" y="449.3243" transform="rotate(84.6456,166.7595,449.3243)"  font-family="'Arial'" font-size="5.5983" style="fill: #000000; stroke: none">35</text>
<path stroke-width="0.4252" stroke="#000000" fill="none" d="
M   185.3731   440.8661
L   184.2520   439.9111
L   182.0512   440.8661
L   178.9370   442.3195
L   173.6220   445.5583
L   172.7501   446.1811
L   170.4736   448.4466
M   170.1756   448.8386
M   169.0130   451.4961
M   169.2621   454.1535
M   170.2114   455.9404
L   173.6220   460.2574
L   175.6567   462.1260
L   176.2795   462.7488
L   178.6463   464.7835
L   178.9370   465.0741
L   179.9751   464.7835
L   181.2208   462.1260
L   183.1308   456.8110
L   184.2520   452.5341
L   184.4596   451.4961
L   185.2070   446.1811
L   185.3731   443.5236
L   185.3731   440.8661
"/>
<path stroke-width="0.4252" stroke="#000000" fill="none" d="
M   349.6801   287.6043
L   350.0538   287.3967
L   350.3445   287.2721
L   351.2995   286.7323
L   351.6732   286.5247
L   354.3307   285.1129
L   356.4484   284.0748
"/>
<path stroke-width="0.4252" stroke="#000000" fill="none" d="
M   350.3445   285.9433
L   351.5487   285.4035
L   351.6732   285.3620
L   354.3307   284.4485
L   355.5349   284.0748
L   355.6594   284.0333
L   356.3238   283.8672
"/>
<path stroke-width="0.4252" stroke="#000000" fill="none" d="
M   283.2431   499.9536
L   283.2016   499.9951
L   282.6203   500.6594
L   282.5787   500.7010
L   281.4576   501.9882
L   279.9213   503.6906
L   278.9662   504.6457
L   277.2638   506.4312
L   276.3918   507.3031
L   274.6063   509.0056
L   274.3156   509.2963
L   273.9419   509.6700
"/>
<path stroke-width="0.4252" stroke="#000000" fill="none" d="
"/>
M   279.3587   489.3458
<text x="279.3587" y="489.3458" transform="rotate(-81.9958,279.3587,489.3458)"  font-family="'Arial'" font-size="5.5983" style="fill: #000000; stroke: none">39</text>
<path stroke-width="0.4252" stroke="#000000" fill="none" d="
M   270.6201   509.5869
L   270.9938   508.6319
L   271.5751   507.3031
L   271.9488   506.3481
L   272.5717   504.6457
L   274.4817   499.3307
L   274.6063   499.0400
L   276.1427   494.0157
L   277.0723   490.0491
M   277.3883   488.7008
M   278.1358   483.3858
M   278.1566   482.0525
L   278.2188   478.0709
L   276.8070   472.7559
L   274.6063   469.8908
L   273.3191   468.7697
L   273.2776   468.7282
L   272.6132   468.2299
L   272.4056   468.1053
"/>
<path stroke-width="0.4252" stroke="#000000" fill="none" d="
M   283.6999   499.3307
L   285.2362   496.1334
L   286.2743   494.0157
L   288.7657   488.7008
L   290.5512   484.6730
L   291.0910   483.3858
L   291.6723   482.0571
"/>
<path stroke-width="0.4252" stroke="#000000" fill="none" d="
M   288.8487   494.6801
L   289.0148   494.0157
L   290.2605   488.7008
L   290.5512   487.4966
L   291.4232   483.3858
L   291.7554   482.0571
"/>
<path stroke-width="0.4252" stroke="#000000" fill="none" d="
"/>
M   211.6071   446.2407
<text x="211.6071" y="446.2407" transform="rotate(18.9705,211.6071,446.2407)"  font-family="'Arial'" font-size="5.5983" style="fill: #000000; stroke: none">42</text>
<path stroke-width="0.4252" stroke="#000000" fill="none" d="
M   226.1073   449.2123
L   225.4429   448.9632
L   225.1523   448.8386
L   224.1142   448.4649
L   221.4567   447.5514
L   218.9560   446.6640
M   217.5950   446.1811
M   216.1417   445.6413
M   211.3055   443.9788
L   209.8717   443.5236
L   208.1693   442.9838
L   206.8406   442.4855
L   205.8855   442.1949
"/>
<path stroke-width="0.4252" stroke="#000000" fill="none" d="
M   279.2154   410.9695
L   279.1323   410.3051
L   278.8001   408.9764
L   277.1392   403.6614
L   275.9766   401.0039
L   275.9350   400.8794
"/>
<path stroke-width="0.4252" stroke="#000000" fill="none" d="
M   293.7485   412.2982
L   293.2502   411.6339
L   293.2087   411.5923
L   290.9249   408.9764
L   290.5512   408.5196
L   285.2362   403.8690
L   284.8625   403.6614
L   279.9213   401.4607
L   277.8866   401.0039
L   277.2638   400.8794
L   275.9350   400.7133
"/>
<path stroke-width="0.4252" stroke="#000000" fill="none" d="
M   279.2569   411.1771
L   279.9213   411.0110
L   285.2362   410.2636
L   290.5512   410.9280
L   292.3367   411.6339
L   293.2087   412.0906
L   293.5824   412.2982
"/>
<path stroke-width="0.4252" stroke="#000000" fill="none" d="
M   283.7829   499.3307
L   285.2362   498.0435
L   286.8556   496.6732
L   287.8937   495.7182
L   288.3505   495.3445
L   288.5581   495.1369
"/>
<path stroke-width="0.4252" stroke="#000000" fill="none" d="
M   204.8474   441.8212
L   204.1831   441.6551
L   202.8543   441.2398
L   201.8163   440.8661
L   200.1969   440.3263
L   197.5394   439.4959
L   196.2106   439.0806
L   195.5463   438.9146
L   195.5047   438.8730
"/>
<path stroke-width="0.4252" stroke="#000000" fill="none" d="
M   195.4217   435.5512
L   200.1969   433.8487
L   202.8128   432.8937
L   202.8543   432.8522
L   204.1831   432.4369
L   204.8059   432.2293
L   204.8474   432.1878
"/>
<path stroke-width="0.4252" stroke="#000000" fill="none" d="
M   349.6801   287.4382
L   349.7216   287.3967
L   349.8877   286.7323
L   350.1369   286.0679
"/>
<path stroke-width="0.4252" stroke="#000000" fill="none" d="
"/>
M   214.4748   431.1576
<text x="214.4748" y="431.1576" transform="rotate(-16.5348,214.4748,431.1576)"  font-family="'Arial'" font-size="5.5983" style="fill: #000000; stroke: none">50</text>
<path stroke-width="0.4252" stroke="#000000" fill="none" d="
M   206.1762   431.7726
L   206.7990   431.5650
L   206.8406   431.5234
L   208.1693   431.1082
L   210.8268   430.2777
L   210.8683   430.2362
L   212.9393   429.5676
M   216.1417   428.5338
M   220.6487   427.1958
L   224.1142   426.1254
L   225.4429   425.7102
L   225.9827   425.5856
L   226.1073   425.5441
"/>
<path stroke-width="0.4252" stroke="#000000" fill="none" d="
M   402.1238   201.0285
L   402.1654   200.9870
"/>
<path stroke-width="0.4252" stroke="#000000" fill="none" d="
M   185.7883   438.2087
L   186.1205   437.5443
L   186.2451   437.1706
L   186.3696   436.8799
"/>
<path stroke-width="0.4252" stroke="#000000" fill="none" d="
M   185.7883   438.8730
L   185.9544   438.2087
L   186.2036   437.5443
L   186.2451   437.3367
L   186.4527   436.8799
"/>
<path stroke-width="0.4252" stroke="#000000" fill="none" d="
M   186.2451   438.9146
L   186.3696   438.8730
L   186.9094   438.6654
L   188.2797   438.2087
L   188.2382   437.0045
L   187.5323   436.8799
L   186.9094   436.7554
"/>
<path stroke-width="0.4252" stroke="#000000" fill="none" d="
M   356.9882   283.7841
L   356.9882   283.7558
"/>
<path stroke-width="0.4252" stroke="#000000" fill="none" d="
M   430.0274    91.4075
L   430.0274    91.3791
"/>
<path stroke-width="0.4252" stroke="#000000" fill="none" d="
M   436.4219   353.8337
L   436.4219   353.8053
"/>
<path stroke-width="0.4252" stroke="#000000" fill="none" d="
M   293.8730   412.4228
L   293.8730   412.3945
"/>

</g>

</svg>
