<?xml version="1.0" encoding="utf-8"?>
<svg version="1.1"
xmlns="http://www.w3.org/2000/svg"
xmlns:xlink="http://www.w3.org/1999/xlink" 
width="29.7cm" height="21cm"
viewBox="0 0 842 595">
<g xml:space="preserve" stroke-linecap="round" stroke-linejoin="round" stroke-miterlimit="10">
<path stroke-width="0.5669" stroke="#000000" fill="none" d="
M   595.2756   502.8740
"/>
<rect x="595.0318" y="495.7874" height="0.4801" width="0.4801" fill="#CECECE"/>
<rect x="595.5042" y="495.7874" height="0.4801" width="0.4801" fill="#BDBDBD"/>
<rect x="595.9766" y="495.7874" height="0.4801" width="0.4801" fill="#B5B5B5"/>
<rect x="596.4491" y="495.7874" height="0.4801" width="0.4801" fill="#9C9C9C"/>
<rect x="596.9215" y="495.7874" height="0.4801" width="0.4801" fill="#8C8C8C"/>
<rect x="597.3940" y="495.7874" height="0.4801" width="0.4801" fill="#EFEFEF"/>
<rect x="594.5593" y="496.2446" height="0.4801" width="0.4801" fill="#E7E7E7"/>
<rect x="595.0318" y="496.2446" height="0.4801" width="0.4801" fill="#C6C6C6"/>
<rect x="595.5042" y="496.2446" height="0.4801" width="0.4801" fill="#BDBDBD"/>
<rect x="595.9766" y="496.2446" height="0.4801" width="0.4801" fill="#ADADAD"/>
<rect x="596.4491" y="496.2446" height="0.4801" width="0.4801" fill="#949494"/>
<rect x="596.9215" y="496.2446" height="0.4801" width="0.4801" fill="#7B7B7B"/>
<rect x="597.3940" y="496.2446" height="0.4801" width="0.4801" fill="#EFEFEF"/>
<rect x="594.5593" y="496.7018" height="0.4801" width="0.4801" fill="#D6D6D6"/>
<rect x="595.0318" y="496.7018" height="0.4801" width="0.4801" fill="#C6C6C6"/>
<rect x="595.5042" y="496.7018" height="0.4801" width="0.4801" fill="#B5B5B5"/>
<rect x="595.9766" y="496.7018" height="0.4801" width="0.4801" fill="#A5A5A5"/>
<rect x="596.4491" y="496.7018" height="0.4801" width="0.4801" fill="#8C8C8C"/>
<rect x="596.9215" y="496.7018" height="0.4801" width="0.4801" fill="#6B6B6B"/>
<rect x="597.3940" y="496.7018" height="0.4801" width="0.4801" fill="#EFEFEF"/>
<rect x="594.0869" y="497.1590" height="0.4801" width="0.4801" fill="#EFEFEF"/>
<rect x="594.5593" y="497.1590" height="0.4801" width="0.4801" fill="#CECECE"/>
<rect x="595.0318" y="497.1590" height="0.4801" width="0.4801" fill="#C6C6C6"/>
<rect x="595.5042" y="497.1590" height="0.4801" width="0.4801" fill="#B5B5B5"/>
<rect x="595.9766" y="497.1590" height="0.4801" width="0.4801" fill="#9C9C9C"/>
<rect x="596.4491" y="497.1590" height="0.4801" width="0.4801" fill="#737373"/>
<rect x="596.9215" y="497.1590" height="0.4801" width="0.4801" fill="#737373"/>
<rect x="597.3940" y="497.1590" height="0.4801" width="0.4801" fill="#EFEFEF"/>
<rect x="592.6695" y="497.6162" height="0.4801" width="0.4801" fill="#F7F7F7"/>
<rect x="593.1420" y="497.6162" height="0.4801" width="0.4801" fill="#F7F7F7"/>
<rect x="593.6144" y="497.6162" height="0.4801" width="0.4801" fill="#F7F7F7"/>
<rect x="594.0869" y="497.6162" height="0.4801" width="0.4801" fill="#DEDEDE"/>
<rect x="594.5593" y="497.6162" height="0.4801" width="0.4801" fill="#CECECE"/>
<rect x="595.0318" y="497.6162" height="0.4801" width="0.4801" fill="#BDBDBD"/>
<rect x="595.5042" y="497.6162" height="0.4801" width="0.4801" fill="#ADADAD"/>
<rect x="595.9766" y="497.6162" height="0.4801" width="0.4801" fill="#8C8C8C"/>
<rect x="596.4491" y="497.6162" height="0.4801" width="0.4801" fill="#6B6B6B"/>
<rect x="596.9215" y="497.6162" height="0.4801" width="0.4801" fill="#848484"/>
<rect x="597.3940" y="497.6162" height="0.4801" width="0.4801" fill="#F7F7F7"/>
<rect x="592.6695" y="498.0734" height="0.4801" width="0.4801" fill="#F7F7F7"/>
<rect x="593.1420" y="498.0734" height="0.4801" width="0.4801" fill="#E7E7E7"/>
<rect x="593.6144" y="498.0734" height="0.4801" width="0.4801" fill="#E7E7E7"/>
<rect x="594.0869" y="498.0734" height="0.4801" width="0.4801" fill="#D6D6D6"/>
<rect x="594.5593" y="498.0734" height="0.4801" width="0.4801" fill="#C6C6C6"/>
<rect x="595.0318" y="498.0734" height="0.4801" width="0.4801" fill="#BDBDBD"/>
<rect x="595.5042" y="498.0734" height="0.4801" width="0.4801" fill="#9C9C9C"/>
<rect x="595.9766" y="498.0734" height="0.4801" width="0.4801" fill="#737373"/>
<rect x="596.4491" y="498.0734" height="0.4801" width="0.4801" fill="#737373"/>
<rect x="596.9215" y="498.0734" height="0.4801" width="0.4801" fill="#949494"/>
<rect x="597.3940" y="498.0734" height="0.4801" width="0.4801" fill="#F7F7F7"/>
<rect x="592.6695" y="498.5306" height="0.4801" width="0.4801" fill="#F7F7F7"/>
<rect x="593.1420" y="498.5306" height="0.4801" width="0.4801" fill="#E7E7E7"/>
<rect x="593.6144" y="498.5306" height="0.4801" width="0.4801" fill="#DEDEDE"/>
<rect x="594.0869" y="498.5306" height="0.4801" width="0.4801" fill="#CECECE"/>
<rect x="594.5593" y="498.5306" height="0.4801" width="0.4801" fill="#BDBDBD"/>
<rect x="595.0318" y="498.5306" height="0.4801" width="0.4801" fill="#ADADAD"/>
<rect x="595.5042" y="498.5306" height="0.4801" width="0.4801" fill="#8C8C8C"/>
<rect x="595.9766" y="498.5306" height="0.4801" width="0.4801" fill="#6B6B6B"/>
<rect x="596.4491" y="498.5306" height="0.4801" width="0.4801" fill="#7B7B7B"/>
<rect x="596.9215" y="498.5306" height="0.4801" width="0.4801" fill="#9C9C9C"/>
<rect x="597.3940" y="498.5306" height="0.4801" width="0.4801" fill="#F7F7F7"/>
<rect x="592.6695" y="498.9878" height="0.4801" width="0.4801" fill="#F7F7F7"/>
<rect x="593.1420" y="498.9878" height="0.4801" width="0.4801" fill="#E7E7E7"/>
<rect x="593.6144" y="498.9878" height="0.4801" width="0.4801" fill="#D6D6D6"/>
<rect x="594.0869" y="498.9878" height="0.4801" width="0.4801" fill="#C6C6C6"/>
<rect x="594.5593" y="498.9878" height="0.4801" width="0.4801" fill="#B5B5B5"/>
<rect x="595.0318" y="498.9878" height="0.4801" width="0.4801" fill="#9C9C9C"/>
<rect x="595.5042" y="498.9878" height="0.4801" width="0.4801" fill="#737373"/>
<rect x="595.9766" y="498.9878" height="0.4801" width="0.4801" fill="#737373"/>
<rect x="596.4491" y="498.9878" height="0.4801" width="0.4801" fill="#8C8C8C"/>
<rect x="596.9215" y="498.9878" height="0.4801" width="0.4801" fill="#A5A5A5"/>
<rect x="597.3940" y="498.9878" height="0.4801" width="0.4801" fill="#F7F7F7"/>
<rect x="590.7798" y="499.4450" height="0.4801" width="0.4801" fill="#F7F7F7"/>
<rect x="592.6695" y="499.4450" height="0.4801" width="0.4801" fill="#F7F7F7"/>
<rect x="593.1420" y="499.4450" height="0.4801" width="0.4801" fill="#D6D6D6"/>
<rect x="593.6144" y="499.4450" height="0.4801" width="0.4801" fill="#CECECE"/>
<rect x="594.0869" y="499.4450" height="0.4801" width="0.4801" fill="#BDBDBD"/>
<rect x="594.5593" y="499.4450" height="0.4801" width="0.4801" fill="#A5A5A5"/>
<rect x="595.0318" y="499.4450" height="0.4801" width="0.4801" fill="#848484"/>
<rect x="595.5042" y="499.4450" height="0.4801" width="0.4801" fill="#636363"/>
<rect x="595.9766" y="499.4450" height="0.4801" width="0.4801" fill="#7B7B7B"/>
<rect x="596.4491" y="499.4450" height="0.4801" width="0.4801" fill="#949494"/>
<rect x="596.9215" y="499.4450" height="0.4801" width="0.4801" fill="#B5B5B5"/>
<rect x="597.3940" y="499.4450" height="0.4801" width="0.4801" fill="#F7F7F7"/>
<rect x="590.7798" y="499.9022" height="0.4801" width="0.4801" fill="#F7F7F7"/>
<rect x="591.2522" y="499.9022" height="0.4801" width="0.4801" fill="#EFEFEF"/>
<rect x="591.7247" y="499.9022" height="0.4801" width="0.4801" fill="#F7F7F7"/>
<rect x="592.6695" y="499.9022" height="0.4801" width="0.4801" fill="#F7F7F7"/>
<rect x="593.1420" y="499.9022" height="0.4801" width="0.4801" fill="#D6D6D6"/>
<rect x="593.6144" y="499.9022" height="0.4801" width="0.4801" fill="#BDBDBD"/>
<rect x="594.0869" y="499.9022" height="0.4801" width="0.4801" fill="#ADADAD"/>
<rect x="594.5593" y="499.9022" height="0.4801" width="0.4801" fill="#8C8C8C"/>
<rect x="595.0318" y="499.9022" height="0.4801" width="0.4801" fill="#636363"/>
<rect x="595.5042" y="499.9022" height="0.4801" width="0.4801" fill="#6B6B6B"/>
<rect x="595.9766" y="499.9022" height="0.4801" width="0.4801" fill="#7B7B7B"/>
<rect x="596.4491" y="499.9022" height="0.4801" width="0.4801" fill="#A5A5A5"/>
<rect x="596.9215" y="499.9022" height="0.4801" width="0.4801" fill="#ADADAD"/>
<rect x="597.3940" y="499.9022" height="0.4801" width="0.4801" fill="#F7F7F7"/>
<rect x="588.8900" y="500.3594" height="0.4801" width="0.4801" fill="#F7F7F7"/>
<rect x="589.3625" y="500.3594" height="0.4801" width="0.4801" fill="#F7F7F7"/>
<rect x="590.3073" y="500.3594" height="0.4801" width="0.4801" fill="#F7F7F7"/>
<rect x="590.7798" y="500.3594" height="0.4801" width="0.4801" fill="#EFEFEF"/>
<rect x="591.2522" y="500.3594" height="0.4801" width="0.4801" fill="#EFEFEF"/>
<rect x="591.7247" y="500.3594" height="0.4801" width="0.4801" fill="#E7E7E7"/>
<rect x="592.1971" y="500.3594" height="0.4801" width="0.4801" fill="#F7F7F7"/>
<rect x="593.1420" y="500.3594" height="0.4801" width="0.4801" fill="#CECECE"/>
<rect x="593.6144" y="500.3594" height="0.4801" width="0.4801" fill="#B5B5B5"/>
<rect x="594.0869" y="500.3594" height="0.4801" width="0.4801" fill="#949494"/>
<rect x="594.5593" y="500.3594" height="0.4801" width="0.4801" fill="#636363"/>
<rect x="595.0318" y="500.3594" height="0.4801" width="0.4801" fill="#5A5A5A"/>
<rect x="595.5042" y="500.3594" height="0.4801" width="0.4801" fill="#636363"/>
<rect x="595.9766" y="500.3594" height="0.4801" width="0.4801" fill="#848484"/>
<rect x="596.4491" y="500.3594" height="0.4801" width="0.4801" fill="#949494"/>
<rect x="596.9215" y="500.3594" height="0.4801" width="0.4801" fill="#A5A5A5"/>
<rect x="597.3940" y="500.3594" height="0.4801" width="0.4801" fill="#E7E7E7"/>
<rect x="597.8664" y="500.3594" height="0.4801" width="0.4801" fill="#EFEFEF"/>
<rect x="598.3388" y="500.3594" height="0.4801" width="0.4801" fill="#EFEFEF"/>
<rect x="598.8113" y="500.3594" height="0.4801" width="0.4801" fill="#EFEFEF"/>
<rect x="599.2837" y="500.3594" height="0.4801" width="0.4801" fill="#EFEFEF"/>
<rect x="599.7562" y="500.3594" height="0.4801" width="0.4801" fill="#EFEFEF"/>
<rect x="600.2286" y="500.3594" height="0.4801" width="0.4801" fill="#EFEFEF"/>
<rect x="600.7010" y="500.3594" height="0.4801" width="0.4801" fill="#EFEFEF"/>
<rect x="601.1735" y="500.3594" height="0.4801" width="0.4801" fill="#E7E7E7"/>
<rect x="601.6459" y="500.3594" height="0.4801" width="0.4801" fill="#EFEFEF"/>
<rect x="602.1184" y="500.3594" height="0.4801" width="0.4801" fill="#E7E7E7"/>
<rect x="588.8900" y="500.8166" height="0.4801" width="0.4801" fill="#F7F7F7"/>
<rect x="589.3625" y="500.8166" height="0.4801" width="0.4801" fill="#EFEFEF"/>
<rect x="589.8349" y="500.8166" height="0.4801" width="0.4801" fill="#EFEFEF"/>
<rect x="590.3073" y="500.8166" height="0.4801" width="0.4801" fill="#EFEFEF"/>
<rect x="590.7798" y="500.8166" height="0.4801" width="0.4801" fill="#EFEFEF"/>
<rect x="591.2522" y="500.8166" height="0.4801" width="0.4801" fill="#E7E7E7"/>
<rect x="591.7247" y="500.8166" height="0.4801" width="0.4801" fill="#DEDEDE"/>
<rect x="592.1971" y="500.8166" height="0.4801" width="0.4801" fill="#D6D6D6"/>
<rect x="592.6695" y="500.8166" height="0.4801" width="0.4801" fill="#EFEFEF"/>
<rect x="593.1420" y="500.8166" height="0.4801" width="0.4801" fill="#C6C6C6"/>
<rect x="593.6144" y="500.8166" height="0.4801" width="0.4801" fill="#949494"/>
<rect x="594.0869" y="500.8166" height="0.4801" width="0.4801" fill="#6B6B6B"/>
<rect x="594.5593" y="500.8166" height="0.4801" width="0.4801" fill="#636363"/>
<rect x="595.0318" y="500.8166" height="0.4801" width="0.4801" fill="#6B6B6B"/>
<rect x="595.5042" y="500.8166" height="0.4801" width="0.4801" fill="#737373"/>
<rect x="595.9766" y="500.8166" height="0.4801" width="0.4801" fill="#7B7B7B"/>
<rect x="596.4491" y="500.8166" height="0.4801" width="0.4801" fill="#848484"/>
<rect x="596.9215" y="500.8166" height="0.4801" width="0.4801" fill="#949494"/>
<rect x="597.3940" y="500.8166" height="0.4801" width="0.4801" fill="#A5A5A5"/>
<rect x="597.8664" y="500.8166" height="0.4801" width="0.4801" fill="#ADADAD"/>
<rect x="598.3388" y="500.8166" height="0.4801" width="0.4801" fill="#ADADAD"/>
<rect x="598.8113" y="500.8166" height="0.4801" width="0.4801" fill="#B5B5B5"/>
<rect x="599.2837" y="500.8166" height="0.4801" width="0.4801" fill="#ADADAD"/>
<rect x="599.7562" y="500.8166" height="0.4801" width="0.4801" fill="#ADADAD"/>
<rect x="600.2286" y="500.8166" height="0.4801" width="0.4801" fill="#A5A5A5"/>
<rect x="600.7010" y="500.8166" height="0.4801" width="0.4801" fill="#9C9C9C"/>
<rect x="601.1735" y="500.8166" height="0.4801" width="0.4801" fill="#9C9C9C"/>
<rect x="601.6459" y="500.8166" height="0.4801" width="0.4801" fill="#8C8C8C"/>
<rect x="602.1184" y="500.8166" height="0.4801" width="0.4801" fill="#949494"/>
<rect x="589.3625" y="501.2738" height="0.4801" width="0.4801" fill="#E7E7E7"/>
<rect x="589.8349" y="501.2738" height="0.4801" width="0.4801" fill="#E7E7E7"/>
<rect x="590.3073" y="501.2738" height="0.4801" width="0.4801" fill="#E7E7E7"/>
<rect x="590.7798" y="501.2738" height="0.4801" width="0.4801" fill="#E7E7E7"/>
<rect x="591.2522" y="501.2738" height="0.4801" width="0.4801" fill="#DEDEDE"/>
<rect x="591.7247" y="501.2738" height="0.4801" width="0.4801" fill="#D6D6D6"/>
<rect x="592.1971" y="501.2738" height="0.4801" width="0.4801" fill="#C6C6C6"/>
<rect x="592.6695" y="501.2738" height="0.4801" width="0.4801" fill="#BDBDBD"/>
<rect x="593.1420" y="501.2738" height="0.4801" width="0.4801" fill="#ADADAD"/>
<rect x="593.6144" y="501.2738" height="0.4801" width="0.4801" fill="#636363"/>
<rect x="594.0869" y="501.2738" height="0.4801" width="0.4801" fill="#636363"/>
<rect x="594.5593" y="501.2738" height="0.4801" width="0.4801" fill="#7B7B7B"/>
<rect x="595.0318" y="501.2738" height="0.4801" width="0.4801" fill="#7B7B7B"/>
<rect x="595.5042" y="501.2738" height="0.4801" width="0.4801" fill="#7B7B7B"/>
<rect x="595.9766" y="501.2738" height="0.4801" width="0.4801" fill="#7B7B7B"/>
<rect x="596.4491" y="501.2738" height="0.4801" width="0.4801" fill="#848484"/>
<rect x="596.9215" y="501.2738" height="0.4801" width="0.4801" fill="#848484"/>
<rect x="597.3940" y="501.2738" height="0.4801" width="0.4801" fill="#949494"/>
<rect x="597.8664" y="501.2738" height="0.4801" width="0.4801" fill="#A5A5A5"/>
<rect x="598.3388" y="501.2738" height="0.4801" width="0.4801" fill="#A5A5A5"/>
<rect x="598.8113" y="501.2738" height="0.4801" width="0.4801" fill="#ADADAD"/>
<rect x="599.2837" y="501.2738" height="0.4801" width="0.4801" fill="#ADADAD"/>
<rect x="599.7562" y="501.2738" height="0.4801" width="0.4801" fill="#ADADAD"/>
<rect x="600.2286" y="501.2738" height="0.4801" width="0.4801" fill="#A5A5A5"/>
<rect x="600.7010" y="501.2738" height="0.4801" width="0.4801" fill="#9C9C9C"/>
<rect x="601.1735" y="501.2738" height="0.4801" width="0.4801" fill="#949494"/>
<rect x="601.6459" y="501.2738" height="0.4801" width="0.4801" fill="#8C8C8C"/>
<rect x="602.1184" y="501.2738" height="0.4801" width="0.4801" fill="#8C8C8C"/>
<rect x="589.3625" y="501.7310" height="0.4801" width="0.4801" fill="#EFEFEF"/>
<rect x="589.8349" y="501.7310" height="0.4801" width="0.4801" fill="#DEDEDE"/>
<rect x="590.3073" y="501.7310" height="0.4801" width="0.4801" fill="#DEDEDE"/>
<rect x="590.7798" y="501.7310" height="0.4801" width="0.4801" fill="#D6D6D6"/>
<rect x="591.2522" y="501.7310" height="0.4801" width="0.4801" fill="#CECECE"/>
<rect x="591.7247" y="501.7310" height="0.4801" width="0.4801" fill="#BDBDBD"/>
<rect x="592.1971" y="501.7310" height="0.4801" width="0.4801" fill="#ADADAD"/>
<rect x="592.6695" y="501.7310" height="0.4801" width="0.4801" fill="#848484"/>
<rect x="593.1420" y="501.7310" height="0.4801" width="0.4801" fill="#5A5A5A"/>
<rect x="593.6144" y="501.7310" height="0.4801" width="0.4801" fill="#636363"/>
<rect x="594.0869" y="501.7310" height="0.4801" width="0.4801" fill="#848484"/>
<rect x="594.5593" y="501.7310" height="0.4801" width="0.4801" fill="#848484"/>
<rect x="595.0318" y="501.7310" height="0.4801" width="0.4801" fill="#7B7B7B"/>
<rect x="595.5042" y="501.7310" height="0.4801" width="0.4801" fill="#7B7B7B"/>
<rect x="595.9766" y="501.7310" height="0.4801" width="0.4801" fill="#7B7B7B"/>
<rect x="596.4491" y="501.7310" height="0.4801" width="0.4801" fill="#848484"/>
<rect x="596.9215" y="501.7310" height="0.4801" width="0.4801" fill="#848484"/>
<rect x="597.3940" y="501.7310" height="0.4801" width="0.4801" fill="#848484"/>
<rect x="597.8664" y="501.7310" height="0.4801" width="0.4801" fill="#949494"/>
<rect x="598.3388" y="501.7310" height="0.4801" width="0.4801" fill="#A5A5A5"/>
<rect x="598.8113" y="501.7310" height="0.4801" width="0.4801" fill="#A5A5A5"/>
<rect x="599.2837" y="501.7310" height="0.4801" width="0.4801" fill="#ADADAD"/>
<rect x="599.7562" y="501.7310" height="0.4801" width="0.4801" fill="#A5A5A5"/>
<rect x="600.2286" y="501.7310" height="0.4801" width="0.4801" fill="#9C9C9C"/>
<rect x="600.7010" y="501.7310" height="0.4801" width="0.4801" fill="#949494"/>
<rect x="601.1735" y="501.7310" height="0.4801" width="0.4801" fill="#8C8C8C"/>
<rect x="601.6459" y="501.7310" height="0.4801" width="0.4801" fill="#848484"/>
<rect x="602.1184" y="501.7310" height="0.4801" width="0.4801" fill="#848484"/>
<rect x="589.3625" y="502.1882" height="0.4801" width="0.4801" fill="#E7E7E7"/>
<rect x="589.8349" y="502.1882" height="0.4801" width="0.4801" fill="#DEDEDE"/>
<rect x="590.3073" y="502.1882" height="0.4801" width="0.4801" fill="#D6D6D6"/>
<rect x="590.7798" y="502.1882" height="0.4801" width="0.4801" fill="#CECECE"/>
<rect x="591.2522" y="502.1882" height="0.4801" width="0.4801" fill="#BDBDBD"/>
<rect x="591.7247" y="502.1882" height="0.4801" width="0.4801" fill="#9C9C9C"/>
<rect x="592.1971" y="502.1882" height="0.4801" width="0.4801" fill="#737373"/>
<rect x="592.6695" y="502.1882" height="0.4801" width="0.4801" fill="#636363"/>
<rect x="593.1420" y="502.1882" height="0.4801" width="0.4801" fill="#636363"/>
<rect x="593.6144" y="502.1882" height="0.4801" width="0.4801" fill="#7B7B7B"/>
<rect x="594.0869" y="502.1882" height="0.4801" width="0.4801" fill="#737373"/>
<rect x="594.5593" y="502.1882" height="0.4801" width="0.4801" fill="#737373"/>
<rect x="595.0318" y="502.1882" height="0.4801" width="0.4801" fill="#7B7B7B"/>
<rect x="595.5042" y="502.1882" height="0.4801" width="0.4801" fill="#848484"/>
<rect x="595.9766" y="502.1882" height="0.4801" width="0.4801" fill="#7B7B7B"/>
<rect x="596.4491" y="502.1882" height="0.4801" width="0.4801" fill="#7B7B7B"/>
<rect x="596.9215" y="502.1882" height="0.4801" width="0.4801" fill="#848484"/>
<rect x="597.3940" y="502.1882" height="0.4801" width="0.4801" fill="#848484"/>
<rect x="597.8664" y="502.1882" height="0.4801" width="0.4801" fill="#8C8C8C"/>
<rect x="598.3388" y="502.1882" height="0.4801" width="0.4801" fill="#8C8C8C"/>
<rect x="598.8113" y="502.1882" height="0.4801" width="0.4801" fill="#848484"/>
<rect x="599.2837" y="502.1882" height="0.4801" width="0.4801" fill="#7B7B7B"/>
<rect x="599.7562" y="502.1882" height="0.4801" width="0.4801" fill="#737373"/>
<rect x="600.2286" y="502.1882" height="0.4801" width="0.4801" fill="#737373"/>
<rect x="600.7010" y="502.1882" height="0.4801" width="0.4801" fill="#6B6B6B"/>
<rect x="601.1735" y="502.1882" height="0.4801" width="0.4801" fill="#636363"/>
<rect x="601.6459" y="502.1882" height="0.4801" width="0.4801" fill="#5A5A5A"/>
<rect x="602.1184" y="502.1882" height="0.4801" width="0.4801" fill="#636363"/>
<rect x="588.8900" y="502.6454" height="0.4801" width="0.4801" fill="#E7E7E7"/>
<rect x="589.3625" y="502.6454" height="0.4801" width="0.4801" fill="#D6D6D6"/>
<rect x="589.8349" y="502.6454" height="0.4801" width="0.4801" fill="#C6C6C6"/>
<rect x="590.3073" y="502.6454" height="0.4801" width="0.4801" fill="#B5B5B5"/>
<rect x="590.7798" y="502.6454" height="0.4801" width="0.4801" fill="#9C9C9C"/>
<rect x="591.2522" y="502.6454" height="0.4801" width="0.4801" fill="#848484"/>
<rect x="591.7247" y="502.6454" height="0.4801" width="0.4801" fill="#737373"/>
<rect x="592.1971" y="502.6454" height="0.4801" width="0.4801" fill="#7B7B7B"/>
<rect x="592.6695" y="502.6454" height="0.4801" width="0.4801" fill="#8C8C8C"/>
<rect x="593.1420" y="502.6454" height="0.4801" width="0.4801" fill="#8C8C8C"/>
<rect x="593.6144" y="502.6454" height="0.4801" width="0.4801" fill="#7B7B7B"/>
<rect x="594.0869" y="502.6454" height="0.4801" width="0.4801" fill="#737373"/>
<rect x="594.5593" y="502.6454" height="0.4801" width="0.4801" fill="#737373"/>
<rect x="595.0318" y="502.6454" height="0.4801" width="0.4801" fill="#737373"/>
<rect x="595.5042" y="502.6454" height="0.4801" width="0.4801" fill="#7B7B7B"/>
<rect x="595.9766" y="502.6454" height="0.4801" width="0.4801" fill="#848484"/>
<rect x="596.4491" y="502.6454" height="0.4801" width="0.4801" fill="#8C8C8C"/>
<rect x="596.9215" y="502.6454" height="0.4801" width="0.4801" fill="#9C9C9C"/>
<rect x="597.3940" y="502.6454" height="0.4801" width="0.4801" fill="#A5A5A5"/>
<rect x="597.8664" y="502.6454" height="0.4801" width="0.4801" fill="#ADADAD"/>
<rect x="598.3388" y="502.6454" height="0.4801" width="0.4801" fill="#A5A5A5"/>
<rect x="598.8113" y="502.6454" height="0.4801" width="0.4801" fill="#A5A5A5"/>
<rect x="599.2837" y="502.6454" height="0.4801" width="0.4801" fill="#949494"/>
<rect x="599.7562" y="502.6454" height="0.4801" width="0.4801" fill="#848484"/>
<rect x="600.2286" y="502.6454" height="0.4801" width="0.4801" fill="#6B6B6B"/>
<rect x="600.7010" y="502.6454" height="0.4801" width="0.4801" fill="#6B6B6B"/>
<rect x="601.1735" y="502.6454" height="0.4801" width="0.4801" fill="#636363"/>
<rect x="601.6459" y="502.6454" height="0.4801" width="0.4801" fill="#6B6B6B"/>
<rect x="602.1184" y="502.6454" height="0.4801" width="0.4801" fill="#7B7B7B"/>
<rect x="588.4176" y="503.1026" height="0.4801" width="0.4801" fill="#CECECE"/>
<rect x="588.8900" y="503.1026" height="0.4801" width="0.4801" fill="#B5B5B5"/>
<rect x="589.3625" y="503.1026" height="0.4801" width="0.4801" fill="#ADADAD"/>
<rect x="589.8349" y="503.1026" height="0.4801" width="0.4801" fill="#A5A5A5"/>
<rect x="590.3073" y="503.1026" height="0.4801" width="0.4801" fill="#9C9C9C"/>
<rect x="590.7798" y="503.1026" height="0.4801" width="0.4801" fill="#A5A5A5"/>
<rect x="591.2522" y="503.1026" height="0.4801" width="0.4801" fill="#ADADAD"/>
<rect x="591.7247" y="503.1026" height="0.4801" width="0.4801" fill="#B5B5B5"/>
<rect x="592.1971" y="503.1026" height="0.4801" width="0.4801" fill="#ADADAD"/>
<rect x="592.6695" y="503.1026" height="0.4801" width="0.4801" fill="#A5A5A5"/>
<rect x="593.1420" y="503.1026" height="0.4801" width="0.4801" fill="#949494"/>
<rect x="593.6144" y="503.1026" height="0.4801" width="0.4801" fill="#848484"/>
<rect x="594.0869" y="503.1026" height="0.4801" width="0.4801" fill="#7B7B7B"/>
<rect x="594.5593" y="503.1026" height="0.4801" width="0.4801" fill="#7B7B7B"/>
<rect x="595.0318" y="503.1026" height="0.4801" width="0.4801" fill="#7B7B7B"/>
<rect x="595.5042" y="503.1026" height="0.4801" width="0.4801" fill="#848484"/>
<rect x="595.9766" y="503.1026" height="0.4801" width="0.4801" fill="#8C8C8C"/>
<rect x="596.4491" y="503.1026" height="0.4801" width="0.4801" fill="#9C9C9C"/>
<rect x="596.9215" y="503.1026" height="0.4801" width="0.4801" fill="#A5A5A5"/>
<rect x="597.3940" y="503.1026" height="0.4801" width="0.4801" fill="#B5B5B5"/>
<rect x="597.8664" y="503.1026" height="0.4801" width="0.4801" fill="#B5B5B5"/>
<rect x="598.3388" y="503.1026" height="0.4801" width="0.4801" fill="#BDBDBD"/>
<rect x="598.8113" y="503.1026" height="0.4801" width="0.4801" fill="#B5B5B5"/>
<rect x="599.2837" y="503.1026" height="0.4801" width="0.4801" fill="#B5B5B5"/>
<rect x="599.7562" y="503.1026" height="0.4801" width="0.4801" fill="#A5A5A5"/>
<rect x="600.2286" y="503.1026" height="0.4801" width="0.4801" fill="#9C9C9C"/>
<rect x="600.7010" y="503.1026" height="0.4801" width="0.4801" fill="#848484"/>
<rect x="601.1735" y="503.1026" height="0.4801" width="0.4801" fill="#848484"/>
<rect x="601.6459" y="503.1026" height="0.4801" width="0.4801" fill="#737373"/>
<rect x="602.1184" y="503.1026" height="0.4801" width="0.4801" fill="#848484"/>
<rect x="588.4176" y="503.5598" height="0.4801" width="0.4801" fill="#E7E7E7"/>
<rect x="588.8900" y="503.5598" height="0.4801" width="0.4801" fill="#D6D6D6"/>
<rect x="589.3625" y="503.5598" height="0.4801" width="0.4801" fill="#CECECE"/>
<rect x="589.8349" y="503.5598" height="0.4801" width="0.4801" fill="#D6D6D6"/>
<rect x="590.3073" y="503.5598" height="0.4801" width="0.4801" fill="#D6D6D6"/>
<rect x="590.7798" y="503.5598" height="0.4801" width="0.4801" fill="#D6D6D6"/>
<rect x="591.2522" y="503.5598" height="0.4801" width="0.4801" fill="#C6C6C6"/>
<rect x="591.7247" y="503.5598" height="0.4801" width="0.4801" fill="#C6C6C6"/>
<rect x="592.1971" y="503.5598" height="0.4801" width="0.4801" fill="#C6C6C6"/>
<rect x="592.6695" y="503.5598" height="0.4801" width="0.4801" fill="#BDBDBD"/>
<rect x="593.1420" y="503.5598" height="0.4801" width="0.4801" fill="#A5A5A5"/>
<rect x="593.6144" y="503.5598" height="0.4801" width="0.4801" fill="#9C9C9C"/>
<rect x="594.0869" y="503.5598" height="0.4801" width="0.4801" fill="#7B7B7B"/>
<rect x="594.5593" y="503.5598" height="0.4801" width="0.4801" fill="#7B7B7B"/>
<rect x="595.0318" y="503.5598" height="0.4801" width="0.4801" fill="#8C8C8C"/>
<rect x="595.5042" y="503.5598" height="0.4801" width="0.4801" fill="#8C8C8C"/>
<rect x="595.9766" y="503.5598" height="0.4801" width="0.4801" fill="#8C8C8C"/>
<rect x="596.4491" y="503.5598" height="0.4801" width="0.4801" fill="#A5A5A5"/>
<rect x="596.9215" y="503.5598" height="0.4801" width="0.4801" fill="#ADADAD"/>
<rect x="597.3940" y="503.5598" height="0.4801" width="0.4801" fill="#B5B5B5"/>
<rect x="597.8664" y="503.5598" height="0.4801" width="0.4801" fill="#C6C6C6"/>
<rect x="598.3388" y="503.5598" height="0.4801" width="0.4801" fill="#BDBDBD"/>
<rect x="598.8113" y="503.5598" height="0.4801" width="0.4801" fill="#BDBDBD"/>
<rect x="599.2837" y="503.5598" height="0.4801" width="0.4801" fill="#B5B5B5"/>
<rect x="599.7562" y="503.5598" height="0.4801" width="0.4801" fill="#B5B5B5"/>
<rect x="600.2286" y="503.5598" height="0.4801" width="0.4801" fill="#A5A5A5"/>
<rect x="600.7010" y="503.5598" height="0.4801" width="0.4801" fill="#9C9C9C"/>
<rect x="601.1735" y="503.5598" height="0.4801" width="0.4801" fill="#8C8C8C"/>
<rect x="601.6459" y="503.5598" height="0.4801" width="0.4801" fill="#848484"/>
<rect x="602.1184" y="503.5598" height="0.4801" width="0.4801" fill="#848484"/>
<rect x="588.8900" y="504.0170" height="0.4801" width="0.4801" fill="#F7F7F7"/>
<rect x="589.3625" y="504.0170" height="0.4801" width="0.4801" fill="#F7F7F7"/>
<rect x="589.8349" y="504.0170" height="0.4801" width="0.4801" fill="#EFEFEF"/>
<rect x="590.3073" y="504.0170" height="0.4801" width="0.4801" fill="#E7E7E7"/>
<rect x="590.7798" y="504.0170" height="0.4801" width="0.4801" fill="#E7E7E7"/>
<rect x="591.2522" y="504.0170" height="0.4801" width="0.4801" fill="#D6D6D6"/>
<rect x="591.7247" y="504.0170" height="0.4801" width="0.4801" fill="#CECECE"/>
<rect x="592.1971" y="504.0170" height="0.4801" width="0.4801" fill="#CECECE"/>
<rect x="592.6695" y="504.0170" height="0.4801" width="0.4801" fill="#C6C6C6"/>
<rect x="593.1420" y="504.0170" height="0.4801" width="0.4801" fill="#B5B5B5"/>
<rect x="593.6144" y="504.0170" height="0.4801" width="0.4801" fill="#A5A5A5"/>
<rect x="594.0869" y="504.0170" height="0.4801" width="0.4801" fill="#8C8C8C"/>
<rect x="594.5593" y="504.0170" height="0.4801" width="0.4801" fill="#737373"/>
<rect x="595.0318" y="504.0170" height="0.4801" width="0.4801" fill="#848484"/>
<rect x="595.5042" y="504.0170" height="0.4801" width="0.4801" fill="#949494"/>
<rect x="595.9766" y="504.0170" height="0.4801" width="0.4801" fill="#9C9C9C"/>
<rect x="596.4491" y="504.0170" height="0.4801" width="0.4801" fill="#9C9C9C"/>
<rect x="596.9215" y="504.0170" height="0.4801" width="0.4801" fill="#ADADAD"/>
<rect x="597.3940" y="504.0170" height="0.4801" width="0.4801" fill="#B5B5B5"/>
<rect x="597.8664" y="504.0170" height="0.4801" width="0.4801" fill="#C6C6C6"/>
<rect x="598.3388" y="504.0170" height="0.4801" width="0.4801" fill="#C6C6C6"/>
<rect x="598.8113" y="504.0170" height="0.4801" width="0.4801" fill="#C6C6C6"/>
<rect x="599.2837" y="504.0170" height="0.4801" width="0.4801" fill="#BDBDBD"/>
<rect x="599.7562" y="504.0170" height="0.4801" width="0.4801" fill="#B5B5B5"/>
<rect x="600.2286" y="504.0170" height="0.4801" width="0.4801" fill="#B5B5B5"/>
<rect x="600.7010" y="504.0170" height="0.4801" width="0.4801" fill="#ADADAD"/>
<rect x="601.1735" y="504.0170" height="0.4801" width="0.4801" fill="#9C9C9C"/>
<rect x="601.6459" y="504.0170" height="0.4801" width="0.4801" fill="#949494"/>
<rect x="602.1184" y="504.0170" height="0.4801" width="0.4801" fill="#8C8C8C"/>
<rect x="589.8349" y="504.4742" height="0.4801" width="0.4801" fill="#F7F7F7"/>
<rect x="590.3073" y="504.4742" height="0.4801" width="0.4801" fill="#F7F7F7"/>
<rect x="590.7798" y="504.4742" height="0.4801" width="0.4801" fill="#F7F7F7"/>
<rect x="591.2522" y="504.4742" height="0.4801" width="0.4801" fill="#EFEFEF"/>
<rect x="591.7247" y="504.4742" height="0.4801" width="0.4801" fill="#E7E7E7"/>
<rect x="592.1971" y="504.4742" height="0.4801" width="0.4801" fill="#D6D6D6"/>
<rect x="592.6695" y="504.4742" height="0.4801" width="0.4801" fill="#CECECE"/>
<rect x="593.1420" y="504.4742" height="0.4801" width="0.4801" fill="#C6C6C6"/>
<rect x="593.6144" y="504.4742" height="0.4801" width="0.4801" fill="#A5A5A5"/>
<rect x="594.0869" y="504.4742" height="0.4801" width="0.4801" fill="#949494"/>
<rect x="594.5593" y="504.4742" height="0.4801" width="0.4801" fill="#7B7B7B"/>
<rect x="595.0318" y="504.4742" height="0.4801" width="0.4801" fill="#7B7B7B"/>
<rect x="595.5042" y="504.4742" height="0.4801" width="0.4801" fill="#8C8C8C"/>
<rect x="595.9766" y="504.4742" height="0.4801" width="0.4801" fill="#A5A5A5"/>
<rect x="596.4491" y="504.4742" height="0.4801" width="0.4801" fill="#B5B5B5"/>
<rect x="596.9215" y="504.4742" height="0.4801" width="0.4801" fill="#BDBDBD"/>
<rect x="597.3940" y="504.4742" height="0.4801" width="0.4801" fill="#BDBDBD"/>
<rect x="597.8664" y="504.4742" height="0.4801" width="0.4801" fill="#BDBDBD"/>
<rect x="598.3388" y="504.4742" height="0.4801" width="0.4801" fill="#C6C6C6"/>
<rect x="598.8113" y="504.4742" height="0.4801" width="0.4801" fill="#C6C6C6"/>
<rect x="599.2837" y="504.4742" height="0.4801" width="0.4801" fill="#BDBDBD"/>
<rect x="599.7562" y="504.4742" height="0.4801" width="0.4801" fill="#BDBDBD"/>
<rect x="600.2286" y="504.4742" height="0.4801" width="0.4801" fill="#B5B5B5"/>
<rect x="600.7010" y="504.4742" height="0.4801" width="0.4801" fill="#ADADAD"/>
<rect x="601.1735" y="504.4742" height="0.4801" width="0.4801" fill="#A5A5A5"/>
<rect x="601.6459" y="504.4742" height="0.4801" width="0.4801" fill="#9C9C9C"/>
<rect x="602.1184" y="504.4742" height="0.4801" width="0.4801" fill="#949494"/>
<rect x="590.3073" y="504.9314" height="0.4801" width="0.4801" fill="#F7F7F7"/>
<rect x="590.7798" y="504.9314" height="0.4801" width="0.4801" fill="#F7F7F7"/>
<rect x="591.2522" y="504.9314" height="0.4801" width="0.4801" fill="#F7F7F7"/>
<rect x="591.7247" y="504.9314" height="0.4801" width="0.4801" fill="#EFEFEF"/>
<rect x="592.1971" y="504.9314" height="0.4801" width="0.4801" fill="#E7E7E7"/>
<rect x="592.6695" y="504.9314" height="0.4801" width="0.4801" fill="#CECECE"/>
<rect x="593.1420" y="504.9314" height="0.4801" width="0.4801" fill="#C6C6C6"/>
<rect x="593.6144" y="504.9314" height="0.4801" width="0.4801" fill="#BDBDBD"/>
<rect x="594.0869" y="504.9314" height="0.4801" width="0.4801" fill="#A5A5A5"/>
<rect x="594.5593" y="504.9314" height="0.4801" width="0.4801" fill="#848484"/>
<rect x="595.0318" y="504.9314" height="0.4801" width="0.4801" fill="#8C8C8C"/>
<rect x="595.5042" y="504.9314" height="0.4801" width="0.4801" fill="#9C9C9C"/>
<rect x="595.9766" y="504.9314" height="0.4801" width="0.4801" fill="#ADADAD"/>
<rect x="596.4491" y="504.9314" height="0.4801" width="0.4801" fill="#B5B5B5"/>
<rect x="596.9215" y="504.9314" height="0.4801" width="0.4801" fill="#C6C6C6"/>
<rect x="597.3940" y="504.9314" height="0.4801" width="0.4801" fill="#EFEFEF"/>
<rect x="597.8664" y="504.9314" height="0.4801" width="0.4801" fill="#F7F7F7"/>
<rect x="598.3388" y="504.9314" height="0.4801" width="0.4801" fill="#EFEFEF"/>
<rect x="598.8113" y="504.9314" height="0.4801" width="0.4801" fill="#F7F7F7"/>
<rect x="599.2837" y="504.9314" height="0.4801" width="0.4801" fill="#F7F7F7"/>
<rect x="599.7562" y="504.9314" height="0.4801" width="0.4801" fill="#EFEFEF"/>
<rect x="600.2286" y="504.9314" height="0.4801" width="0.4801" fill="#EFEFEF"/>
<rect x="600.7010" y="504.9314" height="0.4801" width="0.4801" fill="#EFEFEF"/>
<rect x="601.1735" y="504.9314" height="0.4801" width="0.4801" fill="#EFEFEF"/>
<rect x="601.6459" y="504.9314" height="0.4801" width="0.4801" fill="#EFEFEF"/>
<rect x="602.1184" y="504.9314" height="0.4801" width="0.4801" fill="#E7E7E7"/>
<rect x="591.2522" y="505.3886" height="0.4801" width="0.4801" fill="#F7F7F7"/>
<rect x="591.7247" y="505.3886" height="0.4801" width="0.4801" fill="#F7F7F7"/>
<rect x="592.1971" y="505.3886" height="0.4801" width="0.4801" fill="#E7E7E7"/>
<rect x="592.6695" y="505.3886" height="0.4801" width="0.4801" fill="#DEDEDE"/>
<rect x="593.1420" y="505.3886" height="0.4801" width="0.4801" fill="#CECECE"/>
<rect x="593.6144" y="505.3886" height="0.4801" width="0.4801" fill="#BDBDBD"/>
<rect x="594.0869" y="505.3886" height="0.4801" width="0.4801" fill="#ADADAD"/>
<rect x="594.5593" y="505.3886" height="0.4801" width="0.4801" fill="#949494"/>
<rect x="595.0318" y="505.3886" height="0.4801" width="0.4801" fill="#7B7B7B"/>
<rect x="595.5042" y="505.3886" height="0.4801" width="0.4801" fill="#A5A5A5"/>
<rect x="595.9766" y="505.3886" height="0.4801" width="0.4801" fill="#ADADAD"/>
<rect x="596.4491" y="505.3886" height="0.4801" width="0.4801" fill="#C6C6C6"/>
<rect x="596.9215" y="505.3886" height="0.4801" width="0.4801" fill="#CECECE"/>
<rect x="591.7247" y="505.8458" height="0.4801" width="0.4801" fill="#EFEFEF"/>
<rect x="592.1971" y="505.8458" height="0.4801" width="0.4801" fill="#EFEFEF"/>
<rect x="592.6695" y="505.8458" height="0.4801" width="0.4801" fill="#E7E7E7"/>
<rect x="593.1420" y="505.8458" height="0.4801" width="0.4801" fill="#D6D6D6"/>
<rect x="593.6144" y="505.8458" height="0.4801" width="0.4801" fill="#C6C6C6"/>
<rect x="594.0869" y="505.8458" height="0.4801" width="0.4801" fill="#ADADAD"/>
<rect x="594.5593" y="505.8458" height="0.4801" width="0.4801" fill="#949494"/>
<rect x="595.0318" y="505.8458" height="0.4801" width="0.4801" fill="#848484"/>
<rect x="595.5042" y="505.8458" height="0.4801" width="0.4801" fill="#949494"/>
<rect x="595.9766" y="505.8458" height="0.4801" width="0.4801" fill="#BDBDBD"/>
<rect x="596.4491" y="505.8458" height="0.4801" width="0.4801" fill="#C6C6C6"/>
<rect x="596.9215" y="505.8458" height="0.4801" width="0.4801" fill="#C6C6C6"/>
<rect x="597.3940" y="505.8458" height="0.4801" width="0.4801" fill="#F7F7F7"/>
<rect x="591.7247" y="506.3030" height="0.4801" width="0.4801" fill="#F7F7F7"/>
<rect x="592.1971" y="506.3030" height="0.4801" width="0.4801" fill="#EFEFEF"/>
<rect x="592.6695" y="506.3030" height="0.4801" width="0.4801" fill="#DEDEDE"/>
<rect x="593.1420" y="506.3030" height="0.4801" width="0.4801" fill="#D6D6D6"/>
<rect x="593.6144" y="506.3030" height="0.4801" width="0.4801" fill="#CECECE"/>
<rect x="594.0869" y="506.3030" height="0.4801" width="0.4801" fill="#BDBDBD"/>
<rect x="594.5593" y="506.3030" height="0.4801" width="0.4801" fill="#A5A5A5"/>
<rect x="595.0318" y="506.3030" height="0.4801" width="0.4801" fill="#848484"/>
<rect x="595.5042" y="506.3030" height="0.4801" width="0.4801" fill="#8C8C8C"/>
<rect x="595.9766" y="506.3030" height="0.4801" width="0.4801" fill="#ADADAD"/>
<rect x="596.4491" y="506.3030" height="0.4801" width="0.4801" fill="#BDBDBD"/>
<rect x="596.9215" y="506.3030" height="0.4801" width="0.4801" fill="#C6C6C6"/>
<rect x="597.3940" y="506.3030" height="0.4801" width="0.4801" fill="#F7F7F7"/>
<rect x="591.7247" y="506.7602" height="0.4801" width="0.4801" fill="#F7F7F7"/>
<rect x="592.1971" y="506.7602" height="0.4801" width="0.4801" fill="#EFEFEF"/>
<rect x="592.6695" y="506.7602" height="0.4801" width="0.4801" fill="#E7E7E7"/>
<rect x="593.1420" y="506.7602" height="0.4801" width="0.4801" fill="#D6D6D6"/>
<rect x="593.6144" y="506.7602" height="0.4801" width="0.4801" fill="#D6D6D6"/>
<rect x="594.0869" y="506.7602" height="0.4801" width="0.4801" fill="#CECECE"/>
<rect x="594.5593" y="506.7602" height="0.4801" width="0.4801" fill="#C6C6C6"/>
<rect x="595.0318" y="506.7602" height="0.4801" width="0.4801" fill="#949494"/>
<rect x="595.5042" y="506.7602" height="0.4801" width="0.4801" fill="#737373"/>
<rect x="595.9766" y="506.7602" height="0.4801" width="0.4801" fill="#9C9C9C"/>
<rect x="596.4491" y="506.7602" height="0.4801" width="0.4801" fill="#B5B5B5"/>
<rect x="596.9215" y="506.7602" height="0.4801" width="0.4801" fill="#C6C6C6"/>
<rect x="594.5593" y="507.2174" height="0.4801" width="0.4801" fill="#F7F7F7"/>
<rect x="595.0318" y="507.2174" height="0.4801" width="0.4801" fill="#9C9C9C"/>
<rect x="595.5042" y="507.2174" height="0.4801" width="0.4801" fill="#7B7B7B"/>
<rect x="595.9766" y="507.2174" height="0.4801" width="0.4801" fill="#949494"/>
<rect x="596.4491" y="507.2174" height="0.4801" width="0.4801" fill="#ADADAD"/>
<rect x="596.9215" y="507.2174" height="0.4801" width="0.4801" fill="#C6C6C6"/>
<rect x="597.3940" y="507.2174" height="0.4801" width="0.4801" fill="#F7F7F7"/>
<rect x="594.5593" y="507.6746" height="0.4801" width="0.4801" fill="#F7F7F7"/>
<rect x="595.0318" y="507.6746" height="0.4801" width="0.4801" fill="#A5A5A5"/>
<rect x="595.5042" y="507.6746" height="0.4801" width="0.4801" fill="#848484"/>
<rect x="595.9766" y="507.6746" height="0.4801" width="0.4801" fill="#848484"/>
<rect x="596.4491" y="507.6746" height="0.4801" width="0.4801" fill="#A5A5A5"/>
<rect x="596.9215" y="507.6746" height="0.4801" width="0.4801" fill="#B5B5B5"/>
<rect x="597.3940" y="507.6746" height="0.4801" width="0.4801" fill="#F7F7F7"/>
<rect x="594.5593" y="508.1318" height="0.4801" width="0.4801" fill="#EFEFEF"/>
<rect x="595.0318" y="508.1318" height="0.4801" width="0.4801" fill="#9C9C9C"/>
<rect x="595.5042" y="508.1318" height="0.4801" width="0.4801" fill="#848484"/>
<rect x="595.9766" y="508.1318" height="0.4801" width="0.4801" fill="#7B7B7B"/>
<rect x="596.4491" y="508.1318" height="0.4801" width="0.4801" fill="#9C9C9C"/>
<rect x="596.9215" y="508.1318" height="0.4801" width="0.4801" fill="#ADADAD"/>
<rect x="597.3940" y="508.1318" height="0.4801" width="0.4801" fill="#F7F7F7"/>
<rect x="594.5593" y="508.5890" height="0.4801" width="0.4801" fill="#EFEFEF"/>
<rect x="595.0318" y="508.5890" height="0.4801" width="0.4801" fill="#A5A5A5"/>
<rect x="595.5042" y="508.5890" height="0.4801" width="0.4801" fill="#848484"/>
<rect x="595.9766" y="508.5890" height="0.4801" width="0.4801" fill="#7B7B7B"/>
<rect x="596.4491" y="508.5890" height="0.4801" width="0.4801" fill="#8C8C8C"/>
<rect x="596.9215" y="508.5890" height="0.4801" width="0.4801" fill="#ADADAD"/>
<rect x="597.3940" y="508.5890" height="0.4801" width="0.4801" fill="#F7F7F7"/>
<rect x="594.5593" y="509.0462" height="0.4801" width="0.4801" fill="#EFEFEF"/>
<rect x="595.0318" y="509.0462" height="0.4801" width="0.4801" fill="#9C9C9C"/>
<rect x="595.5042" y="509.0462" height="0.4801" width="0.4801" fill="#8C8C8C"/>
<rect x="595.9766" y="509.0462" height="0.4801" width="0.4801" fill="#848484"/>
<rect x="596.4491" y="509.0462" height="0.4801" width="0.4801" fill="#8C8C8C"/>
<rect x="596.9215" y="509.0462" height="0.4801" width="0.4801" fill="#9C9C9C"/>
<rect x="597.3940" y="509.0462" height="0.4801" width="0.4801" fill="#F7F7F7"/>
<rect x="594.5593" y="509.5034" height="0.4801" width="0.4801" fill="#E7E7E7"/>
<rect x="595.0318" y="509.5034" height="0.4801" width="0.4801" fill="#A5A5A5"/>
<rect x="595.5042" y="509.5034" height="0.4801" width="0.4801" fill="#949494"/>
<rect x="595.9766" y="509.5034" height="0.4801" width="0.4801" fill="#8C8C8C"/>
<rect x="596.4491" y="509.5034" height="0.4801" width="0.4801" fill="#8C8C8C"/>
<rect x="596.9215" y="509.5034" height="0.4801" width="0.4801" fill="#A5A5A5"/>
<rect x="597.3940" y="509.5034" height="0.4801" width="0.4801" fill="#F7F7F7"/>
M   595.2756   502.8740
<path stroke-width="0.5669" stroke="#000000" fill="none" d="
M   595.2756   509.9606
L   594.9803   509.9606
L   595.1280   507.0079
L   591.4370   507.5984
L   592.0276   506.4173
L   588.7795   503.4646
L   589.9606   502.2835
L   589.3701   500.5118
L   590.8465   500.8071
L   591.4370   499.3307
L   593.5039   501.6929
L   592.9134   497.5591
L   594.0945   498.1496
L   595.2756   495.7874
L   597.4016   495.7874
L   597.4016   500.7480
L   602.3622   500.7480
L   602.3622   505.0000
L   597.4016   505.0000
L   597.4016   509.9606
L   595.2756   509.9606
"/>
M   595.2756   502.8740
<defs>  <path id="kreis" d="M   589.0110,  509.1386 A    8.8594,    8.8594 0 1 1   601.5402,  509.1386"/> </defs>
<text font-size="3.5433"  font-family="Arial" stroke="none">
<textPath xlink:href="#kreis" >T h e r i a k  -  D o m i n o</textPath> </text>
M   595.2756   502.8740
<path stroke-width="0.4252" stroke="#000000" fill="none" d="
M   136.0630    82.6378
L   135.9154    82.6378
L   135.9892    81.1614
L   134.1437    81.4567
L   134.4390    80.8661
L   132.8150    79.3898
L   133.4055    78.7992
L   133.1102    77.9134
L   133.8484    78.0610
L   134.1437    77.3228
L   135.1772    78.5039
L   134.8819    76.4370
L   135.4724    76.7323
L   136.0630    75.5512
L   137.1260    75.5512
L   137.1260    78.0315
L   139.6063    78.0315
L   139.6063    80.1575
L   137.1260    80.1575
L   137.1260    82.6378
L   136.0630    82.6378
"/>
M   136.0630    79.0945
<path stroke-width="0.4252" stroke="#000000" fill="none" d="
M   141.7323   509.9606
L   141.7323   521.2992
"/>
M   130.6436   536.1811
<text x="130.6436" y="536.1811" transform="rotate(-0.0000,130.6436,536.1811)"  font-family="'Arial'" font-size="13.6070" style="fill: #000000; stroke: none">800</text>
<path stroke-width="0.4252" stroke="#000000" fill="none" d="
M   159.4488   509.9606
L   159.4488   515.6299
M   177.1654   509.9606
L   177.1654   515.6299
M   194.8819   509.9606
L   194.8819   515.6299
M   212.5984   509.9606
L   212.5984   515.6299
M   230.3150   509.9606
L   230.3150   521.2992
"/>
M   215.8701   536.1811
<text x="215.8701" y="536.1811" transform="rotate(-0.0000,215.8701,536.1811)"  font-family="'Arial'" font-size="13.6070" style="fill: #000000; stroke: none">1050</text>
<path stroke-width="0.4252" stroke="#000000" fill="none" d="
M   248.0315   509.9606
L   248.0315   515.6299
M   265.7480   509.9606
L   265.7480   515.6299
M   283.4646   509.9606
L   283.4646   515.6299
M   301.1811   509.9606
L   301.1811   515.6299
M   318.8976   509.9606
L   318.8976   521.2992
"/>
M   304.4528   536.1811
<text x="304.4528" y="536.1811" transform="rotate(-0.0000,304.4528,536.1811)"  font-family="'Arial'" font-size="13.6070" style="fill: #000000; stroke: none">1300</text>
<path stroke-width="0.4252" stroke="#000000" fill="none" d="
M   336.6142   509.9606
L   336.6142   515.6299
M   354.3307   509.9606
L   354.3307   515.6299
M   372.0472   509.9606
L   372.0472   515.6299
M   389.7638   509.9606
L   389.7638   515.6299
M   407.4803   509.9606
L   407.4803   521.2992
"/>
M   393.0355   536.1811
<text x="393.0355" y="536.1811" transform="rotate(-0.0000,393.0355,536.1811)"  font-family="'Arial'" font-size="13.6070" style="fill: #000000; stroke: none">1550</text>
<path stroke-width="0.4252" stroke="#000000" fill="none" d="
M   425.1969   509.9606
L   425.1969   515.6299
M   442.9134   509.9606
L   442.9134   515.6299
M   460.6299   509.9606
L   460.6299   515.6299
M   478.3465   509.9606
L   478.3465   515.6299
M   496.0630   509.9606
L   496.0630   521.2992
"/>
M   481.6181   536.1811
<text x="481.6181" y="536.1811" transform="rotate(-0.0000,481.6181,536.1811)"  font-family="'Arial'" font-size="13.6070" style="fill: #000000; stroke: none">1800</text>
<path stroke-width="0.4252" stroke="#000000" fill="none" d="
M   513.7795   509.9606
L   513.7795   515.6299
M   531.4961   509.9606
L   531.4961   515.6299
M   549.2126   509.9606
L   549.2126   515.6299
M   566.9291   509.9606
L   566.9291   515.6299
M   566.9291   509.9606
L   141.7323   509.9606
"/>
M   283.2351   557.4409
<text x="283.2351" y="557.4409" transform="rotate(-0.0000,283.2351,557.4409)"  font-family="'Arial'" font-size="19.4386" style="fill: #000000; stroke: none">Temperature [C]</text>
<path stroke-width="0.4252" stroke="#000000" fill="none" d="
M   141.7323    84.7638
L   141.7323    73.4252
M   159.4488    84.7638
L   159.4488    79.0945
M   177.1654    84.7638
L   177.1654    79.0945
M   194.8819    84.7638
L   194.8819    79.0945
M   212.5984    84.7638
L   212.5984    79.0945
M   230.3150    84.7638
L   230.3150    73.4252
M   248.0315    84.7638
L   248.0315    79.0945
M   265.7480    84.7638
L   265.7480    79.0945
M   283.4646    84.7638
L   283.4646    79.0945
M   301.1811    84.7638
L   301.1811    79.0945
M   318.8976    84.7638
L   318.8976    73.4252
M   336.6142    84.7638
L   336.6142    79.0945
M   354.3307    84.7638
L   354.3307    79.0945
M   372.0472    84.7638
L   372.0472    79.0945
M   389.7638    84.7638
L   389.7638    79.0945
M   407.4803    84.7638
L   407.4803    73.4252
M   425.1969    84.7638
L   425.1969    79.0945
M   442.9134    84.7638
L   442.9134    79.0945
M   460.6299    84.7638
L   460.6299    79.0945
M   478.3465    84.7638
L   478.3465    79.0945
M   496.0630    84.7638
L   496.0630    73.4252
M   513.7795    84.7638
L   513.7795    79.0945
M   531.4961    84.7638
L   531.4961    79.0945
M   549.2126    84.7638
L   549.2126    79.0945
M   566.9291    84.7638
L   566.9291    79.0945
M   566.9291    84.7638
L   141.7323    84.7638
"/>
<path stroke-width="0.4252" stroke="#000000" fill="none" d="
M   141.7323   509.9606
L   130.3937   509.9606
"/>
M   119.2398   514.9213
<text x="119.2398" y="514.9213" transform="rotate(-0.0000,119.2398,514.9213)"  font-family="'Arial'" font-size="13.6070" style="fill: #000000; stroke: none">1</text>
<path stroke-width="0.4252" stroke="#000000" fill="none" d="
M   141.7323   474.5276
L   136.0630   474.5276
M   141.7323   439.0945
L   130.3937   439.0945
"/>
M    88.9779   444.0551
<text x="88.9779" y="444.0551" transform="rotate(-0.0000,88.9779,444.0551)"  font-family="'Arial'" font-size="13.6070" style="fill: #000000; stroke: none">10001</text>
<path stroke-width="0.4252" stroke="#000000" fill="none" d="
M   141.7323   403.6614
L   136.0630   403.6614
M   141.7323   368.2283
L   130.3937   368.2283
"/>
M    88.0644   373.1890
<text x="88.0644" y="373.1890" transform="rotate(-0.0000,88.0644,373.1890)"  font-family="'Arial'" font-size="13.6070" style="fill: #000000; stroke: none">20001</text>
<path stroke-width="0.4252" stroke="#000000" fill="none" d="
M   141.7323   332.7953
L   136.0630   332.7953
M   141.7323   297.3622
L   130.3937   297.3622
"/>
M    88.0448   302.3228
<text x="88.0448" y="302.3228" transform="rotate(-0.0000,88.0448,302.3228)"  font-family="'Arial'" font-size="13.6070" style="fill: #000000; stroke: none">30001</text>
<path stroke-width="0.4252" stroke="#000000" fill="none" d="
M   141.7323   261.9291
L   136.0630   261.9291
M   141.7323   226.4961
L   130.3937   226.4961
"/>
M    87.9893   231.4567
<text x="87.9893" y="231.4567" transform="rotate(-0.0000,87.9893,231.4567)"  font-family="'Arial'" font-size="13.6070" style="fill: #000000; stroke: none">40001</text>
<path stroke-width="0.4252" stroke="#000000" fill="none" d="
M   141.7323   191.0630
L   136.0630   191.0630
M   141.7323   155.6299
L   130.3937   155.6299
"/>
M    88.0911   160.5906
<text x="88.0911" y="160.5906" transform="rotate(-0.0000,88.0911,160.5906)"  font-family="'Arial'" font-size="13.6070" style="fill: #000000; stroke: none">50001</text>
<path stroke-width="0.4252" stroke="#000000" fill="none" d="
M   141.7323   120.1969
L   136.0630   120.1969
M   141.7323    84.7638
L   130.3937    84.7638
"/>
M    88.1847    89.7244
<text x="88.1847" y="89.7244" transform="rotate(-0.0000,88.1847,89.7244)"  font-family="'Arial'" font-size="13.6070" style="fill: #000000; stroke: none">60001</text>
<path stroke-width="0.4252" stroke="#000000" fill="none" d="
M   141.7323    84.7638
L   141.7323   509.9606
"/>
M    74.0327   359.1193
<text x="74.0327" y="359.1193" transform="rotate(-90.0000,74.0327,359.1193)"  font-family="'Arial'" font-size="19.4386" style="fill: #000000; stroke: none">Pressure [Bar]</text>
<path stroke-width="0.4252" stroke="#000000" fill="none" d="
M   566.9291   509.9606
L   578.2677   509.9606
M   566.9291   474.5276
L   572.5984   474.5276
M   566.9291   439.0945
L   578.2677   439.0945
M   566.9291   403.6614
L   572.5984   403.6614
M   566.9291   368.2283
L   578.2677   368.2283
M   566.9291   332.7953
L   572.5984   332.7953
M   566.9291   297.3622
L   578.2677   297.3622
M   566.9291   261.9291
L   572.5984   261.9291
M   566.9291   226.4961
L   578.2677   226.4961
M   566.9291   191.0630
L   572.5984   191.0630
M   566.9291   155.6299
L   578.2677   155.6299
M   566.9291   120.1969
L   572.5984   120.1969
M   566.9291    84.7638
L   578.2677    84.7638
M   566.9291    84.7638
L   566.9291   509.9606
"/>
<path stroke-width="0.4252" stroke="#000000" fill="none" d="
"/>
M   141.7323    62.0866
<text x="141.7323" y="62.0866" transform="rotate(-0.0000,141.7323,62.0866)"  font-family="'Arial'" font-size="7.7754" style="fill: #000000; stroke: none">Bulk(1)= NA(0.5)CA(2.821)K(0.02)FE(5.879)MG(50.51)AL(3.548)SI(38.451)TI(0.1)CR(0.218)O(?)O(0.096)</text>
M   566.9291   566.6535
<text x="566.9291" y="566.6535" transform="rotate(-0.0000,566.9291,566.6535)"  font-family="'Arial'" font-size="7.7754" style="fill: #000000; stroke: none">08.12.2022 - 17:12:37  CPU time:    2h 08m 38.96s</text>
M   609.4488    84.7638
<text x="609.4488" y="84.7638" transform="rotate(-0.0000,609.4488,84.7638)"  font-family="'Arial'" font-size="7.7754" style="fill: #000000; stroke: none">KLB-1 H-free tc-ig50 ex</text>
M   609.4488    94.6850
<text x="609.4488" y="94.6850" transform="rotate(-0.0000,609.4488,94.6850)"  font-family="'Arial'" font-size="7.7754" style="fill: #000000; stroke: none">domino version: 07.12.2022-0xmain</text>
M   609.4488   104.6063
<text x="609.4488" y="104.6063" transform="rotate(-0.0000,609.4488,104.6063)"  font-family="'Arial'" font-size="7.7754" style="fill: #000000; stroke: none">database: td-ds633-ig50-01.txt</text>
M   609.4488   114.5276
<text x="609.4488" y="114.5276" transform="rotate(-0.0000,609.4488,114.5276)"  font-family="'Arial'" font-size="7.7754" style="fill: #000000; stroke: none">LIQH18: external+margules</text>
M   609.4488   124.4488
<text x="609.4488" y="124.4488" transform="rotate(-0.0000,609.4488,124.4488)"  font-family="'Arial'" font-size="7.7754" style="fill: #000000; stroke: none">FSP4TR: site mixing+margules</text>
M   609.4488   134.3701
<text x="609.4488" y="134.3701" transform="rotate(-0.0000,609.4488,134.3701)"  font-family="'Arial'" font-size="7.7754" style="fill: #000000; stroke: none">OL: site mixing+margules</text>
M   609.4488   144.2913
<text x="609.4488" y="144.2913" transform="rotate(-0.0000,609.4488,144.2913)"  font-family="'Arial'" font-size="7.7754" style="fill: #000000; stroke: none">GRT: site mixing+margules</text>
M   609.4488   154.2126
<text x="609.4488" y="154.2126" transform="rotate(-0.0000,609.4488,154.2126)"  font-family="'Arial'" font-size="7.7754" style="fill: #000000; stroke: none">CRD: site mixing+margules</text>
M   609.4488   164.1339
<text x="609.4488" y="164.1339" transform="rotate(-0.0000,609.4488,164.1339)"  font-family="'Arial'" font-size="7.7754" style="fill: #000000; stroke: none">OPX: site mixing+margules</text>
M   609.4488   174.0551
<text x="609.4488" y="174.0551" transform="rotate(-0.0000,609.4488,174.0551)"  font-family="'Arial'" font-size="7.7754" style="fill: #000000; stroke: none">CPX: site mixing+margules</text>
M   609.4488   183.9764
<text x="609.4488" y="183.9764" transform="rotate(-0.0000,609.4488,183.9764)"  font-family="'Arial'" font-size="7.7754" style="fill: #000000; stroke: none">SPN: site mixing+margules</text>
M   609.4488   193.8976
<text x="609.4488" y="193.8976" transform="rotate(-0.0000,609.4488,193.8976)"  font-family="'Arial'" font-size="7.7754" style="fill: #000000; stroke: none">ILM00: site mixing+margules</text>
<path stroke-width="0.4252" stroke="#000000" fill="none" d="
"/>
M   176.4568   502.4394
<text x="176.4568" y="502.4394" transform="rotate(-73.6579,176.4568,502.4394)"  font-family="'Arial'" font-size="5.5983" style="fill: #000000; stroke: none">1</text>
<path stroke-width="0.4252" stroke="#000000" fill="none" d="
M   171.9196   509.9606
L   173.6220   504.8533
L   174.2111   502.8444
M   175.2414   499.3307
M   175.4664   498.4310
L   177.8989   488.7008
L   178.3972   486.0433
L   178.9370   483.5104
"/>
<path stroke-width="0.4252" stroke="#000000" fill="none" d="
M   181.5945   483.6765
L   182.2173   484.7146
L   182.9232   485.8357
L   183.0478   486.0433
"/>
<path stroke-width="0.4252" stroke="#000000" fill="none" d="
"/>
M   183.6659   502.6800
<text x="183.6659" y="502.6800" transform="rotate(-79.3783,183.6659,502.6800)"  font-family="'Arial'" font-size="5.5983" style="fill: #000000; stroke: none">3</text>
<path stroke-width="0.4252" stroke="#000000" fill="none" d="
M   180.2242   509.9606
L   181.4718   503.3069
M   182.2173   499.3307
M   182.3110   498.4080
L   183.2969   488.7008
L   183.3800   487.3720
L   183.4630   486.7077
"/>
<path stroke-width="0.4252" stroke="#000000" fill="none" d="
"/>
M   198.8688   497.8202
<text x="198.8688" y="497.8202" transform="rotate(29.9262,198.8688,497.8202)"  font-family="'Arial'" font-size="5.5983" style="fill: #000000; stroke: none">4</text>
<path stroke-width="0.4252" stroke="#000000" fill="none" d="
M   223.3252   509.9606
L   205.5118   499.2892
L   203.3322   498.0346
M   199.0025   495.5423
L   187.1171   488.7008
L   184.2520   487.0814
L   183.5876   486.7492
L   183.5461   486.7077
"/>
<path stroke-width="0.4252" stroke="#000000" fill="none" d="
"/>
M   264.6367   499.6384
<text x="264.6367" y="499.6384" transform="rotate(-58.9707,264.6367,499.6384)"  font-family="'Arial'" font-size="5.5983" style="fill: #000000; stroke: none">5</text>
<path stroke-width="0.4252" stroke="#000000" fill="none" d="
M   253.6371   509.9606
L   258.6614   504.2720
L   262.3478   499.4513
M   262.4400   499.3307
M   264.9154   495.2158
L   268.8346   488.7008
L   269.2913   487.7458
L   271.3260   483.3858
L   271.9488   481.9325
"/>
<path stroke-width="0.4252" stroke="#000000" fill="none" d="
M   277.4714   509.9606
L   279.9213   507.3447
L   282.2050   504.6457
L   282.5787   504.2720
L   283.3677   503.3169
"/>
<path stroke-width="0.4252" stroke="#000000" fill="none" d="
M   284.6964   509.9606
L   285.2362   508.6734
L   286.9387   504.6457
L   287.8937   502.3619
L   288.0183   501.9882
L   288.5165   500.6594
L   288.5581   500.6179
L   288.7657   499.9951
"/>
<path stroke-width="0.4252" stroke="#000000" fill="none" d="
"/>
M   333.2051   489.4300
<text x="333.2051" y="489.4300" transform="rotate(-30.0576,333.2051,489.4300)"  font-family="'Arial'" font-size="4.6653" style="fill: #000000; stroke: none">LIQH18</text>
M   348.1417   480.7863
<text x="348.1417" y="480.7863" transform="rotate(-30.0576,348.1417,480.7863)"  font-family="'Arial'" font-size="4.6653" style="fill: #000000; stroke: none">OL</text>
M   354.6102   476.9610
<text x="354.6102" y="476.9610" transform="rotate(-33.4659,354.6102,476.9610)"  font-family="'Arial'" font-size="4.6653" style="fill: #000000; stroke: none">OPX</text>
M   363.9762   470.7699
<text x="363.9762" y="470.7699" transform="rotate(-33.4659,363.9762,470.7699)"  font-family="'Arial'" font-size="4.6653" style="fill: #000000; stroke: none">SPN</text>
<path stroke-width="0.4252" stroke="#000000" fill="none" d="
"/>
M   341.2082   491.8728
<text x="341.2082" y="491.8728" transform="rotate(-30.0576,341.2082,491.8728)"  font-family="'Arial'" font-size="4.6653" style="fill: #000000; stroke: none">LIQH18</text>
M   356.4062   483.1134
<text x="356.4062" y="483.1134" transform="rotate(-33.4659,356.4062,483.1134)"  font-family="'Arial'" font-size="4.6653" style="fill: #000000; stroke: none">OL</text>
M   362.7443   478.9238
<text x="362.7443" y="478.9238" transform="rotate(-33.4659,362.7443,478.9238)"  font-family="'Arial'" font-size="4.6653" style="fill: #000000; stroke: none">SPN</text>
<path stroke-width="0.4252" stroke="#000000" fill="none" d="
M   291.2571   509.9606
L   301.1811   505.9329
L   311.8110   501.2823
L   333.0709   490.9015
L   337.1817   488.7008
L   354.3307   478.7768
L   371.4798   467.4409
L   396.8504   447.5514
L   398.4698   446.1811
L   418.1102   427.1220
L   420.1449   424.9213
L   428.7402   415.2464
L   429.5291   414.2913
L   433.9305   408.9764
L   434.0551   408.7688
L   436.0067   406.3189
L   436.0482   406.2774
"/>
<path stroke-width="0.4252" stroke="#000000" fill="none" d="
"/>
M   404.8726   482.0583
<text x="404.8726" y="482.0583" transform="rotate(-66.1036,404.8726,482.0583)"  font-family="'Arial'" font-size="4.6653" style="fill: #000000; stroke: none">LIQH18</text>
M   411.8344   466.3046
<text x="411.8344" y="466.3046" transform="rotate(-67.5274,411.8344,466.3046)"  font-family="'Arial'" font-size="4.6653" style="fill: #000000; stroke: none">OL</text>
M   414.7387   459.2839
<text x="414.7387" y="459.2839" transform="rotate(-67.5274,414.7387,459.2839)"  font-family="'Arial'" font-size="4.6653" style="fill: #000000; stroke: none">SPN</text>
<path stroke-width="0.4252" stroke="#000000" fill="none" d="
"/>
M   412.7279   479.4434
<text x="412.7279" y="479.4434" transform="rotate(-66.1036,412.7279,479.4434)"  font-family="'Arial'" font-size="4.6653" style="fill: #000000; stroke: none">LIQH18</text>
M   419.6225   463.4957
<text x="419.6225" y="463.4957" transform="rotate(-67.5274,419.6225,463.4957)"  font-family="'Arial'" font-size="4.6653" style="fill: #000000; stroke: none">OL</text>
<path stroke-width="0.4252" stroke="#000000" fill="none" d="
M   393.8192   509.9606
L   396.8504   503.5245
L   412.8368   467.4409
L   418.1102   454.6933
L   421.4736   446.1811
L   429.5291   424.9213
L   433.5153   414.2913
L   434.0551   412.5058
L   435.3423   408.9764
L   436.2558   406.3189
"/>
<path stroke-width="0.4252" stroke="#000000" fill="none" d="
"/>
M   532.0221   334.7803
<text x="532.0221" y="334.7803" transform="rotate(-82.8769,532.0221,334.7803)"  font-family="'Arial'" font-size="4.6653" style="fill: #000000; stroke: none">LIQH18</text>
M   534.1626   317.6562
<text x="534.1626" y="317.6562" transform="rotate(-82.8769,534.1626,317.6562)"  font-family="'Arial'" font-size="4.6653" style="fill: #000000; stroke: none">OL</text>
<path stroke-width="0.4252" stroke="#000000" fill="none" d="
"/>
M   538.5799   331.6812
<text x="538.5799" y="331.6812" transform="rotate(-82.8769,538.5799,331.6812)"  font-family="'Arial'" font-size="4.6653" style="fill: #000000; stroke: none">LIQH18</text>
<path stroke-width="0.4252" stroke="#000000" fill="none" d="
M   498.0423   509.9606
L   509.4196   467.4409
L   518.7208   424.9213
L   524.4094   394.0696
L   526.3610   382.4016
L   532.7556   339.8819
L   538.0706   297.3622
L   542.4720   254.8425
L   546.2921   212.3228
L   549.4479   169.8031
L   552.1054   127.2835
L   554.4307    84.7638
"/>
<path stroke-width="0.4252" stroke="#000000" fill="none" d="
"/>
M   171.2546   473.5950
<text x="171.2546" y="473.5950" transform="rotate(-86.4246,171.2546,473.5950)"  font-family="'Arial'" font-size="5.5983" style="fill: #000000; stroke: none">11</text>
<path stroke-width="0.4252" stroke="#000000" fill="none" d="
M   175.6152   478.0293
L   174.9508   477.6972
L   173.6220   476.7836
L   171.6705   475.4134
L   170.3746   474.0855
M   169.2621   472.7559
M   169.4282   470.0984
M   170.9646   468.5621
M   171.9238   467.9598
L   172.7501   467.4409
L   173.6220   466.9842
L   178.9370   464.9080
L   179.2277   464.7835
L   181.5945   464.0776
L   182.9232   463.6623
L   183.6291   463.4547
L   184.2520   463.2471
L   185.2900   463.4547
L   185.3731   464.7835
L   185.2070   467.4409
L   184.2520   471.6348
L   183.8783   472.7559
L   182.7156   475.4134
L   181.5945   477.4480
"/>
<path stroke-width="0.4252" stroke="#000000" fill="none" d="
M   183.5876   486.3340
L   183.7122   486.0433
L   184.2520   484.7561
L   186.2866   478.0709
L   187.0340   472.7559
L   186.7849   467.4409
L   186.3696   464.7835
L   185.9544   463.4547
L   185.7883   462.7904
"/>
<path stroke-width="0.4252" stroke="#000000" fill="none" d="
M   186.2451   461.0879
L   185.5807   460.9218
L   184.9579   460.7972
L   184.2520   460.6727
L   178.9370   459.6761
L   173.6220   458.9287
L   162.9921   458.0152
L   141.7323   457.4339
"/>
<path stroke-width="0.4252" stroke="#000000" fill="none" d="
"/>
M   231.5926   472.9714
<text x="231.5926" y="472.9714" transform="rotate(14.2468,231.5926,472.9714)"  font-family="'Arial'" font-size="5.5983" style="fill: #000000; stroke: none">14</text>
<path stroke-width="0.4252" stroke="#000000" fill="none" d="
M   271.9488   481.8495
L   269.2913   481.1021
L   248.0315   475.0397
L   238.5706   472.6375
M   231.1057   470.7421
L   226.7717   469.6417
L   217.6781   467.4409
L   216.1417   467.0672
L   210.8268   465.9046
L   208.1693   465.3233
L   205.8855   464.7835
"/>
<path stroke-width="0.4252" stroke="#000000" fill="none" d="
"/>
M   233.7639   454.2962
<text x="233.7639" y="454.2962" transform="rotate(-10.6197,233.7639,454.2962)"  font-family="'Arial'" font-size="5.5983" style="fill: #000000; stroke: none">15</text>
<path stroke-width="0.4252" stroke="#000000" fill="none" d="
M   206.1762   457.8491
L   206.8406   457.6830
L   208.1693   457.4339
L   210.8268   456.8525
L   210.8683   456.8110
L   216.1417   455.6899
L   226.7717   453.5307
L   232.3847   452.4782
M   239.9545   451.0589
L   248.0315   449.5445
L   267.0906   446.1811
L   269.2913   445.8074
L   274.6063   444.8939
L   277.2638   444.3956
L   278.5925   444.2295
L   278.7171   444.1880
"/>
<path stroke-width="0.4252" stroke="#000000" fill="none" d="
"/>
M   279.6688   465.4675
<text x="279.6688" y="465.4675" transform="rotate(-79.3783,279.6688,465.4675)"  font-family="'Arial'" font-size="5.5983" style="fill: #000000; stroke: none">16</text>
<path stroke-width="0.4252" stroke="#000000" fill="none" d="
M   272.2395   481.3927
L   272.4886   480.7283
L   273.6513   478.0709
L   277.4747   466.0944
M   278.8941   458.5246
L   279.2154   456.8110
L   279.4645   446.1811
L   279.2984   444.8524
L   279.2984   444.1880
L   279.2569   444.1465
"/>
<path stroke-width="0.4252" stroke="#000000" fill="none" d="
"/>
M   296.4306   459.9296
<text x="296.4306" y="459.9296" transform="rotate(88.6552,296.4306,459.9296)"  font-family="'Arial'" font-size="5.5983" style="fill: #000000; stroke: none">17</text>
<path stroke-width="0.4252" stroke="#000000" fill="none" d="
M   291.8799   490.9846
L   292.2536   490.0295
L   292.8350   488.7008
L   296.5720   478.0709
L   297.8177   472.7559
L   298.6276   466.5611
M   298.4471   458.8616
L   298.3991   456.8110
L   297.0703   451.4961
L   295.8661   448.6310
L   294.5789   446.1811
L   294.5374   446.0565
L   294.2467   445.5167
"/>
<path stroke-width="0.4252" stroke="#000000" fill="none" d="
"/>
M   333.8120   432.5355
<text x="333.8120" y="432.5355" transform="rotate(-58.4267,333.8120,432.5355)"  font-family="'Arial'" font-size="4.6653" style="fill: #000000; stroke: none">LIQH18</text>
M   342.6577   417.7616
<text x="342.6577" y="417.7616" transform="rotate(-59.9537,342.6577,417.7616)"  font-family="'Arial'" font-size="4.6653" style="fill: #000000; stroke: none">OL</text>
M   346.4618   411.1849
<text x="346.4618" y="411.1849" transform="rotate(-59.9537,346.4618,411.1849)"  font-family="'Arial'" font-size="4.6653" style="fill: #000000; stroke: none">OPX</text>
M   352.1222   401.5385
<text x="352.1222" y="401.5385" transform="rotate(-61.8121,352.1222,401.5385)"  font-family="'Arial'" font-size="4.6653" style="fill: #000000; stroke: none">CPX</text>
<path stroke-width="0.4252" stroke="#000000" fill="none" d="
"/>
M   342.1073   430.9418
<text x="342.1073" y="430.9418" transform="rotate(-59.9537,342.1073,430.9418)"  font-family="'Arial'" font-size="4.6653" style="fill: #000000; stroke: none">LIQH18</text>
M   350.7480   416.0034
<text x="350.7480" y="416.0034" transform="rotate(-59.9537,350.7480,416.0034)"  font-family="'Arial'" font-size="4.6653" style="fill: #000000; stroke: none">OL</text>
M   354.5520   409.4267
<text x="354.5520" y="409.4267" transform="rotate(-59.9537,354.5520,409.4267)"  font-family="'Arial'" font-size="4.6653" style="fill: #000000; stroke: none">OPX</text>
<path stroke-width="0.4252" stroke="#000000" fill="none" d="
M   291.8799   491.1507
L   292.9180   490.0295
L   293.2087   489.6558
L   294.0806   488.7008
L   301.1811   480.5207
L   303.2157   478.0709
L   311.6034   467.4409
L   311.8110   467.1503
L   326.6348   446.1811
L   333.0709   436.3401
L   340.0883   424.9213
L   354.3307   400.2980
L   363.9226   382.4016
L   374.8847   361.1417
L   375.5906   359.6884
L   385.2654   339.8819
L   395.3971   318.6220
L   396.8504   315.4248
L   400.2968   307.9921
L   401.5425   305.3346
L   401.8747   304.6703
"/>
<path stroke-width="0.4252" stroke="#000000" fill="none" d="
"/>
M   335.7717   472.6176
<text x="335.7717" y="472.6176" transform="rotate(-31.5205,335.7717,472.6176)"  font-family="'Arial'" font-size="4.6653" style="fill: #000000; stroke: none">LIQH18</text>
M   350.4514   463.6634
<text x="350.4514" y="463.6634" transform="rotate(-34.2804,350.4514,463.6634)"  font-family="'Arial'" font-size="4.6653" style="fill: #000000; stroke: none">OL</text>
M   356.7293   459.3841
<text x="356.7293" y="459.3841" transform="rotate(-34.2804,356.7293,459.3841)"  font-family="'Arial'" font-size="4.6653" style="fill: #000000; stroke: none">OPX</text>
<path stroke-width="0.4252" stroke="#000000" fill="none" d="
"/>
M   334.2223   480.7505
<text x="334.2223" y="480.7505" transform="rotate(-31.5205,334.2223,480.7505)"  font-family="'Arial'" font-size="4.6653" style="fill: #000000; stroke: none">LIQH18</text>
M   349.0012   471.6941
<text x="349.0012" y="471.6941" transform="rotate(-32.4299,349.0012,471.6941)"  font-family="'Arial'" font-size="4.6653" style="fill: #000000; stroke: none">OL</text>
M   355.5733   467.5821
<text x="355.5733" y="467.5821" transform="rotate(-34.2804,355.5733,467.5821)"  font-family="'Arial'" font-size="4.6653" style="fill: #000000; stroke: none">OPX</text>
M   364.8503   461.2585
<text x="364.8503" y="461.2585" transform="rotate(-34.2804,364.8503,461.2585)"  font-family="'Arial'" font-size="4.6653" style="fill: #000000; stroke: none">SPN</text>
<path stroke-width="0.4252" stroke="#000000" fill="none" d="
M   289.2224   499.7044
L   290.0114   499.3307
L   290.5512   499.0400
L   295.8661   496.3826
L   300.4752   494.0157
L   301.1811   493.6420
L   310.4408   488.7008
L   311.8110   487.9949
L   333.0709   475.8701
L   346.8150   467.4409
L   354.3307   462.6658
L   396.8504   433.6826
L   409.0997   424.9213
L   418.1102   418.4852
L   424.0480   414.2913
L   428.7402   411.0110
L   431.6883   408.9764
L   434.0551   407.3570
L   435.6745   406.3189
L   436.0482   406.1113
"/>
<path stroke-width="0.4252" stroke="#000000" fill="none" d="
"/>
M   310.6779   408.0940
<text x="310.6779" y="408.0940" transform="rotate(-43.5466,310.6779,408.0940)"  font-family="'Arial'" font-size="5.5983" style="fill: #000000; stroke: none">20</text>
<path stroke-width="0.4252" stroke="#000000" fill="none" d="
M   275.9350   437.0875
L   276.2257   436.8799
L   277.2638   436.0079
L   277.8036   435.5512
L   279.9213   433.7657
L   290.0114   424.9213
L   308.5322   407.3177
M   311.8110   404.2012
M   314.2438   401.6105
L   332.2819   382.4016
L   333.0709   381.4465
L   341.4170   371.7717
L   343.7008   369.0727
L   345.8185   366.4567
L   349.0157   362.5120
L   349.0573   362.4705
L   349.5555   361.8061
"/>
<path stroke-width="0.4252" stroke="#000000" fill="none" d="
"/>
M   322.1584   412.2609
<text x="322.1584" y="412.2609" transform="rotate(-53.6707,322.1584,412.2609)"  font-family="'Arial'" font-size="5.5983" style="fill: #000000; stroke: none">21</text>
<path stroke-width="0.4252" stroke="#000000" fill="none" d="
M   293.9976   444.8524
L   294.5374   444.2295
L   295.0772   443.5236
L   295.8661   442.6516
L   297.3195   440.8661
L   301.1811   436.1740
L   301.7209   435.5512
L   310.2747   424.9213
L   311.8110   422.8866
L   319.9096   411.8739
M   324.6950   405.3665
L   341.5831   382.4016
L   343.7008   379.3704
L   348.8081   371.7717
L   349.0157   371.4810
L   352.3791   366.4567
L   354.1231   363.7992
L   354.3307   363.4255
L   355.7840   361.1417
L   356.6975   359.8130
L   356.9882   359.3562
"/>
<path stroke-width="0.4252" stroke="#000000" fill="none" d="
"/>
M   154.1960   320.0764
<text x="154.1960" y="320.0764" transform="rotate(63.0895,154.1960,320.0764)"  font-family="'Arial'" font-size="4.6653" style="fill: #000000; stroke: none">OL</text>
M   157.6538   326.4302
<text x="157.6538" y="326.4302" transform="rotate(67.6001,157.6538,326.4302)"  font-family="'Arial'" font-size="4.6653" style="fill: #000000; stroke: none">GRT</text>
M   162.3540   336.0143
<text x="162.3540" y="336.0143" transform="rotate(74.7086,162.3540,336.0143)"  font-family="'Arial'" font-size="4.6653" style="fill: #000000; stroke: none">OPX</text>
M   165.8966   346.0372
<text x="165.8966" y="346.0372" transform="rotate(82.8769,165.8966,346.0372)"  font-family="'Arial'" font-size="4.6653" style="fill: #000000; stroke: none">CPX</text>
M   167.2516   356.8768
<text x="167.2516" y="356.8768" transform="rotate(82.8769,167.2516,356.8768)"  font-family="'Arial'" font-size="4.6653" style="fill: #000000; stroke: none">ru</text>
<path stroke-width="0.4252" stroke="#000000" fill="none" d="
"/>
M   160.9459   319.8472
<text x="160.9459" y="319.8472" transform="rotate(63.0895,160.9459,319.8472)"  font-family="'Arial'" font-size="4.6653" style="fill: #000000; stroke: none">OL</text>
M   164.4009   326.7325
<text x="164.4009" y="326.7325" transform="rotate(67.6001,164.4009,326.7325)"  font-family="'Arial'" font-size="4.6653" style="fill: #000000; stroke: none">GRT</text>
M   169.0119   337.1489
<text x="169.0119" y="337.1489" transform="rotate(74.7086,169.0119,337.1489)"  font-family="'Arial'" font-size="4.6653" style="fill: #000000; stroke: none">OPX</text>
M   172.3258   348.1063
<text x="172.3258" y="348.1063" transform="rotate(82.8769,172.3258,348.1063)"  font-family="'Arial'" font-size="4.6653" style="fill: #000000; stroke: none">CPX</text>
<path stroke-width="0.4252" stroke="#000000" fill="none" d="
M   164.2793   397.6821
L   164.3209   397.5575
L   164.6115   397.0177
L   165.2759   395.6890
L   165.6496   394.9000
L   166.4385   393.0315
L   170.1756   382.4016
L   172.2518   371.7717
L   172.5840   361.1417
L   171.2552   350.5118
L   168.3486   339.8819
L   162.9921   326.8852
L   158.7983   318.6220
L   146.0092   297.3622
L   141.7323   291.0092
"/>
<path stroke-width="0.4252" stroke="#000000" fill="none" d="
"/>
M   194.9441   401.4662
<text x="194.9441" y="401.4662" transform="rotate(-2.4604,194.9441,401.4662)"  font-family="'Arial'" font-size="5.5983" style="fill: #000000; stroke: none">23</text>
<path stroke-width="0.4252" stroke="#000000" fill="none" d="
M   164.3209   397.9727
L   165.6496   398.2219
L   166.1064   398.3465
L   168.3071   398.7202
L   173.6220   399.3845
L   184.2520   399.8828
L   193.8370   399.4710
M   201.9070   399.1242
L   205.5118   398.9693
L   226.7717   396.3949
L   248.0315   392.5747
L   269.2913   387.6750
L   288.8487   382.4016
L   311.8110   375.2181
L   333.0709   367.5778
L   343.7008   363.3425
L   348.9742   361.1417
L   349.0157   361.1002
L   349.6801   360.8511
"/>
<path stroke-width="0.4252" stroke="#000000" fill="none" d="
"/>
M   185.1534   413.9921
<text x="185.1534" y="413.9921" transform="rotate(-11.2670,185.1534,413.9921)"  font-family="'Arial'" font-size="5.5983" style="fill: #000000; stroke: none">24</text>
<path stroke-width="0.4252" stroke="#000000" fill="none" d="
M   141.7323   418.8174
L   152.3622   417.3225
L   162.9921   415.7446
L   183.7514   412.1766
M   184.2520   412.0906
M   191.6757   410.6117
L   205.5118   407.8553
L   224.3218   403.6614
L   226.7717   403.0386
L   248.0315   397.6406
L   269.2913   391.5782
L   297.5686   382.4016
L   311.8110   377.2942
L   333.0709   368.9896
L   343.7008   364.4221
L   349.0157   362.0137
L   349.4725   361.8061
"/>
<path stroke-width="0.4252" stroke="#000000" fill="none" d="
"/>
M   498.0026   286.7758
<text x="498.0026" y="286.7758" transform="rotate(-69.3524,498.0026,286.7758)"  font-family="'Arial'" font-size="4.6653" style="fill: #000000; stroke: none">LIQH18</text>
M   503.8739   270.5977
<text x="503.8739" y="270.5977" transform="rotate(-71.2312,503.8739,270.5977)"  font-family="'Arial'" font-size="4.6653" style="fill: #000000; stroke: none">OL</text>
M   506.3186   263.4041
<text x="506.3186" y="263.4041" transform="rotate(-71.2312,506.3186,263.4041)"  font-family="'Arial'" font-size="4.6653" style="fill: #000000; stroke: none">OPX</text>
<path stroke-width="0.4252" stroke="#000000" fill="none" d="
"/>
M   505.9534   283.5075
<text x="505.9534" y="283.5075" transform="rotate(-71.2312,505.9534,283.5075)"  font-family="'Arial'" font-size="4.6653" style="fill: #000000; stroke: none">LIQH18</text>
M   511.5063   267.1679
<text x="511.5063" y="267.1679" transform="rotate(-71.2312,511.5063,267.1679)"  font-family="'Arial'" font-size="4.6653" style="fill: #000000; stroke: none">OL</text>
<path stroke-width="0.4252" stroke="#000000" fill="none" d="
M   436.5880   405.6545
L   436.7126   405.4469
L   438.0829   403.6614
L   439.3701   401.8759
L   452.6990   382.4016
L   460.6299   369.5709
L   465.4881   361.1417
L   476.6994   339.8819
L   481.8898   329.0444
L   495.4678   297.3622
L   503.1496   276.9743
L   503.4403   276.1024
L   510.6653   254.8425
L   523.4544   212.3228
L   524.4094   208.7103
L   534.3335   169.8031
L   543.9668   127.2835
L   552.6037    84.7638
"/>
<path stroke-width="0.4252" stroke="#000000" fill="none" d="
"/>
M   392.1770   308.1167
<text x="392.1770" y="308.1167" transform="rotate(-57.3540,392.1770,308.1167)"  font-family="'Arial'" font-size="5.5983" style="fill: #000000; stroke: none">26</text>
<path stroke-width="0.4252" stroke="#000000" fill="none" d="
M   350.3030   360.4774
L   350.3445   360.4358
L   350.8843   359.8130
L   351.6732   358.9410
L   352.0469   358.4843
L   354.3307   355.8683
L   354.3722   355.8268
L   358.8567   350.5118
L   364.9606   342.9961
L   367.4105   339.8819
L   375.5906   329.1274
L   383.0232   318.6220
L   389.9080   307.8750
M   394.2652   301.0735
L   396.6428   297.3622
L   396.8504   296.9885
L   408.6014   276.1024
L   418.1102   257.2924
L   419.3144   254.8425
L   428.8647   233.5827
L   429.4461   232.2539
L   429.6952   231.5896
"/>
<path stroke-width="0.4252" stroke="#000000" fill="none" d="
"/>
M   378.2243   340.9372
<text x="378.2243" y="340.9372" transform="rotate(-52.7027,378.2243,340.9372)"  font-family="'Arial'" font-size="5.5983" style="fill: #000000; stroke: none">27</text>
<path stroke-width="0.4252" stroke="#000000" fill="none" d="
M   357.1128   359.1486
L   357.6526   358.6919
L   357.8602   358.4843
L   359.6457   356.9479
L   360.9329   355.8268
L   364.9606   352.0482
L   366.5800   350.5118
L   375.5906   340.8369
L   375.9824   340.5122
M   380.8769   334.0866
L   392.6566   318.6220
L   396.8504   312.3521
L   399.6324   307.9921
L   401.2934   305.3346
L   401.5010   305.0440
L   401.7086   304.6703
"/>
<path stroke-width="0.4252" stroke="#000000" fill="none" d="
"/>
M   471.0856   150.5871
<text x="471.0856" y="150.5871" transform="rotate(-70.6416,471.0856,150.5871)"  font-family="'Arial'" font-size="5.5983" style="fill: #000000; stroke: none">28</text>
<path stroke-width="0.4252" stroke="#000000" fill="none" d="
M   402.4560   303.3415
L   402.7882   302.6772
L   405.5287   297.3622
L   416.2417   276.1024
L   418.1102   272.2407
L   426.4564   254.8425
L   436.1728   233.5827
L   438.4981   228.2677
L   439.3701   226.3161
L   445.3909   212.3228
L   462.0832   169.8031
L   468.8132   150.8704
M   469.6404   148.5433
M   471.2598   143.9342
M   471.4912   143.2497
L   473.2945   137.9134
L   476.6994   127.2835
L   481.8898   110.3836
L   489.1563    84.7638
"/>
<path stroke-width="0.4252" stroke="#000000" fill="none" d="
"/>
M   474.3150   193.0964
<text x="474.3150" y="193.0964" transform="rotate(-60.8650,474.3150,193.0964)"  font-family="'Arial'" font-size="4.6653" style="fill: #000000; stroke: none">LIQH18</text>
M   482.5757   177.9977
<text x="482.5757" y="177.9977" transform="rotate(-62.7525,482.5757,177.9977)"  font-family="'Arial'" font-size="4.6653" style="fill: #000000; stroke: none">OL</text>
M   486.0899   171.2981
<text x="486.0899" y="171.2981" transform="rotate(-64.1571,486.0899,171.2981)"  font-family="'Arial'" font-size="4.6653" style="fill: #000000; stroke: none">GRT</text>
M   490.9724   161.2180
<text x="490.9724" y="161.2180" transform="rotate(-64.1571,490.9724,161.2180)"  font-family="'Arial'" font-size="4.6653" style="fill: #000000; stroke: none">OPX</text>
<path stroke-width="0.4252" stroke="#000000" fill="none" d="
"/>
M   482.7284   191.0750
<text x="482.7284" y="191.0750" transform="rotate(-62.7525,482.7284,191.0750)"  font-family="'Arial'" font-size="4.6653" style="fill: #000000; stroke: none">LIQH18</text>
M   490.6291   175.7324
<text x="490.6291" y="175.7324" transform="rotate(-62.7525,490.6291,175.7324)"  font-family="'Arial'" font-size="4.6653" style="fill: #000000; stroke: none">OL</text>
M   494.0855   168.8365
<text x="494.0855" y="168.8365" transform="rotate(-64.1571,494.0855,168.8365)"  font-family="'Arial'" font-size="4.6653" style="fill: #000000; stroke: none">OPX</text>
<path stroke-width="0.4252" stroke="#000000" fill="none" d="
M   402.7052   303.3415
L   402.8297   303.1339
L   403.2034   302.6772
L   407.2727   297.3622
L   418.1102   282.7876
L   423.0515   276.1024
L   437.9998   254.8425
L   439.3701   252.8079
L   452.0346   233.5827
L   460.6299   219.7555
L   465.1559   212.3228
L   481.8898   182.3016
L   488.3258   169.8031
L   498.6236   148.5433
L   503.1496   138.4532
L   508.0078   127.2835
L   524.4094    85.3036
L   524.6171    84.7638
"/>
<path stroke-width="0.4252" stroke="#000000" fill="none" d="
M   429.9443   230.9252
L   430.0689   230.3854
L   430.2765   229.5965
L   430.5257   228.2677
L   431.6053   222.9528
L   434.2627   212.3228
L   439.3701   195.3399
L   448.6297   169.8031
L   457.4326   148.5433
L   460.6299   141.3598
L   462.1663   137.9134
L   462.4985   137.2490
L   462.6230   136.8753
"/>
<path stroke-width="0.4252" stroke="#000000" fill="none" d="
M   430.0689   230.7176
L   430.5257   229.5965
L   431.1070   228.2677
L   433.1831   222.9528
L   437.4185   212.3228
L   439.3701   207.0494
L   452.4499   169.8031
L   459.1766   148.5433
L   460.6299   143.8512
L   462.4154   137.9134
L   462.5815   137.2490
L   462.6230   137.1244
"/>
<path stroke-width="0.4252" stroke="#000000" fill="none" d="
M   430.0689   230.8006
L   430.6087   229.5965
L   431.2731   228.2677
L   433.6814   222.9528
L   438.1659   212.3228
L   439.3701   209.3747
L   453.4464   169.8031
L   459.6749   148.5433
L   460.6299   145.0138
L   462.4985   137.9134
L   462.6230   137.2905
L   462.6646   137.2490
L   462.8306   136.5846
"/>
<path stroke-width="0.4252" stroke="#000000" fill="none" d="
"/>
M   468.9824   121.7661
<text x="468.9824" y="121.7661" transform="rotate(-75.1234,468.9824,121.7661)"  font-family="'Arial'" font-size="5.5983" style="fill: #000000; stroke: none">33</text>
<path stroke-width="0.4252" stroke="#000000" fill="none" d="
M   462.9967   135.9203
L   463.1628   135.2559
L   463.2874   134.7992
L   463.9102   132.5984
L   465.4051   127.2835
L   466.7478   122.2284
M   468.8236   114.4138
L   471.0522   106.0236
L   476.3672    84.7638
"/>
<path stroke-width="0.4252" stroke="#000000" fill="none" d="
"/>
M   215.4592   446.0016
<text x="215.4592" y="446.0016" transform="rotate(-7.3453,215.4592,446.0016)"  font-family="'Arial'" font-size="5.5983" style="fill: #000000; stroke: none">34</text>
<path stroke-width="0.4252" stroke="#000000" fill="none" d="
M   141.7323   454.9425
L   162.9921   451.5376
L   173.6220   449.8767
L   184.2520   448.2988
L   194.8819   446.7209
L   198.8266   446.1811
L   205.5118   445.2261
L   214.1862   444.1079
M   222.2054   443.0742
L   226.7717   442.4855
L   248.0315   439.9111
L   269.2913   437.7519
L   274.6063   437.2536
L   275.2707   437.1706
"/>
<path stroke-width="0.4252" stroke="#000000" fill="none" d="
"/>
M   154.6241   411.2584
<text x="154.6241" y="411.2584" transform="rotate(-43.6608,154.6241,411.2584)"  font-family="'Arial'" font-size="5.5983" style="fill: #000000; stroke: none">35</text>
<path stroke-width="0.4252" stroke="#000000" fill="none" d="
M   141.7323   417.4886
L   147.0888   414.2913
L   152.4768   410.4864
M   158.3263   404.9043
L   159.6288   403.6614
L   162.9921   399.4676
L   163.8641   398.3465
"/>
<path stroke-width="0.4252" stroke="#000000" fill="none" d="
"/>
M   149.0378   396.0238
<text x="149.0378" y="396.0238" transform="rotate(15.2931,149.0378,396.0238)"  font-family="'Arial'" font-size="5.5983" style="fill: #000000; stroke: none">36</text>
<path stroke-width="0.4252" stroke="#000000" fill="none" d="
M   141.7323   385.1006
L   143.1025   387.7165
L   147.0472   391.8273
L   148.8927   393.0167
M   148.9158   393.0315
M   152.3622   394.8170
M   156.3910   395.9186
L   162.9921   397.7236
L   163.6565   397.8897
"/>
<path stroke-width="0.4252" stroke="#000000" fill="none" d="
M   349.6801   361.7646
L   350.3445   361.5154
L   351.2995   361.1417
L   351.6732   361.0172
L   354.3307   360.1037
L   355.1196   359.8130
L   355.6594   359.6054
L   356.3238   359.4393
"/>
<path stroke-width="0.4252" stroke="#000000" fill="none" d="
M   350.3445   360.6019
L   351.6732   360.2697
L   354.3307   359.6054
L   355.6594   359.3562
L   356.3238   359.2732
"/>
<path stroke-width="0.4252" stroke="#000000" fill="none" d="
M   283.2431   503.2754
L   283.2016   503.3169
L   282.5787   503.7737
L   281.4576   504.6457
L   279.9213   505.7668
L   277.7205   507.3031
L   277.2638   507.5938
L   274.6063   509.3378
L   273.9419   509.7530
"/>
<path stroke-width="0.4252" stroke="#000000" fill="none" d="
"/>
M   279.6501   496.5838
<text x="279.6501" y="496.5838" transform="rotate(-85.5341,279.6501,496.5838)"  font-family="'Arial'" font-size="5.5983" style="fill: #000000; stroke: none">40</text>
<path stroke-width="0.4252" stroke="#000000" fill="none" d="
M   270.6201   509.6700
L   271.3260   508.6319
L   271.9488   507.5108
L   272.0734   507.3031
L   273.5682   504.6457
L   274.6063   502.6941
L   276.1427   499.3307
L   276.7784   497.2962
M   277.8036   494.0157
M   278.1674   489.3584
L   277.3883   486.0433
L   277.2638   485.8357
L   274.8139   483.3858
L   274.6063   483.2613
L   273.2776   482.5138
L   272.3225   482.0571
"/>
<path stroke-width="0.4252" stroke="#000000" fill="none" d="
M   289.0148   499.3307
L   290.5512   494.9708
L   290.8418   494.0157
L   291.7554   491.3583
"/>
<path stroke-width="0.4252" stroke="#000000" fill="none" d="
M   283.8660   502.6526
L   283.9075   502.5280
L   284.3642   501.9882
L   285.2362   500.7840
L   286.2743   499.3307
L   290.5512   493.1438
L   291.6723   491.3583
"/>
<path stroke-width="0.4252" stroke="#000000" fill="none" d="
M   279.2569   444.0634
L   279.9213   443.9804
L   285.2362   443.4821
L   290.5512   443.8973
L   293.2087   444.7278
L   293.5824   444.8524
"/>
<path stroke-width="0.4252" stroke="#000000" fill="none" d="
M   275.9350   437.1706
L   277.2638   437.2536
L   279.9213   437.6689
L   285.2362   439.2467
L   288.2674   440.8661
L   290.5512   442.3195
L   292.0875   443.5236
L   293.2087   444.3956
L   293.7485   444.8524
"/>
<path stroke-width="0.4252" stroke="#000000" fill="none" d="
M   349.6801   361.5985
L   349.8877   361.1417
"/>
<path stroke-width="0.4252" stroke="#000000" fill="none" d="
M   176.2795   478.4446
L   178.9370   480.0225
L   180.2657   479.4411
L   180.3073   479.3996
L   180.8055   478.7352
L   180.9301   478.4446
"/>
<path stroke-width="0.4252" stroke="#000000" fill="none" d="
M   283.9075   502.8602
L   285.2362   502.0297
L   285.3608   501.9882
L   287.8937   500.4518
L   288.5581   500.1196
L   288.6826   499.9951
"/>
<path stroke-width="0.4252" stroke="#000000" fill="none" d="
M   185.6222   462.7904
L   185.7883   462.1260
L   186.2036   461.4616
L   186.2451   461.4201
"/>
<path stroke-width="0.4252" stroke="#000000" fill="none" d="
M   185.9544   462.1260
L   186.2451   461.5862
L   186.2866   461.4616
"/>
<path stroke-width="0.4252" stroke="#000000" fill="none" d="
M   186.2451   462.5827
L   186.9094   462.4166
L   188.2797   462.1260
L   188.2382   461.3370
L   186.9094   461.1710
"/>
<path stroke-width="0.4252" stroke="#000000" fill="none" d="
M   194.2175   462.3336
L   193.5531   462.1675
L   193.3455   462.1260
L   193.5531   460.8388
L   193.6777   460.7972
L   194.2175   460.6727
"/>
<path stroke-width="0.4252" stroke="#000000" fill="none" d="
M   279.1323   443.5236
L   278.0527   440.8661
L   277.2638   439.3298
L   276.5579   438.2087
L   275.9350   437.2536
"/>
<path stroke-width="0.4252" stroke="#000000" fill="none" d="
M   402.1238   304.0059
L   402.1654   303.9644
"/>
<path stroke-width="0.4252" stroke="#000000" fill="none" d="
M   356.9882   359.1901
L   356.9882   359.1618
"/>
<path stroke-width="0.4252" stroke="#000000" fill="none" d="
M   430.0274   230.9252
L   430.0274   230.8969
"/>
<path stroke-width="0.4252" stroke="#000000" fill="none" d="
M   462.7476   136.5846
L   462.7476   136.5563
"/>
<path stroke-width="0.4252" stroke="#000000" fill="none" d="
M   293.8730   444.9769
L   293.8730   444.9486
"/>

</g>

</svg>
