<?xml version="1.0" encoding="utf-8"?>
<svg version="1.1"
xmlns="http://www.w3.org/2000/svg"
xmlns:xlink="http://www.w3.org/1999/xlink" 
width="29.7cm" height="21cm"
viewBox="0 0 842 595">
<g xml:space="preserve" stroke-linecap="round" stroke-linejoin="round" stroke-miterlimit="10">
<path stroke-width="0.5669" stroke="#000000" fill="none" d="
M   595.2756   502.8740
"/>
<rect x="595.0318" y="495.7874" height="0.4801" width="0.4801" fill="#CECECE"/>
<rect x="595.5042" y="495.7874" height="0.4801" width="0.4801" fill="#BDBDBD"/>
<rect x="595.9766" y="495.7874" height="0.4801" width="0.4801" fill="#B5B5B5"/>
<rect x="596.4491" y="495.7874" height="0.4801" width="0.4801" fill="#9C9C9C"/>
<rect x="596.9215" y="495.7874" height="0.4801" width="0.4801" fill="#8C8C8C"/>
<rect x="597.3940" y="495.7874" height="0.4801" width="0.4801" fill="#EFEFEF"/>
<rect x="594.5593" y="496.2446" height="0.4801" width="0.4801" fill="#E7E7E7"/>
<rect x="595.0318" y="496.2446" height="0.4801" width="0.4801" fill="#C6C6C6"/>
<rect x="595.5042" y="496.2446" height="0.4801" width="0.4801" fill="#BDBDBD"/>
<rect x="595.9766" y="496.2446" height="0.4801" width="0.4801" fill="#ADADAD"/>
<rect x="596.4491" y="496.2446" height="0.4801" width="0.4801" fill="#949494"/>
<rect x="596.9215" y="496.2446" height="0.4801" width="0.4801" fill="#7B7B7B"/>
<rect x="597.3940" y="496.2446" height="0.4801" width="0.4801" fill="#EFEFEF"/>
<rect x="594.5593" y="496.7018" height="0.4801" width="0.4801" fill="#D6D6D6"/>
<rect x="595.0318" y="496.7018" height="0.4801" width="0.4801" fill="#C6C6C6"/>
<rect x="595.5042" y="496.7018" height="0.4801" width="0.4801" fill="#B5B5B5"/>
<rect x="595.9766" y="496.7018" height="0.4801" width="0.4801" fill="#A5A5A5"/>
<rect x="596.4491" y="496.7018" height="0.4801" width="0.4801" fill="#8C8C8C"/>
<rect x="596.9215" y="496.7018" height="0.4801" width="0.4801" fill="#6B6B6B"/>
<rect x="597.3940" y="496.7018" height="0.4801" width="0.4801" fill="#EFEFEF"/>
<rect x="594.0869" y="497.1590" height="0.4801" width="0.4801" fill="#EFEFEF"/>
<rect x="594.5593" y="497.1590" height="0.4801" width="0.4801" fill="#CECECE"/>
<rect x="595.0318" y="497.1590" height="0.4801" width="0.4801" fill="#C6C6C6"/>
<rect x="595.5042" y="497.1590" height="0.4801" width="0.4801" fill="#B5B5B5"/>
<rect x="595.9766" y="497.1590" height="0.4801" width="0.4801" fill="#9C9C9C"/>
<rect x="596.4491" y="497.1590" height="0.4801" width="0.4801" fill="#737373"/>
<rect x="596.9215" y="497.1590" height="0.4801" width="0.4801" fill="#737373"/>
<rect x="597.3940" y="497.1590" height="0.4801" width="0.4801" fill="#EFEFEF"/>
<rect x="592.6695" y="497.6162" height="0.4801" width="0.4801" fill="#F7F7F7"/>
<rect x="593.1420" y="497.6162" height="0.4801" width="0.4801" fill="#F7F7F7"/>
<rect x="593.6144" y="497.6162" height="0.4801" width="0.4801" fill="#F7F7F7"/>
<rect x="594.0869" y="497.6162" height="0.4801" width="0.4801" fill="#DEDEDE"/>
<rect x="594.5593" y="497.6162" height="0.4801" width="0.4801" fill="#CECECE"/>
<rect x="595.0318" y="497.6162" height="0.4801" width="0.4801" fill="#BDBDBD"/>
<rect x="595.5042" y="497.6162" height="0.4801" width="0.4801" fill="#ADADAD"/>
<rect x="595.9766" y="497.6162" height="0.4801" width="0.4801" fill="#8C8C8C"/>
<rect x="596.4491" y="497.6162" height="0.4801" width="0.4801" fill="#6B6B6B"/>
<rect x="596.9215" y="497.6162" height="0.4801" width="0.4801" fill="#848484"/>
<rect x="597.3940" y="497.6162" height="0.4801" width="0.4801" fill="#F7F7F7"/>
<rect x="592.6695" y="498.0734" height="0.4801" width="0.4801" fill="#F7F7F7"/>
<rect x="593.1420" y="498.0734" height="0.4801" width="0.4801" fill="#E7E7E7"/>
<rect x="593.6144" y="498.0734" height="0.4801" width="0.4801" fill="#E7E7E7"/>
<rect x="594.0869" y="498.0734" height="0.4801" width="0.4801" fill="#D6D6D6"/>
<rect x="594.5593" y="498.0734" height="0.4801" width="0.4801" fill="#C6C6C6"/>
<rect x="595.0318" y="498.0734" height="0.4801" width="0.4801" fill="#BDBDBD"/>
<rect x="595.5042" y="498.0734" height="0.4801" width="0.4801" fill="#9C9C9C"/>
<rect x="595.9766" y="498.0734" height="0.4801" width="0.4801" fill="#737373"/>
<rect x="596.4491" y="498.0734" height="0.4801" width="0.4801" fill="#737373"/>
<rect x="596.9215" y="498.0734" height="0.4801" width="0.4801" fill="#949494"/>
<rect x="597.3940" y="498.0734" height="0.4801" width="0.4801" fill="#F7F7F7"/>
<rect x="592.6695" y="498.5306" height="0.4801" width="0.4801" fill="#F7F7F7"/>
<rect x="593.1420" y="498.5306" height="0.4801" width="0.4801" fill="#E7E7E7"/>
<rect x="593.6144" y="498.5306" height="0.4801" width="0.4801" fill="#DEDEDE"/>
<rect x="594.0869" y="498.5306" height="0.4801" width="0.4801" fill="#CECECE"/>
<rect x="594.5593" y="498.5306" height="0.4801" width="0.4801" fill="#BDBDBD"/>
<rect x="595.0318" y="498.5306" height="0.4801" width="0.4801" fill="#ADADAD"/>
<rect x="595.5042" y="498.5306" height="0.4801" width="0.4801" fill="#8C8C8C"/>
<rect x="595.9766" y="498.5306" height="0.4801" width="0.4801" fill="#6B6B6B"/>
<rect x="596.4491" y="498.5306" height="0.4801" width="0.4801" fill="#7B7B7B"/>
<rect x="596.9215" y="498.5306" height="0.4801" width="0.4801" fill="#9C9C9C"/>
<rect x="597.3940" y="498.5306" height="0.4801" width="0.4801" fill="#F7F7F7"/>
<rect x="592.6695" y="498.9878" height="0.4801" width="0.4801" fill="#F7F7F7"/>
<rect x="593.1420" y="498.9878" height="0.4801" width="0.4801" fill="#E7E7E7"/>
<rect x="593.6144" y="498.9878" height="0.4801" width="0.4801" fill="#D6D6D6"/>
<rect x="594.0869" y="498.9878" height="0.4801" width="0.4801" fill="#C6C6C6"/>
<rect x="594.5593" y="498.9878" height="0.4801" width="0.4801" fill="#B5B5B5"/>
<rect x="595.0318" y="498.9878" height="0.4801" width="0.4801" fill="#9C9C9C"/>
<rect x="595.5042" y="498.9878" height="0.4801" width="0.4801" fill="#737373"/>
<rect x="595.9766" y="498.9878" height="0.4801" width="0.4801" fill="#737373"/>
<rect x="596.4491" y="498.9878" height="0.4801" width="0.4801" fill="#8C8C8C"/>
<rect x="596.9215" y="498.9878" height="0.4801" width="0.4801" fill="#A5A5A5"/>
<rect x="597.3940" y="498.9878" height="0.4801" width="0.4801" fill="#F7F7F7"/>
<rect x="590.7798" y="499.4450" height="0.4801" width="0.4801" fill="#F7F7F7"/>
<rect x="592.6695" y="499.4450" height="0.4801" width="0.4801" fill="#F7F7F7"/>
<rect x="593.1420" y="499.4450" height="0.4801" width="0.4801" fill="#D6D6D6"/>
<rect x="593.6144" y="499.4450" height="0.4801" width="0.4801" fill="#CECECE"/>
<rect x="594.0869" y="499.4450" height="0.4801" width="0.4801" fill="#BDBDBD"/>
<rect x="594.5593" y="499.4450" height="0.4801" width="0.4801" fill="#A5A5A5"/>
<rect x="595.0318" y="499.4450" height="0.4801" width="0.4801" fill="#848484"/>
<rect x="595.5042" y="499.4450" height="0.4801" width="0.4801" fill="#636363"/>
<rect x="595.9766" y="499.4450" height="0.4801" width="0.4801" fill="#7B7B7B"/>
<rect x="596.4491" y="499.4450" height="0.4801" width="0.4801" fill="#949494"/>
<rect x="596.9215" y="499.4450" height="0.4801" width="0.4801" fill="#B5B5B5"/>
<rect x="597.3940" y="499.4450" height="0.4801" width="0.4801" fill="#F7F7F7"/>
<rect x="590.7798" y="499.9022" height="0.4801" width="0.4801" fill="#F7F7F7"/>
<rect x="591.2522" y="499.9022" height="0.4801" width="0.4801" fill="#EFEFEF"/>
<rect x="591.7247" y="499.9022" height="0.4801" width="0.4801" fill="#F7F7F7"/>
<rect x="592.6695" y="499.9022" height="0.4801" width="0.4801" fill="#F7F7F7"/>
<rect x="593.1420" y="499.9022" height="0.4801" width="0.4801" fill="#D6D6D6"/>
<rect x="593.6144" y="499.9022" height="0.4801" width="0.4801" fill="#BDBDBD"/>
<rect x="594.0869" y="499.9022" height="0.4801" width="0.4801" fill="#ADADAD"/>
<rect x="594.5593" y="499.9022" height="0.4801" width="0.4801" fill="#8C8C8C"/>
<rect x="595.0318" y="499.9022" height="0.4801" width="0.4801" fill="#636363"/>
<rect x="595.5042" y="499.9022" height="0.4801" width="0.4801" fill="#6B6B6B"/>
<rect x="595.9766" y="499.9022" height="0.4801" width="0.4801" fill="#7B7B7B"/>
<rect x="596.4491" y="499.9022" height="0.4801" width="0.4801" fill="#A5A5A5"/>
<rect x="596.9215" y="499.9022" height="0.4801" width="0.4801" fill="#ADADAD"/>
<rect x="597.3940" y="499.9022" height="0.4801" width="0.4801" fill="#F7F7F7"/>
<rect x="588.8900" y="500.3594" height="0.4801" width="0.4801" fill="#F7F7F7"/>
<rect x="589.3625" y="500.3594" height="0.4801" width="0.4801" fill="#F7F7F7"/>
<rect x="590.3073" y="500.3594" height="0.4801" width="0.4801" fill="#F7F7F7"/>
<rect x="590.7798" y="500.3594" height="0.4801" width="0.4801" fill="#EFEFEF"/>
<rect x="591.2522" y="500.3594" height="0.4801" width="0.4801" fill="#EFEFEF"/>
<rect x="591.7247" y="500.3594" height="0.4801" width="0.4801" fill="#E7E7E7"/>
<rect x="592.1971" y="500.3594" height="0.4801" width="0.4801" fill="#F7F7F7"/>
<rect x="593.1420" y="500.3594" height="0.4801" width="0.4801" fill="#CECECE"/>
<rect x="593.6144" y="500.3594" height="0.4801" width="0.4801" fill="#B5B5B5"/>
<rect x="594.0869" y="500.3594" height="0.4801" width="0.4801" fill="#949494"/>
<rect x="594.5593" y="500.3594" height="0.4801" width="0.4801" fill="#636363"/>
<rect x="595.0318" y="500.3594" height="0.4801" width="0.4801" fill="#5A5A5A"/>
<rect x="595.5042" y="500.3594" height="0.4801" width="0.4801" fill="#636363"/>
<rect x="595.9766" y="500.3594" height="0.4801" width="0.4801" fill="#848484"/>
<rect x="596.4491" y="500.3594" height="0.4801" width="0.4801" fill="#949494"/>
<rect x="596.9215" y="500.3594" height="0.4801" width="0.4801" fill="#A5A5A5"/>
<rect x="597.3940" y="500.3594" height="0.4801" width="0.4801" fill="#E7E7E7"/>
<rect x="597.8664" y="500.3594" height="0.4801" width="0.4801" fill="#EFEFEF"/>
<rect x="598.3388" y="500.3594" height="0.4801" width="0.4801" fill="#EFEFEF"/>
<rect x="598.8113" y="500.3594" height="0.4801" width="0.4801" fill="#EFEFEF"/>
<rect x="599.2837" y="500.3594" height="0.4801" width="0.4801" fill="#EFEFEF"/>
<rect x="599.7562" y="500.3594" height="0.4801" width="0.4801" fill="#EFEFEF"/>
<rect x="600.2286" y="500.3594" height="0.4801" width="0.4801" fill="#EFEFEF"/>
<rect x="600.7010" y="500.3594" height="0.4801" width="0.4801" fill="#EFEFEF"/>
<rect x="601.1735" y="500.3594" height="0.4801" width="0.4801" fill="#E7E7E7"/>
<rect x="601.6459" y="500.3594" height="0.4801" width="0.4801" fill="#EFEFEF"/>
<rect x="602.1184" y="500.3594" height="0.4801" width="0.4801" fill="#E7E7E7"/>
<rect x="588.8900" y="500.8166" height="0.4801" width="0.4801" fill="#F7F7F7"/>
<rect x="589.3625" y="500.8166" height="0.4801" width="0.4801" fill="#EFEFEF"/>
<rect x="589.8349" y="500.8166" height="0.4801" width="0.4801" fill="#EFEFEF"/>
<rect x="590.3073" y="500.8166" height="0.4801" width="0.4801" fill="#EFEFEF"/>
<rect x="590.7798" y="500.8166" height="0.4801" width="0.4801" fill="#EFEFEF"/>
<rect x="591.2522" y="500.8166" height="0.4801" width="0.4801" fill="#E7E7E7"/>
<rect x="591.7247" y="500.8166" height="0.4801" width="0.4801" fill="#DEDEDE"/>
<rect x="592.1971" y="500.8166" height="0.4801" width="0.4801" fill="#D6D6D6"/>
<rect x="592.6695" y="500.8166" height="0.4801" width="0.4801" fill="#EFEFEF"/>
<rect x="593.1420" y="500.8166" height="0.4801" width="0.4801" fill="#C6C6C6"/>
<rect x="593.6144" y="500.8166" height="0.4801" width="0.4801" fill="#949494"/>
<rect x="594.0869" y="500.8166" height="0.4801" width="0.4801" fill="#6B6B6B"/>
<rect x="594.5593" y="500.8166" height="0.4801" width="0.4801" fill="#636363"/>
<rect x="595.0318" y="500.8166" height="0.4801" width="0.4801" fill="#6B6B6B"/>
<rect x="595.5042" y="500.8166" height="0.4801" width="0.4801" fill="#737373"/>
<rect x="595.9766" y="500.8166" height="0.4801" width="0.4801" fill="#7B7B7B"/>
<rect x="596.4491" y="500.8166" height="0.4801" width="0.4801" fill="#848484"/>
<rect x="596.9215" y="500.8166" height="0.4801" width="0.4801" fill="#949494"/>
<rect x="597.3940" y="500.8166" height="0.4801" width="0.4801" fill="#A5A5A5"/>
<rect x="597.8664" y="500.8166" height="0.4801" width="0.4801" fill="#ADADAD"/>
<rect x="598.3388" y="500.8166" height="0.4801" width="0.4801" fill="#ADADAD"/>
<rect x="598.8113" y="500.8166" height="0.4801" width="0.4801" fill="#B5B5B5"/>
<rect x="599.2837" y="500.8166" height="0.4801" width="0.4801" fill="#ADADAD"/>
<rect x="599.7562" y="500.8166" height="0.4801" width="0.4801" fill="#ADADAD"/>
<rect x="600.2286" y="500.8166" height="0.4801" width="0.4801" fill="#A5A5A5"/>
<rect x="600.7010" y="500.8166" height="0.4801" width="0.4801" fill="#9C9C9C"/>
<rect x="601.1735" y="500.8166" height="0.4801" width="0.4801" fill="#9C9C9C"/>
<rect x="601.6459" y="500.8166" height="0.4801" width="0.4801" fill="#8C8C8C"/>
<rect x="602.1184" y="500.8166" height="0.4801" width="0.4801" fill="#949494"/>
<rect x="589.3625" y="501.2738" height="0.4801" width="0.4801" fill="#E7E7E7"/>
<rect x="589.8349" y="501.2738" height="0.4801" width="0.4801" fill="#E7E7E7"/>
<rect x="590.3073" y="501.2738" height="0.4801" width="0.4801" fill="#E7E7E7"/>
<rect x="590.7798" y="501.2738" height="0.4801" width="0.4801" fill="#E7E7E7"/>
<rect x="591.2522" y="501.2738" height="0.4801" width="0.4801" fill="#DEDEDE"/>
<rect x="591.7247" y="501.2738" height="0.4801" width="0.4801" fill="#D6D6D6"/>
<rect x="592.1971" y="501.2738" height="0.4801" width="0.4801" fill="#C6C6C6"/>
<rect x="592.6695" y="501.2738" height="0.4801" width="0.4801" fill="#BDBDBD"/>
<rect x="593.1420" y="501.2738" height="0.4801" width="0.4801" fill="#ADADAD"/>
<rect x="593.6144" y="501.2738" height="0.4801" width="0.4801" fill="#636363"/>
<rect x="594.0869" y="501.2738" height="0.4801" width="0.4801" fill="#636363"/>
<rect x="594.5593" y="501.2738" height="0.4801" width="0.4801" fill="#7B7B7B"/>
<rect x="595.0318" y="501.2738" height="0.4801" width="0.4801" fill="#7B7B7B"/>
<rect x="595.5042" y="501.2738" height="0.4801" width="0.4801" fill="#7B7B7B"/>
<rect x="595.9766" y="501.2738" height="0.4801" width="0.4801" fill="#7B7B7B"/>
<rect x="596.4491" y="501.2738" height="0.4801" width="0.4801" fill="#848484"/>
<rect x="596.9215" y="501.2738" height="0.4801" width="0.4801" fill="#848484"/>
<rect x="597.3940" y="501.2738" height="0.4801" width="0.4801" fill="#949494"/>
<rect x="597.8664" y="501.2738" height="0.4801" width="0.4801" fill="#A5A5A5"/>
<rect x="598.3388" y="501.2738" height="0.4801" width="0.4801" fill="#A5A5A5"/>
<rect x="598.8113" y="501.2738" height="0.4801" width="0.4801" fill="#ADADAD"/>
<rect x="599.2837" y="501.2738" height="0.4801" width="0.4801" fill="#ADADAD"/>
<rect x="599.7562" y="501.2738" height="0.4801" width="0.4801" fill="#ADADAD"/>
<rect x="600.2286" y="501.2738" height="0.4801" width="0.4801" fill="#A5A5A5"/>
<rect x="600.7010" y="501.2738" height="0.4801" width="0.4801" fill="#9C9C9C"/>
<rect x="601.1735" y="501.2738" height="0.4801" width="0.4801" fill="#949494"/>
<rect x="601.6459" y="501.2738" height="0.4801" width="0.4801" fill="#8C8C8C"/>
<rect x="602.1184" y="501.2738" height="0.4801" width="0.4801" fill="#8C8C8C"/>
<rect x="589.3625" y="501.7310" height="0.4801" width="0.4801" fill="#EFEFEF"/>
<rect x="589.8349" y="501.7310" height="0.4801" width="0.4801" fill="#DEDEDE"/>
<rect x="590.3073" y="501.7310" height="0.4801" width="0.4801" fill="#DEDEDE"/>
<rect x="590.7798" y="501.7310" height="0.4801" width="0.4801" fill="#D6D6D6"/>
<rect x="591.2522" y="501.7310" height="0.4801" width="0.4801" fill="#CECECE"/>
<rect x="591.7247" y="501.7310" height="0.4801" width="0.4801" fill="#BDBDBD"/>
<rect x="592.1971" y="501.7310" height="0.4801" width="0.4801" fill="#ADADAD"/>
<rect x="592.6695" y="501.7310" height="0.4801" width="0.4801" fill="#848484"/>
<rect x="593.1420" y="501.7310" height="0.4801" width="0.4801" fill="#5A5A5A"/>
<rect x="593.6144" y="501.7310" height="0.4801" width="0.4801" fill="#636363"/>
<rect x="594.0869" y="501.7310" height="0.4801" width="0.4801" fill="#848484"/>
<rect x="594.5593" y="501.7310" height="0.4801" width="0.4801" fill="#848484"/>
<rect x="595.0318" y="501.7310" height="0.4801" width="0.4801" fill="#7B7B7B"/>
<rect x="595.5042" y="501.7310" height="0.4801" width="0.4801" fill="#7B7B7B"/>
<rect x="595.9766" y="501.7310" height="0.4801" width="0.4801" fill="#7B7B7B"/>
<rect x="596.4491" y="501.7310" height="0.4801" width="0.4801" fill="#848484"/>
<rect x="596.9215" y="501.7310" height="0.4801" width="0.4801" fill="#848484"/>
<rect x="597.3940" y="501.7310" height="0.4801" width="0.4801" fill="#848484"/>
<rect x="597.8664" y="501.7310" height="0.4801" width="0.4801" fill="#949494"/>
<rect x="598.3388" y="501.7310" height="0.4801" width="0.4801" fill="#A5A5A5"/>
<rect x="598.8113" y="501.7310" height="0.4801" width="0.4801" fill="#A5A5A5"/>
<rect x="599.2837" y="501.7310" height="0.4801" width="0.4801" fill="#ADADAD"/>
<rect x="599.7562" y="501.7310" height="0.4801" width="0.4801" fill="#A5A5A5"/>
<rect x="600.2286" y="501.7310" height="0.4801" width="0.4801" fill="#9C9C9C"/>
<rect x="600.7010" y="501.7310" height="0.4801" width="0.4801" fill="#949494"/>
<rect x="601.1735" y="501.7310" height="0.4801" width="0.4801" fill="#8C8C8C"/>
<rect x="601.6459" y="501.7310" height="0.4801" width="0.4801" fill="#848484"/>
<rect x="602.1184" y="501.7310" height="0.4801" width="0.4801" fill="#848484"/>
<rect x="589.3625" y="502.1882" height="0.4801" width="0.4801" fill="#E7E7E7"/>
<rect x="589.8349" y="502.1882" height="0.4801" width="0.4801" fill="#DEDEDE"/>
<rect x="590.3073" y="502.1882" height="0.4801" width="0.4801" fill="#D6D6D6"/>
<rect x="590.7798" y="502.1882" height="0.4801" width="0.4801" fill="#CECECE"/>
<rect x="591.2522" y="502.1882" height="0.4801" width="0.4801" fill="#BDBDBD"/>
<rect x="591.7247" y="502.1882" height="0.4801" width="0.4801" fill="#9C9C9C"/>
<rect x="592.1971" y="502.1882" height="0.4801" width="0.4801" fill="#737373"/>
<rect x="592.6695" y="502.1882" height="0.4801" width="0.4801" fill="#636363"/>
<rect x="593.1420" y="502.1882" height="0.4801" width="0.4801" fill="#636363"/>
<rect x="593.6144" y="502.1882" height="0.4801" width="0.4801" fill="#7B7B7B"/>
<rect x="594.0869" y="502.1882" height="0.4801" width="0.4801" fill="#737373"/>
<rect x="594.5593" y="502.1882" height="0.4801" width="0.4801" fill="#737373"/>
<rect x="595.0318" y="502.1882" height="0.4801" width="0.4801" fill="#7B7B7B"/>
<rect x="595.5042" y="502.1882" height="0.4801" width="0.4801" fill="#848484"/>
<rect x="595.9766" y="502.1882" height="0.4801" width="0.4801" fill="#7B7B7B"/>
<rect x="596.4491" y="502.1882" height="0.4801" width="0.4801" fill="#7B7B7B"/>
<rect x="596.9215" y="502.1882" height="0.4801" width="0.4801" fill="#848484"/>
<rect x="597.3940" y="502.1882" height="0.4801" width="0.4801" fill="#848484"/>
<rect x="597.8664" y="502.1882" height="0.4801" width="0.4801" fill="#8C8C8C"/>
<rect x="598.3388" y="502.1882" height="0.4801" width="0.4801" fill="#8C8C8C"/>
<rect x="598.8113" y="502.1882" height="0.4801" width="0.4801" fill="#848484"/>
<rect x="599.2837" y="502.1882" height="0.4801" width="0.4801" fill="#7B7B7B"/>
<rect x="599.7562" y="502.1882" height="0.4801" width="0.4801" fill="#737373"/>
<rect x="600.2286" y="502.1882" height="0.4801" width="0.4801" fill="#737373"/>
<rect x="600.7010" y="502.1882" height="0.4801" width="0.4801" fill="#6B6B6B"/>
<rect x="601.1735" y="502.1882" height="0.4801" width="0.4801" fill="#636363"/>
<rect x="601.6459" y="502.1882" height="0.4801" width="0.4801" fill="#5A5A5A"/>
<rect x="602.1184" y="502.1882" height="0.4801" width="0.4801" fill="#636363"/>
<rect x="588.8900" y="502.6454" height="0.4801" width="0.4801" fill="#E7E7E7"/>
<rect x="589.3625" y="502.6454" height="0.4801" width="0.4801" fill="#D6D6D6"/>
<rect x="589.8349" y="502.6454" height="0.4801" width="0.4801" fill="#C6C6C6"/>
<rect x="590.3073" y="502.6454" height="0.4801" width="0.4801" fill="#B5B5B5"/>
<rect x="590.7798" y="502.6454" height="0.4801" width="0.4801" fill="#9C9C9C"/>
<rect x="591.2522" y="502.6454" height="0.4801" width="0.4801" fill="#848484"/>
<rect x="591.7247" y="502.6454" height="0.4801" width="0.4801" fill="#737373"/>
<rect x="592.1971" y="502.6454" height="0.4801" width="0.4801" fill="#7B7B7B"/>
<rect x="592.6695" y="502.6454" height="0.4801" width="0.4801" fill="#8C8C8C"/>
<rect x="593.1420" y="502.6454" height="0.4801" width="0.4801" fill="#8C8C8C"/>
<rect x="593.6144" y="502.6454" height="0.4801" width="0.4801" fill="#7B7B7B"/>
<rect x="594.0869" y="502.6454" height="0.4801" width="0.4801" fill="#737373"/>
<rect x="594.5593" y="502.6454" height="0.4801" width="0.4801" fill="#737373"/>
<rect x="595.0318" y="502.6454" height="0.4801" width="0.4801" fill="#737373"/>
<rect x="595.5042" y="502.6454" height="0.4801" width="0.4801" fill="#7B7B7B"/>
<rect x="595.9766" y="502.6454" height="0.4801" width="0.4801" fill="#848484"/>
<rect x="596.4491" y="502.6454" height="0.4801" width="0.4801" fill="#8C8C8C"/>
<rect x="596.9215" y="502.6454" height="0.4801" width="0.4801" fill="#9C9C9C"/>
<rect x="597.3940" y="502.6454" height="0.4801" width="0.4801" fill="#A5A5A5"/>
<rect x="597.8664" y="502.6454" height="0.4801" width="0.4801" fill="#ADADAD"/>
<rect x="598.3388" y="502.6454" height="0.4801" width="0.4801" fill="#A5A5A5"/>
<rect x="598.8113" y="502.6454" height="0.4801" width="0.4801" fill="#A5A5A5"/>
<rect x="599.2837" y="502.6454" height="0.4801" width="0.4801" fill="#949494"/>
<rect x="599.7562" y="502.6454" height="0.4801" width="0.4801" fill="#848484"/>
<rect x="600.2286" y="502.6454" height="0.4801" width="0.4801" fill="#6B6B6B"/>
<rect x="600.7010" y="502.6454" height="0.4801" width="0.4801" fill="#6B6B6B"/>
<rect x="601.1735" y="502.6454" height="0.4801" width="0.4801" fill="#636363"/>
<rect x="601.6459" y="502.6454" height="0.4801" width="0.4801" fill="#6B6B6B"/>
<rect x="602.1184" y="502.6454" height="0.4801" width="0.4801" fill="#7B7B7B"/>
<rect x="588.4176" y="503.1026" height="0.4801" width="0.4801" fill="#CECECE"/>
<rect x="588.8900" y="503.1026" height="0.4801" width="0.4801" fill="#B5B5B5"/>
<rect x="589.3625" y="503.1026" height="0.4801" width="0.4801" fill="#ADADAD"/>
<rect x="589.8349" y="503.1026" height="0.4801" width="0.4801" fill="#A5A5A5"/>
<rect x="590.3073" y="503.1026" height="0.4801" width="0.4801" fill="#9C9C9C"/>
<rect x="590.7798" y="503.1026" height="0.4801" width="0.4801" fill="#A5A5A5"/>
<rect x="591.2522" y="503.1026" height="0.4801" width="0.4801" fill="#ADADAD"/>
<rect x="591.7247" y="503.1026" height="0.4801" width="0.4801" fill="#B5B5B5"/>
<rect x="592.1971" y="503.1026" height="0.4801" width="0.4801" fill="#ADADAD"/>
<rect x="592.6695" y="503.1026" height="0.4801" width="0.4801" fill="#A5A5A5"/>
<rect x="593.1420" y="503.1026" height="0.4801" width="0.4801" fill="#949494"/>
<rect x="593.6144" y="503.1026" height="0.4801" width="0.4801" fill="#848484"/>
<rect x="594.0869" y="503.1026" height="0.4801" width="0.4801" fill="#7B7B7B"/>
<rect x="594.5593" y="503.1026" height="0.4801" width="0.4801" fill="#7B7B7B"/>
<rect x="595.0318" y="503.1026" height="0.4801" width="0.4801" fill="#7B7B7B"/>
<rect x="595.5042" y="503.1026" height="0.4801" width="0.4801" fill="#848484"/>
<rect x="595.9766" y="503.1026" height="0.4801" width="0.4801" fill="#8C8C8C"/>
<rect x="596.4491" y="503.1026" height="0.4801" width="0.4801" fill="#9C9C9C"/>
<rect x="596.9215" y="503.1026" height="0.4801" width="0.4801" fill="#A5A5A5"/>
<rect x="597.3940" y="503.1026" height="0.4801" width="0.4801" fill="#B5B5B5"/>
<rect x="597.8664" y="503.1026" height="0.4801" width="0.4801" fill="#B5B5B5"/>
<rect x="598.3388" y="503.1026" height="0.4801" width="0.4801" fill="#BDBDBD"/>
<rect x="598.8113" y="503.1026" height="0.4801" width="0.4801" fill="#B5B5B5"/>
<rect x="599.2837" y="503.1026" height="0.4801" width="0.4801" fill="#B5B5B5"/>
<rect x="599.7562" y="503.1026" height="0.4801" width="0.4801" fill="#A5A5A5"/>
<rect x="600.2286" y="503.1026" height="0.4801" width="0.4801" fill="#9C9C9C"/>
<rect x="600.7010" y="503.1026" height="0.4801" width="0.4801" fill="#848484"/>
<rect x="601.1735" y="503.1026" height="0.4801" width="0.4801" fill="#848484"/>
<rect x="601.6459" y="503.1026" height="0.4801" width="0.4801" fill="#737373"/>
<rect x="602.1184" y="503.1026" height="0.4801" width="0.4801" fill="#848484"/>
<rect x="588.4176" y="503.5598" height="0.4801" width="0.4801" fill="#E7E7E7"/>
<rect x="588.8900" y="503.5598" height="0.4801" width="0.4801" fill="#D6D6D6"/>
<rect x="589.3625" y="503.5598" height="0.4801" width="0.4801" fill="#CECECE"/>
<rect x="589.8349" y="503.5598" height="0.4801" width="0.4801" fill="#D6D6D6"/>
<rect x="590.3073" y="503.5598" height="0.4801" width="0.4801" fill="#D6D6D6"/>
<rect x="590.7798" y="503.5598" height="0.4801" width="0.4801" fill="#D6D6D6"/>
<rect x="591.2522" y="503.5598" height="0.4801" width="0.4801" fill="#C6C6C6"/>
<rect x="591.7247" y="503.5598" height="0.4801" width="0.4801" fill="#C6C6C6"/>
<rect x="592.1971" y="503.5598" height="0.4801" width="0.4801" fill="#C6C6C6"/>
<rect x="592.6695" y="503.5598" height="0.4801" width="0.4801" fill="#BDBDBD"/>
<rect x="593.1420" y="503.5598" height="0.4801" width="0.4801" fill="#A5A5A5"/>
<rect x="593.6144" y="503.5598" height="0.4801" width="0.4801" fill="#9C9C9C"/>
<rect x="594.0869" y="503.5598" height="0.4801" width="0.4801" fill="#7B7B7B"/>
<rect x="594.5593" y="503.5598" height="0.4801" width="0.4801" fill="#7B7B7B"/>
<rect x="595.0318" y="503.5598" height="0.4801" width="0.4801" fill="#8C8C8C"/>
<rect x="595.5042" y="503.5598" height="0.4801" width="0.4801" fill="#8C8C8C"/>
<rect x="595.9766" y="503.5598" height="0.4801" width="0.4801" fill="#8C8C8C"/>
<rect x="596.4491" y="503.5598" height="0.4801" width="0.4801" fill="#A5A5A5"/>
<rect x="596.9215" y="503.5598" height="0.4801" width="0.4801" fill="#ADADAD"/>
<rect x="597.3940" y="503.5598" height="0.4801" width="0.4801" fill="#B5B5B5"/>
<rect x="597.8664" y="503.5598" height="0.4801" width="0.4801" fill="#C6C6C6"/>
<rect x="598.3388" y="503.5598" height="0.4801" width="0.4801" fill="#BDBDBD"/>
<rect x="598.8113" y="503.5598" height="0.4801" width="0.4801" fill="#BDBDBD"/>
<rect x="599.2837" y="503.5598" height="0.4801" width="0.4801" fill="#B5B5B5"/>
<rect x="599.7562" y="503.5598" height="0.4801" width="0.4801" fill="#B5B5B5"/>
<rect x="600.2286" y="503.5598" height="0.4801" width="0.4801" fill="#A5A5A5"/>
<rect x="600.7010" y="503.5598" height="0.4801" width="0.4801" fill="#9C9C9C"/>
<rect x="601.1735" y="503.5598" height="0.4801" width="0.4801" fill="#8C8C8C"/>
<rect x="601.6459" y="503.5598" height="0.4801" width="0.4801" fill="#848484"/>
<rect x="602.1184" y="503.5598" height="0.4801" width="0.4801" fill="#848484"/>
<rect x="588.8900" y="504.0170" height="0.4801" width="0.4801" fill="#F7F7F7"/>
<rect x="589.3625" y="504.0170" height="0.4801" width="0.4801" fill="#F7F7F7"/>
<rect x="589.8349" y="504.0170" height="0.4801" width="0.4801" fill="#EFEFEF"/>
<rect x="590.3073" y="504.0170" height="0.4801" width="0.4801" fill="#E7E7E7"/>
<rect x="590.7798" y="504.0170" height="0.4801" width="0.4801" fill="#E7E7E7"/>
<rect x="591.2522" y="504.0170" height="0.4801" width="0.4801" fill="#D6D6D6"/>
<rect x="591.7247" y="504.0170" height="0.4801" width="0.4801" fill="#CECECE"/>
<rect x="592.1971" y="504.0170" height="0.4801" width="0.4801" fill="#CECECE"/>
<rect x="592.6695" y="504.0170" height="0.4801" width="0.4801" fill="#C6C6C6"/>
<rect x="593.1420" y="504.0170" height="0.4801" width="0.4801" fill="#B5B5B5"/>
<rect x="593.6144" y="504.0170" height="0.4801" width="0.4801" fill="#A5A5A5"/>
<rect x="594.0869" y="504.0170" height="0.4801" width="0.4801" fill="#8C8C8C"/>
<rect x="594.5593" y="504.0170" height="0.4801" width="0.4801" fill="#737373"/>
<rect x="595.0318" y="504.0170" height="0.4801" width="0.4801" fill="#848484"/>
<rect x="595.5042" y="504.0170" height="0.4801" width="0.4801" fill="#949494"/>
<rect x="595.9766" y="504.0170" height="0.4801" width="0.4801" fill="#9C9C9C"/>
<rect x="596.4491" y="504.0170" height="0.4801" width="0.4801" fill="#9C9C9C"/>
<rect x="596.9215" y="504.0170" height="0.4801" width="0.4801" fill="#ADADAD"/>
<rect x="597.3940" y="504.0170" height="0.4801" width="0.4801" fill="#B5B5B5"/>
<rect x="597.8664" y="504.0170" height="0.4801" width="0.4801" fill="#C6C6C6"/>
<rect x="598.3388" y="504.0170" height="0.4801" width="0.4801" fill="#C6C6C6"/>
<rect x="598.8113" y="504.0170" height="0.4801" width="0.4801" fill="#C6C6C6"/>
<rect x="599.2837" y="504.0170" height="0.4801" width="0.4801" fill="#BDBDBD"/>
<rect x="599.7562" y="504.0170" height="0.4801" width="0.4801" fill="#B5B5B5"/>
<rect x="600.2286" y="504.0170" height="0.4801" width="0.4801" fill="#B5B5B5"/>
<rect x="600.7010" y="504.0170" height="0.4801" width="0.4801" fill="#ADADAD"/>
<rect x="601.1735" y="504.0170" height="0.4801" width="0.4801" fill="#9C9C9C"/>
<rect x="601.6459" y="504.0170" height="0.4801" width="0.4801" fill="#949494"/>
<rect x="602.1184" y="504.0170" height="0.4801" width="0.4801" fill="#8C8C8C"/>
<rect x="589.8349" y="504.4742" height="0.4801" width="0.4801" fill="#F7F7F7"/>
<rect x="590.3073" y="504.4742" height="0.4801" width="0.4801" fill="#F7F7F7"/>
<rect x="590.7798" y="504.4742" height="0.4801" width="0.4801" fill="#F7F7F7"/>
<rect x="591.2522" y="504.4742" height="0.4801" width="0.4801" fill="#EFEFEF"/>
<rect x="591.7247" y="504.4742" height="0.4801" width="0.4801" fill="#E7E7E7"/>
<rect x="592.1971" y="504.4742" height="0.4801" width="0.4801" fill="#D6D6D6"/>
<rect x="592.6695" y="504.4742" height="0.4801" width="0.4801" fill="#CECECE"/>
<rect x="593.1420" y="504.4742" height="0.4801" width="0.4801" fill="#C6C6C6"/>
<rect x="593.6144" y="504.4742" height="0.4801" width="0.4801" fill="#A5A5A5"/>
<rect x="594.0869" y="504.4742" height="0.4801" width="0.4801" fill="#949494"/>
<rect x="594.5593" y="504.4742" height="0.4801" width="0.4801" fill="#7B7B7B"/>
<rect x="595.0318" y="504.4742" height="0.4801" width="0.4801" fill="#7B7B7B"/>
<rect x="595.5042" y="504.4742" height="0.4801" width="0.4801" fill="#8C8C8C"/>
<rect x="595.9766" y="504.4742" height="0.4801" width="0.4801" fill="#A5A5A5"/>
<rect x="596.4491" y="504.4742" height="0.4801" width="0.4801" fill="#B5B5B5"/>
<rect x="596.9215" y="504.4742" height="0.4801" width="0.4801" fill="#BDBDBD"/>
<rect x="597.3940" y="504.4742" height="0.4801" width="0.4801" fill="#BDBDBD"/>
<rect x="597.8664" y="504.4742" height="0.4801" width="0.4801" fill="#BDBDBD"/>
<rect x="598.3388" y="504.4742" height="0.4801" width="0.4801" fill="#C6C6C6"/>
<rect x="598.8113" y="504.4742" height="0.4801" width="0.4801" fill="#C6C6C6"/>
<rect x="599.2837" y="504.4742" height="0.4801" width="0.4801" fill="#BDBDBD"/>
<rect x="599.7562" y="504.4742" height="0.4801" width="0.4801" fill="#BDBDBD"/>
<rect x="600.2286" y="504.4742" height="0.4801" width="0.4801" fill="#B5B5B5"/>
<rect x="600.7010" y="504.4742" height="0.4801" width="0.4801" fill="#ADADAD"/>
<rect x="601.1735" y="504.4742" height="0.4801" width="0.4801" fill="#A5A5A5"/>
<rect x="601.6459" y="504.4742" height="0.4801" width="0.4801" fill="#9C9C9C"/>
<rect x="602.1184" y="504.4742" height="0.4801" width="0.4801" fill="#949494"/>
<rect x="590.3073" y="504.9314" height="0.4801" width="0.4801" fill="#F7F7F7"/>
<rect x="590.7798" y="504.9314" height="0.4801" width="0.4801" fill="#F7F7F7"/>
<rect x="591.2522" y="504.9314" height="0.4801" width="0.4801" fill="#F7F7F7"/>
<rect x="591.7247" y="504.9314" height="0.4801" width="0.4801" fill="#EFEFEF"/>
<rect x="592.1971" y="504.9314" height="0.4801" width="0.4801" fill="#E7E7E7"/>
<rect x="592.6695" y="504.9314" height="0.4801" width="0.4801" fill="#CECECE"/>
<rect x="593.1420" y="504.9314" height="0.4801" width="0.4801" fill="#C6C6C6"/>
<rect x="593.6144" y="504.9314" height="0.4801" width="0.4801" fill="#BDBDBD"/>
<rect x="594.0869" y="504.9314" height="0.4801" width="0.4801" fill="#A5A5A5"/>
<rect x="594.5593" y="504.9314" height="0.4801" width="0.4801" fill="#848484"/>
<rect x="595.0318" y="504.9314" height="0.4801" width="0.4801" fill="#8C8C8C"/>
<rect x="595.5042" y="504.9314" height="0.4801" width="0.4801" fill="#9C9C9C"/>
<rect x="595.9766" y="504.9314" height="0.4801" width="0.4801" fill="#ADADAD"/>
<rect x="596.4491" y="504.9314" height="0.4801" width="0.4801" fill="#B5B5B5"/>
<rect x="596.9215" y="504.9314" height="0.4801" width="0.4801" fill="#C6C6C6"/>
<rect x="597.3940" y="504.9314" height="0.4801" width="0.4801" fill="#EFEFEF"/>
<rect x="597.8664" y="504.9314" height="0.4801" width="0.4801" fill="#F7F7F7"/>
<rect x="598.3388" y="504.9314" height="0.4801" width="0.4801" fill="#EFEFEF"/>
<rect x="598.8113" y="504.9314" height="0.4801" width="0.4801" fill="#F7F7F7"/>
<rect x="599.2837" y="504.9314" height="0.4801" width="0.4801" fill="#F7F7F7"/>
<rect x="599.7562" y="504.9314" height="0.4801" width="0.4801" fill="#EFEFEF"/>
<rect x="600.2286" y="504.9314" height="0.4801" width="0.4801" fill="#EFEFEF"/>
<rect x="600.7010" y="504.9314" height="0.4801" width="0.4801" fill="#EFEFEF"/>
<rect x="601.1735" y="504.9314" height="0.4801" width="0.4801" fill="#EFEFEF"/>
<rect x="601.6459" y="504.9314" height="0.4801" width="0.4801" fill="#EFEFEF"/>
<rect x="602.1184" y="504.9314" height="0.4801" width="0.4801" fill="#E7E7E7"/>
<rect x="591.2522" y="505.3886" height="0.4801" width="0.4801" fill="#F7F7F7"/>
<rect x="591.7247" y="505.3886" height="0.4801" width="0.4801" fill="#F7F7F7"/>
<rect x="592.1971" y="505.3886" height="0.4801" width="0.4801" fill="#E7E7E7"/>
<rect x="592.6695" y="505.3886" height="0.4801" width="0.4801" fill="#DEDEDE"/>
<rect x="593.1420" y="505.3886" height="0.4801" width="0.4801" fill="#CECECE"/>
<rect x="593.6144" y="505.3886" height="0.4801" width="0.4801" fill="#BDBDBD"/>
<rect x="594.0869" y="505.3886" height="0.4801" width="0.4801" fill="#ADADAD"/>
<rect x="594.5593" y="505.3886" height="0.4801" width="0.4801" fill="#949494"/>
<rect x="595.0318" y="505.3886" height="0.4801" width="0.4801" fill="#7B7B7B"/>
<rect x="595.5042" y="505.3886" height="0.4801" width="0.4801" fill="#A5A5A5"/>
<rect x="595.9766" y="505.3886" height="0.4801" width="0.4801" fill="#ADADAD"/>
<rect x="596.4491" y="505.3886" height="0.4801" width="0.4801" fill="#C6C6C6"/>
<rect x="596.9215" y="505.3886" height="0.4801" width="0.4801" fill="#CECECE"/>
<rect x="591.7247" y="505.8458" height="0.4801" width="0.4801" fill="#EFEFEF"/>
<rect x="592.1971" y="505.8458" height="0.4801" width="0.4801" fill="#EFEFEF"/>
<rect x="592.6695" y="505.8458" height="0.4801" width="0.4801" fill="#E7E7E7"/>
<rect x="593.1420" y="505.8458" height="0.4801" width="0.4801" fill="#D6D6D6"/>
<rect x="593.6144" y="505.8458" height="0.4801" width="0.4801" fill="#C6C6C6"/>
<rect x="594.0869" y="505.8458" height="0.4801" width="0.4801" fill="#ADADAD"/>
<rect x="594.5593" y="505.8458" height="0.4801" width="0.4801" fill="#949494"/>
<rect x="595.0318" y="505.8458" height="0.4801" width="0.4801" fill="#848484"/>
<rect x="595.5042" y="505.8458" height="0.4801" width="0.4801" fill="#949494"/>
<rect x="595.9766" y="505.8458" height="0.4801" width="0.4801" fill="#BDBDBD"/>
<rect x="596.4491" y="505.8458" height="0.4801" width="0.4801" fill="#C6C6C6"/>
<rect x="596.9215" y="505.8458" height="0.4801" width="0.4801" fill="#C6C6C6"/>
<rect x="597.3940" y="505.8458" height="0.4801" width="0.4801" fill="#F7F7F7"/>
<rect x="591.7247" y="506.3030" height="0.4801" width="0.4801" fill="#F7F7F7"/>
<rect x="592.1971" y="506.3030" height="0.4801" width="0.4801" fill="#EFEFEF"/>
<rect x="592.6695" y="506.3030" height="0.4801" width="0.4801" fill="#DEDEDE"/>
<rect x="593.1420" y="506.3030" height="0.4801" width="0.4801" fill="#D6D6D6"/>
<rect x="593.6144" y="506.3030" height="0.4801" width="0.4801" fill="#CECECE"/>
<rect x="594.0869" y="506.3030" height="0.4801" width="0.4801" fill="#BDBDBD"/>
<rect x="594.5593" y="506.3030" height="0.4801" width="0.4801" fill="#A5A5A5"/>
<rect x="595.0318" y="506.3030" height="0.4801" width="0.4801" fill="#848484"/>
<rect x="595.5042" y="506.3030" height="0.4801" width="0.4801" fill="#8C8C8C"/>
<rect x="595.9766" y="506.3030" height="0.4801" width="0.4801" fill="#ADADAD"/>
<rect x="596.4491" y="506.3030" height="0.4801" width="0.4801" fill="#BDBDBD"/>
<rect x="596.9215" y="506.3030" height="0.4801" width="0.4801" fill="#C6C6C6"/>
<rect x="597.3940" y="506.3030" height="0.4801" width="0.4801" fill="#F7F7F7"/>
<rect x="591.7247" y="506.7602" height="0.4801" width="0.4801" fill="#F7F7F7"/>
<rect x="592.1971" y="506.7602" height="0.4801" width="0.4801" fill="#EFEFEF"/>
<rect x="592.6695" y="506.7602" height="0.4801" width="0.4801" fill="#E7E7E7"/>
<rect x="593.1420" y="506.7602" height="0.4801" width="0.4801" fill="#D6D6D6"/>
<rect x="593.6144" y="506.7602" height="0.4801" width="0.4801" fill="#D6D6D6"/>
<rect x="594.0869" y="506.7602" height="0.4801" width="0.4801" fill="#CECECE"/>
<rect x="594.5593" y="506.7602" height="0.4801" width="0.4801" fill="#C6C6C6"/>
<rect x="595.0318" y="506.7602" height="0.4801" width="0.4801" fill="#949494"/>
<rect x="595.5042" y="506.7602" height="0.4801" width="0.4801" fill="#737373"/>
<rect x="595.9766" y="506.7602" height="0.4801" width="0.4801" fill="#9C9C9C"/>
<rect x="596.4491" y="506.7602" height="0.4801" width="0.4801" fill="#B5B5B5"/>
<rect x="596.9215" y="506.7602" height="0.4801" width="0.4801" fill="#C6C6C6"/>
<rect x="594.5593" y="507.2174" height="0.4801" width="0.4801" fill="#F7F7F7"/>
<rect x="595.0318" y="507.2174" height="0.4801" width="0.4801" fill="#9C9C9C"/>
<rect x="595.5042" y="507.2174" height="0.4801" width="0.4801" fill="#7B7B7B"/>
<rect x="595.9766" y="507.2174" height="0.4801" width="0.4801" fill="#949494"/>
<rect x="596.4491" y="507.2174" height="0.4801" width="0.4801" fill="#ADADAD"/>
<rect x="596.9215" y="507.2174" height="0.4801" width="0.4801" fill="#C6C6C6"/>
<rect x="597.3940" y="507.2174" height="0.4801" width="0.4801" fill="#F7F7F7"/>
<rect x="594.5593" y="507.6746" height="0.4801" width="0.4801" fill="#F7F7F7"/>
<rect x="595.0318" y="507.6746" height="0.4801" width="0.4801" fill="#A5A5A5"/>
<rect x="595.5042" y="507.6746" height="0.4801" width="0.4801" fill="#848484"/>
<rect x="595.9766" y="507.6746" height="0.4801" width="0.4801" fill="#848484"/>
<rect x="596.4491" y="507.6746" height="0.4801" width="0.4801" fill="#A5A5A5"/>
<rect x="596.9215" y="507.6746" height="0.4801" width="0.4801" fill="#B5B5B5"/>
<rect x="597.3940" y="507.6746" height="0.4801" width="0.4801" fill="#F7F7F7"/>
<rect x="594.5593" y="508.1318" height="0.4801" width="0.4801" fill="#EFEFEF"/>
<rect x="595.0318" y="508.1318" height="0.4801" width="0.4801" fill="#9C9C9C"/>
<rect x="595.5042" y="508.1318" height="0.4801" width="0.4801" fill="#848484"/>
<rect x="595.9766" y="508.1318" height="0.4801" width="0.4801" fill="#7B7B7B"/>
<rect x="596.4491" y="508.1318" height="0.4801" width="0.4801" fill="#9C9C9C"/>
<rect x="596.9215" y="508.1318" height="0.4801" width="0.4801" fill="#ADADAD"/>
<rect x="597.3940" y="508.1318" height="0.4801" width="0.4801" fill="#F7F7F7"/>
<rect x="594.5593" y="508.5890" height="0.4801" width="0.4801" fill="#EFEFEF"/>
<rect x="595.0318" y="508.5890" height="0.4801" width="0.4801" fill="#A5A5A5"/>
<rect x="595.5042" y="508.5890" height="0.4801" width="0.4801" fill="#848484"/>
<rect x="595.9766" y="508.5890" height="0.4801" width="0.4801" fill="#7B7B7B"/>
<rect x="596.4491" y="508.5890" height="0.4801" width="0.4801" fill="#8C8C8C"/>
<rect x="596.9215" y="508.5890" height="0.4801" width="0.4801" fill="#ADADAD"/>
<rect x="597.3940" y="508.5890" height="0.4801" width="0.4801" fill="#F7F7F7"/>
<rect x="594.5593" y="509.0462" height="0.4801" width="0.4801" fill="#EFEFEF"/>
<rect x="595.0318" y="509.0462" height="0.4801" width="0.4801" fill="#9C9C9C"/>
<rect x="595.5042" y="509.0462" height="0.4801" width="0.4801" fill="#8C8C8C"/>
<rect x="595.9766" y="509.0462" height="0.4801" width="0.4801" fill="#848484"/>
<rect x="596.4491" y="509.0462" height="0.4801" width="0.4801" fill="#8C8C8C"/>
<rect x="596.9215" y="509.0462" height="0.4801" width="0.4801" fill="#9C9C9C"/>
<rect x="597.3940" y="509.0462" height="0.4801" width="0.4801" fill="#F7F7F7"/>
<rect x="594.5593" y="509.5034" height="0.4801" width="0.4801" fill="#E7E7E7"/>
<rect x="595.0318" y="509.5034" height="0.4801" width="0.4801" fill="#A5A5A5"/>
<rect x="595.5042" y="509.5034" height="0.4801" width="0.4801" fill="#949494"/>
<rect x="595.9766" y="509.5034" height="0.4801" width="0.4801" fill="#8C8C8C"/>
<rect x="596.4491" y="509.5034" height="0.4801" width="0.4801" fill="#8C8C8C"/>
<rect x="596.9215" y="509.5034" height="0.4801" width="0.4801" fill="#A5A5A5"/>
<rect x="597.3940" y="509.5034" height="0.4801" width="0.4801" fill="#F7F7F7"/>
M   595.2756   502.8740
<path stroke-width="0.5669" stroke="#000000" fill="none" d="
M   595.2756   509.9606
L   594.9803   509.9606
L   595.1280   507.0079
L   591.4370   507.5984
L   592.0276   506.4173
L   588.7795   503.4646
L   589.9606   502.2835
L   589.3701   500.5118
L   590.8465   500.8071
L   591.4370   499.3307
L   593.5039   501.6929
L   592.9134   497.5591
L   594.0945   498.1496
L   595.2756   495.7874
L   597.4016   495.7874
L   597.4016   500.7480
L   602.3622   500.7480
L   602.3622   505.0000
L   597.4016   505.0000
L   597.4016   509.9606
L   595.2756   509.9606
"/>
M   595.2756   502.8740
<defs>  <path id="kreis" d="M   589.0110,  509.1386 A    8.8594,    8.8594 0 1 1   601.5402,  509.1386"/> </defs>
<text font-size="3.5433"  font-family="Arial" stroke="none">
<textPath xlink:href="#kreis" >T h e r i a k  -  D o m i n o</textPath> </text>
M   595.2756   502.8740
<path stroke-width="0.4252" stroke="#000000" fill="none" d="
M   136.0630    82.6378
L   135.9154    82.6378
L   135.9892    81.1614
L   134.1437    81.4567
L   134.4390    80.8661
L   132.8150    79.3898
L   133.4055    78.7992
L   133.1102    77.9134
L   133.8484    78.0610
L   134.1437    77.3228
L   135.1772    78.5039
L   134.8819    76.4370
L   135.4724    76.7323
L   136.0630    75.5512
L   137.1260    75.5512
L   137.1260    78.0315
L   139.6063    78.0315
L   139.6063    80.1575
L   137.1260    80.1575
L   137.1260    82.6378
L   136.0630    82.6378
"/>
M   136.0630    79.0945
<path stroke-width="0.4252" stroke="#000000" fill="none" d="
M   141.7323   509.9606
L   141.7323   521.2992
"/>
M   128.7928   536.1811
<text x="128.7928" y="536.1811" transform="rotate(-0.0000,128.7928,536.1811)"  font-family="'Arial'" font-size="13.6070" style="fill: #000000; stroke: none">0.00</text>
<path stroke-width="0.4252" stroke="#000000" fill="none" d="
M   162.9921   509.9606
L   162.9921   515.6299
M   184.2520   509.9606
L   184.2520   515.6299
M   205.5118   509.9606
L   205.5118   515.6299
M   226.7717   509.9606
L   226.7717   515.6299
M   248.0315   509.9606
L   248.0315   521.2992
"/>
M   235.0920   536.1811
<text x="235.0920" y="536.1811" transform="rotate(-0.0000,235.0920,536.1811)"  font-family="'Arial'" font-size="13.6070" style="fill: #000000; stroke: none">0.25</text>
<path stroke-width="0.4252" stroke="#000000" fill="none" d="
M   269.2913   509.9606
L   269.2913   515.6299
M   290.5512   509.9606
L   290.5512   515.6299
M   311.8110   509.9606
L   311.8110   515.6299
M   333.0709   509.9606
L   333.0709   515.6299
M   354.3307   509.9606
L   354.3307   521.2992
"/>
M   341.3913   536.1811
<text x="341.3913" y="536.1811" transform="rotate(-0.0000,341.3913,536.1811)"  font-family="'Arial'" font-size="13.6070" style="fill: #000000; stroke: none">0.50</text>
<path stroke-width="0.4252" stroke="#000000" fill="none" d="
M   375.5906   509.9606
L   375.5906   515.6299
M   396.8504   509.9606
L   396.8504   515.6299
M   418.1102   509.9606
L   418.1102   515.6299
M   439.3701   509.9606
L   439.3701   515.6299
M   460.6299   509.9606
L   460.6299   521.2992
"/>
M   447.6905   536.1811
<text x="447.6905" y="536.1811" transform="rotate(-0.0000,447.6905,536.1811)"  font-family="'Arial'" font-size="13.6070" style="fill: #000000; stroke: none">0.75</text>
<path stroke-width="0.4252" stroke="#000000" fill="none" d="
M   481.8898   509.9606
L   481.8898   515.6299
M   503.1496   509.9606
L   503.1496   515.6299
M   524.4094   509.9606
L   524.4094   515.6299
M   545.6693   509.9606
L   545.6693   515.6299
M   566.9291   509.9606
L   566.9291   521.2992
"/>
M   554.3756   536.1811
<text x="554.3756" y="536.1811" transform="rotate(-0.0000,554.3756,536.1811)"  font-family="'Arial'" font-size="13.6070" style="fill: #000000; stroke: none">1.00</text>
<path stroke-width="0.4252" stroke="#000000" fill="none" d="
M   566.9291   509.9606
L   141.7323   509.9606
"/>
M   324.2245   557.4409
<text x="324.2245" y="557.4409" transform="rotate(-0.0000,324.2245,557.4409)"  font-family="'Arial'" font-size="19.4386" style="fill: #000000; stroke: none">ternary</text>
<path stroke-width="0.4252" stroke="#000000" fill="none" d="
M   141.7323    84.7638
L   141.7323    73.4252
M   162.9921    84.7638
L   162.9921    79.0945
M   184.2520    84.7638
L   184.2520    79.0945
M   205.5118    84.7638
L   205.5118    79.0945
M   226.7717    84.7638
L   226.7717    79.0945
M   248.0315    84.7638
L   248.0315    73.4252
M   269.2913    84.7638
L   269.2913    79.0945
M   290.5512    84.7638
L   290.5512    79.0945
M   311.8110    84.7638
L   311.8110    79.0945
M   333.0709    84.7638
L   333.0709    79.0945
M   354.3307    84.7638
L   354.3307    73.4252
M   375.5906    84.7638
L   375.5906    79.0945
M   396.8504    84.7638
L   396.8504    79.0945
M   418.1102    84.7638
L   418.1102    79.0945
M   439.3701    84.7638
L   439.3701    79.0945
M   460.6299    84.7638
L   460.6299    73.4252
M   481.8898    84.7638
L   481.8898    79.0945
M   503.1496    84.7638
L   503.1496    79.0945
M   524.4094    84.7638
L   524.4094    79.0945
M   545.6693    84.7638
L   545.6693    79.0945
M   566.9291    84.7638
L   566.9291    73.4252
M   566.9291    84.7638
L   141.7323    84.7638
"/>
<path stroke-width="0.4252" stroke="#000000" fill="none" d="
M   141.7323   509.9606
L   130.3937   509.9606
"/>
M    99.5542   514.9213
<text x="99.5542" y="514.9213" transform="rotate(-0.0000,99.5542,514.9213)"  font-family="'Arial'" font-size="13.6070" style="fill: #000000; stroke: none">0.00</text>
<path stroke-width="0.4252" stroke="#000000" fill="none" d="
M   141.7323   488.7008
L   136.0630   488.7008
M   141.7323   467.4409
L   130.3937   467.4409
M   141.7323   446.1811
L   136.0630   446.1811
M   141.7323   424.9213
L   130.3937   424.9213
"/>
M    99.5542   429.8819
<text x="99.5542" y="429.8819" transform="rotate(-0.0000,99.5542,429.8819)"  font-family="'Arial'" font-size="13.6070" style="fill: #000000; stroke: none">0.20</text>
<path stroke-width="0.4252" stroke="#000000" fill="none" d="
M   141.7323   403.6614
L   136.0630   403.6614
M   141.7323   382.4016
L   130.3937   382.4016
M   141.7323   361.1417
L   136.0630   361.1417
M   141.7323   339.8819
L   130.3937   339.8819
"/>
M    99.5542   344.8425
<text x="99.5542" y="344.8425" transform="rotate(-0.0000,99.5542,344.8425)"  font-family="'Arial'" font-size="13.6070" style="fill: #000000; stroke: none">0.40</text>
<path stroke-width="0.4252" stroke="#000000" fill="none" d="
M   141.7323   318.6220
L   136.0630   318.6220
M   141.7323   297.3622
L   130.3937   297.3622
M   141.7323   276.1024
L   136.0630   276.1024
M   141.7323   254.8425
L   130.3937   254.8425
"/>
M    99.5542   259.8031
<text x="99.5542" y="259.8031" transform="rotate(-0.0000,99.5542,259.8031)"  font-family="'Arial'" font-size="13.6070" style="fill: #000000; stroke: none">0.60</text>
<path stroke-width="0.4252" stroke="#000000" fill="none" d="
M   141.7323   233.5827
L   136.0630   233.5827
M   141.7323   212.3228
L   130.3937   212.3228
M   141.7323   191.0630
L   136.0630   191.0630
M   141.7323   169.8031
L   130.3937   169.8031
"/>
M    99.5542   174.7638
<text x="99.5542" y="174.7638" transform="rotate(-0.0000,99.5542,174.7638)"  font-family="'Arial'" font-size="13.6070" style="fill: #000000; stroke: none">0.80</text>
<path stroke-width="0.4252" stroke="#000000" fill="none" d="
M   141.7323   148.5433
L   136.0630   148.5433
M   141.7323   127.2835
L   130.3937   127.2835
M   141.7323   106.0236
L   136.0630   106.0236
M   141.7323    84.7638
L   130.3937    84.7638
"/>
M   100.3261    89.7244
<text x="100.3261" y="89.7244" transform="rotate(-0.0000,100.3261,89.7244)"  font-family="'Arial'" font-size="13.6070" style="fill: #000000; stroke: none">1.00</text>
<path stroke-width="0.4252" stroke="#000000" fill="none" d="
M   141.7323    84.7638
L   141.7323   509.9606
"/>
M    81.5982   405.7605
<text x="81.5982" y="405.7605" transform="rotate(-90.0000,81.5982,405.7605)"  font-family="'Arial'" font-size="19.4386" style="fill: #000000; stroke: none">T=1470.00[C] P=1.0[Bar]</text>
<path stroke-width="0.4252" stroke="#000000" fill="none" d="
M   566.9291   509.9606
L   578.2677   509.9606
M   566.9291   488.7008
L   572.5984   488.7008
M   566.9291   467.4409
L   578.2677   467.4409
M   566.9291   446.1811
L   572.5984   446.1811
M   566.9291   424.9213
L   578.2677   424.9213
M   566.9291   403.6614
L   572.5984   403.6614
M   566.9291   382.4016
L   578.2677   382.4016
M   566.9291   361.1417
L   572.5984   361.1417
M   566.9291   339.8819
L   578.2677   339.8819
M   566.9291   318.6220
L   572.5984   318.6220
M   566.9291   297.3622
L   578.2677   297.3622
M   566.9291   276.1024
L   572.5984   276.1024
M   566.9291   254.8425
L   578.2677   254.8425
M   566.9291   233.5827
L   572.5984   233.5827
M   566.9291   212.3228
L   578.2677   212.3228
M   566.9291   191.0630
L   572.5984   191.0630
M   566.9291   169.8031
L   578.2677   169.8031
M   566.9291   148.5433
L   572.5984   148.5433
M   566.9291   127.2835
L   578.2677   127.2835
M   566.9291   106.0236
L   572.5984   106.0236
M   566.9291    84.7638
L   578.2677    84.7638
M   566.9291    84.7638
L   566.9291   509.9606
"/>
<path stroke-width="0.4252" stroke="#000000" fill="none" d="
"/>
M   141.7323    62.0866
<text x="141.7323" y="62.0866" transform="rotate(-0.0000,141.7323,62.0866)"  font-family="'Arial'" font-size="7.7754" style="fill: #000000; stroke: none">Bulk(1)= AL2O3(1)</text>
M   141.7323    52.1654
<text x="141.7323" y="52.1654" transform="rotate(-0.0000,141.7323,52.1654)"  font-family="'Arial'" font-size="7.7754" style="fill: #000000; stroke: none">Bulk(2)= CAO(1)</text>
M   141.7323    42.2441
<text x="141.7323" y="42.2441" transform="rotate(-0.0000,141.7323,42.2441)"  font-family="'Arial'" font-size="7.7754" style="fill: #000000; stroke: none">Bulk(3)= SIO2(1)</text>
M   566.9291   566.6535
<text x="566.9291" y="566.6535" transform="rotate(-0.0000,566.9291,566.6535)"  font-family="'Arial'" font-size="7.7754" style="fill: #000000; stroke: none">05.03.2023 - 22:09:08  CPU time:    0h 00m 06.65s</text>
M   609.4488    94.6850
<text x="609.4488" y="94.6850" transform="rotate(-0.0000,609.4488,94.6850)"  font-family="'Arial'" font-size="7.7754" style="fill: #000000; stroke: none">domino version: 2023.03.06</text>
M   609.4488   104.6063
<text x="609.4488" y="104.6063" transform="rotate(-0.0000,609.4488,104.6063)"  font-family="'Arial'" font-size="7.7754" style="fill: #000000; stroke: none">database: sialca</text>
M   609.4488   114.5276
<text x="609.4488" y="114.5276" transform="rotate(-0.0000,609.4488,114.5276)"  font-family="'Arial'" font-size="7.7754" style="fill: #000000; stroke: none">*LIQUID: ideal+margules</text>
<path stroke-width="0.4252" stroke="#000000" fill="none" d="
M   141.7323   509.9606
L   354.3307   141.7294
"/>
<path stroke-width="0.4252" stroke="#000000" fill="none" d="
"/>
M   262.9117   433.9767
<text x="262.9117" y="433.9767" transform="rotate(-50.4627,262.9117,433.9767)"  font-family="'Arial'" font-size="5.8316" style="fill: #000000; stroke: none">Cor</text>
M   269.9522   425.4472
<text x="269.9522" y="425.4472" transform="rotate(-50.4627,269.9522,425.4472)"  font-family="'Arial'" font-size="5.8316" style="fill: #000000; stroke: none">1Ca6Al</text>
M   282.9573   409.6366
<text x="282.9573" y="409.6366" transform="rotate(-50.5771,282.9573,409.6366)"  font-family="'Arial'" font-size="5.8316" style="fill: #000000; stroke: none">Anor</text>
<path stroke-width="0.4252" stroke="#000000" fill="none" d="
"/>
M   264.8815   443.6131
<text x="264.8815" y="443.6131" transform="rotate(-50.4627,264.8815,443.6131)"  font-family="'Arial'" font-size="5.8316" style="fill: #000000; stroke: none">*LIQUID</text>
M   279.8179   425.5493
<text x="279.8179" y="425.5493" transform="rotate(-50.6918,279.8179,425.5493)"  font-family="'Arial'" font-size="5.8316" style="fill: #000000; stroke: none">1Ca6Al</text>
M   292.7926   409.7247
<text x="292.7926" y="409.7247" transform="rotate(-50.5771,292.7926,409.7247)"  font-family="'Arial'" font-size="5.8316" style="fill: #000000; stroke: none">Anor</text>
<path stroke-width="0.4252" stroke="#000000" fill="none" d="
M   202.3976   509.9606
L   232.7925   473.1375
L   263.1874   436.3144
L   278.3849   417.9028
L   283.5961   411.5379
L   293.4993   399.4912
L   323.8943   362.6681
L   331.5345   353.4623
L   339.0917   344.2566
L   346.6489   335.0508
L   350.4691   330.4479
L   352.3791   328.1464
L   353.2926   326.9957
L   353.7909   326.4204
"/>
<path stroke-width="0.4252" stroke="#000000" fill="none" d="
"/>
M   280.8219   437.1424
<text x="280.8219" y="437.1424" transform="rotate(-42.0261,280.8219,437.1424)"  font-family="'Arial'" font-size="5.8316" style="fill: #000000; stroke: none">*LIQUID</text>
M   298.2158   421.4665
<text x="298.2158" y="421.4665" transform="rotate(-42.0261,298.2158,421.4665)"  font-family="'Arial'" font-size="5.8316" style="fill: #000000; stroke: none">1Ca6Al</text>
M   313.4259   407.7588
<text x="313.4259" y="407.7588" transform="rotate(-42.0261,313.4259,407.7588)"  font-family="'Arial'" font-size="5.8316" style="fill: #000000; stroke: none">Anor</text>
<path stroke-width="0.4252" stroke="#000000" fill="none" d="
"/>
M   291.2415   438.0550
<text x="291.2415" y="438.0550" transform="rotate(-42.0261,291.2415,438.0550)"  font-family="'Arial'" font-size="5.8316" style="fill: #000000; stroke: none">*LIQUID</text>
M   308.6354   422.3791
<text x="308.6354" y="422.3791" transform="rotate(-42.0261,308.6354,422.3791)"  font-family="'Arial'" font-size="5.8316" style="fill: #000000; stroke: none">1Ca6Al</text>
<path stroke-width="0.4252" stroke="#000000" fill="none" d="
M   202.4806   509.9606
L   243.3394   473.1375
L   253.0766   464.3992
L   284.2812   436.3144
L   325.1399   399.4912
L   341.6454   384.6397
L   345.5693   381.0797
L   355.7840   371.8739
L   358.2546   369.6803
L   358.3585   369.5725
L   359.6872   368.4217
"/>
<path stroke-width="0.4252" stroke="#000000" fill="none" d="
"/>
M   279.1519   458.3484
<text x="279.1519" y="458.3484" transform="rotate(-32.9352,279.1519,458.3484)"  font-family="'Arial'" font-size="5.8316" style="fill: #000000; stroke: none">*LIQUID</text>
M   298.8041   445.6176
<text x="298.8041" y="445.6176" transform="rotate(-32.9352,298.8041,445.6176)"  font-family="'Arial'" font-size="5.8316" style="fill: #000000; stroke: none">1Ca6Al</text>
<path stroke-width="0.4252" stroke="#000000" fill="none" d="
"/>
M   274.4739   470.4979
<text x="274.4739" y="470.4979" transform="rotate(-32.9352,274.4739,470.4979)"  font-family="'Arial'" font-size="5.8316" style="fill: #000000; stroke: none">*LIQUID</text>
M   294.1261   457.7672
<text x="294.1261" y="457.7672" transform="rotate(-32.9352,294.1261,457.7672)"  font-family="'Arial'" font-size="5.8316" style="fill: #000000; stroke: none">1Ca2Al</text>
M   311.2934   446.6140
<text x="311.2934" y="446.6140" transform="rotate(-32.9032,311.2934,446.6140)"  font-family="'Arial'" font-size="5.8316" style="fill: #000000; stroke: none">1Ca6Al</text>
<path stroke-width="0.4252" stroke="#000000" fill="none" d="
M   202.5637   509.9606
L   241.2425   484.8965
L   259.4504   473.1375
L   309.1328   440.9532
L   316.2540   436.3144
L   343.0987   418.9457
L   344.7389   417.9028
L   358.9398   408.6970
L   360.0817   407.9419
L   362.5108   406.3956
L   364.3170   405.2089
L   365.1682   404.6695
L   365.3966   404.4897
"/>
<path stroke-width="0.4252" stroke="#000000" fill="none" d="
M   283.4507   509.9606
L   285.2777   507.6592
L   286.1913   506.5085
"/>
<path stroke-width="0.4252" stroke="#000000" fill="none" d="
"/>
M   327.0561   475.5851
<text x="327.0561" y="475.5851" transform="rotate(-36.6481,327.0561,475.5851)"  font-family="'Arial'" font-size="5.8316" style="fill: #000000; stroke: none">*LIQUID</text>
M   345.8425   461.6082
<text x="345.8425" y="461.6082" transform="rotate(-36.6467,345.8425,461.6082)"  font-family="'Arial'" font-size="5.8316" style="fill: #000000; stroke: none">1Ca2Al</text>
M   362.2792   449.3936
<text x="362.2792" y="449.3936" transform="rotate(-36.5558,362.2792,449.3936)"  font-family="'Arial'" font-size="5.8316" style="fill: #000000; stroke: none">Gehl</text>
<path stroke-width="0.4252" stroke="#000000" fill="none" d="
"/>
M   332.8039   480.8483
<text x="332.8039" y="480.8483" transform="rotate(-36.6481,332.8039,480.8483)"  font-family="'Arial'" font-size="5.8316" style="fill: #000000; stroke: none">1Ca1Al</text>
M   349.2314   468.6262
<text x="349.2314" y="468.6262" transform="rotate(-36.6467,349.2314,468.6262)"  font-family="'Arial'" font-size="5.8316" style="fill: #000000; stroke: none">1Ca2Al</text>
M   365.6569   456.4171
<text x="365.6569" y="456.4171" transform="rotate(-36.5558,365.6569,456.4171)"  font-family="'Arial'" font-size="5.8316" style="fill: #000000; stroke: none">Gehl</text>
<path stroke-width="0.4252" stroke="#000000" fill="none" d="
M   283.5338   509.9606
L   286.5027   507.7671
L   289.7622   505.3577
L   295.8039   500.8627
L   308.3646   491.5491
L   314.4062   487.0541
L   320.7385   482.3433
L   333.0086   473.2454
L   333.1954   473.1375
L   345.5693   463.9317
L   351.6109   459.4367
L   357.9432   454.7259
L   370.2133   445.6280
L   382.7741   436.3144
L   388.8157   431.8194
L   395.1479   427.1086
L   398.1168   424.9150
L   401.3764   422.5057
L   402.7674   421.4629
L   404.4491   420.2043
L   405.0927   419.7368
L   406.0270   419.0535
L   406.2554   418.8737
L   406.7744   418.4782
"/>
<path stroke-width="0.4252" stroke="#000000" fill="none" d="
"/>
M   384.3901   463.0705
<text x="384.3901" y="463.0705" transform="rotate(-60.0000,384.3901,463.0705)"  font-family="'Arial'" font-size="6.9979" style="fill: #000000; stroke: none">7</text>
<path stroke-width="0.4252" stroke="#000000" fill="none" d="
M   354.3722   509.9606
L   365.0022   491.5491
L   375.6321   473.1375
L   381.5429   462.8996
M   384.6031   457.5992
L   386.2620   454.7259
L   396.8919   436.3144
L   402.2069   427.1086
L   404.8644   422.5057
L   406.1931   420.2043
L   406.8575   419.0535
L   407.1897   418.4782
"/>
<path stroke-width="0.4252" stroke="#000000" fill="none" d="
"/>
M   382.4983   491.5236
<text x="382.4983" y="491.5236" transform="rotate(-37.6594,382.4983,491.5236)"  font-family="'Arial'" font-size="6.9979" style="fill: #000000; stroke: none">8</text>
<path stroke-width="0.4252" stroke="#000000" fill="none" d="
M   354.4553   509.9606
L   378.2896   491.5491
L   379.9297   490.2832
M   384.8182   486.5105
L   392.5943   480.5093
L   396.1445   477.7404
L   397.4110   476.7695
L   399.1342   475.4389
L   399.7778   474.9715
L   400.6290   474.2882
L   400.9819   474.0365
L   401.3764   473.7129
"/>
<path stroke-width="0.4252" stroke="#000000" fill="none" d="
"/>
M   405.7486   493.7226
<text x="405.7486" y="493.7226" transform="rotate(-89.8402,405.7486,493.7226)"  font-family="'Arial'" font-size="6.9979" style="fill: #000000; stroke: none">9</text>
<path stroke-width="0.4252" stroke="#000000" fill="none" d="
M   403.1204   509.9606
L   403.1827   498.9928
L   403.1938   494.9911
M   403.2034   491.5491
M   403.1294   488.8137
L   402.9543   482.3433
L   402.8920   481.0847
L   402.6221   477.7404
L   401.9785   473.4611
"/>
<path stroke-width="0.4252" stroke="#000000" fill="none" d="
"/>
M   443.3553   495.8178
<text x="443.3553" y="495.8178" transform="rotate(-53.8441,443.3553,495.8178)"  font-family="'Arial'" font-size="6.9979" style="fill: #000000; stroke: none">10</text>
<path stroke-width="0.4252" stroke="#000000" fill="none" d="
M   430.4426   509.9606
L   440.6227   495.3996
M   443.3148   491.5491
M   446.2227   487.5695
L   456.7683   473.1375
L   457.1835   472.5621
"/>
<path stroke-width="0.4252" stroke="#000000" fill="none" d="
"/>
M   455.9856   486.7242
<text x="455.9856" y="486.7242" transform="rotate(84.9782,455.9856,486.7242)"  font-family="'Arial'" font-size="6.9979" style="fill: #000000; stroke: none">11</text>
<path stroke-width="0.4252" stroke="#000000" fill="none" d="
M   460.5884   509.9606
L   459.2580   494.8203
M   458.4153   485.2302
L   457.7856   478.0640
L   457.3496   473.1375
L   457.3288   473.1015
L   457.2665   472.5621
"/>
<path stroke-width="0.4252" stroke="#000000" fill="none" d="
"/>
M   485.6437   471.9536
<text x="485.6437" y="471.9536" transform="rotate(-60.0000,485.6437,471.9536)"  font-family="'Arial'" font-size="6.9979" style="fill: #000000; stroke: none">12</text>
<path stroke-width="0.4252" stroke="#000000" fill="none" d="
M   460.7545   509.9606
L   482.7965   471.7827
M   487.6101   463.4454
L   492.6443   454.7259
L   503.2742   436.3144
L   508.5891   427.1086
L   511.2466   422.5057
L   512.5754   420.2043
L   513.2397   419.0535
L   513.5719   418.4782
"/>
<path stroke-width="0.4252" stroke="#000000" fill="none" d="
"/>
M   252.5509   380.0101
<text x="252.5509" y="380.0101" transform="rotate(-48.9798,252.5509,380.0101)"  font-family="'Arial'" font-size="5.8316" style="fill: #000000; stroke: none">*LIQUID</text>
M   267.9323   362.3545
<text x="267.9323" y="362.3545" transform="rotate(-48.9593,267.9323,362.3545)"  font-family="'Arial'" font-size="5.8316" style="fill: #000000; stroke: none">Cor</text>
<path stroke-width="0.4252" stroke="#000000" fill="none" d="
"/>
M   253.6463   390.4120
<text x="253.6463" y="390.4120" transform="rotate(-48.9798,253.6463,390.4120)"  font-family="'Arial'" font-size="5.8316" style="fill: #000000; stroke: none">*LIQUID</text>
M   268.9630   372.7512
<text x="268.9630" y="372.7512" transform="rotate(-48.6129,268.9630,372.7512)"  font-family="'Arial'" font-size="5.8316" style="fill: #000000; stroke: none">Cor</text>
M   276.2858   364.4150
<text x="276.2858" y="364.4150" transform="rotate(-48.9593,276.2858,364.4150)"  font-family="'Arial'" font-size="5.8316" style="fill: #000000; stroke: none">Anor</text>
<path stroke-width="0.4252" stroke="#000000" fill="none" d="
M   141.9191   509.6370
L   149.6632   500.7548
L   157.6356   491.5491
L   165.6911   482.3433
L   173.4352   473.4611
L   173.7466   473.1375
L   189.7745   454.7259
L   204.9928   437.2134
L   205.8025   436.3144
L   237.8583   399.4912
L   268.1079   364.7178
L   269.9142   362.6681
L   301.9700   325.8450
L   334.0259   289.0219
L   342.0814   279.8161
L   346.0676   275.2132
"/>
<path stroke-width="0.4252" stroke="#000000" fill="none" d="
"/>
M   238.6052   423.8125
<text x="238.6052" y="423.8125" transform="rotate(-40.9491,238.6052,423.8125)"  font-family="'Arial'" font-size="5.8316" style="fill: #000000; stroke: none">*LIQUID</text>
M   256.2909   408.4641
<text x="256.2909" y="408.4641" transform="rotate(-40.8934,256.2909,408.4641)"  font-family="'Arial'" font-size="5.8316" style="fill: #000000; stroke: none">Cor</text>
M   264.6610   401.2393
<text x="264.6610" y="401.2393" transform="rotate(-40.9491,264.6610,401.2393)"  font-family="'Arial'" font-size="5.8316" style="fill: #000000; stroke: none">Anor</text>
<path stroke-width="0.4252" stroke="#000000" fill="none" d="
"/>
M   244.5954   428.7174
<text x="244.5954" y="428.7174" transform="rotate(-40.8934,244.5954,428.7174)"  font-family="'Arial'" font-size="5.8316" style="fill: #000000; stroke: none">Cor</text>
M   252.9673   421.4833
<text x="252.9673" y="421.4833" transform="rotate(-40.9491,252.9673,421.4833)"  font-family="'Arial'" font-size="5.8316" style="fill: #000000; stroke: none">1Ca6Al</text>
M   268.4492   408.0854
<text x="268.4492" y="408.0854" transform="rotate(-40.9491,268.4492,408.0854)"  font-family="'Arial'" font-size="5.8316" style="fill: #000000; stroke: none">Anor</text>
<path stroke-width="0.4252" stroke="#000000" fill="none" d="
M   141.7530   509.9247
L   152.3207   500.7548
L   162.9506   491.5491
L   163.0129   491.5131
L   173.5805   482.3433
L   184.2104   473.1375
L   184.2727   473.1015
L   194.8404   463.9317
L   205.4703   454.7259
L   205.5326   454.6900
L   216.1002   445.5202
L   226.7301   436.3144
L   226.7924   436.2784
L   237.3601   427.1086
L   247.9900   417.9028
L   248.0523   417.8669
L   258.6199   408.6970
L   269.2498   399.4912
L   269.3121   399.4553
L   279.8797   390.2855
L   290.5097   381.0797
L   290.5719   381.0437
L   301.1396   371.8739
L   311.7695   362.6681
L   311.8318   362.6322
L   322.3994   353.4623
L   333.0293   344.2566
L   333.0916   344.2206
L   343.6593   335.0508
L   343.7215   335.0148
L   348.9742   330.4479
L   349.0365   330.4119
L   351.6317   328.1464
L   351.6940   328.1105
L   352.9604   326.9957
L   353.0227   326.9598
L   353.6248   326.4204
"/>
<path stroke-width="0.4252" stroke="#000000" fill="none" d="
M   286.6065   505.9331
L   287.0217   505.3577
L   290.2813   501.2223
L   290.6758   500.7548
L   297.8177   491.5491
L   310.7937   474.8995
L   312.1847   473.1375
L   340.8357   436.3144
L   355.2027   417.9028
L   362.3447   408.6970
L   364.1717   406.3956
L   365.0852   405.2449
L   365.5004   404.6695
"/>
<path stroke-width="0.4252" stroke="#000000" fill="none" d="
M   286.6895   505.9331
L   287.1048   505.3577
L   290.0321   501.6539
L   290.7588   500.7548
L   297.9838   491.5491
L   309.8802   476.4818
L   312.5169   473.1375
L   341.5831   436.3144
L   356.0332   417.9028
L   363.3412   408.6970
L   365.1682   406.3956
L   366.0818   405.2449
L   366.4970   404.6695
"/>
<path stroke-width="0.4252" stroke="#000000" fill="none" d="
"/>
M   406.7049   451.1339
<text x="406.7049" y="451.1339" transform="rotate(-84.3330,406.7049,451.1339)"  font-family="'Arial'" font-size="6.9979" style="fill: #000000; stroke: none">17</text>
<path stroke-width="0.4252" stroke="#000000" fill="none" d="
M   401.9577   473.1375
L   402.8712   463.9317
L   403.0166   462.4574
L   403.7848   454.7259
L   404.0402   452.1513
M   404.9909   442.5713
L   405.6118   436.3144
L   406.5253   427.1086
L   407.0236   422.5057
L   407.2727   420.2043
L   407.3557   419.0535
L   407.4388   418.4782
"/>
<path stroke-width="0.4252" stroke="#000000" fill="none" d="
"/>
M   420.9333   461.5487
<text x="420.9333" y="461.5487" transform="rotate(-46.5528,420.9333,461.5487)"  font-family="'Arial'" font-size="6.9979" style="fill: #000000; stroke: none">18</text>
<path stroke-width="0.4252" stroke="#000000" fill="none" d="
M   402.1446   473.1735
L   402.2899   473.1375
L   410.4907   467.9233
L   415.1621   463.9317
L   418.2039   460.7204
M   423.8820   454.7259
M   424.7571   453.6714
L   431.5222   445.5202
L   435.0932   440.9173
L   436.8372   438.6158
"/>
<path stroke-width="0.4252" stroke="#000000" fill="none" d="
M   566.9499   509.9247
L   545.7108   473.1375
L   545.6901   473.1015
L   524.4510   436.3144
L   524.4302   436.2784
L   519.1360   427.1086
L   519.1152   427.0726
L   516.4785   422.5057
L   516.4578   422.4697
L   515.1498   420.2043
L   515.1290   420.1683
L   514.4854   419.0535
L   514.4647   419.0176
L   514.1532   418.4782
L   514.1325   418.4422
"/>
<path stroke-width="0.4252" stroke="#000000" fill="none" d="
"/>
M   427.6936   403.6823
<text x="427.6936" y="403.6823" transform="rotate(-41.1159,427.6936,403.6823)"  font-family="'Arial'" font-size="6.9979" style="fill: #000000; stroke: none">20</text>
<path stroke-width="0.4252" stroke="#000000" fill="none" d="
M   437.0240   438.0764
L   436.0898   437.4651
L   436.0690   437.4291
L   434.3458   436.3144
L   422.6985   428.3672
L   420.8092   427.1086
L   415.0583   423.1889
L   414.0825   422.5057
L   411.2382   420.5998
L   410.6776   420.2043
L   409.3281   419.3053
L   409.0167   419.0535
L   408.3731   418.6580
L   408.1862   418.4782
L   407.9163   418.2984
L   407.6049   417.9028
L   408.8506   416.7521
L   410.0755   415.7092
L   410.1793   415.6014
L   412.7330   413.4078
L   412.8368   413.2999
L   418.0687   408.6970
L   425.0550   402.5991
M   428.6156   399.4912
M   432.6618   395.9596
L   449.7093   381.0797
L   450.2699   380.6122
L   451.0381   379.9290
L   451.6402   379.3896
L   451.7024   379.3536
"/>
<path stroke-width="0.4252" stroke="#000000" fill="none" d="
"/>
M   462.1374   420.0077
<text x="462.1374" y="420.0077" transform="rotate(-40.8096,462.1374,420.0077)"  font-family="'Arial'" font-size="6.9979" style="fill: #000000; stroke: none">21</text>
<path stroke-width="0.4252" stroke="#000000" fill="none" d="
M   437.3354   438.0405
L   437.9998   437.4651
L   439.3286   436.3144
L   439.4324   436.2065
L   459.5036   418.9093
M   460.6714   417.9028
M   467.1467   412.3116
L   481.7860   399.6710
L   482.0143   399.4912
L   487.3293   394.8884
L   492.4159   390.4653
L   492.6443   390.2855
L   493.9730   389.1347
L   495.0318   388.2357
L   495.3017   387.9840
L   495.9661   387.4087
L   495.6132   387.2289
L   494.4090   387.0131
L   492.0422   386.5097
L   489.6338   386.0781
L   480.0420   384.2801
L   470.4501   382.4821
L   462.8306   381.0797
L   460.8583   380.6841
L   456.0416   379.8211
L   453.6333   379.3896
L   452.4291   379.1738
"/>
<path stroke-width="0.4252" stroke="#000000" fill="none" d="
"/>
M   478.7183   430.6949
<text x="478.7183" y="430.6949" transform="rotate(-65.0811,478.7183,430.6949)"  font-family="'Arial'" font-size="6.9979" style="fill: #000000; stroke: none">22</text>
<path stroke-width="0.4252" stroke="#000000" fill="none" d="
M   460.3393   463.9317
L   464.6577   454.7259
L   473.2945   436.3144
L   475.8672   430.7768
M   480.1213   421.6199
L   481.8482   417.9028
L   490.4020   399.4912
L   492.5612   394.8884
L   494.7204   390.2855
L   495.2187   389.1347
L   495.8000   387.9840
L   496.1322   387.4087
"/>
<path stroke-width="0.4252" stroke="#000000" fill="none" d="
M   460.5884   463.9317
L   471.2183   454.7259
L   471.2806   454.6900
L   481.9313   445.5202
L   492.4574   436.4223
L   492.5612   436.3144
L   503.2742   427.1086
L   508.5891   422.5057
L   511.2466   420.2043
L   512.6584   419.0535
"/>
<path stroke-width="0.4252" stroke="#000000" fill="none" d="
M   457.7648   471.9868
L   458.9275   470.8361
L   459.7372   470.0809
L   461.3358   468.5346
L   465.7165   464.3273
L   475.7028   454.7259
L   485.2531   445.5202
L   489.6338   441.3128
L   494.8035   436.3144
L   504.3538   427.1086
L   509.1705   422.5057
L   511.5788   420.2043
L   512.7414   419.0535
"/>
<path stroke-width="0.4252" stroke="#000000" fill="none" d="
"/>
M   360.3296   380.6725
<text x="360.3296" y="380.6725" transform="rotate(80.1560,360.3296,380.6725)"  font-family="'Arial'" font-size="6.9979" style="fill: #000000; stroke: none">25</text>
<path stroke-width="0.4252" stroke="#000000" fill="none" d="
M   365.8326   404.0941
L   365.5835   399.4912
L   365.5212   398.5203
L   364.3513   388.9277
M   363.4450   383.7048
M   362.9260   381.0797
M   362.4596   379.0117
L   360.8498   371.8739
L   360.4554   370.4715
L   360.2685   369.5725
L   360.0401   368.8892
L   359.9363   368.4217
"/>
<path stroke-width="0.4252" stroke="#000000" fill="none" d="
"/>
M   392.1722   384.5844
<text x="392.1722" y="384.5844" transform="rotate(-31.6264,392.1722,384.5844)"  font-family="'Arial'" font-size="5.8316" style="fill: #000000; stroke: none">*LIQUID</text>
M   409.8900   374.6981
<text x="409.8900" y="374.6981" transform="rotate(-0.0000,409.8900,374.6981)"  font-family="'Arial'" font-size="5.8316" style="fill: #000000; stroke: none">Gehl</text>
<path stroke-width="0.4252" stroke="#000000" fill="none" d="
"/>
M   393.7979   372.2200
<text x="393.7979" y="372.2200" transform="rotate(-16.3002,393.7979,372.2200)"  font-family="'Arial'" font-size="5.8316" style="fill: #000000; stroke: none">*LIQUID</text>
<path stroke-width="0.4252" stroke="#000000" fill="none" d="
M   366.9122   404.0941
L   370.0680   399.4912
L   377.2930   390.2855
L   385.9506   381.5472
L   386.5111   381.0797
L   401.4595   371.8739
L   402.3937   371.4783
L   408.7883   369.6084
L   414.6015   368.7454
L   425.2315   368.7454
L   434.9063   370.3995
L   439.6607   371.8739
L   443.7092   373.5640
L   451.4741   378.5265
L   451.7024   378.7782
L   451.8893   378.9580
"/>
<path stroke-width="0.4252" stroke="#000000" fill="none" d="
M   513.8211   417.9028
L   513.8003   417.8669
L   503.1911   399.4912
L   503.1704   399.4553
L   497.8762   390.2855
L   497.8554   390.2495
L   496.5474   387.9840
L   496.5267   387.9481
L   496.2152   387.4087
L   496.1945   387.3727
"/>
<path stroke-width="0.4252" stroke="#000000" fill="none" d="
"/>
M   353.8447   342.1767
<text x="353.8447" y="342.1767" transform="rotate(82.3645,353.8447,342.1767)"  font-family="'Arial'" font-size="6.9979" style="fill: #000000; stroke: none">28</text>
<path stroke-width="0.4252" stroke="#000000" fill="none" d="
M   359.8740   368.0262
L   359.8533   367.8464
L   359.7702   367.2710
L   359.2512   363.3514
L   359.1059   362.6681
L   358.2546   355.8717
L   357.5454   350.5808
M   356.6975   344.2566
M   356.2087   340.5728
L   354.2684   325.9529
"/>
<path stroke-width="0.4252" stroke="#000000" fill="none" d="
"/>
M   372.8657   299.3496
<text x="372.8657" y="299.3496" transform="rotate(68.1297,372.8657,299.3496)"  font-family="'Arial'" font-size="5.8316" style="fill: #000000; stroke: none">*LIQUID</text>
M   382.0517   318.4282
<text x="382.0517" y="318.4282" transform="rotate(96.6888,382.0517,318.4282)"  font-family="'Arial'" font-size="5.8316" style="fill: #000000; stroke: none">Anor</text>
<path stroke-width="0.4252" stroke="#000000" fill="none" d="
"/>
M   383.2297   303.0318
<text x="383.2297" y="303.0318" transform="rotate(72.3931,383.2297,303.0318)"  font-family="'Arial'" font-size="5.8316" style="fill: #000000; stroke: none">*LIQUID</text>
<path stroke-width="0.4252" stroke="#000000" fill="none" d="
M   360.3516   367.8464
L   360.8706   367.4508
L   361.0990   367.2710
L   363.3620   365.4370
L   366.6631   362.6681
L   371.5628   358.0652
L   375.1546   354.2175
L   375.7982   353.4623
L   382.3588   344.2566
L   384.6011   339.6537
L   386.0336   335.3744
L   386.0959   335.0508
L   387.1755   325.8450
L   387.0717   324.3706
L   385.7637   316.6392
L   384.0405   311.2092
L   382.5249   307.4334
L   373.8673   292.0066
L   371.8950   289.0219
L   367.9711   283.8077
L   364.6700   279.8161
L   361.5350   276.5437
L   360.1024   275.2132
L   357.9640   273.5231
L   353.7701   271.5812
L   351.1542   271.5093
L   348.3099   272.9117
L   346.9604   274.1704
L   346.5659   274.6378
"/>
<path stroke-width="0.4252" stroke="#000000" fill="none" d="
"/>
M   462.0499   368.7474
<text x="462.0499" y="368.7474" transform="rotate(-51.8739,462.0499,368.7474)"  font-family="'Arial'" font-size="6.9979" style="fill: #000000; stroke: none">30</text>
<path stroke-width="0.4252" stroke="#000000" fill="none" d="
M   452.2007   378.7782
L   453.5295   376.4768
L   456.3530   371.8739
L   459.2555   368.1757
M   463.5781   362.6681
M   465.7656   360.4637
L   468.1456   358.0652
L   469.0799   357.2381
L   473.5436   353.4623
L   474.1872   352.9949
L   475.1215   352.3116
L   475.3499   352.1318
"/>
<path stroke-width="0.4252" stroke="#000000" fill="none" d="
M   495.8831   386.8333
L   495.8623   386.7973
L   495.2187   385.6826
L   495.1979   385.6466
L   492.5612   381.0797
L   492.5404   381.0437
L   481.9313   362.6681
L   481.9105   362.6322
L   476.6163   353.4623
L   476.5956   353.4264
L   475.9520   352.3116
L   475.9312   352.2757
"/>
<path stroke-width="0.4252" stroke="#000000" fill="none" d="
"/>
M   347.0492   295.1624
<text x="347.0492" y="295.1624" transform="rotate(81.4870,347.0492,295.1624)"  font-family="'Arial'" font-size="6.9979" style="fill: #000000; stroke: none">32</text>
<path stroke-width="0.4252" stroke="#000000" fill="none" d="
M   354.2892   325.8450
L   351.4656   307.4334
L   350.8797   303.5188
M   349.8670   296.7533
M   349.3898   293.5223
L   348.7251   289.0219
L   347.6662   282.1535
L   347.3133   279.8161
L   346.5659   275.2132
L   346.5451   274.8896
"/>
<path stroke-width="0.4252" stroke="#000000" fill="none" d="
"/>
M   430.8903   324.9063
<text x="430.8903" y="324.9063" transform="rotate(57.5511,430.8903,324.9063)"  font-family="'Arial'" font-size="5.8316" style="fill: #000000; stroke: none">*LIQUID</text>
<path stroke-width="0.4252" stroke="#000000" fill="none" d="
"/>
M   437.0159   310.1941
<text x="437.0159" y="310.1941" transform="rotate(77.7837,437.0159,310.1941)"  font-family="'Arial'" font-size="5.8316" style="fill: #000000; stroke: none">*LIQUID</text>
M   443.0396   331.8148
<text x="443.0396" y="331.8148" transform="rotate(38.7189,443.0396,331.8148)"  font-family="'Arial'" font-size="5.8316" style="fill: #000000; stroke: none">ps-Woll</text>
<path stroke-width="0.4252" stroke="#000000" fill="none" d="
M   472.4433   346.8097
L   469.9103   346.5940
L   458.9275   344.2566
L   451.8478   341.0561
L   444.5812   335.2306
L   444.3944   335.0508
L   438.9756   326.5282
L   438.6642   325.8450
L   436.6711   316.6392
L   437.0655   311.4250
L   438.3320   307.4334
L   442.5051   302.0035
L   444.7266   300.5291
L   445.6608   299.9897
"/>
<path stroke-width="0.4252" stroke="#000000" fill="none" d="
M   472.6301   346.5580
L   472.6093   346.5220
L   471.3014   344.2566
L   471.2806   344.2206
L   460.6714   325.8450
L   460.6507   325.8090
L   450.0415   307.4334
L   450.0208   307.3975
L   447.3840   302.8305
L   447.3633   302.7946
L   446.0553   300.5291
L   446.0345   300.4931
"/>
<path stroke-width="0.4252" stroke="#000000" fill="none" d="
M   445.7231   299.9537
L   445.7024   299.9178
L   445.3909   299.3784
L   445.3702   299.3424
L   444.7266   298.2276
L   444.7058   298.1917
L   439.4116   289.0219
L   439.3908   288.9859
L   434.0966   279.8161
L   434.0759   279.7801
L   432.7679   277.5146
L   432.7471   277.4787
L   432.4357   276.9393
L   432.4150   276.9033
"/>
<path stroke-width="0.4252" stroke="#000000" fill="none" d="
"/>
M   334.1714   221.0041
<text x="334.1714" y="221.0041" transform="rotate(84.2780,334.1714,221.0041)"  font-family="'Arial'" font-size="5.8316" style="fill: #000000; stroke: none">*LIQUID</text>
M   336.6069   244.3759
<text x="336.6069" y="244.3759" transform="rotate(83.4756,336.6069,244.3759)"  font-family="'Arial'" font-size="5.8316" style="fill: #000000; stroke: none">Cor</text>
<path stroke-width="0.4252" stroke="#000000" fill="none" d="
"/>
M   342.1944   225.8740
<text x="342.1944" y="225.8740" transform="rotate(83.4756,342.1944,225.8740)"  font-family="'Arial'" font-size="5.8316" style="fill: #000000; stroke: none">*LIQUID</text>
<path stroke-width="0.4252" stroke="#000000" fill="none" d="
M   346.4828   274.6378
L   346.3998   274.0625
L   346.2960   273.0196
L   346.2337   272.9117
L   346.0053   271.2216
L   345.9015   270.6103
L   345.5070   267.4818
L   343.4932   252.1987
L   341.7700   237.1315
L   339.5900   215.3756
L   338.8426   206.1698
L   338.7803   205.4866
L   338.0952   196.9640
L   336.8495   178.5525
L   336.4550   172.6910
"/>
<path stroke-width="0.4252" stroke="#000000" fill="none" d="
"/>
M   375.8313   249.8881
<text x="375.8313" y="249.8881" transform="rotate(35.0231,375.8313,249.8881)"  font-family="'Arial'" font-size="5.8316" style="fill: #000000; stroke: none">*LIQUID</text>
<path stroke-width="0.4252" stroke="#000000" fill="none" d="
"/>
M   372.3989   238.1367
<text x="372.3989" y="238.1367" transform="rotate(35.0231,372.3989,238.1367)"  font-family="'Arial'" font-size="5.8316" style="fill: #000000; stroke: none">*LIQUID</text>
M   391.4443   251.5641
<text x="391.4443" y="251.5641" transform="rotate(31.0336,391.4443,251.5641)"  font-family="'Arial'" font-size="5.8316" style="fill: #000000; stroke: none">b-Crist</text>
<path stroke-width="0.4252" stroke="#000000" fill="none" d="
M   431.8336   276.7595
L   431.1070   276.3639
L   430.8371   276.1841
L   428.8647   275.2132
L   426.7263   274.0984
L   420.3110   270.6103
L   410.6568   265.1084
L   394.8780   255.6149
L   389.5008   252.1987
L   379.5975   245.2584
L   367.6596   233.7872
L   366.1025   231.8094
L   361.6803   224.5814
L   360.7460   222.6755
L   360.6007   222.2799
L   360.1647   221.3809
L   360.1024   221.1292
"/>
<path stroke-width="0.4252" stroke="#000000" fill="none" d="
M   432.1035   276.3639
L   432.0828   276.3280
L   431.4392   275.2132
L   431.4184   275.1772
L   428.7817   270.6103
L   428.7609   270.5743
L   418.1518   252.1987
L   418.1310   252.1628
L   396.8919   215.3756
L   396.8712   215.3397
L   375.6321   178.5525
L   375.6113   178.5165
L   365.0022   160.1409
L   364.9814   160.1050
L   359.6872   150.9351
L   359.6664   150.8992
L   358.3585   148.6337
L   358.3377   148.5977
L   357.0297   146.3322
L   357.0090   146.2963
L   356.3653   145.1815
L   356.3446   145.1456
L   355.7010   144.0308
L   355.6802   143.9948
L   355.3688   143.4554
L   355.3480   143.4195
L   355.0366   142.8801
L   355.0158   142.8441
L   354.7044   142.3047
L   354.6837   142.2688
"/>
<path stroke-width="0.4252" stroke="#000000" fill="none" d="
M   359.7910   220.8775
L   359.3550   220.5539
L   359.3342   220.5179
L   358.6076   219.9785
L   357.5903   218.9357
L   353.9362   216.0589
L   353.0435   215.3756
L   347.4586   208.8668
L   345.4032   206.1698
L   343.2233   197.7911
L   343.1610   196.9640
L   345.4032   178.5525
L   346.6282   173.4821
L   347.7285   169.3467
L   347.7493   169.2388
L   348.0607   168.1960
"/>
<path stroke-width="0.4252" stroke="#000000" fill="none" d="
M   359.7910   219.7268
L   359.2720   217.6771
L   359.0436   216.4185
L   358.7737   215.3756
L   357.5488   209.8018
L   356.6975   206.1698
L   354.6214   196.9640
L   351.5694   183.3352
L   350.4691   178.5525
L   348.5798   170.1019
L   348.3929   169.3467
L   348.2060   168.4477
L   348.1438   168.1960
"/>
<path stroke-width="0.4252" stroke="#000000" fill="none" d="
"/>
M   353.2586   162.8914
<text x="353.2586" y="162.8914" transform="rotate(85.8722,353.2586,162.8914)"  font-family="'Arial'" font-size="6.9979" style="fill: #000000; stroke: none">41</text>
<path stroke-width="0.4252" stroke="#000000" fill="none" d="
M   359.8325   219.6549
L   359.8533   217.6771
L   359.6872   215.3756
L   359.0436   207.2127
L   358.9398   206.1698
L   358.2754   196.9640
L   356.9467   178.5525
L   356.6768   174.4890
L   356.4508   171.5440
M   356.2823   169.3467
M   355.7114   161.4355
L   355.6179   160.1409
L   355.4726   158.1631
L   355.4518   157.8395
L   355.2857   155.5380
L   355.1819   154.0637
L   355.1196   153.2366
L   355.0366   152.0859
L   355.0158   152.0499
L   354.9536   151.5105
L   354.9328   151.0430
"/>
<path stroke-width="0.4252" stroke="#000000" fill="none" d="
M   351.9639   151.5105
L   351.9016   151.6903
L   351.7978   152.0859
L   351.5487   153.2366
L   351.0504   155.5380
L   350.5729   157.4439
L   350.4691   157.8395
L   349.9708   160.1409
L   348.8912   164.7438
L   348.7874   165.1394
L   348.3099   167.0453
L   348.3306   167.0812
L   348.2268   167.6206
"/>
<path stroke-width="0.4252" stroke="#000000" fill="none" d="
M   354.1439   142.0530
L   354.1439   142.0247
"/>
<path stroke-width="0.4252" stroke="#000000" fill="none" d="
M   354.3722   141.7294
L   354.3722   141.7010
"/>
<path stroke-width="0.4252" stroke="#000000" fill="none" d="
M   345.0918   157.7316
L   345.9015   160.1409
L   346.9604   163.7010
L   347.2303   164.7438
L   347.7908   166.8655
L   347.8116   167.0453
L   347.9777   167.6206
L   347.9984   167.6566
"/>
<path stroke-width="0.4252" stroke="#000000" fill="none" d="
"/>
M   381.9308   412.3647
<text x="381.9308" y="412.3647" transform="rotate(18.2783,381.9308,412.3647)"  font-family="'Arial'" font-size="6.9979" style="fill: #000000; stroke: none">46</text>
<path stroke-width="0.4252" stroke="#000000" fill="none" d="
M   366.5800   404.6695
L   366.6008   404.7055
L   367.1821   404.8493
L   371.6666   406.2877
L   381.5197   409.5422
M   389.5216   412.1852
M   391.1463   412.7134
L   407.1066   417.9028
"/>
<path stroke-width="0.4252" stroke="#000000" fill="none" d="
M   407.4180   418.0107
L   407.4180   417.9823
"/>
<path stroke-width="0.4252" stroke="#000000" fill="none" d="
"/>
M   438.0420   458.6176
<text x="438.0420" y="458.6176" transform="rotate(63.3460,438.0420,458.6176)"  font-family="'Arial'" font-size="6.9979" style="fill: #000000; stroke: none">48</text>
<path stroke-width="0.4252" stroke="#000000" fill="none" d="
M   437.1694   438.6158
L   437.1486   440.1621
L   437.4185   445.5202
L   438.9964   454.7259
L   439.7498   456.3331
M   443.5639   463.9317
M   444.2906   464.6150
M   444.7761   465.0257
L   446.0761   466.1253
L   446.3044   466.2332
L   448.1937   467.0602
L   453.3426   467.3479
L   456.6229   466.2691
L   456.6852   466.2332
L   458.5330   465.2622
L   458.8444   465.0824
L   459.5296   464.6869
L   459.7579   464.5071
"/>
<path stroke-width="0.4252" stroke="#000000" fill="none" d="
M   513.3228   418.4782
L   513.5927   418.2265
"/>
<path stroke-width="0.4252" stroke="#000000" fill="none" d="
M   457.4326   471.9868
L   457.5780   471.5193
L   457.8479   470.8361
L   458.5953   468.5346
L   459.7787   465.4061
L   459.9240   465.0824
L   460.1732   464.5071
"/>
<path stroke-width="0.4252" stroke="#000000" fill="none" d="
M   475.6198   351.7363
L   475.5990   351.7003
L   475.2876   351.1609
L   475.2668   351.1249
L   473.9588   348.8594
L   473.9381   348.8235
L   473.2945   347.7087
L   473.2737   347.6728
L   472.9623   347.1334
L   472.9415   347.0974
"/>
<path stroke-width="0.4252" stroke="#000000" fill="none" d="
M   359.9156   220.6617
L   359.9363   220.5539
L   359.8533   219.9785
"/>
<path stroke-width="0.4252" stroke="#000000" fill="none" d="
M   354.6214   146.9076
L   354.6421   146.9436
L   354.7044   147.4830
L   354.7252   147.9505
L   354.7875   148.6337
L   354.8705   149.7844
L   354.8913   149.9642
L   354.8705   150.3598
"/>
<path stroke-width="0.4252" stroke="#000000" fill="none" d="
M   354.4553   144.6062
L   354.5176   144.8579
L   354.5383   145.1815
L   354.5383   145.7569
L   354.5591   145.9367
"/>
<path stroke-width="0.4252" stroke="#000000" fill="none" d="
M   352.2130   150.3598
L   352.3791   149.7844
L   352.3584   149.7485
L   352.6283   148.6337
L   352.8774   147.4830
L   353.0435   146.9076
"/>
<path stroke-width="0.4252" stroke="#000000" fill="none" d="
M   366.1440   404.3459
L   366.1440   404.3175
"/>
<path stroke-width="0.4252" stroke="#000000" fill="none" d="
M   354.3722   143.4554
L   354.4345   143.8510
"/>
<path stroke-width="0.4252" stroke="#000000" fill="none" d="
M   353.2719   145.8648
L   353.4587   145.1815
L   353.5418   144.6062
"/>
<path stroke-width="0.4252" stroke="#000000" fill="none" d="
M   354.3515   142.8441
L   354.3515   142.8158
"/>
<path stroke-width="0.4252" stroke="#000000" fill="none" d="
M   353.7286   143.9229
L   353.7909   143.4554
"/>

</g>

</svg>
